<svg width="47" height="9" viewBox="0 0 47 9" fill="none" xmlns="http://www.w3.org/2000/svg">
<path d="M3.12089 8.94449C2.4045 8.96501 1.70246 8.74107 1.13028 8.30951C0.590509 7.89747 0.229681 7.29381 0.122371 6.62328H1.63826C1.72712 6.93344 1.92002 7.20357 2.18454 7.38828C2.46324 7.57934 2.7952 7.67741 3.13298 7.66848C3.42758 7.67463 3.71842 7.60143 3.97501 7.45656C4.23161 7.31168 4.44451 7.10046 4.59142 6.84502C4.97802 6.14689 5.16002 5.35393 5.11654 4.55708H5.01575C4.82353 4.95204 4.51695 5.28005 4.13585 5.49846C3.73029 5.72601 3.27136 5.84118 2.80642 5.83208C2.43381 5.8433 2.0629 5.77748 1.7169 5.63874C1.3709 5.49999 1.05728 5.29131 0.795653 5.02576C0.532729 4.75859 0.32677 4.44084 0.19025 4.09175C0.0537307 3.74265 -0.0105079 3.36948 0.00142381 2.99483C-0.0112995 2.59349 0.0613696 2.19403 0.214623 1.82288C0.367876 1.45174 0.598217 1.11738 0.890395 0.841945C1.4248 0.379384 2.08832 0.0920105 2.7913 0.0186488C3.49427 -0.054713 4.20282 0.0894735 4.82122 0.431728C5.31546 0.733961 5.71468 1.16916 5.97326 1.68758C6.4032 2.5183 6.6115 3.44591 6.578 4.3807C6.64826 5.56992 6.3264 6.74934 5.66181 7.73803C5.36881 8.13111 4.98408 8.44656 4.54119 8.65684C4.09831 8.86713 3.6107 8.96588 3.12089 8.94449ZM1.96885 4.15694C2.1278 4.31353 2.31708 4.43597 2.52507 4.51674C2.73306 4.59751 2.95537 4.63491 3.17834 4.62663C3.40091 4.63378 3.62266 4.59616 3.83042 4.516C4.03819 4.43584 4.22774 4.31477 4.38782 4.15997C4.54513 4.00705 4.66885 3.82303 4.75111 3.61965C4.83336 3.41627 4.87235 3.19798 4.86557 2.9787C4.87088 2.75487 4.83075 2.53228 4.74759 2.32439C4.66444 2.11651 4.53999 1.92764 4.38178 1.76922C4.0619 1.46479 3.63597 1.29702 3.1944 1.30151C2.75284 1.306 2.33041 1.4824 2.01679 1.79327C1.70317 2.10414 1.52304 2.52499 1.51466 2.9665C1.50627 3.408 1.67029 3.8354 1.97188 4.15795L1.96885 4.15694Z" fill="#4A4B4D"/>
<path d="M8.30553 2.47069C8.30062 2.34078 8.32221 2.21122 8.369 2.08993C8.41578 1.96863 8.48678 1.85813 8.57766 1.76516C8.67315 1.67349 8.78626 1.60219 8.91014 1.55558C9.03403 1.50898 9.16609 1.48804 9.29832 1.49404C9.42928 1.48983 9.55975 1.51199 9.68198 1.5592C9.80421 1.60642 9.9157 1.67772 10.0098 1.76887C10.104 1.86003 10.1788 1.96917 10.2299 2.08982C10.281 2.21047 10.3074 2.34017 10.3074 2.4712C10.3074 2.60223 10.281 2.73192 10.2299 2.85257C10.1788 2.97322 10.104 3.08237 10.0098 3.17352C9.9157 3.26468 9.80421 3.33598 9.68198 3.38319C9.55975 3.43041 9.42928 3.45257 9.29832 3.44836C9.16609 3.45436 9.03403 3.43342 8.91014 3.38681C8.78626 3.34021 8.67315 3.2689 8.57766 3.17724C8.48631 3.0844 8.41502 2.97377 8.36821 2.85223C8.32139 2.73069 8.30006 2.60083 8.30553 2.47069ZM8.30553 6.92362C8.3002 6.79365 8.3216 6.66398 8.36841 6.54262C8.41522 6.42126 8.48644 6.3108 8.57766 6.21808C8.67301 6.12622 8.7861 6.05479 8.91002 6.00817C9.03393 5.96155 9.16607 5.94072 9.29832 5.94696C9.42928 5.94275 9.55975 5.96491 9.68198 6.01213C9.80421 6.05934 9.9157 6.13064 10.0098 6.2218C10.104 6.31295 10.1788 6.42209 10.2299 6.54274C10.281 6.6634 10.3074 6.79309 10.3074 6.92412C10.3074 7.05515 10.281 7.18485 10.2299 7.3055C10.1788 7.42615 10.104 7.53529 10.0098 7.62644C9.9157 7.7176 9.80421 7.7889 9.68198 7.83611C9.55975 7.88333 9.42928 7.90549 9.29832 7.90128C9.166 7.90733 9.03385 7.88631 8.90993 7.83952C8.78602 7.79272 8.67296 7.72114 8.57766 7.62915C8.48673 7.53622 8.4157 7.42572 8.36891 7.30442C8.32212 7.18311 8.30056 7.05354 8.30553 6.92362Z" fill="#4A4B4D"/>
<path d="M16.1723 8.74293V7.15447H12.0086V5.79581C12.702 4.51913 13.8598 2.66089 15.4818 0.221094H17.6307V5.86536H18.7827V7.15346H17.6307V8.74293H16.1723ZM13.4207 5.81396V5.90265H16.1954V1.46082H16.1118C15.1912 2.82149 14.2942 4.27253 13.4207 5.81396Z" fill="#4A4B4D"/>
<path d="M22.2731 8.74293V1.75613H22.1723L20.0557 3.24481V1.78032L22.2822 0.221094H23.8001V8.74293H22.2731Z" fill="#4A4B4D"/>
<path d="M35.0997 8.74293L34.3801 6.56384H31.2435L30.5117 8.74293H28.9696L31.9933 0.221094H33.7068L36.7355 8.74293H35.0997ZM32.7674 1.84483L31.5982 5.35939H34.0253L32.8682 1.84483H32.7674Z" fill="#4A4B4D"/>
<path d="M39.6181 8.74287H38.201V0.221042H39.984L42.5471 6.42469H42.6529L45.216 0.218018H47V8.74287H45.5829V2.74887H45.5003L43.1438 8.41228H42.0573L39.6967 2.74887H39.6141L39.6181 8.74287Z" fill="#4A4B4D"/>
</svg>
