<svg width="14" height="18" viewBox="0 0 14 18" fill="none" xmlns="http://www.w3.org/2000/svg">
<path d="M6.85008 8.80505C8.8517 8.80505 10.48 6.83454 10.48 4.40252C10.48 1.9705 9.9417 0 6.85008 0C3.75846 0 3.2202 1.9705 3.2202 4.40252C3.2202 6.83454 4.84846 8.80505 6.85008 8.80505Z" fill="#B6B7B7"/>
<path d="M13.6857 15.3501C13.6183 11.1146 13.0634 9.90741 8.83201 9.14306C8.28652 9.63218 7.57965 9.90269 6.84699 9.90269C6.11432 9.90269 5.40745 9.63218 4.86196 9.14306C0.675157 9.89911 0.0912677 11.0876 0.0103733 15.2122C0.00415065 15.5493 0.00103711 15.5669 0 15.5233C0 15.597 0 15.7308 0 15.9683C0 15.9683 1.00807 18 6.84491 18C12.6818 18 13.6898 15.9683 13.6898 15.9683C13.6898 15.8168 13.6898 15.7111 13.6898 15.6395C13.6833 15.5432 13.6819 15.4466 13.6857 15.3501Z" fill="#B6B7B7"/>
</svg>
