<svg width="11" height="11" viewBox="0 0 11 11" fill="none" xmlns="http://www.w3.org/2000/svg">
<path d="M0 10.9929L1.19714 10.8373L0.157652 9.80087L0 10.9929Z" fill="#E71989"/>
<path d="M0.341777 8.39311L0.218706 9.33394L1.66606 10.7813L2.60688 10.6582L9.01469 4.25042L6.74958 1.9853L0.341777 8.39311Z" fill="#E71989"/>
<path d="M9.18656 0.113925C9.14992 0.0774886 9.10645 0.0486641 9.05862 0.0291128C9.01079 0.00956147 8.95956 -0.000330038 8.90789 8.40001e-06C8.79558 0.000473826 8.68803 0.0454649 8.60885 0.125113L7.06285 1.67112L9.32795 3.93623L10.8739 2.39022C10.9128 2.35314 10.944 2.30873 10.9656 2.25955C10.9872 2.21038 10.9989 2.1574 10.9999 2.10369C11.001 2.04998 10.9914 1.9966 10.9717 1.94662C10.952 1.89664 10.9226 1.85106 10.8852 1.8125L9.18656 0.113925Z" fill="#E71989"/>
</svg>
