<svg width="28" height="28" viewBox="0 0 28 28" fill="none" xmlns="http://www.w3.org/2000/svg">
<path d="M16 17H22V19H16V17ZM16 13H28V15H16V13ZM16 9H28V11H16V9ZM12 19V17H7V15H5V17H0V19H8.215C7.84743 20.5008 7.08188 21.8747 5.999 22.977C5.43135 22.3849 4.94477 21.7201 4.552 21H2.333C2.84126 22.2205 3.56819 23.3378 4.478 24.297C3.40607 25.0604 2.23622 25.6759 1 26.127L1.702 28C3.24047 27.4396 4.68647 26.6522 5.992 25.664C7.30331 26.6528 8.755 27.4402 10.299 28L11 26.127C9.76431 25.6767 8.59483 25.0622 7.523 24.3C8.93457 22.8405 9.8839 20.9968 10.252 19H12ZM9.167 11H11.333L6.75 0H4.583L0 11H2.166L3 9H8.333L9.167 11ZM3.833 7L5.666 2.6L7.5 7H3.833Z" fill="black"/>
</svg>
