<svg width="267" height="36" viewBox="0 0 267 36" fill="none" xmlns="http://www.w3.org/2000/svg">
<path d="M8.30975 35.5758C7.90299 35.5758 7.49906 35.4489 7.15433 35.1997C6.51217 34.7343 6.2122 33.9345 6.38697 33.1627L8.77544 22.6425L0.675281 15.5396C0.0798646 15.0199 -0.147595 14.1968 0.0968604 13.4437C0.341315 12.692 1.00641 12.1598 1.79388 12.087L12.5114 11.1141L16.7487 1.19893C17.0611 0.470451 17.7727 0 18.5633 0C19.3539 0 20.0654 0.470451 20.3778 1.19723L24.6152 11.1141L35.331 12.087C36.1201 12.1581 36.7852 12.692 37.0297 13.4437C37.2741 14.1954 37.0481 15.0199 36.4527 15.5396L28.3525 22.6411L30.741 33.161C30.916 33.9345 30.6158 34.7343 29.9739 35.1983C29.3335 35.6622 28.4794 35.6979 27.805 35.2926L18.5633 29.7704L9.32157 35.2957C9.00913 35.4812 8.661 35.5758 8.30975 35.5758ZM18.5633 27.3915C18.9145 27.3915 19.2624 27.4858 19.5751 27.6713L28.297 32.8874L26.0428 22.9581C25.8819 22.2514 26.1218 21.5136 26.668 21.0355L34.3163 14.3285L24.1973 13.4097C23.4688 13.3431 22.8422 12.8851 22.5575 12.2139L18.5633 2.85698L14.5642 12.2153C14.2826 12.882 13.656 13.34 12.9292 13.4066L2.80881 14.3254L10.4569 21.0323C11.0047 21.5119 11.2443 22.2483 11.082 22.9566L8.82954 32.8857L17.5515 27.6713C17.8639 27.4858 18.212 27.3915 18.5633 27.3915ZM12.4295 11.3058C12.4295 11.3058 12.4295 11.3075 12.4278 11.3089L12.4295 11.3058ZM24.6939 11.3013L24.6956 11.3044C24.6956 11.3027 24.6956 11.3027 24.6939 11.3013Z" fill="black"/>
<path d="M65.7784 35.5758C65.3716 35.5758 64.9677 35.4489 64.623 35.1997C63.9808 34.7343 63.6808 33.9345 63.8556 33.1627L66.2441 22.6425L58.1439 15.5396C57.5485 15.0199 57.321 14.1968 57.5655 13.4437C57.81 12.692 58.475 12.1598 59.2625 12.087L69.98 11.1141L74.2173 1.19893C74.5298 0.470451 75.2413 0 76.0319 0C76.8225 0 77.534 0.470451 77.8465 1.19723L82.0838 11.1141L92.7996 12.087C93.5888 12.1581 94.2539 12.692 94.4983 13.4437C94.7428 14.1954 94.5167 15.0199 93.9213 15.5396L85.8212 22.6411L88.2096 33.161C88.3847 33.9345 88.0844 34.7343 87.4425 35.1983C86.8021 35.6622 85.9481 35.6979 85.2736 35.2926L76.0319 29.7704L66.7902 35.2957C66.4778 35.4812 66.1296 35.5758 65.7784 35.5758ZM76.0319 27.3915C76.3831 27.3915 76.731 27.4858 77.0437 27.6713L85.7656 32.8874L83.5114 22.9581C83.3505 22.2514 83.5905 21.5136 84.1366 21.0355L91.7849 14.3285L81.666 13.4097C80.9374 13.3431 80.3109 12.8851 80.0262 12.2139L76.0319 2.85698L72.0328 12.2153C71.7513 12.882 71.1247 13.34 70.3978 13.4066L60.2774 14.3254L67.9255 21.0323C68.4733 21.5119 68.713 22.2483 68.5507 22.9566L66.2982 32.8857L75.0201 27.6713C75.3325 27.4858 75.6807 27.3915 76.0319 27.3915ZM69.8982 11.3058C69.8982 11.3058 69.8982 11.3075 69.8965 11.3089L69.8982 11.3058ZM82.1625 11.3013L82.1642 11.3044C82.1642 11.3027 82.1642 11.3027 82.1625 11.3013Z" fill="black"/>
<path d="M123.247 35.5758C122.84 35.5758 122.436 35.4489 122.092 35.1997C121.449 34.7343 121.149 33.9345 121.324 33.1627L123.713 22.6425L115.613 15.5396C115.017 15.0199 114.79 14.1968 115.034 13.4437C115.279 12.692 115.944 12.1598 116.731 12.087L127.449 11.1141L131.686 1.19893C131.998 0.470451 132.71 0 133.501 0C134.291 0 135.003 0.470451 135.315 1.19723L139.552 11.1141L150.268 12.087C151.057 12.1581 151.722 12.692 151.967 13.4437C152.211 14.1954 151.985 15.0199 151.39 15.5396L143.29 22.6411L145.678 33.161C145.853 33.9345 145.553 34.7343 144.911 35.1983C144.271 35.6622 143.417 35.6979 142.742 35.2926L133.501 29.7704L124.259 35.2957C123.946 35.4812 123.598 35.5758 123.247 35.5758ZM133.501 27.3915C133.852 27.3915 134.2 27.4858 134.512 27.6713L143.234 32.8874L140.98 22.9581C140.819 22.2514 141.059 21.5136 141.605 21.0355L149.254 14.3285L139.135 13.4097C138.406 13.3431 137.779 12.8851 137.495 12.2139L133.501 2.85698L129.501 12.2153C129.22 12.882 128.593 13.34 127.866 13.4066L117.746 14.3254L125.394 21.0323C125.942 21.5119 126.182 22.2483 126.019 22.9566L123.767 32.8857L132.489 27.6713C132.801 27.4858 133.149 27.3915 133.501 27.3915ZM127.367 11.3058C127.367 11.3058 127.367 11.3075 127.365 11.3089L127.367 11.3058ZM139.631 11.3013L139.633 11.3044C139.633 11.3027 139.633 11.3027 139.631 11.3013Z" fill="black"/>
<path d="M180.714 35.5758C180.308 35.5758 179.904 35.4489 179.559 35.1997C178.917 34.7343 178.617 33.9345 178.792 33.1627L181.18 22.6425L173.08 15.5396C172.485 15.0199 172.257 14.1968 172.502 13.4437C172.746 12.692 173.411 12.1598 174.199 12.087L184.916 11.1141L189.153 1.19893C189.466 0.470451 190.177 0 190.968 0C191.759 0 192.47 0.470451 192.783 1.19723L197.02 11.1141L207.736 12.087C208.525 12.1581 209.19 12.692 209.434 13.4437C209.679 14.1954 209.453 15.0199 208.857 15.5396L200.757 22.6411L203.146 33.161C203.321 33.9345 203.02 34.7343 202.379 35.1983C201.738 35.6622 200.884 35.6979 200.21 35.2926L190.968 29.7704L181.726 35.2957C181.414 35.4812 181.066 35.5758 180.714 35.5758ZM190.968 27.3915C191.319 27.3915 191.667 27.4858 191.98 27.6713L200.702 32.8874L198.447 22.9581C198.287 22.2514 198.527 21.5136 199.073 21.0355L206.721 14.3285L196.602 13.4097C195.873 13.3431 195.247 12.8851 194.962 12.2139L190.968 2.85698L186.969 12.2153C186.687 12.882 186.061 13.34 185.334 13.4066L175.213 14.3254L182.862 21.0323C183.409 21.5119 183.649 22.2483 183.487 22.9566L181.234 32.8857L189.956 27.6713C190.269 27.4858 190.617 27.3915 190.968 27.3915ZM184.834 11.3058C184.834 11.3058 184.834 11.3075 184.833 11.3089L184.834 11.3058ZM197.099 11.3013L197.1 11.3044C197.1 11.3027 197.1 11.3027 197.099 11.3013Z" fill="black"/>
<path d="M238.183 35.5758C237.776 35.5758 237.372 35.4489 237.028 35.1997C236.385 34.7343 236.086 33.9345 236.26 33.1627L238.649 22.6425L230.549 15.5396C229.953 15.0199 229.726 14.1968 229.97 13.4437C230.215 12.692 230.88 12.1598 231.667 12.087L242.385 11.1141L246.622 1.19893C246.934 0.470451 247.646 0 248.437 0C249.227 0 249.939 0.470451 250.251 1.19723L254.488 11.1141L265.204 12.087C265.993 12.1581 266.659 12.692 266.903 13.4437C267.147 14.1954 266.921 15.0199 266.326 15.5396L258.226 22.6411L260.614 33.161C260.789 33.9345 260.489 34.7343 259.847 35.1983C259.207 35.6622 258.353 35.6979 257.678 35.2926L248.437 29.7704L239.195 35.2957C238.882 35.4812 238.534 35.5758 238.183 35.5758ZM248.437 27.3915C248.788 27.3915 249.136 27.4858 249.448 27.6713L258.17 32.8874L255.916 22.9581C255.755 22.2514 255.995 21.5136 256.541 21.0355L264.19 14.3285L254.071 13.4097C253.342 13.3431 252.716 12.8851 252.431 12.2139L248.437 2.85698L244.438 12.2153C244.156 12.882 243.529 13.34 242.803 13.4066L232.682 14.3254L240.33 21.0323C240.878 21.5119 241.118 22.2483 240.955 22.9566L238.703 32.8857L247.425 27.6713C247.737 27.4858 248.085 27.3915 248.437 27.3915ZM242.303 11.3058C242.303 11.3058 242.303 11.3075 242.301 11.3089L242.303 11.3058ZM254.567 11.3013L254.569 11.3044C254.569 11.3027 254.569 11.3027 254.567 11.3013Z" fill="black"/>
</svg>
