<svg width="363" height="42" viewBox="0 0 363 42" fill="none" xmlns="http://www.w3.org/2000/svg">
<g clip-path="url(#clip0_83_119)" filter="url(#filter0_b_83_119)">
<path opacity="0.35" d="M343.364 10.2008C343.364 9.59048 343.858 9.09572 344.469 9.09572H352.969C353.58 9.09572 354.074 9.59048 354.074 10.2008V13.261C354.074 13.8713 353.58 14.3661 352.969 14.3661H344.469C343.858 14.3661 343.364 13.8713 343.364 13.261V10.2008Z" stroke="black" stroke-width="0.510035"/>
<path opacity="0.4" d="M354.839 10.7108V12.751C355.25 12.5782 355.517 12.1762 355.517 11.7309C355.517 11.2856 355.25 10.8836 354.839 10.7108Z" fill="black"/>
<path d="M344.129 10.5408C344.129 10.1652 344.433 9.86072 344.809 9.86072H352.629C353.005 9.86072 353.309 10.1652 353.309 10.5408V12.9209C353.309 13.2965 353.005 13.601 352.629 13.601H344.809C344.433 13.601 344.129 13.2965 344.129 12.9209V10.5408Z" fill="black"/>
<path fill-rule="evenodd" clip-rule="evenodd" d="M336.647 10.0009C337.777 10.0009 338.864 10.4352 339.683 11.2139C339.745 11.274 339.843 11.2733 339.904 11.2122L340.494 10.6172C340.525 10.5862 340.542 10.5442 340.541 10.5006C340.541 10.4569 340.524 10.4152 340.492 10.3846C338.343 8.32428 334.951 8.32428 332.801 10.3846C332.77 10.4152 332.752 10.4569 332.752 10.5006C332.752 10.5442 332.769 10.5862 332.8 10.6172L333.389 11.2122C333.45 11.2734 333.549 11.2741 333.61 11.2139C334.43 10.4351 335.517 10.0009 336.647 10.0009ZM336.647 11.9367C337.268 11.9367 337.867 12.1675 338.327 12.5843C338.389 12.6435 338.487 12.6422 338.548 12.5814L339.137 11.9864C339.168 11.9552 339.185 11.9128 339.185 11.8688C339.184 11.8248 339.166 11.7829 339.135 11.7523C337.733 10.4484 335.562 10.4484 334.16 11.7523C334.129 11.7829 334.111 11.8249 334.11 11.8689C334.11 11.9129 334.127 11.9552 334.158 11.9864L334.747 12.5814C334.808 12.6422 334.906 12.6435 334.968 12.5843C335.428 12.1678 336.026 11.937 336.647 11.9367ZM337.827 13.2393C337.827 13.2834 337.81 13.3259 337.779 13.3569L336.76 14.3849C336.73 14.4151 336.689 14.4321 336.647 14.4321C336.604 14.4321 336.564 14.4151 336.534 14.3849L335.515 13.3569C335.483 13.3259 335.466 13.2834 335.467 13.2392C335.468 13.1951 335.487 13.1533 335.52 13.1238C336.17 12.5735 337.123 12.5735 337.774 13.1238C337.807 13.1534 337.826 13.1952 337.827 13.2393Z" fill="black"/>
<path fill-rule="evenodd" clip-rule="evenodd" d="M329.678 9.0105H329.168C328.886 9.0105 328.658 9.23885 328.658 9.52053V13.9408C328.658 14.2225 328.886 14.4509 329.168 14.4509H329.678C329.96 14.4509 330.188 14.2225 330.188 13.9408V9.52053C330.188 9.23885 329.96 9.0105 329.678 9.0105ZM326.788 10.2007H327.298C327.579 10.2007 327.808 10.429 327.808 10.7107V13.9409C327.808 14.2226 327.579 14.451 327.298 14.451H326.788C326.506 14.451 326.278 14.2226 326.278 13.9409V10.7107C326.278 10.429 326.506 10.2007 326.788 10.2007ZM324.918 11.3907H324.408C324.126 11.3907 323.898 11.6191 323.898 11.9007V13.9409C323.898 14.2226 324.126 14.4509 324.408 14.4509H324.918C325.199 14.4509 325.428 14.2226 325.428 13.9409V11.9007C325.428 11.6191 325.199 11.3907 324.918 11.3907ZM322.537 12.4108H322.027C321.746 12.4108 321.517 12.6391 321.517 12.9208V13.9409C321.517 14.2226 321.746 14.4509 322.027 14.4509H322.537C322.819 14.4509 323.047 14.2226 323.047 13.9409V12.9208C323.047 12.6391 322.819 12.4108 322.537 12.4108Z" fill="black"/>
<path d="M19.0349 14.4117C20.4059 14.4117 21.2202 13.3396 21.2202 11.5241C21.2202 10.8405 21.0895 10.2652 20.8392 9.82063C20.4768 9.12954 19.853 8.75598 19.0648 8.75598C17.8918 8.75598 17.0625 9.54419 17.0625 10.6499C17.0625 11.6884 17.8096 12.443 18.8369 12.443C19.4682 12.443 19.98 12.1479 20.234 11.6361H20.2452C20.2452 11.6361 20.2602 11.6361 20.2639 11.6361C20.2714 11.6361 20.2975 11.6361 20.2975 11.6361C20.2975 12.8689 19.8306 13.6048 19.0424 13.6048C18.5792 13.6048 18.2205 13.3508 18.0973 12.9436H17.1372C17.2978 13.8289 18.0487 14.4117 19.0349 14.4117ZM19.0685 11.6772C18.4484 11.6772 18.0076 11.2364 18.0076 10.6201C18.0076 10.0186 18.4708 9.55914 19.0723 9.55914C19.6737 9.55914 20.1369 10.0261 20.1369 10.635C20.1369 11.2364 19.6849 11.6772 19.0685 11.6772Z" fill="black"/>
<path d="M22.7968 14.3594C23.1517 14.3594 23.3945 14.1054 23.3945 13.7692C23.3945 13.4292 23.1517 13.1789 22.7968 13.1789C22.4457 13.1789 22.1991 13.4292 22.1991 13.7692C22.1991 14.1054 22.4457 14.3594 22.7968 14.3594ZM22.7968 11.5577C23.1517 11.5577 23.3945 11.3074 23.3945 10.9712C23.3945 10.6313 23.1517 10.381 22.7968 10.381C22.4457 10.381 22.1991 10.6313 22.1991 10.9712C22.1991 11.3074 22.4457 11.5577 22.7968 11.5577Z" fill="black"/>
<path d="M26.8912 14.2809H27.8139V13.2761H28.5423V12.4617H27.8139V8.89046H26.4541C25.5015 10.3249 24.7432 11.5241 24.2576 12.4169V13.2761H26.8912V14.2809ZM25.1504 12.4281C25.778 11.3223 26.3383 10.437 26.8538 9.67494H26.9061V12.4841H25.1504V12.4281Z" fill="black"/>
<path d="M30.5971 14.2809H31.5608V8.89046H30.6008L29.1925 9.87666V10.8031L30.5336 9.86172H30.5971V14.2809Z" fill="black"/>
</g>
<defs>
<filter id="filter0_b_83_119" x="-2.04014" y="-2.04014" width="367.08" height="45.3303" filterUnits="userSpaceOnUse" color-interpolation-filters="sRGB">
<feFlood flood-opacity="0" result="BackgroundImageFix"/>
<feGaussianBlur in="BackgroundImageFix" stdDeviation="1.02007"/>
<feComposite in2="SourceAlpha" operator="in" result="effect1_backgroundBlur_83_119"/>
<feBlend mode="normal" in="SourceGraphic" in2="effect1_backgroundBlur_83_119" result="shape"/>
</filter>
<clipPath id="clip0_83_119">
<rect width="363" height="41.25" fill="white"/>
</clipPath>
</defs>
</svg>
