<svg width="29" height="29" viewBox="0 0 29 29" fill="none" xmlns="http://www.w3.org/2000/svg">
<path d="M28.7322 6.59258C28.626 6.46202 28.4921 6.35678 28.3402 6.28449C28.1883 6.21219 28.0222 6.17468 27.854 6.17466H7.34427L7.26122 5.40115V5.37671C7.06263 3.89034 6.33214 2.52641 5.20515 1.53775C4.07816 0.549086 2.63111 0.0027457 1.13224 0C0.831949 0 0.54396 0.119346 0.331625 0.331782C0.119289 0.544218 0 0.832344 0 1.13277C0 1.4332 0.119289 1.72133 0.331625 1.93377C0.54396 2.1462 0.831949 2.26555 1.13224 2.26555C2.07881 2.26862 2.99238 2.61389 3.70457 3.23772C4.41677 3.86155 4.87959 4.7219 5.00774 5.66021L6.35128 18.0303C5.75639 18.3001 5.25174 18.7356 4.89762 19.2847C4.54349 19.8338 4.35487 20.4733 4.35429 21.1268C4.35429 21.1366 4.35429 21.1451 4.35429 21.1549C4.35429 21.1647 4.35429 21.1732 4.35429 21.183C4.35526 22.0848 4.71411 22.9494 5.35196 23.5866C5.98982 24.2239 6.85447 24.5816 7.75589 24.5813H8.21635C8.04547 25.0843 7.9969 25.6208 8.07465 26.1463C8.1524 26.6718 8.35424 27.1712 8.66344 27.603C8.97264 28.0349 9.38028 28.3868 9.85257 28.6296C10.3249 28.8724 10.8482 28.999 11.3792 28.999C11.9101 28.999 12.4335 28.8724 12.9058 28.6296C13.3781 28.3868 13.7857 28.0349 14.0949 27.603C14.4041 27.1712 14.6059 26.6718 14.6837 26.1463C14.7614 25.6208 14.7129 25.0843 14.542 24.5813H19.4276C19.1997 25.2514 19.1903 25.9765 19.4008 26.6522C19.6113 27.3279 20.0307 27.9194 20.5987 28.3413C21.1667 28.7632 21.8539 28.9938 22.5613 28.9999C23.2687 29.006 23.9598 28.7872 24.535 28.3751C25.1101 27.9631 25.5397 27.3789 25.7617 26.7069C25.9838 26.0349 25.9869 25.3098 25.7706 24.6359C25.5542 23.962 25.1297 23.3743 24.558 22.9573C23.9864 22.5404 23.2972 22.3157 22.5898 22.3158H7.75589C7.4557 22.3155 7.1679 22.196 6.95563 21.9836C6.74337 21.7713 6.62397 21.4833 6.62365 21.183C6.62365 21.1732 6.62365 21.1647 6.62365 21.1549C6.62365 21.1451 6.62365 21.1366 6.62365 21.1268C6.62397 20.8265 6.74337 20.5385 6.95563 20.3262C7.1679 20.1138 7.4557 19.9943 7.75589 19.994H22.2111C23.2173 19.9788 24.1973 19.6711 25.0317 19.1082C25.866 18.5454 26.5186 17.7518 26.9099 16.8242C27.0305 16.5487 27.0369 16.2366 26.9275 15.9564C26.8181 15.6763 26.602 15.4511 26.3267 15.3303C26.0513 15.2096 25.7393 15.2033 25.4593 15.3127C25.1793 15.4221 24.9542 15.6384 24.8335 15.9138C24.6147 16.4357 24.2512 16.8839 23.7858 17.2055C23.3204 17.527 22.7727 17.7085 22.2075 17.7285H8.60232L7.59222 8.44143H26.4604L25.9059 11.0992C25.8755 11.2449 25.8741 11.3951 25.9017 11.5412C25.9293 11.6874 25.9854 11.8267 26.0669 11.9512C26.1483 12.0757 26.2534 12.1829 26.3763 12.2667C26.4991 12.3505 26.6373 12.4093 26.7828 12.4397C26.9284 12.4702 27.0785 12.4716 27.2246 12.4439C27.3708 12.4163 27.51 12.3602 27.6344 12.2787C27.7588 12.1972 27.866 12.092 27.9498 11.9691C28.0336 11.8462 28.0923 11.708 28.1227 11.5624L28.9606 7.54083C28.9955 7.37573 28.9932 7.20491 28.9536 7.04085C28.9141 6.87679 28.8385 6.72363 28.7322 6.59258ZM22.5886 24.5825C22.8014 24.5825 23.0094 24.6457 23.1864 24.764C23.3633 24.8823 23.5013 25.0504 23.5827 25.2471C23.6641 25.4438 23.6855 25.6603 23.6439 25.8691C23.6024 26.078 23.4999 26.2698 23.3494 26.4204C23.199 26.5709 23.0072 26.6734 22.7985 26.715C22.5898 26.7565 22.3734 26.7352 22.1768 26.6537C21.9802 26.5722 21.8121 26.4343 21.6939 26.2572C21.5756 26.0802 21.5125 25.872 21.5125 25.6591C21.5125 25.3735 21.6258 25.0995 21.8276 24.8974C22.0294 24.6953 22.3031 24.5816 22.5886 24.5813V24.5825ZM11.3786 24.5825C11.5913 24.5823 11.7994 24.6452 11.9765 24.7632C12.1535 24.8813 12.2916 25.0492 12.3733 25.2457C12.455 25.4423 12.4767 25.6586 12.4355 25.8675C12.3943 26.0763 12.2922 26.2683 12.142 26.4191C11.9918 26.5698 11.8003 26.6727 11.5916 26.7146C11.383 26.7565 11.1667 26.7356 10.97 26.6545C10.7732 26.5735 10.6049 26.4359 10.4863 26.2591C10.3678 26.0824 10.3042 25.8744 10.3037 25.6616C10.3034 25.5199 10.331 25.3796 10.3849 25.2486C10.4388 25.1177 10.518 24.9986 10.618 24.8983C10.7179 24.798 10.8366 24.7183 10.9673 24.664C11.0981 24.6096 11.2382 24.5815 11.3798 24.5813L11.3786 24.5825Z" fill="#474747"/>
</svg>
