<svg width="43" height="39" viewBox="0 0 43 39" fill="none" xmlns="http://www.w3.org/2000/svg">
<path d="M42.7674 21.5363C41.6982 32.1391 32.1646 39.8907 21.4727 38.8215C17.196 38.376 13.3647 36.505 10.4244 33.832L0.712633 35.2576L5.52398 26.8823C4.36569 24.0311 3.8311 20.8235 4.1875 17.5269C5.25668 6.9241 14.7903 -0.82752 25.4822 0.241668C36.0849 1.39995 43.8365 10.9336 42.7674 21.5363Z" fill="white"/>
<path d="M42.7675 21.5365C42.322 25.1005 41.0746 28.5753 38.8472 31.3374C38.3126 32.0502 37.6889 32.6739 37.0652 33.3867C36.3524 34.0104 35.7287 34.6341 35.0159 35.0795C33.5903 36.1487 31.9865 37.0397 30.3828 37.6634C28.6899 38.3762 26.9079 38.7326 25.1259 38.9108C24.2349 38.9999 23.3439 38.9999 22.453 38.9999C21.562 38.9999 20.671 38.9108 19.78 38.7326C16.216 38.1089 12.9194 36.416 10.1573 34.0104L10.4246 34.0995L0.712795 35.6141L0 35.7032L0.356397 35.0795L5.16774 26.7042V27.0606C2.85117 21.5365 3.38577 14.9432 6.32603 9.77544C7.84072 7.19157 9.88999 4.96409 12.3848 3.27121C14.8795 1.57833 17.7307 0.598237 20.671 0.152742C23.6112 -0.203654 26.6406 0.0636378 29.4027 0.954628C32.1647 1.93472 34.7486 3.44941 36.887 5.49868C41.1637 9.59724 43.3912 15.7451 42.7675 21.5365ZM42.7675 21.5365C43.3912 15.656 41.1637 9.59723 36.887 5.58777C34.7486 3.5385 32.1647 2.02382 29.4027 1.22193C26.6406 0.330937 23.6112 0.152742 20.7601 0.598237C17.9089 1.04373 15.1468 2.11292 12.7412 3.7167C10.3355 5.40958 8.37531 7.54795 6.94973 10.0427C5.52414 12.5375 4.72225 15.3887 4.45495 18.2398C4.27675 21.091 4.72225 24.0313 5.79144 26.7042L5.88054 26.8824L5.79144 27.0606L0.89099 35.4359L0.534599 34.9014L10.2464 33.5649H10.4246L10.5137 33.654C13.0976 36.0596 16.3051 37.7525 19.78 38.4653C20.671 38.6435 21.562 38.7326 22.3639 38.8217C23.2548 38.9108 24.1458 38.8217 25.0368 38.8217C26.8188 38.6435 28.6008 38.3762 30.2046 37.6634C31.8974 37.0397 33.5012 36.2378 34.8377 35.1687C35.5505 34.6341 36.1742 34.0104 36.887 33.4758C37.5107 32.8521 38.1344 32.2284 38.669 31.5156C40.9855 28.5753 42.322 25.1005 42.7675 21.5365Z" fill="#263238"/>
<path d="M21.2058 30.6242L12.9196 22.2489L15.6816 19.4868L20.493 24.3873L30.5612 8.61676L33.8578 10.7551L21.2058 30.6242Z" fill="#E71989"/>
</svg>
