<svg width="21" height="16" viewBox="0 0 21 16" fill="none" xmlns="http://www.w3.org/2000/svg">
<path d="M9.63541 15.5392C9.73174 15.6813 9.86065 15.7975 10.011 15.8778C10.1614 15.9581 10.3287 16 10.4986 16C10.6684 16 10.8358 15.9581 10.9861 15.8778C11.1365 15.7975 11.2654 15.6813 11.3617 15.5392L20.8125 1.67349C20.9219 1.51356 20.986 1.32624 20.998 1.13188C21.0099 0.937514 20.9692 0.743547 20.8802 0.571048C20.7912 0.398548 20.6574 0.254114 20.4933 0.153438C20.3292 0.0527623 20.141 -0.000305413 19.9493 1.32221e-06H1.04784C0.856557 0.000803837 0.669112 0.054554 0.505659 0.155471C0.342206 0.256388 0.208929 0.400654 0.120161 0.572754C0.0313935 0.744855 -0.00950657 0.938278 0.00185948 1.13222C0.0132255 1.32617 0.0764276 1.5133 0.184669 1.67349L9.63541 15.5392Z" fill="#E71989"/>
</svg>
