<svg width="300" height="201" viewBox="0 0 300 201" fill="none" xmlns="http://www.w3.org/2000/svg">
<path d="M0.938622 198.031C0.414098 198.031 0 198.472 0 199.023C0 199.575 0.414098 200.016 0.938622 200.016H299.02C299.558 200.016 300 199.575 300 199.037V199.023C300 198.486 299.558 198.045 299.02 198.045H0.938622V198.031Z" fill="#184655"/>
<path d="M157.261 94.3095L155.632 91.9663H152.774C152.443 91.9663 152.264 91.5941 152.457 91.3323L154.196 89.058L153.313 86.3426C153.216 86.0394 153.506 85.7361 153.81 85.8464L156.501 86.7975L158.806 85.1159C159.069 84.9229 159.441 85.1159 159.428 85.4467L159.359 88.2999L161.678 89.9677C161.94 90.1607 161.871 90.5742 161.553 90.6569L158.82 91.4701L157.937 94.1855C157.854 94.5163 157.44 94.5852 157.261 94.3095Z" fill="#F47458"/>
<path d="M232.668 42.5934L234.172 39.1062L232.157 35.8946C231.922 35.5224 232.212 35.0538 232.654 35.0951L236.436 35.4535L238.879 32.5452C239.155 32.2144 239.694 32.3384 239.79 32.7657L240.618 36.4735L244.138 37.8932C244.539 38.0586 244.58 38.61 244.207 38.8305L240.936 40.7602L240.674 44.5507C240.646 44.978 240.135 45.1985 239.804 44.9091L236.947 42.4004L233.261 43.3239C232.861 43.4066 232.502 42.9794 232.668 42.5934Z" fill="#F7CC7F"/>
<path d="M35.8747 138.348L33.9422 134.654L29.8012 134.144C29.3319 134.089 29.1249 133.51 29.4561 133.179L32.3824 130.202L31.5818 126.108C31.4852 125.64 31.9683 125.281 32.3962 125.488L36.1369 127.335L39.781 125.309C40.1951 125.075 40.692 125.419 40.623 125.888L40.0156 130.009L43.0662 132.848C43.4112 133.165 43.2456 133.758 42.7763 133.827L38.6629 134.516L36.8961 138.293C36.7029 138.748 36.0955 138.762 35.8747 138.348Z" fill="#9BC1F9"/>
<path d="M256.796 49.5957L256.851 51.6219L253.607 52.0492L253.317 55.0127L250.943 55.7432L251.302 56.9424L254.477 55.9637L254.753 53.1657L258.135 52.7108L258.066 49.6784L256.796 49.5957Z" fill="#E81E87"/>
<path d="M77.174 28.9339C77.3534 27.6107 78.6234 26.6458 79.9485 26.8388C81.3288 27.0318 82.1156 28.1482 81.9914 29.5404C81.8395 30.9325 80.7767 31.8836 79.3135 31.7182C77.8504 31.5528 76.9946 30.3674 77.174 28.9339ZM78.4853 25.3088L79.1341 14.6679C79.1893 13.7857 79.9623 13.1379 80.8457 13.2344L81.9086 13.3584C82.7782 13.4549 83.3993 14.2681 83.2613 15.1365L81.5635 25.6534L78.4853 25.3088Z" fill="#F48C7F"/>
<path d="M70.4243 82.4556C70.4933 85.0882 71.1835 90.7533 77.1741 91.6906C80.8871 92.2695 85.6493 88.9339 85.3456 86.4804C85.0419 84.0269 84.3518 77.7967 80.473 76.3632C77.2293 75.1778 70.2586 76.57 70.4243 82.4556Z" fill="#184655"/>
<path d="M120.406 167.721C121.248 171.277 121.924 176.404 122.173 176.68C122.297 176.818 122.531 177.714 122.656 177.852C126.521 179.258 129.93 177.81 132.622 176.211C130.51 175.839 127.666 175.453 127.266 175.164C125.803 174.13 126.148 170.436 125.886 167.128C124.837 167.335 122.297 166.673 120.406 167.721Z" fill="#F7A491"/>
<path d="M122.09 176.487C122.117 177.893 123.015 180.884 123.304 180.884C123.636 180.884 135.258 179.878 136.362 178.1C137.025 177.025 135.23 176.749 132.622 176.239C129.916 177.824 122.407 177.37 122.09 176.487Z" fill="#E81E87"/>
<path d="M65.1928 175.646C62.5012 177.755 59.782 179.437 59.4369 179.589C59.2712 179.671 58.3464 179.658 58.167 179.74C55.779 183.09 56.2621 186.742 57.0765 189.761C58.0013 187.831 59.0918 185.13 59.5197 184.895C60.1961 184.509 62.6116 183.076 66.9597 181.312C65.4965 179.726 65.7036 177.755 65.1928 175.646Z" fill="#F7A491"/>
<path d="M71.3214 101.436L63.0118 116.529C63.0118 116.529 57.4491 123.517 54.5918 127.101C55.2129 128.107 55.8065 129.141 56.331 130.202C59.1745 127.79 65.2341 122.662 67.3874 119.823C70.576 115.633 76.3595 105.695 76.3595 105.695L71.3214 101.436Z" fill="#F7A491"/>
<path d="M93.4204 127.707L84.5312 140.801C84.5312 140.801 84.0204 139.919 87.209 141.091C90.3975 142.249 110.923 146.081 112.138 147.528C112.993 148.548 119.357 168.658 120.585 171.236C122.435 171.98 125.113 171.153 127.018 170.877C127.142 161.187 122.007 143.558 120.627 141.491C117.562 136.873 102.986 131.883 96.4158 129.085C95.3529 128.631 94.5247 128.217 94.014 127.983C93.6275 127.79 93.4204 127.707 93.4204 127.707Z" fill="#3C8F7C"/>
<path d="M59.2988 179.63C57.9323 179.271 55.1716 179.285 55.0888 179.561C55.006 179.878 52.8527 191.332 54.2882 192.862C55.144 193.786 55.8894 192.132 57.0903 189.761C56.2759 186.756 58.374 179.713 59.2988 179.63Z" fill="#E81E87"/>
<path d="M91.0877 136.928C91.1705 135.95 93.2686 130.202 94.014 127.969C94.0416 127.9 93.4895 126.604 92.8959 124.744L92.0401 124.881L79.4101 125.447C79.4101 125.447 74.3167 134.034 74.9103 137.976C75.7385 143.476 83.7029 163.048 82.4883 163.972C80.3073 165.64 69.5822 171.842 64.0747 175.522C64.4336 177.659 65.4136 180.622 66.7663 182.318C71.2524 180.76 90.6046 172.972 92.6061 166.99C94.3591 161.711 90.9497 138.596 91.0877 136.928Z" fill="#50BFA5"/>
<path d="M90.8807 88.6858C90.8807 88.6858 87.4023 94.1441 85.3456 94.3371L92.6061 101.036C92.6061 101.036 97.5477 93.6341 98.0722 92.366C98.0722 92.3798 93.5723 88.3688 90.8807 88.6858Z" fill="#F7CC7F"/>
<path d="M93.4204 121.67C93.0891 124.675 94.0277 127.969 94.0277 127.969C91.1152 128.589 80.7628 129.913 78.2368 126.839C78.1401 126.729 81.8256 120.264 81.3149 117.618C80.5695 113.717 77.3257 107.115 77.0635 106.756C76.608 106.163 74.9516 109.237 74.9516 109.237C73.0053 109.251 68.5607 104.744 68.5607 104.744C68.5607 104.744 73.1572 96.7492 74.4271 95.9911C75.697 95.233 86.146 94.1028 86.146 94.1028C86.919 94.0477 89.0171 95.8671 89.5969 96.446C96.1948 103.035 94.4142 112.463 93.4204 121.67Z" fill="#FAE0B2"/>
<path d="M80.2522 90.7532C80.2522 90.7532 81.3979 94.5161 81.3979 96.0461C81.4117 97.576 82.019 99.6574 85.2214 99.3404C88.4238 99.0233 85.8011 95.798 85.3456 94.3507C84.8901 92.9034 84.338 88.3135 84.338 88.3135L80.2522 90.7532Z" fill="#F7A491"/>
<path d="M84.6554 90.6017C84.476 89.3474 84.3518 88.2998 84.3518 88.2998L80.2522 90.7395C80.2522 90.7395 80.4869 91.5114 80.7353 92.49C82.6678 92.683 83.9515 91.856 84.6554 90.6017Z" fill="#F47458"/>
<path d="M76.9117 79.4094C76.9117 79.4094 75.2277 80.581 74.786 82.8001C74.3581 85.0193 75.6694 90.4914 80.4315 91.346C85.1937 92.2143 86.7396 87.6106 85.4421 84.275C84.1446 80.9393 81.6186 76.8043 76.9117 79.4094Z" fill="#F7A491"/>
<path d="M85.8976 82.8828C85.8976 83.8201 85.4697 84.5782 84.9175 84.5782C84.3792 84.5782 83.9237 83.8338 83.9237 82.8966C83.9237 81.9593 84.3516 81.2012 84.9037 81.2012C85.442 81.2012 85.8837 81.9593 85.8976 82.8828Z" fill="#F7A491"/>
<path d="M76.8703 87.528C77.4914 88.2723 77.588 89.2234 77.0911 89.6507C76.5804 90.078 75.6694 89.8023 75.0345 89.058C74.4133 88.3137 74.3167 87.3626 74.8136 86.9353C75.3243 86.508 76.2353 86.7837 76.8703 87.528Z" fill="#F7A491"/>
<path d="M72.0392 77.3143C72.2324 74.7643 74.0406 65.2536 68.2157 64.3577C62.3907 63.4618 61.1484 69.8022 57.9184 61.2564C54.9231 53.3308 46.0338 56.4046 45.6611 62.4142C44.8191 62.3453 43.9495 62.4693 43.1351 62.8139C40.2917 64.0131 39.008 67.4176 40.2779 70.4225C40.4849 70.9049 40.3607 71.3735 40.6644 71.7733C39.988 74.3921 40.4573 77.3832 42.4726 80.4294C48.0077 88.7409 53.5566 79.9883 57.2973 80.4569C61.038 80.9256 58.5948 83.8477 61.8386 86.122C65.0823 88.3963 67.6911 87.8036 72.964 81.5872L74.2615 79.878C74.2615 79.878 71.8459 79.878 72.0392 77.3143Z" fill="#184655"/>
<path d="M235.691 149.706C238.603 148.548 241.226 146.963 241.529 146.798C241.764 146.673 242.758 145.943 242.896 145.846C245.463 147.376 246.416 148.672 248.431 150.712C246.927 150.795 246.292 149.568 245.726 149.692C245.035 149.844 242.855 151.305 239.431 153.951C238.852 152.049 237.126 151.084 235.691 149.706Z" fill="#F8A492"/>
<path d="M194.391 179.575C195.054 182.648 196.269 185.364 196.407 185.681C196.476 185.832 196.931 185.943 197 186.108C195.068 188.382 194.226 192.173 191.865 193.841C192.031 192.352 193.039 189.554 193.011 188.961C192.97 188.258 191.893 185.86 189.85 182.056C191.851 181.794 192.804 180.76 194.391 179.575Z" fill="#F8A492"/>
<path d="M195.62 186.315C195.882 185.653 196.752 185.198 197.373 185.584C197.994 185.984 198.822 186.411 199.443 186.839C200.147 187.321 200.189 187.859 200.175 187.983C200.12 188.341 191.879 197.976 190.816 198.114C189.753 198.251 191.713 190.105 192.873 189.265C193.908 188.52 194.433 189.292 195.62 186.315Z" fill="#3C8F7C"/>
<path d="M242.661 146.811C242.054 146.439 241.764 145.488 242.261 144.95C242.758 144.413 243.338 143.669 243.876 143.131C244.483 142.538 245.022 142.58 245.132 142.621C245.477 142.731 253.483 152.559 253.428 153.62C253.373 154.682 245.698 151.305 245.077 150.023C244.539 148.879 245.381 148.507 242.661 146.811Z" fill="#3C8F7C"/>
<path d="M197.552 143.668C197.552 143.668 213.812 165.557 216.656 165.764C219.306 165.957 239.818 154.53 239.818 154.53L237.154 148.631L220.728 154.53L209.285 132.917L197.552 143.668Z" fill="#B75742"/>
<path d="M206.911 125.171C206.911 125.171 209.892 125.874 211.59 130.409C213.288 134.943 210.444 138.706 203.308 145.267C196.365 151.663 189.505 157.673 189.505 157.673L195.137 180.815L190.457 184.785C190.457 184.785 179.608 161.256 179.29 155.66C179.166 153.524 195.841 128.713 195.841 128.713L206.911 125.171Z" fill="#F47458"/>
<path d="M194.322 96.8319L185.254 101.89L178.062 105.336C178.062 105.336 176.309 99.3818 176.903 96.4597C176.985 96.0462 177.4 95.55 177.551 95.3295C178.738 93.5514 176.199 90.7947 176.199 90.7947C176.199 90.7947 174.666 90.3674 173.631 92.876C172.596 95.3846 174.515 96.4597 174.515 96.4597C174.515 96.4597 172.334 104.068 173.245 109.623C173.728 112.531 181.002 110.395 186.8 107.886C191.672 105.777 195.261 103.434 195.261 103.434L194.322 96.8319Z" fill="#F7A491"/>
<path d="M196.365 95.9634C196.172 95.7842 195.854 95.6739 195.344 95.8669C194.226 96.2804 183.335 102.262 183.335 102.262C183.335 102.262 184.315 107.486 186.869 109.085L192.348 107.418L196.545 96.8318C196.669 96.5285 196.6 96.1839 196.365 95.9634Z" fill="#3C8F7C"/>
<path d="M221.432 73.6341C217.305 71.1117 212.142 71.5941 209.078 74.9849C206.552 74.0338 203.653 74.1165 201.321 75.2054C196.696 77.3557 192.611 82.9932 196.089 87.0731C195.344 92.4901 198.601 95.6465 202.646 96.0049C204.84 100.416 212.653 100.87 217.139 97.2316C220.852 98.6651 225.255 98.0449 227.988 95.3708C228.651 94.723 229.617 93.703 229.824 93.6065C229.562 93.7444 240.149 92.3384 239.666 83.0069C239.183 73.51 227.781 69.8574 221.432 73.6341Z" fill="#FE875E"/>
<path d="M202.659 95.2468L209.382 95.6189L208.264 105.006C208.264 105.006 205.02 114.034 206.345 118.376C207.67 122.717 208.94 125.888 208.94 125.888C208.94 125.888 205.116 130.271 194.377 129.375C194.377 129.375 194.516 121.587 194.377 119.23C194.239 116.873 191.493 107.046 191.865 104.826C192.238 102.607 194.612 96.4735 195.219 95.9497C195.841 95.4259 198.27 95.1641 198.27 95.1641L202.659 95.2468Z" fill="#50BFA5"/>
<path d="M202.963 90.0916C202.963 90.0916 202.853 90.8497 202.742 91.8284C202.604 93.0413 202.48 94.5989 202.59 95.4259C202.797 96.9283 201.39 100.857 198.201 101.008C195.012 101.146 198.132 96.6527 198.38 95.164C198.615 93.6754 198.615 88.2722 198.615 88.2722L202.963 90.0916Z" fill="#F7A491"/>
<path d="M198.643 90.5603C198.643 89.306 198.615 88.2722 198.615 88.2722L202.963 90.0916C202.963 90.0916 202.839 90.8773 202.728 91.8697C200.893 92.3246 199.499 91.6768 198.643 90.5603Z" fill="#F47458"/>
<path d="M203.294 78.9408C203.294 78.9408 205.13 79.5886 206.083 81.5045C207.035 83.4204 207.214 88.7547 203.073 90.7395C198.932 92.7244 196.365 88.9063 196.71 85.5293C197.083 82.1661 198.339 77.7416 203.294 78.9408Z" fill="#F7A491"/>
<path d="M195.965 84.3854C196.2 85.24 196.793 85.8189 197.29 85.681C197.787 85.5432 198.008 84.7438 197.773 83.8892C197.538 83.0346 196.945 82.4557 196.448 82.5935C195.951 82.7314 195.744 83.5308 195.965 84.3854Z" fill="#F7A491"/>
<path d="M205.6 86.2047C205.213 87.0455 205.365 87.9415 205.945 88.2033C206.511 88.4652 207.284 87.9828 207.67 87.142C208.056 86.3012 207.905 85.4053 207.325 85.1434C206.745 84.8815 205.972 85.3639 205.6 86.2047Z" fill="#F7A491"/>
<path d="M115.92 127.239C115.285 125.405 89.5418 50.5053 88.41 47.2248C86.6846 42.2214 81.1771 39.5198 76.0975 41.2152L37.6968 53.9926C32.6172 55.6742 29.8979 61.1049 31.6234 66.1221L59.1332 146.136C60.8587 151.139 66.3662 153.841 71.4458 152.146L109.846 139.368C114.926 137.687 117.645 132.256 115.92 127.239ZM106.589 129.265L67.7879 142.166C64.8616 143.145 61.6869 141.587 60.693 138.693L35.2536 64.7024C34.2598 61.8079 35.8333 58.679 38.7596 57.7141L77.5606 44.7989C80.4869 43.8203 83.6616 45.3778 84.6555 48.2724C90.8393 66.2324 109.543 120.65 110.095 122.263C111.089 125.157 109.529 128.286 106.589 129.265Z" fill="#355389"/>
<path d="M96.6504 137.935C97.244 139.658 94.5247 142.111 90.577 143.421C86.6292 144.73 82.9576 144.399 82.364 142.676C81.7705 140.953 84.4897 138.5 88.4375 137.19C92.3852 135.881 96.0569 136.212 96.6504 137.935Z" fill="#184655"/>
<path d="M95.6015 138.073C96.1536 139.685 93.9037 141.904 90.5771 143.007C87.2505 144.11 84.0896 143.696 83.5374 142.084C82.9853 140.471 85.2352 138.252 88.5618 137.149C91.8884 136.046 95.0356 136.46 95.6015 138.073Z" fill="#355389"/>
<path d="M237.002 52.3385L193.839 42.5935C188.138 41.3116 182.507 44.6748 181.278 50.1194L161.581 137.108C160.352 142.552 163.969 148.01 169.683 149.306L212.846 159.051C218.547 160.333 224.179 156.97 225.407 151.525L245.104 64.537C246.319 59.0925 242.703 53.6342 237.002 52.3385ZM222.771 143.848C222.053 146.99 218.809 148.934 215.524 148.19L171.919 138.348C168.634 137.604 166.536 134.461 167.254 131.319L185.474 50.8637C186.192 47.721 189.436 45.7775 192.721 46.5218L236.325 56.3633C239.611 57.1076 241.709 60.2503 240.991 63.393L222.771 143.848Z" fill="#86B1F2"/>
<path d="M201.307 150.478C200.879 152.352 196.945 153.055 192.514 152.063C188.083 151.057 184.839 148.741 185.253 146.866C185.681 144.992 189.615 144.289 194.046 145.281C198.477 146.274 201.735 148.603 201.307 150.478Z" fill="#E81E87"/>
<path d="M200.244 150.023C199.843 151.787 196.489 152.518 192.749 151.677C189.008 150.836 186.289 148.727 186.689 146.963C187.089 145.199 190.443 144.468 194.184 145.309C197.939 146.15 200.644 148.259 200.244 150.023Z" fill="#86B1F2"/>
<path d="M209.105 98.045C209.105 98.045 223.281 94.5991 226.456 94.0201C229.617 93.4412 240.591 89.4853 241.005 89.3199C241.433 89.1545 242.993 83.517 243.614 83.9168C244.235 84.3165 242.661 86.7562 243.434 87.0732C244.207 87.3902 250.819 84.4406 250.86 84.9643C250.943 85.9705 246.885 86.9216 247.009 87.3902C247.133 87.8451 251.15 85.9981 251.647 86.6873C252.144 87.3765 247.686 88.0932 247.603 88.4791C247.52 88.8651 251.882 88.3689 251.647 89.1959C251.523 89.6507 247.755 89.5543 247.92 90.078C248.086 90.6018 250.943 91.1118 250.75 91.6218C250.557 92.118 248.403 90.8775 246.926 91.2496C245.449 91.6218 244.18 91.1394 241.999 92.4213C239.818 93.7031 232.668 99.0925 227.574 100.209C222.495 101.325 211.259 103.807 211.259 103.807L209.105 98.045Z" fill="#F7A491"/>
<path d="M205.669 95.8671C206.152 95.6327 207.615 95.6052 209.368 95.619C210.017 95.619 210.914 95.6327 211.604 95.6052C214.171 95.5363 216.601 95.6465 216.601 95.6465C216.601 95.6465 217.884 101.863 216.822 103.448C216.822 103.448 206.8 104.882 207.035 105.571L205.669 95.8671Z" fill="#50BFA5"/>
<path d="M170.912 95.9086L171.781 94.8197C171.781 94.8197 172.32 93.9927 173.12 93.91C173.935 93.8273 173.907 92.8211 173.051 92.9589C172.196 93.0968 171.657 93.3035 171.657 93.3035C171.657 93.3035 173.355 92.4351 173.383 92.3249C173.548 91.6908 172.61 91.4427 171.354 92.38C170.111 93.2897 170.912 95.9086 170.912 95.9086Z" fill="#F7A491"/>
<path d="M55.1164 128.631C54.5643 128.934 54.1916 129.196 54.0121 129.334C54.026 129.32 54.026 129.292 54.0398 129.278C54.2192 129.086 54.8403 128.424 54.8403 128.424C55.6547 127.804 55.2268 127.142 54.4677 127.556C53.7085 127.969 53.2668 128.327 53.2668 128.327C53.2668 128.327 54.5919 127.032 54.5781 126.839C54.5643 126.177 53.5704 126.246 52.6732 127.542C51.9003 128.672 53.0459 130.643 53.3772 131.098C53.7085 131.773 54.302 132.09 54.302 132.09L54.5091 130.808C54.5091 130.808 54.7437 129.844 55.4891 129.513C56.2207 129.168 55.8756 128.217 55.1164 128.631Z" fill="#F7A491"/>
<path d="M174.045 91.9525C174.045 91.9525 176.061 90.3398 176.378 91.029C176.695 91.7182 176.557 93.2068 176.254 93.0965C175.95 92.9863 175.992 91.9249 175.122 92.2144C174.901 92.2833 173.7 92.6554 174.045 91.9525Z" fill="#F7A491"/>
<path d="M209.354 36.7906L136.97 21.3806C132.898 20.5122 130.303 16.515 131.172 12.4626L132.567 5.95673C133.436 1.89057 137.439 -0.700747 141.497 0.167619L213.881 15.5777C217.953 16.446 220.548 20.4433 219.679 24.4957L218.285 31.0015C217.429 35.0677 213.426 37.659 209.354 36.7906Z" fill="#96D9C9"/>
<path d="M196.448 31.4426L203.115 40.526L205.255 33.7996L196.448 31.4426Z" fill="#96D9C9"/>
<path d="M154.569 11.0152C154.224 12.6417 152.443 13.6479 150.607 13.2619C148.772 12.876 147.557 11.2358 147.916 9.59551C148.261 7.96905 150.041 6.96285 151.877 7.34879C153.713 7.73473 154.928 9.37498 154.569 11.0152Z" fill="white"/>
<path d="M151.256 13.2069L150.055 12.945C147.75 12.4488 145.473 13.9236 144.976 16.2255L144.506 18.4171L154.072 20.457L154.541 18.2655C155.038 15.9636 153.561 13.6893 151.256 13.2069Z" fill="white"/>
<path d="M183.224 19.189C182.548 22.3455 177.427 23.9444 171.782 22.7314C166.136 21.5322 162.105 17.9899 162.782 14.8334C163.458 11.677 168.579 10.0781 174.225 11.291C179.884 12.4902 183.901 16.0326 183.224 19.189Z" fill="white"/>
<path d="M173.907 21.6423L170.65 24.7161L178.379 22.8829L178.09 17.907L173.907 21.6423Z" fill="white"/>
<path d="M197.649 21.1877L198.822 20.6088C199.181 20.4296 199.36 20.0161 199.264 19.6301C199.057 18.872 198.629 17.6177 197.801 16.6391C197.552 16.3496 197.138 16.2532 196.779 16.4186L194.736 17.411C194.474 17.535 194.308 17.7831 194.267 18.0726C194.129 19.2718 193.963 22.5936 196.061 25.4055C198.449 28.6033 200.906 30.2159 202.632 31.0016C202.908 31.1256 203.239 31.0981 203.488 30.9051L205.379 29.4992C205.71 29.2511 205.82 28.81 205.627 28.4378C205.254 27.6935 204.44 26.4944 202.908 25.6536C202.59 25.4744 202.204 25.5295 201.942 25.7638L201.238 26.3841C200.948 26.646 200.52 26.6735 200.202 26.453C199.512 25.9982 198.339 24.8817 197.235 22.249C197.069 21.8631 197.248 21.3944 197.649 21.1877Z" fill="white"/>
<path d="M126.507 94.8747L115.588 88.2586C114.484 87.5832 114.125 86.1497 114.802 85.0332L121.427 74.1304C122.104 73.0277 123.539 72.6693 124.657 73.3447L135.576 79.9609C136.68 80.6363 137.039 82.0697 136.362 83.1862L129.737 94.089C129.06 95.2055 127.611 95.5501 126.507 94.8747Z" fill="#96D9C9"/>
<path d="M132.263 85.9705C132.663 85.557 132.539 84.7714 131.931 84.2476C129.323 81.932 126.327 80.0987 123.084 78.8031C122.338 78.5136 121.579 78.7617 121.4 79.3131C119.881 83.779 120.406 82.0974 119.757 84.6887C119.605 85.2952 119.95 85.9154 120.516 86.136C121.124 86.3703 121.841 86.1222 122.117 85.5295C122.269 85.1987 122.421 84.8679 122.573 84.5508C122.752 84.1787 123.235 84.0271 123.663 84.2476C124.781 84.8127 125.844 85.4606 126.866 86.1773C127.252 86.453 127.349 86.9492 127.1 87.28C126.88 87.5694 126.659 87.8451 126.452 88.1346C126.065 88.6583 126.176 89.3889 126.672 89.8162C127.142 90.2159 127.846 90.2297 128.315 89.83C128.784 89.4027 131.421 86.8389 132.263 85.9705Z" fill="white"/>
<path d="M123.801 80.5399C123.939 80.6226 124.05 80.7466 124.119 80.8844L124.491 80.278L123.719 79.8093L123.346 80.4158C123.511 80.402 123.663 80.4571 123.801 80.5399Z" fill="#96D9C9"/>
<path d="M122.587 80.8298C122.669 80.692 122.794 80.5817 122.932 80.5128L122.324 80.1406L121.855 80.9125L122.462 81.2847C122.449 81.133 122.49 80.9814 122.587 80.8298Z" fill="#96D9C9"/>
<path d="M122.876 82.056C122.738 81.9733 122.628 81.8493 122.559 81.7114L122.186 82.3179L122.959 82.7865L123.332 82.1801C123.18 82.1939 123.028 82.1387 122.876 82.056Z" fill="#96D9C9"/>
<path d="M124.243 81.3118C124.243 81.4634 124.202 81.6288 124.119 81.7666C124.036 81.9045 123.912 82.0147 123.774 82.0836L124.381 82.4558L124.85 81.6839L124.243 81.3118Z" fill="#96D9C9"/>
<path d="M123.815 81.5737C123.663 81.8356 123.318 81.9183 123.07 81.7529C122.808 81.6012 122.725 81.2566 122.89 81.0085C123.042 80.7466 123.387 80.6639 123.636 80.8293C123.884 80.9948 123.967 81.3256 123.815 81.5737Z" fill="#96D9C9"/>
<path d="M130.689 85.8465C130.358 86.3978 129.64 86.5632 129.088 86.2324C128.536 85.9016 128.37 85.1849 128.702 84.6336C129.033 84.0822 129.751 83.9168 130.303 84.2476C130.855 84.5784 131.034 85.2952 130.689 85.8465Z" fill="#96D9C9"/>
<path d="M136.79 44.413C136.79 44.413 137.191 42.1525 139.537 41.0636C141.635 40.0987 143.885 41.1739 144.838 43.2276C145.942 45.5984 145.266 49.3062 141.29 54.1029C135.051 54.034 131.78 52.1456 130.689 49.7886C129.737 47.7486 130.372 45.3227 132.47 44.3579C134.803 43.2552 136.79 44.413 136.79 44.413Z" fill="#F48C7F"/>
<path d="M61.107 34.2682L47.2348 40.8706C45.5922 41.6425 43.6459 40.9533 42.8591 39.3268L39.1323 31.5253C38.3593 29.8851 39.0494 27.9416 40.6782 27.1559L54.5505 20.5536C56.1931 19.7817 58.1393 20.4709 58.9261 22.0973L62.653 29.8988C63.4398 31.5391 62.7358 33.4964 61.107 34.2682Z" fill="#FAE0B2"/>
<path d="M41.5754 35.0676L38.6077 43.9029L45.2056 39.0373L41.5754 35.0676Z" fill="#FAE0B2"/>
<path d="M46.4756 31.6493L48.2286 30.7533C48.2286 30.7533 49.6503 28.0104 49.4295 27.3901C49.2086 26.7699 48.2424 25.7085 48.5047 25.3777C48.7807 25.0607 49.4433 24.5783 50.2853 25.1296C50.8926 25.5293 51.6242 27.7347 51.9003 27.7623C52.0659 27.7898 53.1012 27.3074 53.8327 26.9353C54.3158 26.7009 54.8956 26.7423 55.3373 27.0593C55.6272 27.2799 55.7376 27.6658 55.5857 28.0104L55.3511 28.5342L55.8618 28.796C56.2483 28.989 56.4001 29.4577 56.2069 29.8298L56.0136 30.2158L56.3449 30.3536C56.7728 30.5328 56.9523 31.0428 56.7176 31.4425L56.5382 31.7733L56.621 31.8284C56.9523 32.0628 57.0489 32.5038 56.8418 32.8484L56.6486 33.1654L51.9831 35.5638C51.5414 35.7843 51.0721 35.9222 50.5752 35.9497L48.7945 36.5149C48.6013 36.57 48.3943 36.4873 48.3114 36.3081L46.2962 32.1868C46.1995 31.9938 46.2686 31.7457 46.4756 31.6493Z" fill="white"/>
<path d="M161.194 53.3033C171.671 50.9326 181.361 54.2131 182.824 60.6362C183.556 63.8478 182.093 67.2386 179.139 70.1331L185.543 78.6514L174.915 73.3171C172.486 74.7368 169.628 75.8809 166.495 76.5976C156.018 78.9684 146.328 75.6879 144.865 69.2647C143.402 62.8278 150.718 55.6879 161.194 53.3033Z" fill="#FAE0B2"/>
<path d="M171.285 64.468C171.133 68.2034 167.972 71.1117 164.231 70.9601C160.49 70.8085 157.578 67.652 157.73 63.9167C157.882 60.1813 161.043 57.273 164.783 57.4246C168.524 57.5762 171.436 60.7327 171.285 64.468Z" fill="#F7CC7F"/>
<path d="M160.849 65.1296C160.766 67.1283 162.326 68.8098 164.328 68.8926C166.329 68.9753 168.013 67.4177 168.096 65.4191L160.849 65.1296Z" fill="#EFEFEF"/>
<path d="M29.3458 83.2551L25.8812 83.9443L26.3091 87.1972L22.9411 88.0243L22.9687 91.1807L20.5393 92.2145L21.0638 93.4412L24.3076 92.0629L24.28 89.0718L27.7998 88.2034L27.3719 85.0056L30.5053 84.3854L29.3458 83.2551Z" fill="#F48C7F"/>
<path d="M259.695 110.023L258.728 106.632L255.526 107.321L254.422 104.027L251.275 104.303L250.046 101.973L248.859 102.593L250.502 105.709L253.483 105.447L254.629 108.865L257.79 108.19L258.659 111.263L259.695 110.023Z" fill="#F7CC7F"/>
<path d="M29.9117 47.1282L27.9792 47.7209L26.6817 44.7161L23.7554 45.2399L22.4165 43.1448L21.3536 43.834L23.1481 46.6182L25.9225 46.122L27.2752 49.2509L30.1877 48.355L29.9117 47.1282Z" fill="#50BFA5"/>
<path d="M101.578 59.2579C100.902 58.7066 99.3282 58.2517 98.5414 58.169C97.7547 58.1001 94.3314 58.1001 93.8897 58.9271C93.448 59.7541 97.0369 62.0836 97.2301 63.0484C97.4234 64.0133 95.1458 79.0512 94.4971 82.0284C94.1796 83.5033 92.9373 86.2738 91.7502 88.6997C93.448 88.9754 95.5047 90.3537 96.816 91.3324C98.4862 87.6935 100.184 83.6135 100.391 81.6838C100.819 77.8244 102.241 59.8231 101.578 59.2579Z" fill="#F7A491"/>
<path d="M111.503 33.3308C110.329 33.2343 104.228 37.8794 104.228 37.8794L103.952 38.2378C103.952 38.2378 112.193 39.6299 112.579 39.368C113.628 38.6789 112.455 33.4135 111.503 33.3308ZM104.256 38.0172C106.244 36.57 110.343 34.8057 111.227 34.4335C111.682 35.2743 112.096 37.4659 111.972 38.3756C110.992 38.3067 106.658 38.4032 104.256 38.0172Z" fill="#E81E87"/>
<path d="M102.586 29.4715C101.537 26.6459 100.502 26.7837 99.7699 26.8802C99.0384 26.9767 95.7532 29.3061 96.0569 31.0842C96.3605 32.8761 102.945 38.0863 102.945 38.0863L103.386 37.5763C103.373 37.59 103.649 32.2971 102.586 29.4715ZM97.0645 30.9188C96.9127 30.0229 99.1902 28.1345 99.9356 27.8864C100.115 27.8588 100.253 27.845 100.377 27.8864C100.515 27.9277 101.012 28.1896 101.633 29.8437C102.31 31.6493 103.014 35.8395 103.014 37.5211C100.391 35.3158 97.2301 31.6769 97.0645 30.9188Z" fill="#E81E87"/>
<path d="M103 39.2028L103.359 39.2993C103.718 39.3957 104.09 39.189 104.187 38.8444L104.491 37.7969C104.587 37.4385 104.38 37.0663 104.035 36.9698L103.676 36.8733C103.317 36.7769 102.945 36.9836 102.848 37.3282L102.544 38.3758C102.434 38.7341 102.641 39.0925 103 39.2028Z" fill="#E81E87"/>
<path d="M109.681 62.2213L86.9882 55.743C85.7597 55.3984 85.0143 54.1579 85.2904 52.9036L89.3071 34.3784L118.86 42.8002L112.193 61.4081C111.917 62.1937 110.813 62.5521 109.681 62.2213Z" fill="#F47458"/>
<path d="M118.943 47.1282L86.8363 38.0448L87.0848 35.8945C87.2366 34.5989 88.5065 33.7443 89.7626 34.1164L118.777 42.4555C119.812 42.7588 120.433 43.6134 120.13 44.3301L118.943 47.1282Z" fill="#FAE0B2"/>
<path d="M103.477 38.0478L102.231 42.408L102.841 42.5818L104.087 38.2216L103.477 38.0478Z" fill="#E81E87"/>
<path d="M102.852 42.5677L98.1608 58.9766L98.9306 59.196L103.621 42.7872L102.852 42.5677Z" fill="#E81E87"/>
<path d="M95.7256 59.2304L95.8084 58.2655C95.0216 58.045 94.1244 57.7142 93.6689 57.5212L93.5447 56.7907C93.1306 55.7845 92.6889 56.5012 92.5508 56.7356C92.5508 56.7356 92.5232 58.0312 92.6613 58.1828C92.6613 58.1828 94.1934 59.7955 94.8422 60.402C95.1596 60.7053 96.1949 61.5461 96.1949 61.5461L97.0093 60.4158L95.7256 59.2304Z" fill="#F7A491"/>
</svg>
