<svg width="30" height="29" viewBox="0 0 30 29" fill="none" xmlns="http://www.w3.org/2000/svg">
<path d="M13.0628 1.40732C13.6725 -0.469157 16.3272 -0.469152 16.937 1.40733L19.0817 8.00813C19.3544 8.84731 20.1364 9.41548 21.0187 9.41548H27.9592C29.9323 9.41548 30.7526 11.9403 29.1564 13.1L23.5414 17.1795C22.8276 17.6982 22.5289 18.6175 22.8015 19.4567L24.9463 26.0575C25.556 27.9339 23.4083 29.4943 21.812 28.3346L16.1971 24.2551C15.4832 23.7365 14.5166 23.7365 13.8027 24.2551L8.18774 28.3346C6.59151 29.4943 4.44381 27.9339 5.05351 26.0575L7.19824 19.4567C7.47091 18.6175 7.1722 17.6982 6.45835 17.1795L0.84337 13.1C-0.752857 11.9403 0.0675006 9.41548 2.04055 9.41548H8.98104C9.86341 9.41548 10.6454 8.84731 10.9181 8.00813L13.0628 1.40732Z" fill="#D5DDE0"/>
</svg>
