<svg width="193" height="193" viewBox="0 0 193 193" fill="none" xmlns="http://www.w3.org/2000/svg">
<g opacity="0.7">
<path opacity="0.7" d="M191.686 107.184C192.144 107.184 192.516 106.812 192.516 106.354C192.516 105.896 192.144 105.524 191.686 105.524C191.228 105.524 190.856 105.896 190.856 106.354C190.856 106.812 191.228 107.184 191.686 107.184Z" fill="#999999"/>
<path opacity="0.7" d="M191.963 103.311C192.421 103.311 192.793 102.94 192.793 102.481C192.793 102.023 192.421 101.652 191.963 101.652C191.504 101.652 191.133 102.023 191.133 102.481C191.133 102.94 191.504 103.311 191.963 103.311Z" fill="#999999"/>
<path opacity="0.7" d="M192.17 99.4389C192.628 99.4389 193 99.0673 193 98.6091C193 98.1508 192.628 97.7792 192.17 97.7792C191.712 97.7792 191.34 98.1508 191.34 98.6091C191.34 99.0673 191.712 99.4389 192.17 99.4389Z" fill="#999999"/>
<path opacity="0.7" d="M192.17 95.5664C192.628 95.5664 193 95.1949 193 94.7366C193 94.2783 192.628 93.9068 192.17 93.9068C191.712 93.9068 191.34 94.2783 191.34 94.7366C191.34 95.1949 191.712 95.5664 192.17 95.5664Z" fill="#999999"/>
<path opacity="0.7" d="M192.032 91.694C192.49 91.694 192.862 91.3225 192.862 90.8642C192.862 90.4059 192.49 90.0344 192.032 90.0344C191.573 90.0344 191.202 90.4059 191.202 90.8642C191.202 91.3225 191.573 91.694 192.032 91.694Z" fill="#999999"/>
<path opacity="0.7" d="M191.686 87.8216C192.144 87.8216 192.516 87.45 192.516 86.9917C192.516 86.5335 192.144 86.1619 191.686 86.1619C191.228 86.1619 190.856 86.5335 190.856 86.9917C190.856 87.45 191.228 87.8216 191.686 87.8216Z" fill="#999999"/>
<path opacity="0.7" d="M191.271 84.0182C191.729 84.0182 192.101 83.6467 192.101 83.1884C192.101 82.7301 191.729 82.3586 191.271 82.3586C190.813 82.3586 190.441 82.7301 190.441 83.1884C190.441 83.6467 190.813 84.0182 191.271 84.0182Z" fill="#999999"/>
<path opacity="0.7" d="M190.649 80.215C191.107 80.215 191.479 79.8435 191.479 79.3852C191.479 78.9269 191.107 78.5554 190.649 78.5554C190.19 78.5554 189.819 78.9269 189.819 79.3852C189.819 79.8435 190.19 80.215 190.649 80.215Z" fill="#999999"/>
<path opacity="0.7" d="M189.888 76.3424C190.346 76.3424 190.718 75.9709 190.718 75.5126C190.718 75.0543 190.346 74.6828 189.888 74.6828C189.43 74.6828 189.058 75.0543 189.058 75.5126C189.058 75.9709 189.43 76.3424 189.888 76.3424Z" fill="#999999"/>
<path opacity="0.7" d="M188.92 72.6083C189.378 72.6083 189.75 72.2368 189.75 71.7785C189.75 71.3202 189.378 70.9487 188.92 70.9487C188.462 70.9487 188.09 71.3202 188.09 71.7785C188.09 72.2368 188.462 72.6083 188.92 72.6083Z" fill="#999999"/>
<path opacity="0.7" d="M187.883 68.8742C188.341 68.8742 188.712 68.5027 188.712 68.0444C188.712 67.5861 188.341 67.2146 187.883 67.2146C187.424 67.2146 187.053 67.5861 187.053 68.0444C187.053 68.5027 187.424 68.8742 187.883 68.8742Z" fill="#999999"/>
<path opacity="0.7" d="M186.638 65.2091C187.096 65.2091 187.468 64.8376 187.468 64.3793C187.468 63.921 187.096 63.5495 186.638 63.5495C186.18 63.5495 185.808 63.921 185.808 64.3793C185.808 64.8376 186.18 65.2091 186.638 65.2091Z" fill="#999999"/>
<path opacity="0.7" d="M185.324 61.6133C185.782 61.6133 186.154 61.2418 186.154 60.7835C186.154 60.3252 185.782 59.9537 185.324 59.9537C184.866 59.9537 184.494 60.3252 184.494 60.7835C184.494 61.2418 184.866 61.6133 185.324 61.6133Z" fill="#999999"/>
<path opacity="0.7" d="M183.734 58.0867C184.192 58.0867 184.564 57.7152 184.564 57.2569C184.564 56.7986 184.192 56.4271 183.734 56.4271C183.275 56.4271 182.904 56.7986 182.904 57.2569C182.904 57.7152 183.275 58.0867 183.734 58.0867Z" fill="#999999"/>
<path opacity="0.7" d="M182.143 54.56C182.602 54.56 182.973 54.1885 182.973 53.7302C182.973 53.2719 182.602 52.9004 182.143 52.9004C181.685 52.9004 181.313 53.2719 181.313 53.7302C181.313 54.1885 181.685 54.56 182.143 54.56Z" fill="#999999"/>
<path opacity="0.7" d="M180.276 51.1716C180.734 51.1716 181.106 50.8 181.106 50.3417C181.106 49.8835 180.734 49.5119 180.276 49.5119C179.818 49.5119 179.446 49.8835 179.446 50.3417C179.446 50.8 179.818 51.1716 180.276 51.1716Z" fill="#999999"/>
<path opacity="0.7" d="M178.409 47.7832C178.867 47.7832 179.239 47.4117 179.239 46.9534C179.239 46.4951 178.867 46.1236 178.409 46.1236C177.951 46.1236 177.579 46.4951 177.579 46.9534C177.579 47.4117 177.951 47.7832 178.409 47.7832Z" fill="#999999"/>
<path opacity="0.7" d="M176.334 44.5331C176.793 44.5331 177.164 44.1616 177.164 43.7033C177.164 43.245 176.793 42.8735 176.334 42.8735C175.876 42.8735 175.505 43.245 175.505 43.7033C175.505 44.1616 175.876 44.5331 176.334 44.5331Z" fill="#999999"/>
<path opacity="0.7" d="M174.122 41.3522C174.58 41.3522 174.952 40.9807 174.952 40.5224C174.952 40.0641 174.58 39.6926 174.122 39.6926C173.663 39.6926 173.292 40.0641 173.292 40.5224C173.292 40.9807 173.663 41.3522 174.122 41.3522Z" fill="#999999"/>
<path opacity="0.7" d="M171.771 38.2404C172.229 38.2404 172.6 37.8689 172.6 37.4106C172.6 36.9523 172.229 36.5808 171.771 36.5808C171.312 36.5808 170.941 36.9523 170.941 37.4106C170.941 37.8689 171.312 38.2404 171.771 38.2404Z" fill="#999999"/>
<path opacity="0.7" d="M169.35 35.2669C169.809 35.2669 170.18 34.8954 170.18 34.4371C170.18 33.9788 169.809 33.6073 169.35 33.6073C168.892 33.6073 168.521 33.9788 168.521 34.4371C168.521 34.8954 168.892 35.2669 169.35 35.2669Z" fill="#999999"/>
<path opacity="0.7" d="M166.792 32.3626C167.25 32.3626 167.622 31.9911 167.622 31.5328C167.622 31.0745 167.25 30.703 166.792 30.703C166.333 30.703 165.962 31.0745 165.962 31.5328C165.962 31.9911 166.333 32.3626 166.792 32.3626Z" fill="#999999"/>
<path opacity="0.7" d="M164.095 29.5965C164.553 29.5965 164.925 29.225 164.925 28.7667C164.925 28.3084 164.553 27.9369 164.095 27.9369C163.637 27.9369 163.265 28.3084 163.265 28.7667C163.265 29.225 163.637 29.5965 164.095 29.5965Z" fill="#999999"/>
<path opacity="0.7" d="M161.329 26.8997C161.787 26.8997 162.159 26.5282 162.159 26.0699C162.159 25.6116 161.787 25.2401 161.329 25.2401C160.87 25.2401 160.499 25.6116 160.499 26.0699C160.499 26.5282 160.87 26.8997 161.329 26.8997Z" fill="#999999"/>
<path opacity="0.7" d="M158.425 24.3411C158.883 24.3411 159.254 23.9696 159.254 23.5113C159.254 23.053 158.883 22.6815 158.425 22.6815C157.966 22.6815 157.595 23.053 157.595 23.5113C157.595 23.9696 157.966 24.3411 158.425 24.3411Z" fill="#999999"/>
<path opacity="0.7" d="M155.382 21.9208C155.84 21.9208 156.212 21.5493 156.212 21.091C156.212 20.6327 155.84 20.2612 155.382 20.2612C154.924 20.2612 154.552 20.6327 154.552 21.091C154.552 21.5493 154.924 21.9208 155.382 21.9208Z" fill="#999999"/>
<path opacity="0.7" d="M152.27 19.5696C152.728 19.5696 153.1 19.1981 153.1 18.7398C153.1 18.2815 152.728 17.91 152.27 17.91C151.812 17.91 151.44 18.2815 151.44 18.7398C151.44 19.1981 151.812 19.5696 152.27 19.5696Z" fill="#999999"/>
<path opacity="0.7" d="M149.089 17.426C149.548 17.426 149.919 17.0544 149.919 16.5962C149.919 16.1379 149.548 15.7663 149.089 15.7663C148.631 15.7663 148.259 16.1379 148.259 16.5962C148.259 17.0544 148.631 17.426 149.089 17.426Z" fill="#999999"/>
<path opacity="0.7" d="M145.77 15.2823C146.228 15.2823 146.6 14.9108 146.6 14.4525C146.6 13.9942 146.228 13.6227 145.77 13.6227C145.311 13.6227 144.94 13.9942 144.94 14.4525C144.94 14.9108 145.311 15.2823 145.77 15.2823Z" fill="#999999"/>
<path opacity="0.7" d="M142.451 13.3461C142.909 13.3461 143.28 12.9746 143.28 12.5163C143.28 12.058 142.909 11.6865 142.451 11.6865C141.992 11.6865 141.621 12.058 141.621 12.5163C141.621 12.9746 141.992 13.3461 142.451 13.3461Z" fill="#999999"/>
<path opacity="0.7" d="M138.993 11.5482C139.451 11.5482 139.823 11.1766 139.823 10.7184C139.823 10.2601 139.451 9.88854 138.993 9.88854C138.535 9.88854 138.163 10.2601 138.163 10.7184C138.163 11.1766 138.535 11.5482 138.993 11.5482Z" fill="#999999"/>
<path opacity="0.7" d="M135.466 9.95771C135.925 9.95771 136.296 9.58619 136.296 9.1279C136.296 8.66961 135.925 8.29809 135.466 8.29809C135.008 8.29809 134.637 8.66961 134.637 9.1279C134.637 9.58619 135.008 9.95771 135.466 9.95771Z" fill="#999999"/>
<path opacity="0.7" d="M131.94 8.43641C132.398 8.43641 132.77 8.06489 132.77 7.6066C132.77 7.14831 132.398 6.77679 131.94 6.77679C131.481 6.77679 131.11 7.14831 131.11 7.6066C131.11 8.06489 131.481 8.43641 131.94 8.43641Z" fill="#999999"/>
<path opacity="0.7" d="M128.275 7.05335C128.733 7.05335 129.105 6.68184 129.105 6.22354C129.105 5.76525 128.733 5.39373 128.275 5.39373C127.817 5.39373 127.445 5.76525 127.445 6.22354C127.445 6.68184 127.817 7.05335 128.275 7.05335Z" fill="#999999"/>
<path opacity="0.7" d="M124.61 5.87782C125.068 5.87782 125.44 5.5063 125.44 5.04801C125.44 4.58972 125.068 4.2182 124.61 4.2182C124.151 4.2182 123.78 4.58972 123.78 5.04801C123.78 5.5063 124.151 5.87782 124.61 5.87782Z" fill="#999999"/>
<path opacity="0.7" d="M120.876 4.77143C121.334 4.77143 121.705 4.39992 121.705 3.94162C121.705 3.48333 121.334 3.11181 120.876 3.11181C120.417 3.11181 120.046 3.48333 120.046 3.94162C120.046 4.39992 120.417 4.77143 120.876 4.77143Z" fill="#999999"/>
<path opacity="0.7" d="M117.141 3.87245C117.6 3.87245 117.971 3.50093 117.971 3.04264C117.971 2.58435 117.6 2.21283 117.141 2.21283C116.683 2.21283 116.312 2.58435 116.312 3.04264C116.312 3.50093 116.683 3.87245 117.141 3.87245Z" fill="#999999"/>
<path opacity="0.7" d="M113.338 3.11177C113.796 3.11177 114.168 2.74025 114.168 2.28196C114.168 1.82367 113.796 1.45215 113.338 1.45215C112.88 1.45215 112.508 1.82367 112.508 2.28196C112.508 2.74025 112.88 3.11177 113.338 3.11177Z" fill="#999999"/>
<path opacity="0.7" d="M109.466 2.55861C109.924 2.55861 110.295 2.18709 110.295 1.7288C110.295 1.2705 109.924 0.898986 109.466 0.898986C109.007 0.898986 108.636 1.2705 108.636 1.7288C108.636 2.18709 109.007 2.55861 109.466 2.55861Z" fill="#999999"/>
<path opacity="0.7" d="M105.662 2.07454C106.121 2.07454 106.492 1.70302 106.492 1.24473C106.492 0.786435 106.121 0.414917 105.662 0.414917C105.204 0.414917 104.833 0.786435 104.833 1.24473C104.833 1.70302 105.204 2.07454 105.662 2.07454Z" fill="#999999"/>
<path opacity="0.7" d="M101.79 1.79792C102.248 1.79792 102.62 1.42641 102.62 0.968115C102.62 0.509824 102.248 0.138306 101.79 0.138306C101.332 0.138306 100.96 0.509824 100.96 0.968115C100.96 1.42641 101.332 1.79792 101.79 1.79792Z" fill="#999999"/>
<path opacity="0.7" d="M97.9176 1.65962C98.3759 1.65962 98.7475 1.2881 98.7475 0.82981C98.7475 0.371518 98.3759 0 97.9176 0C97.4594 0 97.0878 0.371518 97.0878 0.82981C97.0878 1.2881 97.4594 1.65962 97.9176 1.65962Z" fill="#999999"/>
<path opacity="0.7" d="M94.0451 1.65962C94.5034 1.65962 94.8749 1.2881 94.8749 0.82981C94.8749 0.371518 94.5034 0 94.0451 0C93.5868 0 93.2153 0.371518 93.2153 0.82981C93.2153 1.2881 93.5868 1.65962 94.0451 1.65962Z" fill="#999999"/>
<path opacity="0.7" d="M90.1726 1.86708C90.6309 1.86708 91.0025 1.49556 91.0025 1.03727C91.0025 0.578977 90.6309 0.207458 90.1726 0.207458C89.7144 0.207458 89.3428 0.578977 89.3428 1.03727C89.3428 1.49556 89.7144 1.86708 90.1726 1.86708Z" fill="#999999"/>
<path opacity="0.7" d="M86.3001 2.14369C86.7584 2.14369 87.1299 1.77217 87.1299 1.31388C87.1299 0.855588 86.7584 0.48407 86.3001 0.48407C85.8418 0.48407 85.4703 0.855588 85.4703 1.31388C85.4703 1.77217 85.8418 2.14369 86.3001 2.14369Z" fill="#999999"/>
<path opacity="0.7" d="M82.4969 2.69691C82.9552 2.69691 83.3267 2.32539 83.3267 1.8671C83.3267 1.40881 82.9552 1.03729 82.4969 1.03729C82.0386 1.03729 81.6671 1.40881 81.6671 1.8671C81.6671 2.32539 82.0386 2.69691 82.4969 2.69691Z" fill="#999999"/>
<path opacity="0.7" d="M78.6935 3.31923C79.1518 3.31923 79.5233 2.94771 79.5233 2.48942C79.5233 2.03112 79.1518 1.65961 78.6935 1.65961C78.2352 1.65961 77.8637 2.03112 77.8637 2.48942C77.8637 2.94771 78.2352 3.31923 78.6935 3.31923Z" fill="#999999"/>
<path opacity="0.7" d="M74.8902 4.07991C75.3485 4.07991 75.72 3.70839 75.72 3.2501C75.72 2.7918 75.3485 2.42029 74.8902 2.42029C74.4319 2.42029 74.0604 2.7918 74.0604 3.2501C74.0604 3.70839 74.4319 4.07991 74.8902 4.07991Z" fill="#999999"/>
<path opacity="0.7" d="M71.1562 5.04798C71.6145 5.04798 71.986 4.67647 71.986 4.21817C71.986 3.75988 71.6145 3.38836 71.1562 3.38836C70.6979 3.38836 70.3264 3.75988 70.3264 4.21817C70.3264 4.67647 70.6979 5.04798 71.1562 5.04798Z" fill="#999999"/>
<path opacity="0.7" d="M67.4219 6.15443C67.8802 6.15443 68.2517 5.78291 68.2517 5.32462C68.2517 4.86633 67.8802 4.49481 67.4219 4.49481C66.9636 4.49481 66.5921 4.86633 66.5921 5.32462C66.5921 5.78291 66.9636 6.15443 67.4219 6.15443Z" fill="#999999"/>
<path opacity="0.7" d="M63.757 7.39912C64.2153 7.39912 64.5868 7.0276 64.5868 6.56931C64.5868 6.11102 64.2153 5.7395 63.757 5.7395C63.2987 5.7395 62.9272 6.11102 62.9272 6.56931C62.9272 7.0276 63.2987 7.39912 63.757 7.39912Z" fill="#999999"/>
<path opacity="0.7" d="M60.1612 8.78217C60.6195 8.78217 60.991 8.41065 60.991 7.95236C60.991 7.49407 60.6195 7.12255 60.1612 7.12255C59.7029 7.12255 59.3314 7.49407 59.3314 7.95236C59.3314 8.41065 59.7029 8.78217 60.1612 8.78217Z" fill="#999999"/>
<path opacity="0.7" d="M56.5652 10.3726C57.0235 10.3726 57.3951 10.0011 57.3951 9.54282C57.3951 9.08453 57.0235 8.71301 56.5652 8.71301C56.107 8.71301 55.7354 9.08453 55.7354 9.54282C55.7354 10.0011 56.107 10.3726 56.5652 10.3726Z" fill="#999999"/>
<path opacity="0.7" d="M53.1077 12.0323C53.566 12.0323 53.9376 11.6608 53.9376 11.2025C53.9376 10.7442 53.566 10.3727 53.1077 10.3727C52.6494 10.3727 52.2779 10.7442 52.2779 11.2025C52.2779 11.6608 52.6494 12.0323 53.1077 12.0323Z" fill="#999999"/>
<path opacity="0.7" d="M49.7194 13.8301C50.1777 13.8301 50.5492 13.4586 50.5492 13.0003C50.5492 12.542 50.1777 12.1705 49.7194 12.1705C49.2611 12.1705 48.8896 12.542 48.8896 13.0003C48.8896 13.4586 49.2611 13.8301 49.7194 13.8301Z" fill="#999999"/>
<path opacity="0.7" d="M46.4002 15.7664C46.8585 15.7664 47.23 15.3949 47.23 14.9366C47.23 14.4783 46.8585 14.1068 46.4002 14.1068C45.9419 14.1068 45.5704 14.4783 45.5704 14.9366C45.5704 15.3949 45.9419 15.7664 46.4002 15.7664Z" fill="#999999"/>
<path opacity="0.7" d="M43.1501 17.9101C43.6084 17.9101 43.9799 17.5386 43.9799 17.0803C43.9799 16.622 43.6084 16.2505 43.1501 16.2505C42.6918 16.2505 42.3203 16.622 42.3203 17.0803C42.3203 17.5386 42.6918 17.9101 43.1501 17.9101Z" fill="#999999"/>
<path opacity="0.7" d="M39.9692 20.1229C40.4275 20.1229 40.799 19.7513 40.799 19.2931C40.799 18.8348 40.4275 18.4632 39.9692 18.4632C39.5109 18.4632 39.1394 18.8348 39.1394 19.2931C39.1394 19.7513 39.5109 20.1229 39.9692 20.1229Z" fill="#999999"/>
<path opacity="0.7" d="M36.9266 22.4741C37.3849 22.4741 37.7564 22.1025 37.7564 21.6442C37.7564 21.186 37.3849 20.8144 36.9266 20.8144C36.4683 20.8144 36.0968 21.186 36.0968 21.6442C36.0968 22.1025 36.4683 22.4741 36.9266 22.4741Z" fill="#999999"/>
<path opacity="0.7" d="M33.9531 24.9634C34.4114 24.9634 34.7829 24.5919 34.7829 24.1336C34.7829 23.6753 34.4114 23.3038 33.9531 23.3038C33.4948 23.3038 33.1233 23.6753 33.1233 24.1336C33.1233 24.5919 33.4948 24.9634 33.9531 24.9634Z" fill="#999999"/>
<path opacity="0.7" d="M31.0488 27.522C31.5071 27.522 31.8786 27.1505 31.8786 26.6922C31.8786 26.2339 31.5071 25.8624 31.0488 25.8624C30.5905 25.8624 30.219 26.2339 30.219 26.6922C30.219 27.1505 30.5905 27.522 31.0488 27.522Z" fill="#999999"/>
<path opacity="0.7" d="M28.2827 30.2189C28.741 30.2189 29.1125 29.8474 29.1125 29.3891C29.1125 28.9308 28.741 28.5593 28.2827 28.5593C27.8244 28.5593 27.4529 28.9308 27.4529 29.3891C27.4529 29.8474 27.8244 30.2189 28.2827 30.2189Z" fill="#999999"/>
<path opacity="0.7" d="M25.655 33.0541C26.1133 33.0541 26.4848 32.6826 26.4848 32.2243C26.4848 31.766 26.1133 31.3945 25.655 31.3945C25.1967 31.3945 24.8252 31.766 24.8252 32.2243C24.8252 32.6826 25.1967 33.0541 25.655 33.0541Z" fill="#999999"/>
<path opacity="0.7" d="M23.0964 35.9584C23.5547 35.9584 23.9262 35.5869 23.9262 35.1286C23.9262 34.6703 23.5547 34.2988 23.0964 34.2988C22.6381 34.2988 22.2666 34.6703 22.2666 35.1286C22.2666 35.5869 22.6381 35.9584 23.0964 35.9584Z" fill="#999999"/>
<path opacity="0.7" d="M20.6761 39.001C21.1344 39.001 21.5059 38.6295 21.5059 38.1712C21.5059 37.7129 21.1344 37.3414 20.6761 37.3414C20.2178 37.3414 19.8463 37.7129 19.8463 38.1712C19.8463 38.6295 20.2178 39.001 20.6761 39.001Z" fill="#999999"/>
<path opacity="0.7" d="M18.3249 42.1128C18.7832 42.1128 19.1547 41.7413 19.1547 41.283C19.1547 40.8247 18.7832 40.4532 18.3249 40.4532C17.8666 40.4532 17.4951 40.8247 17.4951 41.283C17.4951 41.7413 17.8666 42.1128 18.3249 42.1128Z" fill="#999999"/>
<path opacity="0.7" d="M16.1814 45.2937C16.6397 45.2937 17.0112 44.9222 17.0112 44.4639C17.0112 44.0056 16.6397 43.6341 16.1814 43.6341C15.7231 43.6341 15.3516 44.0056 15.3516 44.4639C15.3516 44.9222 15.7231 45.2937 16.1814 45.2937Z" fill="#999999"/>
<path opacity="0.7" d="M14.1068 48.613C14.5651 48.613 14.9366 48.2414 14.9366 47.7831C14.9366 47.3249 14.5651 46.9533 14.1068 46.9533C13.6485 46.9533 13.277 47.3249 13.277 47.7831C13.277 48.2414 13.6485 48.613 14.1068 48.613Z" fill="#999999"/>
<path opacity="0.7" d="M12.2397 52.0014C12.698 52.0014 13.0695 51.6299 13.0695 51.1716C13.0695 50.7133 12.698 50.3418 12.2397 50.3418C11.7814 50.3418 11.4099 50.7133 11.4099 51.1716C11.4099 51.6299 11.7814 52.0014 12.2397 52.0014Z" fill="#999999"/>
<path opacity="0.7" d="M10.4419 55.4589C10.9002 55.4589 11.2717 55.0874 11.2717 54.6291C11.2717 54.1708 10.9002 53.7993 10.4419 53.7993C9.98357 53.7993 9.61205 54.1708 9.61205 54.6291C9.61205 55.0874 9.98357 55.4589 10.4419 55.4589Z" fill="#999999"/>
<path opacity="0.7" d="M8.78208 58.9856C9.24037 58.9856 9.61189 58.6141 9.61189 58.1558C9.61189 57.6975 9.24037 57.326 8.78208 57.326C8.32378 57.326 7.95227 57.6975 7.95227 58.1558C7.95227 58.6141 8.32378 58.9856 8.78208 58.9856Z" fill="#999999"/>
<path opacity="0.7" d="M7.33005 62.5124C7.78834 62.5124 8.15986 62.1409 8.15986 61.6826C8.15986 61.2243 7.78834 60.8527 7.33005 60.8527C6.87176 60.8527 6.50024 61.2243 6.50024 61.6826C6.50024 62.1409 6.87176 62.5124 7.33005 62.5124Z" fill="#999999"/>
<path opacity="0.7" d="M6.01609 66.1773C6.47438 66.1773 6.8459 65.8058 6.8459 65.3475C6.8459 64.8892 6.47438 64.5177 6.01609 64.5177C5.55779 64.5177 5.18628 64.8892 5.18628 65.3475C5.18628 65.8058 5.55779 66.1773 6.01609 66.1773Z" fill="#999999"/>
<path opacity="0.7" d="M4.84055 69.9114C5.29884 69.9114 5.67036 69.5399 5.67036 69.0816C5.67036 68.6233 5.29884 68.2518 4.84055 68.2518C4.38226 68.2518 4.01074 68.6233 4.01074 69.0816C4.01074 69.5399 4.38226 69.9114 4.84055 69.9114Z" fill="#999999"/>
<path opacity="0.7" d="M3.80332 73.5765C4.26161 73.5765 4.63313 73.2049 4.63313 72.7466C4.63313 72.2883 4.26161 71.9168 3.80332 71.9168C3.34503 71.9168 2.97351 72.2883 2.97351 72.7466C2.97351 73.2049 3.34503 73.5765 3.80332 73.5765Z" fill="#999999"/>
<path opacity="0.7" d="M2.90427 77.3798C3.36256 77.3798 3.73408 77.0083 3.73408 76.55C3.73408 76.0917 3.36256 75.7202 2.90427 75.7202C2.44598 75.7202 2.07446 76.0917 2.07446 76.55C2.07446 77.0083 2.44598 77.3798 2.90427 77.3798Z" fill="#999999"/>
<path opacity="0.7" d="M2.21287 81.183C2.67116 81.183 3.04268 80.8115 3.04268 80.3532C3.04268 79.8949 2.67116 79.5234 2.21287 79.5234C1.75457 79.5234 1.38306 79.8949 1.38306 80.3532C1.38306 80.8115 1.75457 81.183 2.21287 81.183Z" fill="#999999"/>
<path opacity="0.7" d="M1.59043 84.9864C2.04872 84.9864 2.42024 84.6148 2.42024 84.1565C2.42024 83.6982 2.04872 83.3267 1.59043 83.3267C1.13214 83.3267 0.76062 83.6982 0.76062 84.1565C0.76062 84.6148 1.13214 84.9864 1.59043 84.9864Z" fill="#999999"/>
<path opacity="0.7" d="M1.17551 88.8588C1.6338 88.8588 2.00532 88.4873 2.00532 88.029C2.00532 87.5707 1.6338 87.1992 1.17551 87.1992C0.717221 87.1992 0.345703 87.5707 0.345703 88.029C0.345703 88.4873 0.717221 88.8588 1.17551 88.8588Z" fill="#999999"/>
<path opacity="0.7" d="M0.968115 92.7312C1.42641 92.7312 1.79792 92.3597 1.79792 91.9014C1.79792 91.4431 1.42641 91.0716 0.968115 91.0716C0.509824 91.0716 0.138306 91.4431 0.138306 91.9014C0.138306 92.3597 0.509824 92.7312 0.968115 92.7312Z" fill="#999999"/>
<path opacity="0.7" d="M0.82981 96.6036C1.2881 96.6036 1.65962 96.2321 1.65962 95.7738C1.65962 95.3155 1.2881 94.944 0.82981 94.944C0.371518 94.944 0 95.3155 0 95.7738C0 96.2321 0.371518 96.6036 0.82981 96.6036Z" fill="#999999"/>
<path opacity="0.7" d="M0.898901 100.476C1.35719 100.476 1.72871 100.105 1.72871 99.6463C1.72871 99.188 1.35719 98.8165 0.898901 98.8165C0.44061 98.8165 0.0690918 99.188 0.0690918 99.6463C0.0690918 100.105 0.44061 100.476 0.898901 100.476Z" fill="#999999"/>
<path opacity="0.7" d="M1.10654 104.349C1.56483 104.349 1.93635 103.977 1.93635 103.519C1.93635 103.06 1.56483 102.689 1.10654 102.689C0.648252 102.689 0.276733 103.06 0.276733 103.519C0.276733 103.977 0.648252 104.349 1.10654 104.349Z" fill="#999999"/>
<path opacity="0.7" d="M1.45225 108.152C1.91054 108.152 2.28206 107.78 2.28206 107.322C2.28206 106.864 1.91054 106.492 1.45225 106.492C0.993954 106.492 0.622436 106.864 0.622436 107.322C0.622436 107.78 0.993954 108.152 1.45225 108.152Z" fill="#999999"/>
<path opacity="0.7" d="M1.93613 112.024C2.39442 112.024 2.76594 111.653 2.76594 111.194C2.76594 110.736 2.39442 110.365 1.93613 110.365C1.47784 110.365 1.10632 110.736 1.10632 111.194C1.10632 111.653 1.47784 112.024 1.93613 112.024Z" fill="#999999"/>
<path opacity="0.7" d="M2.62766 115.828C3.08595 115.828 3.45747 115.456 3.45747 114.998C3.45747 114.54 3.08595 114.168 2.62766 114.168C2.16937 114.168 1.79785 114.54 1.79785 114.998C1.79785 115.456 2.16937 115.828 2.62766 115.828Z" fill="#999999"/>
<path opacity="0.7" d="M3.45749 119.631C3.91578 119.631 4.2873 119.259 4.2873 118.801C4.2873 118.343 3.91578 117.971 3.45749 117.971C2.9992 117.971 2.62768 118.343 2.62768 118.801C2.62768 119.259 2.9992 119.631 3.45749 119.631Z" fill="#999999"/>
<path opacity="0.7" d="M4.42563 123.365C4.88392 123.365 5.25544 122.993 5.25544 122.535C5.25544 122.077 4.88392 121.705 4.42563 121.705C3.96734 121.705 3.59582 122.077 3.59582 122.535C3.59582 122.993 3.96734 123.365 4.42563 123.365Z" fill="#999999"/>
<path opacity="0.7" d="M5.53208 127.03C5.99037 127.03 6.36189 126.659 6.36189 126.2C6.36189 125.742 5.99037 125.37 5.53208 125.37C5.07379 125.37 4.70227 125.742 4.70227 126.2C4.70227 126.659 5.07379 127.03 5.53208 127.03Z" fill="#999999"/>
<path opacity="0.7" d="M6.84604 130.695C7.30433 130.695 7.67585 130.323 7.67585 129.865C7.67585 129.407 7.30433 129.035 6.84604 129.035C6.38775 129.035 6.01623 129.407 6.01623 129.865C6.01623 130.323 6.38775 130.695 6.84604 130.695Z" fill="#999999"/>
<path opacity="0.7" d="M8.22897 134.291C8.68727 134.291 9.05878 133.919 9.05878 133.461C9.05878 133.003 8.68727 132.631 8.22897 132.631C7.77068 132.631 7.39917 133.003 7.39917 133.461C7.39917 133.919 7.77068 134.291 8.22897 134.291Z" fill="#999999"/>
<path opacity="0.7" d="M9.81943 137.817C10.2777 137.817 10.6492 137.446 10.6492 136.988C10.6492 136.529 10.2777 136.158 9.81943 136.158C9.36114 136.158 8.98962 136.529 8.98962 136.988C8.98962 137.446 9.36114 137.817 9.81943 137.817Z" fill="#999999"/>
<path opacity="0.7" d="M11.5482 141.275C12.0065 141.275 12.378 140.904 12.378 140.445C12.378 139.987 12.0065 139.615 11.5482 139.615C11.0899 139.615 10.7184 139.987 10.7184 140.445C10.7184 140.904 11.0899 141.275 11.5482 141.275Z" fill="#999999"/>
<path opacity="0.7" d="M13.346 144.663C13.8043 144.663 14.1758 144.292 14.1758 143.834C14.1758 143.375 13.8043 143.004 13.346 143.004C12.8877 143.004 12.5162 143.375 12.5162 143.834C12.5162 144.292 12.8877 144.663 13.346 144.663Z" fill="#999999"/>
<path opacity="0.7" d="M15.3515 147.983C15.8098 147.983 16.1813 147.611 16.1813 147.153C16.1813 146.695 15.8098 146.323 15.3515 146.323C14.8932 146.323 14.5217 146.695 14.5217 147.153C14.5217 147.611 14.8932 147.983 15.3515 147.983Z" fill="#999999"/>
<path opacity="0.7" d="M17.4951 151.233C17.9534 151.233 18.3249 150.861 18.3249 150.403C18.3249 149.945 17.9534 149.573 17.4951 149.573C17.0368 149.573 16.6653 149.945 16.6653 150.403C16.6653 150.861 17.0368 151.233 17.4951 151.233Z" fill="#999999"/>
<path opacity="0.7" d="M19.708 154.414C20.1663 154.414 20.5378 154.042 20.5378 153.584C20.5378 153.126 20.1663 152.754 19.708 152.754C19.2497 152.754 18.8782 153.126 18.8782 153.584C18.8782 154.042 19.2497 154.414 19.708 154.414Z" fill="#999999"/>
<path opacity="0.7" d="M22.059 157.456C22.5173 157.456 22.8889 157.085 22.8889 156.627C22.8889 156.168 22.5173 155.797 22.059 155.797C21.6008 155.797 21.2292 156.168 21.2292 156.627C21.2292 157.085 21.6008 157.456 22.059 157.456Z" fill="#999999"/>
<path opacity="0.7" d="M24.6178 160.43C25.076 160.43 25.4476 160.058 25.4476 159.6C25.4476 159.142 25.076 158.77 24.6178 158.77C24.1595 158.77 23.7879 159.142 23.7879 159.6C23.7879 160.058 24.1595 160.43 24.6178 160.43Z" fill="#999999"/>
<path opacity="0.7" d="M27.1762 163.265C27.6345 163.265 28.006 162.893 28.006 162.435C28.006 161.977 27.6345 161.605 27.1762 161.605C26.7179 161.605 26.3464 161.977 26.3464 162.435C26.3464 162.893 26.7179 163.265 27.1762 163.265Z" fill="#999999"/>
<path opacity="0.7" d="M29.9422 166.031C30.4005 166.031 30.772 165.66 30.772 165.201C30.772 164.743 30.4005 164.371 29.9422 164.371C29.4839 164.371 29.1124 164.743 29.1124 165.201C29.1124 165.66 29.4839 166.031 29.9422 166.031Z" fill="#999999"/>
<path opacity="0.7" d="M32.7775 168.659C33.2358 168.659 33.6074 168.287 33.6074 167.829C33.6074 167.371 33.2358 166.999 32.7775 166.999C32.3193 166.999 31.9477 167.371 31.9477 167.829C31.9477 168.287 32.3193 168.659 32.7775 168.659Z" fill="#999999"/>
<path opacity="0.7" d="M35.6818 171.148C36.1401 171.148 36.5116 170.777 36.5116 170.318C36.5116 169.86 36.1401 169.489 35.6818 169.489C35.2235 169.489 34.852 169.86 34.852 170.318C34.852 170.777 35.2235 171.148 35.6818 171.148Z" fill="#999999"/>
<path opacity="0.7" d="M38.7244 173.568C39.1827 173.568 39.5543 173.197 39.5543 172.739C39.5543 172.28 39.1827 171.909 38.7244 171.909C38.2661 171.909 37.8946 172.28 37.8946 172.739C37.8946 173.197 38.2661 173.568 38.7244 173.568Z" fill="#999999"/>
<path opacity="0.7" d="M41.8363 175.85C42.2945 175.85 42.6661 175.479 42.6661 175.021C42.6661 174.562 42.2945 174.191 41.8363 174.191C41.378 174.191 41.0064 174.562 41.0064 175.021C41.0064 175.479 41.378 175.85 41.8363 175.85Z" fill="#999999"/>
<path opacity="0.7" d="M45.0862 177.994C45.5445 177.994 45.9161 177.623 45.9161 177.164C45.9161 176.706 45.5445 176.334 45.0862 176.334C44.628 176.334 44.2564 176.706 44.2564 177.164C44.2564 177.623 44.628 177.994 45.0862 177.994Z" fill="#999999"/>
<path opacity="0.7" d="M48.4055 180C48.8638 180 49.2353 179.628 49.2353 179.17C49.2353 178.711 48.8638 178.34 48.4055 178.34C47.9472 178.34 47.5757 178.711 47.5757 179.17C47.5757 179.628 47.9472 180 48.4055 180Z" fill="#999999"/>
<path opacity="0.7" d="M51.794 181.936C52.2523 181.936 52.6238 181.564 52.6238 181.106C52.6238 180.648 52.2523 180.276 51.794 180.276C51.3357 180.276 50.9642 180.648 50.9642 181.106C50.9642 181.564 51.3357 181.936 51.794 181.936Z" fill="#999999"/>
<path opacity="0.7" d="M55.2515 183.665C55.7098 183.665 56.0813 183.293 56.0813 182.835C56.0813 182.376 55.7098 182.005 55.2515 182.005C54.7932 182.005 54.4217 182.376 54.4217 182.835C54.4217 183.293 54.7932 183.665 55.2515 183.665Z" fill="#999999"/>
<path opacity="0.7" d="M58.7781 185.255C59.2364 185.255 59.6079 184.883 59.6079 184.425C59.6079 183.967 59.2364 183.595 58.7781 183.595C58.3198 183.595 57.9483 183.967 57.9483 184.425C57.9483 184.883 58.3198 185.255 58.7781 185.255Z" fill="#999999"/>
<path opacity="0.7" d="M62.374 186.707C62.8322 186.707 63.2038 186.336 63.2038 185.877C63.2038 185.419 62.8322 185.047 62.374 185.047C61.9157 185.047 61.5442 185.419 61.5442 185.877C61.5442 186.336 61.9157 186.707 62.374 186.707Z" fill="#999999"/>
<path opacity="0.7" d="M66.039 188.021C66.4973 188.021 66.8688 187.65 66.8688 187.191C66.8688 186.733 66.4973 186.361 66.039 186.361C65.5807 186.361 65.2092 186.733 65.2092 187.191C65.2092 187.65 65.5807 188.021 66.039 188.021Z" fill="#999999"/>
<path opacity="0.7" d="M69.7039 189.197C70.1622 189.197 70.5337 188.825 70.5337 188.367C70.5337 187.908 70.1622 187.537 69.7039 187.537C69.2456 187.537 68.8741 187.908 68.8741 188.367C68.8741 188.825 69.2456 189.197 69.7039 189.197Z" fill="#999999"/>
<path opacity="0.7" d="M73.4382 190.234C73.8964 190.234 74.268 189.862 74.268 189.404C74.268 188.946 73.8964 188.574 73.4382 188.574C72.9799 188.574 72.6084 188.946 72.6084 189.404C72.6084 189.862 72.9799 190.234 73.4382 190.234Z" fill="#999999"/>
<path opacity="0.7" d="M77.2414 191.064C77.6997 191.064 78.0712 190.692 78.0712 190.234C78.0712 189.776 77.6997 189.404 77.2414 189.404C76.7831 189.404 76.4116 189.776 76.4116 190.234C76.4116 190.692 76.7831 191.064 77.2414 191.064Z" fill="#999999"/>
<path opacity="0.7" d="M81.0447 191.755C81.503 191.755 81.8745 191.384 81.8745 190.925C81.8745 190.467 81.503 190.096 81.0447 190.096C80.5864 190.096 80.2149 190.467 80.2149 190.925C80.2149 191.384 80.5864 191.755 81.0447 191.755Z" fill="#999999"/>
<path opacity="0.7" d="M84.8481 192.308C85.3064 192.308 85.6779 191.937 85.6779 191.479C85.6779 191.02 85.3064 190.649 84.8481 190.649C84.3898 190.649 84.0183 191.02 84.0183 191.479C84.0183 191.937 84.3898 192.308 84.8481 192.308Z" fill="#999999"/>
<path opacity="0.7" d="M88.7204 192.654C89.1787 192.654 89.5502 192.283 89.5502 191.824C89.5502 191.366 89.1787 190.995 88.7204 190.995C88.2621 190.995 87.8906 191.366 87.8906 191.824C87.8906 192.283 88.2621 192.654 88.7204 192.654Z" fill="#999999"/>
<path opacity="0.7" d="M92.5929 192.931C93.0512 192.931 93.4227 192.559 93.4227 192.101C93.4227 191.643 93.0512 191.271 92.5929 191.271C92.1346 191.271 91.7631 191.643 91.7631 192.101C91.7631 192.559 92.1346 192.931 92.5929 192.931Z" fill="#999999"/>
<path opacity="0.7" d="M96.8803 193C97.3386 193 97.7101 192.628 97.7101 192.17C97.7101 191.712 97.3386 191.34 96.8803 191.34C96.422 191.34 96.0505 191.712 96.0505 192.17C96.0505 192.628 96.422 193 96.8803 193Z" fill="#999999"/>
<path opacity="0.7" d="M101.098 192.931C101.557 192.931 101.928 192.559 101.928 192.101C101.928 191.643 101.557 191.271 101.098 191.271C100.64 191.271 100.269 191.643 100.269 192.101C100.269 192.559 100.64 192.931 101.098 192.931Z" fill="#999999"/>
<path opacity="0.7" d="M105.248 192.585C105.706 192.585 106.077 192.214 106.077 191.755C106.077 191.297 105.706 190.925 105.248 190.925C104.789 190.925 104.418 191.297 104.418 191.755C104.418 192.214 104.789 192.585 105.248 192.585Z" fill="#999999"/>
<path opacity="0.7" d="M109.12 192.17C109.578 192.17 109.95 191.799 109.95 191.34C109.95 190.882 109.578 190.51 109.12 190.51C108.662 190.51 108.29 190.882 108.29 191.34C108.29 191.799 108.662 192.17 109.12 192.17Z" fill="#999999"/>
<path opacity="0.7" d="M112.992 191.548C113.451 191.548 113.822 191.176 113.822 190.718C113.822 190.26 113.451 189.888 112.992 189.888C112.534 189.888 112.163 190.26 112.163 190.718C112.163 191.176 112.534 191.548 112.992 191.548Z" fill="#999999"/>
<path opacity="0.7" d="M116.796 190.856C117.254 190.856 117.626 190.485 117.626 190.026C117.626 189.568 117.254 189.197 116.796 189.197C116.338 189.197 115.966 189.568 115.966 190.026C115.966 190.485 116.338 190.856 116.796 190.856Z" fill="#999999"/>
<path opacity="0.7" d="M120.53 189.957C120.988 189.957 121.36 189.586 121.36 189.127C121.36 188.669 120.988 188.298 120.53 188.298C120.072 188.298 119.7 188.669 119.7 189.127C119.7 189.586 120.072 189.957 120.53 189.957Z" fill="#999999"/>
<path opacity="0.7" d="M124.264 188.92C124.722 188.92 125.094 188.548 125.094 188.09C125.094 187.632 124.722 187.26 124.264 187.26C123.806 187.26 123.434 187.632 123.434 188.09C123.434 188.548 123.806 188.92 124.264 188.92Z" fill="#999999"/>
<path opacity="0.7" d="M127.929 187.744C128.387 187.744 128.759 187.373 128.759 186.915C128.759 186.456 128.387 186.085 127.929 186.085C127.471 186.085 127.099 186.456 127.099 186.915C127.099 187.373 127.471 187.744 127.929 187.744Z" fill="#999999"/>
<path opacity="0.7" d="M131.525 186.361C131.983 186.361 132.355 185.99 132.355 185.532C132.355 185.073 131.983 184.702 131.525 184.702C131.066 184.702 130.695 185.073 130.695 185.532C130.695 185.99 131.066 186.361 131.525 186.361Z" fill="#999999"/>
<path opacity="0.7" d="M135.121 184.909C135.579 184.909 135.95 184.538 135.95 184.079C135.95 183.621 135.579 183.25 135.121 183.25C134.662 183.25 134.291 183.621 134.291 184.079C134.291 184.538 134.662 184.909 135.121 184.909Z" fill="#999999"/>
<path opacity="0.7" d="M138.647 183.25C139.106 183.25 139.477 182.878 139.477 182.42C139.477 181.961 139.106 181.59 138.647 181.59C138.189 181.59 137.818 181.961 137.818 182.42C137.818 182.878 138.189 183.25 138.647 183.25Z" fill="#999999"/>
<path opacity="0.7" d="M142.036 181.452C142.494 181.452 142.866 181.08 142.866 180.622C142.866 180.164 142.494 179.792 142.036 179.792C141.577 179.792 141.206 180.164 141.206 180.622C141.206 181.08 141.577 181.452 142.036 181.452Z" fill="#999999"/>
<path opacity="0.7" d="M145.424 179.585C145.882 179.585 146.254 179.213 146.254 178.755C146.254 178.296 145.882 177.925 145.424 177.925C144.966 177.925 144.594 178.296 144.594 178.755C144.594 179.213 144.966 179.585 145.424 179.585Z" fill="#999999"/>
<path opacity="0.7" d="M148.674 177.51C149.132 177.51 149.504 177.139 149.504 176.68C149.504 176.222 149.132 175.85 148.674 175.85C148.216 175.85 147.844 176.222 147.844 176.68C147.844 177.139 148.216 177.51 148.674 177.51Z" fill="#999999"/>
<path opacity="0.7" d="M151.855 175.366C152.314 175.366 152.685 174.995 152.685 174.537C152.685 174.078 152.314 173.707 151.855 173.707C151.397 173.707 151.025 174.078 151.025 174.537C151.025 174.995 151.397 175.366 151.855 175.366Z" fill="#999999"/>
<path opacity="0.7" d="M154.967 173.015C155.425 173.015 155.797 172.644 155.797 172.185C155.797 171.727 155.425 171.356 154.967 171.356C154.509 171.356 154.137 171.727 154.137 172.185C154.137 172.644 154.509 173.015 154.967 173.015Z" fill="#999999"/>
<path opacity="0.7" d="M158.01 170.595C158.468 170.595 158.839 170.224 158.839 169.765C158.839 169.307 158.468 168.935 158.01 168.935C157.551 168.935 157.18 169.307 157.18 169.765C157.18 170.224 157.551 170.595 158.01 170.595Z" fill="#999999"/>
<path opacity="0.7" d="M160.914 168.036C161.372 168.036 161.744 167.665 161.744 167.207C161.744 166.748 161.372 166.377 160.914 166.377C160.456 166.377 160.084 166.748 160.084 167.207C160.084 167.665 160.456 168.036 160.914 168.036Z" fill="#999999"/>
<path opacity="0.7" d="M163.68 165.409C164.138 165.409 164.51 165.037 164.51 164.579C164.51 164.121 164.138 163.749 163.68 163.749C163.222 163.749 162.85 164.121 162.85 164.579C162.85 165.037 163.222 165.409 163.68 165.409Z" fill="#999999"/>
<path opacity="0.7" d="M166.446 162.643C166.904 162.643 167.276 162.271 167.276 161.813C167.276 161.355 166.904 160.983 166.446 160.983C165.988 160.983 165.616 161.355 165.616 161.813C165.616 162.271 165.988 162.643 166.446 162.643Z" fill="#999999"/>
<path opacity="0.7" d="M169.005 159.738C169.463 159.738 169.834 159.367 169.834 158.909C169.834 158.45 169.463 158.079 169.005 158.079C168.546 158.079 168.175 158.45 168.175 158.909C168.175 159.367 168.546 159.738 169.005 159.738Z" fill="#999999"/>
<path opacity="0.7" d="M171.494 156.765C171.952 156.765 172.324 156.393 172.324 155.935C172.324 155.477 171.952 155.105 171.494 155.105C171.036 155.105 170.664 155.477 170.664 155.935C170.664 156.393 171.036 156.765 171.494 156.765Z" fill="#999999"/>
<path opacity="0.7" d="M173.845 153.653C174.303 153.653 174.675 153.282 174.675 152.823C174.675 152.365 174.303 151.993 173.845 151.993C173.387 151.993 173.015 152.365 173.015 152.823C173.015 153.282 173.387 153.653 173.845 153.653Z" fill="#999999"/>
<path opacity="0.7" d="M176.058 150.472C176.516 150.472 176.888 150.101 176.888 149.642C176.888 149.184 176.516 148.813 176.058 148.813C175.6 148.813 175.228 149.184 175.228 149.642C175.228 150.101 175.6 150.472 176.058 150.472Z" fill="#999999"/>
<path opacity="0.7" d="M178.132 147.222C178.591 147.222 178.962 146.85 178.962 146.392C178.962 145.934 178.591 145.562 178.132 145.562C177.674 145.562 177.303 145.934 177.303 146.392C177.303 146.85 177.674 147.222 178.132 147.222Z" fill="#999999"/>
<path opacity="0.7" d="M180.069 143.834C180.527 143.834 180.899 143.462 180.899 143.004C180.899 142.546 180.527 142.174 180.069 142.174C179.61 142.174 179.239 142.546 179.239 143.004C179.239 143.462 179.61 143.834 180.069 143.834Z" fill="#999999"/>
<path opacity="0.7" d="M181.936 140.445C182.394 140.445 182.766 140.074 182.766 139.615C182.766 139.157 182.394 138.786 181.936 138.786C181.477 138.786 181.106 139.157 181.106 139.615C181.106 140.074 181.477 140.445 181.936 140.445Z" fill="#999999"/>
<path opacity="0.7" d="M183.595 136.988C184.054 136.988 184.425 136.616 184.425 136.158C184.425 135.7 184.054 135.328 183.595 135.328C183.137 135.328 182.766 135.7 182.766 136.158C182.766 136.616 183.137 136.988 183.595 136.988Z" fill="#999999"/>
<path opacity="0.7" d="M185.117 133.392C185.575 133.392 185.946 133.02 185.946 132.562C185.946 132.104 185.575 131.732 185.117 131.732C184.658 131.732 184.287 132.104 184.287 132.562C184.287 133.02 184.658 133.392 185.117 133.392Z" fill="#999999"/>
<path opacity="0.7" d="M186.5 129.796C186.958 129.796 187.33 129.425 187.33 128.966C187.33 128.508 186.958 128.136 186.5 128.136C186.041 128.136 185.67 128.508 185.67 128.966C185.67 129.425 186.041 129.796 186.5 129.796Z" fill="#999999"/>
<path opacity="0.7" d="M187.744 126.062C188.203 126.062 188.574 125.69 188.574 125.232C188.574 124.774 188.203 124.402 187.744 124.402C187.286 124.402 186.915 124.774 186.915 125.232C186.915 125.69 187.286 126.062 187.744 126.062Z" fill="#999999"/>
<path opacity="0.7" d="M188.851 122.397C189.309 122.397 189.681 122.025 189.681 121.567C189.681 121.109 189.309 120.737 188.851 120.737C188.393 120.737 188.021 121.109 188.021 121.567C188.021 122.025 188.393 122.397 188.851 122.397Z" fill="#999999"/>
<path opacity="0.7" d="M189.819 118.594C190.277 118.594 190.649 118.222 190.649 117.764C190.649 117.306 190.277 116.934 189.819 116.934C189.361 116.934 188.989 117.306 188.989 117.764C188.989 118.222 189.361 118.594 189.819 118.594Z" fill="#999999"/>
<path opacity="0.7" d="M190.58 114.86C191.038 114.86 191.41 114.488 191.41 114.03C191.41 113.571 191.038 113.2 190.58 113.2C190.121 113.2 189.75 113.571 189.75 114.03C189.75 114.488 190.121 114.86 190.58 114.86Z" fill="#999999"/>
<path opacity="0.7" d="M191.202 110.987C191.66 110.987 192.032 110.616 192.032 110.157C192.032 109.699 191.66 109.327 191.202 109.327C190.744 109.327 190.372 109.699 190.372 110.157C190.372 110.616 190.744 110.987 191.202 110.987Z" fill="#999999"/>
</g>
</svg>
