<svg width="77" height="154" viewBox="0 0 77 154" fill="none" xmlns="http://www.w3.org/2000/svg">
<path d="M40.2124 94.0371C40.2124 94.0371 49.109 62.0984 56.2262 51.2446C63.3435 40.3907 76.5994 28.4693 76.5994 28.4693C76.5994 28.4693 76.3325 77.7564 40.2124 94.0371Z" fill="#E71989"/>
<path d="M40.9239 93.5034C43.9488 88.5213 46.5288 83.2723 49.0198 78.0233C50.0874 72.3295 51.4219 66.6357 53.4681 61.2088C53.4681 61.1198 53.646 61.1198 53.646 61.2978C52.4895 66.3688 51.0661 71.3509 49.8205 76.422C53.3792 68.6819 56.8488 60.764 61.1192 53.3798C62.0088 49.8212 63.6102 46.3515 65.2116 43.1487C65.3006 43.0598 65.3895 43.1487 65.3895 43.2377C64.233 45.7287 63.4323 48.3088 62.6316 50.8888C64.6778 47.597 66.902 44.4832 69.393 41.5474C69.5709 41.3694 69.8378 41.5474 69.7489 41.7253C64.0551 49.0205 60.0516 57.3833 56.315 65.7461C60.4075 61.3867 64.0551 56.6715 67.5247 51.7784C67.5247 51.6895 67.6137 51.7784 67.6137 51.8674C64.0551 57.4722 60.0516 62.4543 55.6033 67.3474C52.8454 73.4861 50.1764 79.7137 46.8846 85.5854C53.3791 80.0695 58.4502 72.9523 63.4323 66.013C63.5213 65.835 63.7882 66.013 63.6992 66.1909C58.7171 73.753 53.5571 80.8702 46.4398 86.4751C45.0164 89.0551 43.415 91.5461 41.6357 93.9482C41.1908 94.3041 40.6571 93.9482 40.9239 93.5034Z" fill="#263238"/>
<path d="M37.4545 96.8838C37.4545 96.8838 53.4684 67.4361 48.8421 38.7891C44.2159 10.2311 39.2338 0 39.2338 0C39.2338 0 14.0565 44.5719 37.4545 96.8838Z" fill="#E71989"/>
<path d="M30.9599 50.6216C32.2054 58.8954 34.5185 66.6354 37.0986 74.4644C37.1875 63.9664 37.3655 53.4685 37.6324 42.9705C35.7641 36.565 34.8744 30.0705 34.6075 23.398C34.6075 23.2201 34.8744 23.2201 34.8744 23.398C35.3192 29.0918 36.3868 34.6967 37.7213 40.2125C37.9882 31.5829 38.2551 22.9532 38.522 14.2345C38.522 14.0566 38.7889 14.0566 38.7889 14.2345C38.7889 27.7573 38.7889 41.2801 38.7 54.8029C40.7462 49.554 42.0806 44.216 43.3262 38.7891C43.3262 38.7001 43.4151 38.7891 43.4151 38.7891C42.9703 45.1057 41.0131 51.2443 38.7 57.0271C38.611 65.6568 38.522 74.2865 38.3441 82.9161C41.0131 73.7527 43.9489 64.8561 44.7496 55.1588C44.7496 55.0698 44.9276 55.0698 44.9276 55.1588C44.7496 65.8347 41.9917 76.6885 38.433 86.8306C38.433 86.9196 38.3441 87.0086 38.2551 87.0975C38.1662 90.2114 38.0772 93.4141 37.9882 96.5279C37.9882 96.9727 37.2765 96.9727 37.2765 96.5279C37.1875 90.0334 37.0986 83.6279 37.0986 77.1334C33.5399 68.8595 31.5827 59.6071 30.782 50.6216C30.782 50.5326 30.871 50.5326 30.9599 50.6216Z" fill="#263238"/>
<path d="M32.0275 45.9954C32.5613 48.4864 33.0061 51.2443 33.1841 53.8243C33.1841 53.9133 33.0951 53.9133 33.0061 53.8243C32.3834 51.3333 31.9386 48.6643 31.6717 46.0843C31.6717 45.9064 31.9385 45.8174 32.0275 45.9954Z" fill="#263238"/>
<path d="M41.3688 24.4657C41.3688 24.3767 41.5467 24.3767 41.5467 24.4657C41.5467 26.245 41.1909 28.1133 40.7461 29.8036C40.7461 29.9816 40.4792 29.8926 40.5681 29.7147C40.835 28.0244 41.1019 26.245 41.3688 24.4657Z" fill="#263238"/>
<path d="M31.6718 99.1969C31.6718 99.1969 32.2946 68.4147 23.487 53.1126C14.6794 37.8105 0 30.0704 0 30.0704C0 30.0704 5.87175 84.2506 31.6718 99.1969Z" fill="#E71989"/>
<path d="M15.5693 72.8631C19.3058 78.201 22.9534 83.3611 27.4907 87.9873C25.7114 81.6707 23.6652 75.532 21.352 69.3934C16.37 65.0341 11.4768 60.5858 8.452 54.6251C8.36304 54.5361 8.54095 54.4472 8.62992 54.5361C11.9217 59.7851 16.281 63.9665 20.8182 68.0589C17.2596 58.8954 13.1672 49.9989 8.54097 41.2802C8.45201 41.1023 8.7189 40.8354 8.89683 41.1023C11.7437 45.6395 14.3237 50.3547 16.6368 55.1589C15.8361 51.8671 15.1244 48.4865 14.3238 45.2837C14.3238 45.1947 14.4127 45.1947 14.5017 45.2837C16.1031 49.3761 17.6155 53.9134 18.1493 58.3616C21.2631 65.212 23.8431 72.2403 25.8893 79.4466C25.6224 74.8203 25.3555 70.2831 24.9107 65.6569C24.9107 65.5679 25.0886 65.5679 25.0886 65.6569C26.0672 70.7279 26.512 75.9769 26.4231 81.1369C27.6686 85.7631 28.7362 90.3893 29.6259 95.0156C29.6259 95.1045 29.4479 95.1935 29.4479 95.1045C29.0031 93.1473 28.4693 91.19 27.9355 89.2328H27.8465C22.9534 84.3397 18.5051 78.9128 15.5693 72.8631C15.4803 72.8631 15.5693 72.8631 15.5693 72.8631Z" fill="#263238"/>
<path d="M5.33812 47.8638C6.31674 48.9314 7.20639 49.9989 8.18501 51.1555C8.9857 52.1341 10.0533 53.0238 10.765 54.0914C10.765 54.0914 10.765 54.1804 10.6761 54.1804C9.51951 53.4686 8.62984 52.3121 7.74018 51.2445C6.85052 50.1769 5.96088 49.1093 5.24915 47.9528C5.16018 47.8638 5.24915 47.7748 5.33812 47.8638Z" fill="#263238"/>
<path d="M57.8275 95.3715L56.6709 109.962L53.2903 154H24.0205L20.6398 109.962L19.4832 95.3715C20.7288 95.3715 38.5219 95.3715 38.5219 95.3715C38.5219 95.3715 56.671 95.3715 57.8275 95.3715Z" fill="#455A64"/>
<path d="M57.8276 95.3715L56.671 109.962H20.7288L19.5723 95.3715C20.8178 95.3715 38.611 95.3715 38.611 95.3715C38.611 95.3715 56.671 95.3715 57.8276 95.3715Z" fill="#37474F"/>
<path d="M17.1622 99.4485H60.4886V88.2388H17.1622V99.4485Z" fill="#455A64"/>
</svg>
