<svg width="44" height="178" viewBox="0 0 44 178" fill="none" xmlns="http://www.w3.org/2000/svg">
<path d="M42.3172 0H0V51.4043H42.3172V0Z" fill="#EBEBEB"/>
<path d="M37.5955 4.72142H4.89989V46.6823H37.5955V4.72142Z" fill="white"/>
<path d="M6.14713 4.72142H4.89989V46.6823H6.14713V4.72142Z" fill="#C7C7C7"/>
<path d="M43.6534 0H42.4062V51.4043H43.6534V0Z" fill="#C7C7C7"/>
<path d="M21.9967 37.3095H29.6584L29.6584 14.3246H21.9967V37.3095Z" fill="#EBEBEB"/>
<path d="M12.4058 21.6788L32.9853 21.6788V10.4536L12.4058 10.4536V21.6788Z" stroke="#EBEBEB" stroke-miterlimit="10"/>
<path d="M42.3172 126.596H0V178H42.3172V126.596Z" fill="#EBEBEB"/>
<path d="M37.5955 131.317H4.89989V173.278H37.5955V131.317Z" fill="white"/>
<path d="M6.14713 131.317H4.89989V173.278H6.14713V131.317Z" fill="#C7C7C7"/>
<path d="M43.6534 126.596H42.4062V178H43.6534V126.596Z" fill="#C7C7C7"/>
<path d="M23.5195 141.028H15.8579V164.013H23.5195V141.028Z" fill="#EBEBEB"/>
<path d="M33.0519 137.108H12.4724V148.333H33.0519V137.108Z" stroke="#EBEBEB" stroke-miterlimit="10"/>
<path d="M42.3172 63.5203H0V114.925H42.3172V63.5203Z" fill="#EBEBEB"/>
<path d="M37.5955 68.2417H4.89989V110.203H37.5955V68.2417Z" fill="white"/>
<path d="M6.14713 68.2417H4.89989V110.203H6.14713V68.2417Z" fill="#C7C7C7"/>
<path d="M43.6534 63.5203H42.4062V114.925H43.6534V63.5203Z" fill="#C7C7C7"/>
<path d="M24.6777 79.111H18.0851V95.7706H24.6777V79.111Z" fill="#EBEBEB"/>
<path d="M31.6264 89.1777H13.8977V100.67H31.6264V89.1777Z" stroke="#DBDBDB" stroke-miterlimit="10"/>
</svg>
