<svg width="65" height="11" viewBox="0 0 65 11" fill="none" xmlns="http://www.w3.org/2000/svg">
<path d="M30.9435 8.59456C30.9731 8.56536 30.9964 8.53044 31.012 8.49193C31.0277 8.45342 31.0353 8.41214 31.0345 8.37058C31.0336 8.32903 31.0243 8.28809 31.0072 8.25025C30.99 8.2124 30.9652 8.17846 30.9345 8.15048C30.335 7.64344 29.5753 7.36523 28.7901 7.36523C28.005 7.36523 27.2452 7.64344 26.6458 8.15048C26.6149 8.1781 26.59 8.21183 26.5728 8.24953C26.5556 8.28723 26.5464 8.32808 26.5457 8.36952C26.5446 8.41119 26.552 8.45266 26.5674 8.49136C26.5829 8.53007 26.6062 8.56519 26.6358 8.59456L28.5751 10.5509C28.6031 10.5795 28.6364 10.6022 28.6733 10.6177C28.7101 10.6332 28.7497 10.6412 28.7896 10.6412C28.8296 10.6412 28.8692 10.6332 28.906 10.6177C28.9429 10.6022 28.9762 10.5795 29.0042 10.5509L30.9435 8.59456ZM28.7901 5.89408C29.9729 5.8939 31.1135 6.33304 31.9907 7.1263C32.0467 7.18098 32.1219 7.21158 32.2002 7.21158C32.2785 7.21158 32.3537 7.18098 32.4098 7.1263L33.531 5.9931C33.5603 5.96379 33.5835 5.92892 33.5992 5.89052C33.6149 5.85212 33.6227 5.81097 33.6222 5.7695C33.6217 5.72804 33.613 5.68708 33.5965 5.64904C33.58 5.61101 33.556 5.57666 33.526 5.54802C32.2404 4.35189 30.5496 3.68694 28.7936 3.68694C27.0377 3.68694 25.3469 4.35189 24.0613 5.54802C24.0306 5.57621 24.0059 5.61033 23.9887 5.64831C23.9715 5.6863 23.9622 5.72737 23.9613 5.76906C23.9608 5.81058 23.9686 5.85178 23.9842 5.89025C23.9998 5.92872 24.023 5.96369 24.0523 5.9931L25.1725 7.1263C25.2286 7.18158 25.3043 7.21256 25.383 7.21256C25.4618 7.21256 25.5374 7.18158 25.5936 7.1263C26.4691 6.33246 27.6083 5.89224 28.7901 5.89108V5.89408ZM28.7901 2.21143C30.9405 2.21121 33.0087 3.03727 34.5672 4.51884C34.6233 4.57412 34.6989 4.6051 34.7777 4.6051C34.8565 4.6051 34.9321 4.57412 34.9882 4.51884L36.1094 3.38664C36.1387 3.35763 36.1619 3.32302 36.1775 3.28487C36.1932 3.24673 36.201 3.20582 36.2005 3.1646C36.2007 3.12343 36.1925 3.08265 36.1763 3.0448C36.1602 3.00694 36.1364 2.97282 36.1065 2.94456C34.1377 1.05761 31.5161 0.00415113 28.7891 0.00415113C26.0622 0.00415113 23.4406 1.05761 21.4718 2.94456C21.4423 2.97311 21.4188 3.00728 21.4026 3.04507C21.3865 3.08286 21.378 3.1235 21.3778 3.1646C21.3776 3.20577 21.3856 3.24658 21.4012 3.28468C21.4168 3.32278 21.4398 3.35743 21.4688 3.38664L22.5921 4.51884C22.6481 4.57381 22.7235 4.60461 22.8021 4.60461C22.8806 4.60461 22.956 4.57381 23.0121 4.51884C24.5703 3.03576 26.639 2.20855 28.7901 2.20842V2.21143Z" fill="#4A4B4D"/>
<path d="M14.5576 0.324033H15.5278C15.6552 0.323901 15.7815 0.348898 15.8993 0.397595C16.0172 0.446292 16.1242 0.517734 16.2144 0.607835C16.3046 0.697937 16.3762 0.804933 16.425 0.922705C16.4738 1.04048 16.4989 1.16672 16.4989 1.2942V9.7047C16.4991 9.83222 16.474 9.95852 16.4252 10.0764C16.3765 10.1942 16.3049 10.3012 16.2147 10.3914C16.1245 10.4815 16.0174 10.5529 15.8995 10.6016C15.7816 10.6502 15.6553 10.6751 15.5278 10.6749H14.5576C14.3003 10.6749 14.0535 10.5727 13.8716 10.3907C13.6896 10.2088 13.5874 9.962 13.5874 9.7047V1.2942C13.5874 1.0369 13.6896 0.790131 13.8716 0.608188C14.0535 0.426246 14.3003 0.324033 14.5576 0.324033ZM10.0298 2.58843H10.9999C11.1274 2.5883 11.2537 2.6133 11.3715 2.662C11.4893 2.71069 11.5964 2.78214 11.6866 2.87224C11.7768 2.96234 11.8483 3.06933 11.8972 3.18711C11.946 3.30488 11.9711 3.43112 11.9711 3.55861V9.7047C11.9711 9.83219 11.946 9.95843 11.8972 10.0762C11.8483 10.194 11.7768 10.301 11.6866 10.3911C11.5964 10.4812 11.4893 10.5526 11.3715 10.6013C11.2537 10.65 11.1274 10.675 10.9999 10.6749H10.0298C9.90229 10.6751 9.77604 10.6502 9.65821 10.6016C9.54038 10.5529 9.43332 10.4814 9.34318 10.3913C9.25304 10.3012 9.18157 10.1941 9.13291 10.0763C9.08425 9.95845 9.05933 9.83218 9.05959 9.7047V3.55861C9.05946 3.43116 9.08447 3.30495 9.13318 3.18718C9.18189 3.06942 9.25334 2.96241 9.34346 2.8723C9.43357 2.78218 9.5406 2.71073 9.65836 2.66202C9.77613 2.61331 9.90232 2.5883 10.0298 2.58843ZM5.50098 4.85284H6.47216C6.72938 4.8531 6.97597 4.9554 7.15786 5.13729C7.33974 5.31917 7.44207 5.56578 7.44233 5.82301V9.7047C7.44233 9.962 7.34011 10.2088 7.15816 10.3907C6.97622 10.5727 6.72946 10.6749 6.47216 10.6749H5.50098C5.37354 10.675 5.24731 10.65 5.12954 10.6013C5.01178 10.5526 4.90478 10.4811 4.81467 10.391C4.72455 10.3009 4.6531 10.1939 4.60439 10.0761C4.55569 9.95836 4.53067 9.83214 4.5308 9.7047V5.82301C4.5308 5.5657 4.63303 5.31894 4.81497 5.13699C4.99692 4.95505 5.24367 4.85284 5.50098 4.85284ZM0.971181 6.79418H1.94135C2.19866 6.79418 2.44542 6.89639 2.62736 7.07834C2.8093 7.26028 2.91153 7.50705 2.91153 7.76435V9.7047C2.91166 9.83214 2.88665 9.95836 2.83794 10.0761C2.78923 10.1939 2.71778 10.3009 2.62766 10.391C2.53755 10.4811 2.43052 10.5526 2.31276 10.6013C2.19499 10.65 2.0688 10.675 1.94135 10.6749H0.971181C0.843692 10.675 0.717416 10.65 0.599594 10.6013C0.481772 10.5526 0.3747 10.4812 0.284505 10.3911C0.194311 10.301 0.122776 10.194 0.0739577 10.0762C0.0251395 9.95843 4.47678e-07 9.83219 5.15427e-07 9.7047V7.76635C-0.000130916 7.63873 0.0248748 7.51234 0.073622 7.3944C0.122369 7.27645 0.193914 7.16927 0.284109 7.07898C0.374303 6.9887 0.481396 6.91707 0.599289 6.8682C0.717182 6.81933 0.843561 6.79418 0.971181 6.79418Z" fill="#4A4B4D"/>
<path d="M59.8496 0.971172C60.2783 0.971702 60.6892 1.1423 60.9922 1.44551C61.2953 1.74873 61.4656 2.15978 61.4659 2.58846V8.41149C61.4656 8.84017 61.2953 9.25123 60.9922 9.55444C60.6892 9.85766 60.2783 10.0283 59.8496 10.0288H43.6727C43.2441 10.0283 42.8331 9.85766 42.5301 9.55444C42.227 9.25123 42.0567 8.84017 42.0564 8.41149V2.58846C42.0567 2.15978 42.227 1.74873 42.5301 1.44551C42.8331 1.1423 43.2441 0.971702 43.6727 0.971172H59.8496ZM59.8496 0H43.6727C43.3329 0.00013132 42.9965 0.0671883 42.6826 0.197342C42.3688 0.327495 42.0836 0.518196 41.8434 0.758557C41.6032 0.998917 41.4128 1.28423 41.2828 1.59821C41.1529 1.91218 41.0861 2.24867 41.0863 2.58846V8.41149C41.0861 8.75128 41.1529 9.08777 41.2828 9.40175C41.4128 9.71572 41.6032 10.001 41.8434 10.2414C42.0836 10.4818 42.3688 10.6725 42.6826 10.8026C42.9965 10.9328 43.3329 10.9998 43.6727 11H59.8496C60.1894 10.9998 60.5258 10.9328 60.8397 10.8026C61.1536 10.6725 61.4387 10.4818 61.6789 10.2414C61.9191 10.001 62.1096 9.71572 62.2395 9.40175C62.3694 9.08777 62.4362 8.75128 62.436 8.41149V2.58846C62.4362 2.24867 62.3694 1.91218 62.2395 1.59821C62.1096 1.28423 61.9191 0.998917 61.6789 0.758557C61.4387 0.518196 61.1536 0.327495 60.8397 0.197342C60.5258 0.0671883 60.1894 0.00013132 59.8496 0Z" fill="#4A4B4D"/>
<path d="M63.4073 3.55862V7.4413C63.7893 7.28046 64.1154 7.01046 64.3447 6.66513C64.574 6.3198 64.6963 5.91449 64.6963 5.49996C64.6963 5.08543 64.574 4.68012 64.3447 4.33479C64.1154 3.98946 63.7893 3.71946 63.4073 3.55862Z" fill="#4A4B4D"/>
<path d="M44.3218 1.94138H59.2014C59.3714 1.94138 59.5397 1.97486 59.6967 2.0399C59.8537 2.10494 59.9964 2.20028 60.1166 2.32046C60.2368 2.44064 60.3321 2.58331 60.3971 2.74033C60.4622 2.89736 60.4957 3.06565 60.4957 3.23561V7.76442C60.4957 7.93451 60.4622 8.10294 60.3971 8.26008C60.332 8.41723 60.2366 8.56001 60.1163 8.68028C59.996 8.80056 59.8532 8.89596 59.6961 8.96106C59.539 9.02615 59.3705 9.05965 59.2004 9.05965H44.3218C43.9783 9.05965 43.6488 8.92319 43.4059 8.68028C43.163 8.43738 43.0266 8.10793 43.0266 7.76442V3.23661C43.0266 2.8931 43.163 2.56365 43.4059 2.32075C43.6488 2.07785 43.9783 1.94138 44.3218 1.94138V1.94138Z" fill="#4A4B4D"/>
</svg>
