<svg width="135" height="104" viewBox="0 0 135 104" fill="none" xmlns="http://www.w3.org/2000/svg">
<path opacity="0.5" d="M124.728 33.6253H113.298L104.762 9.80468C102.881 4.39755 96.949 1.62092 91.7406 3.52072L9.27279 33.333C3.91962 35.2328 1.17069 41.2245 3.05153 46.6316L19.5451 93.1037C20.9919 97.3417 25.0429 99.9722 29.2387 99.9722C31.1195 102.31 34.0131 103.772 37.1961 103.772H124.728C130.37 103.772 135 99.0954 135 93.396V44.0011C135 38.3017 130.37 33.6253 124.728 33.6253Z" fill="#808080"/>
<path d="M118.795 53.3533C120.676 58.7604 117.927 64.606 112.574 66.6519L30.2507 96.4642C24.8976 98.364 19.1104 95.5874 17.0848 90.1802L0.591289 43.7081C-1.28955 38.301 1.45937 32.4555 6.81254 30.4095L89.2803 0.597249C94.6335 -1.30255 100.421 1.47408 102.446 6.88121L118.795 53.3533Z" fill="#20CFC1"/>
<path d="M52.8217 28.9488L96.9492 13.0197L52.8217 28.9488Z" fill="white"/>
<path d="M97.4785 14.4465L96.4531 11.5578L52.3283 27.538L53.3537 30.4268L97.4785 14.4465Z" fill="#232323"/>
<path d="M56.4387 39.3247L100.566 23.3956L56.4387 39.3247Z" fill="white"/>
<path d="M101.067 24.7444L100.041 21.8557L55.9163 37.8407L56.942 40.7294L101.067 24.7444Z" fill="#232323"/>
<path d="M118.795 53.3533C120.676 58.7604 117.927 64.606 112.574 66.6519L30.2507 96.4642C24.8976 98.364 19.1104 95.5874 17.0848 90.1802L0.591289 43.7081C-1.28955 38.301 1.45937 32.4555 6.81254 30.4095L89.2803 0.597249C94.6335 -1.30255 100.421 1.47408 102.446 6.88121L118.795 53.3533Z" fill="#0C4060"/>
<path d="M52.8217 28.9488L96.9492 13.0197L52.8217 28.9488Z" fill="white"/>
<path d="M97.4785 14.4465L96.4531 11.5578L52.3283 27.538L53.3537 30.4268L97.4785 14.4465Z" fill="#BDC7D0"/>
<path d="M56.4387 39.3247L100.566 23.3956L56.4387 39.3247Z" fill="white"/>
<path d="M101.067 24.7444L100.041 21.8557L55.9163 37.8407L56.942 40.7294L101.067 24.7444Z" fill="#BDC7D0"/>
<path d="M132.541 90.4733C132.541 96.1727 127.911 100.849 122.268 100.849H34.7367C29.0941 100.849 24.4644 96.1727 24.4644 90.4733V41.0784C24.4644 35.379 29.0941 30.7026 34.7367 30.7026H122.268C127.911 30.7026 132.541 35.379 132.541 41.0784V90.4733Z" fill="#26D5C7"/>
<path d="M128.924 68.2602H29.0942C28.2261 68.2602 27.5027 67.5295 27.5027 66.6527C27.5027 65.7759 28.2261 65.0452 29.0942 65.0452H129.068C129.936 65.0452 130.66 65.7759 130.66 66.6527C130.515 67.5295 129.792 68.2602 128.924 68.2602Z" fill="#FFC021"/>
<path d="M125.307 77.6131H78.4301V89.8888H125.307V77.6131Z" fill="white"/>
<path d="M125.306 46.4855H78.4301C77.562 46.4855 76.9833 45.7548 76.9833 45.0241C76.9833 44.2934 77.7067 43.5627 78.4301 43.5627H125.306C126.175 43.5627 126.753 44.2934 126.753 45.0241C126.753 45.7548 126.175 46.4855 125.306 46.4855Z" fill="#363636"/>
<path d="M125.306 57.446H78.4301C77.562 57.446 76.9833 56.7153 76.9833 55.9846C76.9833 55.2539 77.7067 54.5232 78.4301 54.5232H125.306C126.175 54.5232 126.753 55.2539 126.753 55.9846C126.753 56.7153 126.175 57.446 125.306 57.446Z" fill="#363636"/>
</svg>
