<svg width="24" height="24" viewBox="0 0 24 24" fill="none" xmlns="http://www.w3.org/2000/svg">
<path d="M23.802 20.5652C23.7496 20.324 23.6046 20.1133 23.3985 19.979C23.1925 19.8447 22.9421 19.7975 22.7017 19.8478C22.4613 19.898 22.2503 20.0417 22.1146 20.2475C21.9789 20.4533 21.9295 20.7046 21.977 20.9469C22.0071 21.0897 22.005 21.2376 21.971 21.3795C21.9369 21.5215 21.8717 21.654 21.7801 21.7674C21.6907 21.8797 21.5771 21.9703 21.4479 22.0322C21.3187 22.0942 21.1773 22.1259 21.0342 22.1251H2.82978C2.68667 22.1259 2.54523 22.0942 2.41605 22.0322C2.28687 21.9703 2.17331 21.8797 2.08386 21.7674C1.99228 21.654 1.92707 21.5215 1.89301 21.3795C1.85894 21.2376 1.85689 21.0897 1.88701 20.9469C2.36759 18.6723 3.59537 16.6266 5.37265 15.1391C7.14994 13.6516 9.37329 12.8089 11.6847 12.7466C11.7638 12.7466 11.846 12.7466 11.9314 12.7466C12.0168 12.7466 12.0994 12.7466 12.1792 12.7466C13.8234 12.7858 15.4341 13.222 16.8753 14.0187C18.3166 14.8153 19.5461 15.9489 20.4602 17.3238C20.5284 17.426 20.6159 17.5138 20.7177 17.5821C20.8196 17.6503 20.9338 17.6978 21.0539 17.7216C21.174 17.7455 21.2976 17.7453 21.4176 17.7212C21.5376 17.697 21.6517 17.6493 21.7534 17.5808C21.8551 17.5123 21.9424 17.4243 22.0103 17.3218C22.0782 17.2194 22.1253 17.1045 22.149 16.9838C22.1728 16.863 22.1726 16.7387 22.1486 16.618C22.1245 16.4973 22.0771 16.3825 22.009 16.2803C20.5049 14.0201 18.2926 12.3305 15.7238 11.4801C16.7901 10.6786 17.5784 9.55984 17.9769 8.28246C18.3754 7.00509 18.3638 5.63397 17.9439 4.36356C17.524 3.09316 16.717 1.98797 15.6373 1.20474C14.5577 0.421506 13.2603 0 11.929 0C10.5978 0 9.30035 0.421506 8.22072 1.20474C7.14109 1.98797 6.33408 3.09316 5.91414 4.36356C5.4942 5.63397 5.48266 7.00509 5.88114 8.28246C6.27963 9.55984 7.06792 10.6786 8.13421 11.4801C6.11437 12.1493 4.30509 13.341 2.888 14.9357C1.47092 16.5303 0.495876 18.4718 0.0607565 20.5652C-0.0260079 20.9796 -0.0197725 21.4083 0.0790085 21.82C0.17779 22.2317 0.366629 22.616 0.631776 22.9451C0.896922 23.2741 1.2317 23.5395 1.61173 23.722C1.99176 23.9044 2.40747 23.9994 2.8286 23.9999H21.033C21.4541 23.9994 21.8698 23.9044 22.2499 23.722C22.6299 23.5395 22.9647 23.2741 23.2298 22.9451C23.495 22.616 23.6838 22.2317 23.7826 21.82C23.8814 21.4083 23.8876 20.9796 23.8008 20.5652H23.802ZM7.45708 6.37823C7.45704 5.49799 7.71374 4.63706 8.19538 3.90206C8.67702 3.16706 9.36246 2.59027 10.1668 2.24312C10.9712 1.89597 11.8591 1.7937 12.7207 1.94898C13.5822 2.10426 14.3796 2.51026 15.014 3.11672C15.6484 3.72318 16.092 4.50345 16.2899 5.36091C16.4878 6.21837 16.4312 7.11537 16.1272 7.94082C15.8232 8.76627 15.2851 9.48392 14.5796 10.0049C13.8741 10.5259 13.0321 10.8273 12.1579 10.8719H11.9314H11.7061C10.5603 10.8126 9.48086 10.3135 8.69028 9.47739C7.8997 8.64129 7.4583 7.53199 7.45708 6.37823Z" fill="#E71989"/>
</svg>
