<svg width="28" height="28" viewBox="0 0 28 28" fill="none" xmlns="http://www.w3.org/2000/svg">
<path fill-rule="evenodd" clip-rule="evenodd" d="M18.7133 19.7051C19.32 19.1568 20.1133 18.8068 21 18.8068C22.8783 18.8068 24.4067 20.3351 24.4067 22.2135C24.4067 24.0918 22.8783 25.6201 21 25.6201C19.1217 25.6201 17.5933 24.0918 17.5933 22.2135C17.5933 21.9568 17.6283 21.7001 17.6867 21.4551L9.38 16.6018C8.75 17.1851 7.92167 17.5468 7 17.5468C5.06333 17.5468 3.5 15.9835 3.5 14.0468C3.5 12.1101 5.06333 10.5468 7 10.5468C7.92167 10.5468 8.75 10.9085 9.38 11.4918L17.605 6.69679C17.5467 6.42846 17.5 6.16013 17.5 5.88013C17.5 3.94346 19.0633 2.38013 21 2.38013C22.9367 2.38013 24.5 3.94346 24.5 5.88013C24.5 7.81679 22.9367 9.38013 21 9.38013C20.0783 9.38013 19.25 9.01846 18.62 8.43513L10.395 13.2301C10.4533 13.4985 10.5 13.7668 10.5 14.0468C10.5 14.3268 10.4533 14.5951 10.395 14.8635L18.7133 19.7051ZM22.1667 5.88013C22.1667 5.23846 21.6417 4.71346 21 4.71346C20.3583 4.71346 19.8333 5.23846 19.8333 5.88013C19.8333 6.52179 20.3583 7.04679 21 7.04679C21.6417 7.04679 22.1667 6.52179 22.1667 5.88013ZM7 15.2135C6.35833 15.2135 5.83333 14.6885 5.83333 14.0468C5.83333 13.4051 6.35833 12.8801 7 12.8801C7.64167 12.8801 8.16667 13.4051 8.16667 14.0468C8.16667 14.6885 7.64167 15.2135 7 15.2135ZM19.8333 22.2368C19.8333 22.8785 20.3583 23.4035 21 23.4035C21.6417 23.4035 22.1667 22.8785 22.1667 22.2368C22.1667 21.5951 21.6417 21.0701 21 21.0701C20.3583 21.0701 19.8333 21.5951 19.8333 22.2368Z" fill="white"/>
</svg>
