<svg width="41" height="70" viewBox="0 0 41 70" fill="none" xmlns="http://www.w3.org/2000/svg">
<path d="M20.4996 0C15.0644 0.00661859 9.85338 2.67164 6.01012 7.41019C2.16686 12.1487 0.00536809 18.5737 0 25.275C0 42.575 18.3454 67.962 19.1265 69.035C19.2997 69.2726 19.5115 69.4626 19.7481 69.5926C19.9847 69.7227 20.2409 69.7899 20.5 69.7899C20.7591 69.7899 21.0153 69.7227 21.2519 69.5926C21.4885 69.4626 21.7003 69.2726 21.8735 69.035C22.6546 67.963 41 42.571 41 25.275C40.9946 18.5735 38.833 12.1484 34.9896 7.40983C31.1462 2.67126 25.9349 0.00635388 20.4996 0V0ZM20.4996 37.992C18.4596 37.9922 16.4653 37.2465 14.769 35.8492C13.0727 34.4519 11.7506 32.4658 10.9698 30.142C10.189 27.8183 9.9847 25.2612 10.3827 22.7943C10.7806 20.3273 11.763 18.0613 13.2055 16.2827C14.648 14.5042 16.4859 13.293 18.4868 12.8023C20.4876 12.3116 22.5615 12.5636 24.4463 13.5262C26.331 14.4889 27.9418 16.119 29.0751 18.2104C30.2084 20.3019 30.8132 22.7607 30.8131 25.276C30.8098 28.6473 29.7222 31.8793 27.7888 34.2632C25.8553 36.647 23.2339 37.988 20.4996 37.992Z" fill="#EB2D7F"/>
</svg>
