<svg width="371" height="254" viewBox="0 0 371 254" fill="none" xmlns="http://www.w3.org/2000/svg">
<path d="M37.0998 240.706L25.4727 240.973L19.5261 241.061C17.5734 241.061 15.5321 241.061 13.5794 241.15H13.2244V240.795L13.1356 230.855V230.411H13.5794L25.2952 230.499C29.2005 230.499 33.1057 230.588 37.011 230.677H37.2773V230.943C37.2773 232.63 37.1885 234.316 37.1885 236.002L37.0998 240.706ZM37.0998 240.706L37.011 235.647C37.011 233.961 36.9222 232.363 36.9222 230.766L37.1885 231.032C33.2833 231.121 29.378 231.21 25.4727 231.21L13.7569 231.298L14.2007 230.855L14.112 240.795L13.7569 240.44C15.7096 240.44 17.6622 240.44 19.5261 240.529L25.384 240.618L37.0998 240.706Z" fill="#EBEBEB"/>
<path d="M23.9641 253.221L12.3371 253.487L6.39043 253.576C4.4378 253.576 2.39641 253.576 0.44378 253.664H0.088756V253.309L0 243.28V242.836H0.44378L12.1596 242.925C16.0648 242.925 19.9701 243.014 23.8754 243.102H24.1416V243.369C24.1416 245.055 24.0529 246.741 24.0529 248.428L23.9641 253.221ZM23.9641 253.221L23.8754 248.162C23.8754 246.475 23.7866 244.878 23.7866 243.28L24.0529 243.546C20.1476 243.635 16.2423 243.724 12.3371 243.724L0.621292 243.813L0.88756 243.28L0.798804 253.221L0.44378 252.866C2.39641 252.866 4.34904 252.866 6.21292 252.954L12.0708 253.043L23.9641 253.221Z" fill="#EBEBEB"/>
<path d="M324.581 130.116L312.953 130.383L307.007 130.471C305.054 130.471 303.013 130.471 301.06 130.56H300.705V130.205L300.616 120.265V119.821H301.06L312.776 119.91C316.681 119.91 320.586 119.998 324.492 120.087H324.758V120.353C324.758 122.04 324.669 123.726 324.669 125.412L324.581 130.116ZM324.581 130.116L324.492 125.057C324.492 123.371 324.403 121.773 324.403 120.176L324.669 120.442C320.764 120.531 316.859 120.62 312.953 120.62L301.238 120.708L301.681 120.265L301.593 130.205L301.238 129.85C303.19 129.85 305.143 129.85 307.007 129.939L312.865 130.028L324.581 130.116Z" fill="#EBEBEB"/>
<path d="M311.445 142.631L299.818 142.897L293.871 142.986C291.918 142.986 289.877 142.986 287.924 143.075H287.569V142.72L287.481 132.779V132.335H287.924L299.64 132.424C303.545 132.424 307.451 132.513 311.356 132.602H311.622V132.868C311.622 134.554 311.533 136.241 311.533 137.927L311.445 142.631ZM311.445 142.631L311.356 137.572C311.356 135.885 311.267 134.288 311.267 132.69L311.533 132.957C307.628 133.045 303.723 133.134 299.818 133.134L288.102 133.223L288.546 132.779L288.457 142.72L288.102 142.365C290.055 142.365 292.007 142.365 293.871 142.453L299.729 142.542L311.445 142.631Z" fill="#EBEBEB"/>
<path d="M298.398 130.116L286.771 130.383L280.824 130.471C278.871 130.471 276.83 130.471 274.877 130.56H274.522V130.205L274.433 120.265V119.821H274.877L286.593 119.91C290.498 119.91 294.404 119.998 298.309 120.087H298.575V120.353C298.575 122.04 298.486 123.726 298.486 125.412L298.398 130.116ZM298.398 130.116L298.309 125.057C298.309 123.371 298.22 121.773 298.22 120.176L298.486 120.442C294.581 120.531 290.676 120.62 286.771 120.62L275.055 120.708L275.498 120.265L275.41 130.205L275.055 129.85C277.007 129.85 278.96 129.85 280.824 129.939L286.682 130.028L298.398 130.116Z" fill="#EBEBEB"/>
<path d="M370.822 253.221L359.195 253.487L353.249 253.576C351.296 253.576 349.255 253.576 347.302 253.665H346.947V253.31L346.858 243.369V242.925H347.302L359.018 243.014C362.923 243.014 366.828 243.103 370.734 243.191H371V243.458C371 245.144 370.911 246.83 370.911 248.517L370.822 253.221ZM370.822 253.221L370.734 248.162C370.734 246.475 370.645 244.878 370.645 243.28L370.911 243.546C367.006 243.635 363.101 243.724 359.195 243.724L347.48 243.813L347.923 243.369L347.835 253.31L347.48 252.955C349.432 252.955 351.385 252.955 353.249 253.043L359.107 253.132L370.822 253.221Z" fill="#EBEBEB"/>
<path d="M357.686 10.2957L346.059 10.562L340.113 10.6507C338.16 10.6507 336.119 10.6507 334.166 10.7395H333.811V10.3844L333.722 0.44378V0H334.166L345.882 0.0887546C349.787 0.0887546 353.692 0.177511 357.598 0.266267H357.864V0.532534C357.864 2.2189 357.775 3.90526 357.775 5.59162L357.686 10.2957ZM357.686 10.2957L357.598 5.2366C357.598 3.55024 357.509 1.95263 357.509 0.355022L357.775 0.621289C353.87 0.710045 349.965 0.798802 346.059 0.798802L334.344 0.88756L334.787 0.44378L334.61 10.2957L334.255 9.94067C336.207 9.94067 338.16 9.94066 340.024 10.0294L345.882 10.1182L357.686 10.2957Z" fill="#EBEBEB"/>
<path d="M370.822 22.8104L359.195 23.0767L353.249 23.1654C351.296 23.1654 349.255 23.1654 347.302 23.2542H346.947V22.8992L346.858 12.9585V12.5147H347.302L359.018 12.6035C362.923 12.6035 366.828 12.6922 370.734 12.781H371V13.0473C371 14.7336 370.911 16.42 370.911 18.1064L370.822 22.8104ZM370.822 22.8104L370.734 17.7513C370.734 16.065 370.645 14.4674 370.645 12.8698L370.911 13.136C367.006 13.2248 363.101 13.3135 359.195 13.3135L347.48 13.4023L347.923 12.9585L347.835 22.8992L347.48 22.5442C349.432 22.5442 351.385 22.5442 353.249 22.6329L359.107 22.7217L370.822 22.8104Z" fill="#EBEBEB"/>
<path d="M37.0998 10.2957L25.4728 10.562L19.5261 10.6507C17.5735 10.6507 15.5321 10.6507 13.5795 10.7395H13.2245V10.3844L13.1357 0.44378V0H13.5795L25.2953 0.0887546C29.2005 0.0887546 33.1058 0.177511 37.0111 0.266267H37.2773V0.532534C37.2773 2.2189 37.1886 3.90526 37.1886 5.59162L37.0998 10.2957ZM37.0998 10.2957L37.0111 5.2366C37.0111 3.55024 36.9223 1.95263 36.9223 0.355022L37.1886 0.621289C33.2833 0.710045 29.3781 0.798802 25.4728 0.798802L13.757 0.88756L14.2008 0.44378L14.112 10.3844L13.5795 9.85191C15.5321 9.85191 17.4848 9.85191 19.3486 9.94067L25.2065 10.0294L37.0998 10.2957Z" fill="#EBEBEB"/>
</svg>
