<svg width="15" height="11" viewBox="0 0 15 11" fill="none" xmlns="http://www.w3.org/2000/svg">
<path d="M6.58316 10.6244L0.324021 3.38331C0.221323 3.26501 0.139833 3.12441 0.0842282 2.96957C0.0286237 2.81474 0 2.64873 0 2.48106C0 2.3134 0.0286237 2.14739 0.0842282 1.99255C0.139833 1.83772 0.221323 1.69712 0.324021 1.57881L1.36347 0.374854C1.46573 0.256044 1.58726 0.161769 1.7211 0.0974417C1.85493 0.0331139 1.99844 0 2.14336 0C2.28829 0 2.43179 0.0331139 2.56563 0.0974417C2.69946 0.161769 2.821 0.256044 2.92326 0.374854L7.36555 5.50829L11.7979 0.374854C11.9001 0.256044 12.0217 0.161769 12.1555 0.0974417C12.2893 0.0331139 12.4328 0 12.5778 0C12.7227 0 12.8662 0.0331139 13 0.0974417C13.1339 0.161769 13.2554 0.256044 13.3576 0.374854L14.3983 1.57881C14.501 1.69712 14.5825 1.83772 14.6381 1.99255C14.6937 2.14739 14.7224 2.3134 14.7224 2.48106C14.7224 2.64873 14.6937 2.81474 14.6381 2.96957C14.5825 3.12441 14.501 3.26501 14.3983 3.38331L8.1392 10.6244C8.03743 10.7434 7.91627 10.8379 7.78272 10.9024C7.64917 10.9669 7.5059 11.0001 7.36118 11.0001C7.21647 11.0001 7.07319 10.9669 6.93964 10.9024C6.80609 10.8379 6.68493 10.7434 6.58316 10.6244Z" fill="white"/>
</svg>
