<svg width="224" height="255" viewBox="0 0 224 255" fill="none" xmlns="http://www.w3.org/2000/svg">
<path d="M192.03 206.523C192.03 206.523 192.162 195.853 202.7 195.853C202.7 195.853 192.03 195.721 192.03 185.183C192.03 185.183 191.898 195.853 181.36 195.853C181.355 195.852 192.03 195.984 192.03 206.523Z" fill="#EB2D7F"/>
<path d="M61.3738 254.847C61.3738 254.847 61.5061 244.177 72.0436 244.177C72.0436 244.177 61.3738 244.046 61.3738 233.508C61.3738 233.508 61.2435 244.177 50.705 244.177C50.707 244.177 61.3738 244.309 61.3738 254.847Z" fill="#EB2D7F"/>
<path d="M126.076 81.38C126.076 81.38 126.208 70.7103 136.746 70.7103C136.746 70.7103 126.076 70.578 126.076 60.0405C126.076 60.0405 125.944 70.7103 115.406 70.7103C115.407 70.7093 126.076 70.8415 126.076 81.38Z" fill="#EB2D7F"/>
<path d="M166.002 238.675C166.002 238.675 166.079 232.41 172.267 232.41C172.267 232.41 166.002 232.332 166.002 226.144C166.002 226.144 165.925 232.41 159.736 232.41C159.736 232.41 166.002 232.488 166.002 238.675Z" fill="#EB2D7F"/>
<path d="M30.045 239.773C30.045 239.773 30.1221 233.508 36.3109 233.508C36.3109 233.508 30.045 233.43 30.045 227.242C30.045 227.242 29.9678 233.508 23.78 233.508C23.78 233.508 30.045 233.585 30.045 239.773Z" fill="#EB2D7F"/>
<path d="M211.809 110.51C209.398 110.51 207.041 109.795 205.037 108.455C203.032 107.116 201.47 105.212 200.547 102.984C199.625 100.757 199.383 98.3059 199.854 95.9414C200.324 93.5768 201.485 91.4048 203.19 89.7C204.895 87.9953 207.067 86.8343 209.431 86.3639C211.796 85.8935 214.247 86.1348 216.474 87.0573C218.702 87.9799 220.605 89.5422 221.945 91.5467C223.285 93.5512 224 95.9079 224 98.3188C223.996 101.551 222.711 104.65 220.425 106.935C218.14 109.221 215.041 110.506 211.809 110.51ZM211.809 89.8148C210.127 89.8148 208.483 90.3136 207.084 91.248C205.686 92.1824 204.596 93.5106 203.952 95.0645C203.308 96.6184 203.14 98.3282 203.468 99.9778C203.796 101.627 204.606 103.143 205.795 104.332C206.985 105.521 208.5 106.331 210.15 106.659C211.799 106.987 213.509 106.819 215.063 106.175C216.617 105.532 217.945 104.442 218.879 103.043C219.814 101.645 220.313 100.001 220.313 98.3188C220.309 96.0646 219.411 93.9039 217.817 92.31C216.224 90.716 214.063 89.8188 211.809 89.8148Z" fill="#F9CA24"/>
<path opacity="0.34" d="M28.1857 93.5703C23.5119 93.5703 18.943 92.1844 15.0568 89.5877C11.1706 86.9911 8.1417 83.3004 6.35305 78.9823C4.5644 74.6643 4.09635 69.9128 5.0081 65.3287C5.91985 60.7447 8.17046 56.5339 11.4753 53.2289C14.7801 49.924 18.9908 47.6732 23.5748 46.7612C28.1589 45.8493 32.9103 46.3171 37.2285 48.1056C41.5466 49.8941 45.2375 52.9228 47.8343 56.8089C50.4311 60.695 51.8172 65.2638 51.8174 69.9377C51.8105 76.2032 49.3185 82.2101 44.8883 86.6405C40.458 91.071 34.4512 93.5632 28.1857 93.5703ZM28.1857 49.9953C24.2411 49.9953 20.3851 51.165 17.1052 53.3565C13.8254 55.548 11.2691 58.6629 9.7595 62.3073C8.24996 65.9516 7.85497 69.9618 8.62453 73.8307C9.39409 77.6995 11.2936 81.2532 14.0829 84.0425C16.8722 86.8318 20.4259 88.7313 24.2948 89.5009C28.1636 90.2704 32.1738 89.8755 35.8181 88.3659C39.4625 86.8564 42.5774 84.3001 44.7689 81.0202C46.9604 77.7404 48.1302 73.8843 48.1302 69.9397C48.1246 64.6517 46.0216 59.5819 42.2825 55.8426C38.5434 52.1034 33.4737 50.0001 28.1857 49.9942V49.9953Z" fill="#F9CA24"/>
<path opacity="0.38" d="M123.263 244.654C118.589 244.654 114.021 243.268 110.135 240.671C106.249 238.074 103.22 234.384 101.432 230.066C99.6433 225.748 99.1754 220.997 100.087 216.413C100.999 211.829 103.25 207.619 106.554 204.314C109.859 201.009 114.07 198.759 118.653 197.847C123.237 196.935 127.988 197.403 132.306 199.191C136.624 200.98 140.315 204.008 142.911 207.894C145.508 211.78 146.894 216.349 146.894 221.022C146.887 227.288 144.395 233.294 139.965 237.724C135.535 242.155 129.528 244.647 123.263 244.654ZM123.263 201.08C119.318 201.08 115.462 202.25 112.182 204.441C108.902 206.633 106.346 209.748 104.836 213.392C103.327 217.036 102.932 221.046 103.702 224.915C104.471 228.784 106.371 232.338 109.16 235.127C111.949 237.916 115.503 239.816 119.372 240.585C123.241 241.355 127.251 240.96 130.895 239.451C134.539 237.941 137.654 235.385 139.846 232.105C142.037 228.825 143.207 224.969 143.207 221.024C143.201 215.737 141.098 210.667 137.359 206.928C133.62 203.189 128.55 201.086 123.263 201.08Z" fill="#F9CA24"/>
<path d="M209.516 156.679C210.253 150.315 205.692 144.56 199.329 143.823C192.966 143.086 187.21 147.647 186.473 154.01C185.736 160.373 190.297 166.129 196.66 166.866C203.023 167.603 208.779 163.042 209.516 156.679Z" fill="#EB2D7F"/>
<path d="M206.242 147.056C207.664 148.857 208.521 151.039 208.703 153.327C208.885 155.615 208.385 157.905 207.266 159.908C206.146 161.912 204.458 163.538 202.414 164.582C200.37 165.626 198.063 166.04 195.784 165.772C193.505 165.505 191.356 164.567 189.61 163.079C187.863 161.59 186.597 159.617 185.972 157.408C185.348 155.2 185.391 152.856 186.099 150.673C186.806 148.49 188.144 146.566 189.945 145.143C192.36 143.236 195.434 142.367 198.49 142.725C201.546 143.084 204.334 144.642 206.242 147.056Z" fill="#F9CA24"/>
<path opacity="0.7" d="M204.877 148.135C206.087 149.666 206.814 151.522 206.969 153.467C207.124 155.412 206.698 157.359 205.746 159.062C204.794 160.765 203.359 162.147 201.621 163.035C199.883 163.922 197.921 164.274 195.984 164.046C194.046 163.818 192.219 163.021 190.734 161.755C189.25 160.489 188.174 158.811 187.643 156.934C187.112 155.056 187.149 153.064 187.751 151.208C188.352 149.352 189.49 147.715 191.022 146.506C192.038 145.703 193.203 145.108 194.45 144.755C195.696 144.403 197 144.299 198.287 144.45C199.574 144.601 200.818 145.005 201.949 145.637C203.08 146.269 204.075 147.118 204.877 148.135Z" fill="#EB2D7F"/>
<path d="M200.4 152.509C199.883 152.414 199.351 152.446 198.849 152.601C198.317 152.771 197.797 152.975 197.292 153.213L197.004 153.345C196.535 153.559 196.148 153.725 195.84 153.847C195.798 153.862 195.756 153.876 195.718 153.891C195.426 154.002 195.114 154.054 194.802 154.043C194.664 154.036 194.53 153.999 194.409 153.934C194.288 153.869 194.182 153.778 194.1 153.667C193.971 153.508 193.885 153.318 193.85 153.116C193.815 152.913 193.832 152.705 193.9 152.512C193.98 152.271 194.105 152.047 194.269 151.853C194.485 151.592 194.731 151.357 195 151.152C195.136 151.044 195.278 150.944 195.424 150.851C195.693 150.684 195.975 150.539 196.267 150.418C196.748 150.218 197.254 150.081 197.77 150.011L197.316 148.449C196.735 148.503 196.168 148.656 195.637 148.899C195.21 149.088 194.802 149.315 194.417 149.578L193.461 148.356L192.258 149.304L193.245 150.553C192.93 150.874 192.66 151.237 192.444 151.632C192.138 152.167 191.993 152.779 192.029 153.395C192.074 153.954 192.286 154.486 192.638 154.923C192.98 155.407 193.489 155.747 194.067 155.876C194.582 155.974 195.112 155.943 195.612 155.787C196.072 155.638 196.524 155.464 196.965 155.266C197.128 155.196 197.301 155.117 197.479 155.034C197.836 154.871 198.147 154.737 198.411 154.633C198.54 154.579 198.658 154.533 198.765 154.496C199.058 154.384 199.371 154.334 199.685 154.349C199.824 154.357 199.959 154.395 200.082 154.461C200.204 154.527 200.311 154.618 200.394 154.73C200.519 154.887 200.6 155.074 200.628 155.273C200.656 155.471 200.63 155.674 200.554 155.859C200.438 156.167 200.258 156.446 200.027 156.68C199.84 156.878 199.639 157.063 199.425 157.231C199.238 157.377 199.042 157.511 198.838 157.632C198.495 157.835 198.132 158.003 197.755 158.133C197.195 158.34 196.603 158.45 196.006 158.458L196.414 160.061C197.089 160.069 197.758 159.936 198.379 159.673C198.893 159.471 199.385 159.215 199.845 158.909L200.81 160.132L202.013 159.185L201.041 157.954C201.421 157.596 201.742 157.181 201.994 156.723C202.303 156.189 202.45 155.577 202.419 154.961C202.377 154.405 202.167 153.874 201.818 153.44C201.479 152.963 200.973 152.63 200.4 152.509Z" fill="#F9CA24"/>
<path d="M45.4365 206.723C44.7527 208.914 43.4346 210.853 41.649 212.294C39.8634 213.736 37.6904 214.616 35.4048 214.822C33.1192 215.029 30.8236 214.553 28.8085 213.455C26.7934 212.357 25.1492 210.685 24.0838 208.653C23.0184 206.62 22.5797 204.317 22.8232 202.035C23.0667 199.753 23.9814 197.595 25.4517 195.833C26.922 194.071 28.8818 192.784 31.0832 192.136C33.2847 191.488 35.6289 191.507 37.8195 192.191C40.7565 193.108 43.209 195.155 44.6374 197.88C46.0658 200.605 46.3532 203.786 45.4365 206.723Z" fill="#EB2D7F"/>
<path d="M37.377 213.246C43.6185 211.804 47.5094 205.576 46.0676 199.334C44.6257 193.093 38.3972 189.202 32.1557 190.644C25.9143 192.086 22.0234 198.314 23.4652 204.556C24.907 210.797 31.1356 214.688 37.377 213.246Z" fill="#F9CA24"/>
<path opacity="0.7" d="M44.3933 204.128C45.6003 198.815 42.2717 193.53 36.9588 192.323C31.6459 191.116 26.3605 194.445 25.1536 199.757C23.9466 205.07 27.2751 210.356 32.588 211.563C37.9009 212.77 43.1863 209.441 44.3933 204.128Z" fill="#EB2D7F"/>
<path d="M38.0528 203.656C37.8377 203.176 37.5109 202.755 37.0997 202.428C36.6597 202.085 36.1977 201.771 35.7166 201.489C35.6284 201.435 35.5382 201.381 35.444 201.326C35.004 201.059 34.6472 200.833 34.3776 200.645L34.2774 200.57C34.02 200.392 33.8012 200.165 33.634 199.9C33.5612 199.783 33.5155 199.65 33.5001 199.513C33.4847 199.376 33.4999 199.236 33.5448 199.106C33.6038 198.909 33.7122 198.731 33.8596 198.588C34.0069 198.445 34.1884 198.343 34.3866 198.29C34.631 198.22 34.8864 198.197 35.1393 198.223C35.4771 198.254 35.8103 198.323 36.1325 198.429C36.2982 198.481 36.4611 198.542 36.6206 198.61C36.9104 198.737 37.1893 198.888 37.4545 199.06C37.8918 199.345 38.2904 199.685 38.6401 200.072L39.6734 198.815C39.2995 198.368 38.8538 197.985 38.3545 197.684C37.9577 197.439 37.5398 197.23 37.1057 197.06L37.5647 195.59L36.1045 195.133L35.6304 196.654C35.188 196.575 34.7366 196.557 34.2894 196.603C33.675 196.652 33.0882 196.879 32.6006 197.256C32.1647 197.608 31.8451 198.083 31.6836 198.619C31.4766 199.175 31.483 199.787 31.7016 200.338C31.9122 200.818 32.2375 201.238 32.6488 201.562C33.0309 201.859 33.4294 202.133 33.8424 202.385C33.9938 202.485 34.1541 202.58 34.3235 202.686C34.6576 202.886 34.9435 203.067 35.1814 203.228C35.2987 203.303 35.4029 203.375 35.4951 203.441C35.7525 203.621 35.9705 203.851 36.1355 204.118C36.207 204.237 36.2518 204.371 36.2667 204.509C36.2816 204.648 36.2662 204.788 36.2217 204.92C36.1615 205.11 36.052 205.282 35.9041 205.417C35.7563 205.552 35.5754 205.646 35.3798 205.688C35.0604 205.766 34.7282 205.776 34.4047 205.717C34.1331 205.674 33.865 205.611 33.6029 205.528C33.3758 205.457 33.1535 205.372 32.9374 205.272C32.5754 205.104 32.2312 204.9 31.9101 204.663C31.4236 204.317 30.9993 203.89 30.6553 203.402L29.5649 204.643C29.9401 205.204 30.427 205.682 30.9951 206.046C31.4527 206.356 31.9414 206.617 32.4533 206.826L31.9883 208.312L33.4485 208.767L33.9146 207.271C34.4252 207.382 34.9499 207.413 35.47 207.363C36.0855 207.316 36.6743 207.092 37.1648 206.718C37.601 206.369 37.9203 205.896 38.0799 205.362C38.2856 204.81 38.2759 204.201 38.0528 203.656Z" fill="#F9CA24"/>
<path d="M144.075 124.91V136.617H70.9119C69.3602 136.618 67.8714 136.004 66.772 134.909C65.6727 133.813 65.0527 132.327 65.0479 130.775C65.0443 130.637 65.0517 130.499 65.0699 130.362C65.1713 128.882 65.8311 127.496 66.9159 126.484C68.0006 125.471 69.4293 124.909 70.913 124.91H144.075Z" fill="#171723"/>
<path d="M71.7898 128.865H148.813V149.21H71.7898V128.865Z" fill="#B6B7B7"/>
<path opacity="0.43" d="M77.7353 136.617C77.7353 136.617 80.8943 128.493 71.321 128.493V144.287H77.4536L77.7353 136.617Z" fill="white"/>
<path d="M131.362 92.7504L169.23 98.9492C173.148 99.5916 175.844 103.001 175.263 106.566L163.671 177.379C163.088 180.941 159.444 183.312 155.525 182.67L117.658 176.47C113.749 175.83 111.049 172.421 111.632 168.859L123.228 98.0422C123.809 94.4792 127.454 92.108 131.362 92.7504Z" fill="#F9CA24"/>
<path d="M131.539 92.7768L117.83 176.499L124.441 177.581L138.15 93.8593L131.539 92.7768Z" fill="#F0932B"/>
<path d="M129.214 164.792L127.777 173.57L129.929 173.922L131.366 165.144L129.214 164.792Z" fill="white"/>
<path d="M131.377 151.578L129.94 160.356L132.092 160.708L133.529 151.93L131.377 151.578Z" fill="white"/>
<path d="M133.541 138.365L132.104 147.142L134.255 147.495L135.692 138.717L133.541 138.365Z" fill="white"/>
<path d="M135.704 125.152L134.267 133.93L136.418 134.282L137.855 125.504L135.704 125.152Z" fill="white"/>
<path d="M137.868 111.939L136.43 120.717L138.582 121.069L140.019 112.291L137.868 111.939Z" fill="white"/>
<path d="M140.034 98.725L138.593 107.504L140.745 107.857L142.186 99.0781L140.034 98.725Z" fill="white"/>
<path d="M156.28 102.719L153.611 119.023L164.675 120.834L167.345 104.531L156.28 102.719Z" fill="#F6E58D"/>
<path d="M154.527 132.674H71.6826V153.022H154.527V132.674Z" fill="#E7E7E7"/>
<path d="M160.108 136.618V209.647H70.9089C69.3571 209.648 67.8683 209.033 66.769 207.938C65.6696 206.843 65.0496 205.356 65.0448 203.805V130.775C65.0496 132.327 65.6696 133.813 66.769 134.908C67.8683 136.004 69.3571 136.618 70.9089 136.617L160.108 136.618Z" fill="#3C4382"/>
<path d="M160.108 136.618V209.647H70.9089C69.3571 209.648 67.8683 209.033 66.769 207.938C65.6696 206.843 65.0496 205.356 65.0448 203.805V130.775C65.0496 132.327 65.6696 133.813 66.769 134.908C67.8683 136.004 69.3571 136.618 70.9089 136.617L160.108 136.618Z" fill="#29293D"/>
<path d="M153.421 -9.46857e-05L120.195 33.2949L178.581 91.561L211.807 58.2661L153.421 -9.46857e-05Z" fill="#EB2D7F"/>
<path d="M205.927 60.7151L181.019 85.6707C180.245 85.3477 179.414 85.1818 178.575 85.1827C177.736 85.1835 176.906 85.3511 176.132 85.6757L126.082 35.7284C126.405 34.9541 126.571 34.1234 126.57 33.2845C126.569 32.4455 126.401 31.6151 126.077 30.8415L150.984 5.88592C151.758 6.2097 152.589 6.37643 153.428 6.37643C154.267 6.37643 155.097 6.2097 155.871 5.88592L205.922 55.8332C205.599 56.6068 205.434 57.4366 205.435 58.2746C205.436 59.1126 205.603 59.9422 205.927 60.7151Z" fill="#F6E58D"/>
<path d="M166.001 63.7768C175.94 63.7768 183.998 55.7192 183.998 45.7797C183.998 35.8402 175.94 27.7826 166.001 27.7826C156.061 27.7826 148.004 35.8402 148.004 45.7797C148.004 55.7192 156.061 63.7768 166.001 63.7768Z" fill="#EB2D7F"/>
<path d="M169.729 51.1818C169.789 50.2546 169.626 49.3265 169.253 48.4757C168.848 47.5762 168.385 46.7037 167.868 45.8639C167.774 45.7076 167.676 45.5462 167.576 45.3839C167.108 44.6041 166.738 43.9577 166.473 43.4395C166.437 43.3684 166.404 43.2992 166.373 43.2391C166.118 42.7491 165.964 42.2125 165.921 41.6616C165.905 41.4177 165.942 41.1733 166.032 40.9459C166.121 40.7185 166.26 40.5138 166.438 40.3466C166.692 40.0892 167.007 39.9007 167.354 39.7989C167.7 39.6972 168.067 39.6857 168.42 39.7653C168.86 39.8571 169.278 40.0316 169.653 40.2795C170.154 40.608 170.618 40.9919 171.034 41.424C171.25 41.6415 171.454 41.87 171.647 42.1085C171.995 42.5462 172.306 43.0118 172.578 43.5007C173.027 44.3053 173.368 45.1652 173.594 46.0584L176.247 44.9469C176.032 43.9388 175.651 42.9735 175.12 42.0905C174.702 41.3802 174.221 40.7093 173.683 40.0861L175.616 38.1648L173.712 36.2475L171.713 38.2339C171.087 37.7446 170.395 37.3452 169.659 37.0473C168.658 36.6174 167.554 36.4869 166.481 36.6714C165.509 36.8632 164.617 37.3418 163.92 38.0455C163.138 38.7449 162.643 39.7088 162.531 40.7515C162.464 41.675 162.625 42.6008 163 43.4475C163.353 44.2264 163.749 44.985 164.186 45.7196C164.343 45.9942 164.514 46.2818 164.697 46.5775C165.055 47.1715 165.353 47.6903 165.591 48.134C165.71 48.3485 165.813 48.5469 165.903 48.7253C166.158 49.2186 166.309 49.7589 166.346 50.3128C166.36 50.5583 166.321 50.8039 166.23 51.0324C166.139 51.2609 166 51.4668 165.821 51.6358C165.57 51.8851 165.257 52.0635 164.914 52.1525C164.571 52.2416 164.211 52.2383 163.87 52.1429C163.306 51.9996 162.779 51.7401 162.322 51.3812C161.935 51.0918 161.571 50.7732 161.233 50.4281C160.936 50.1296 160.659 49.8122 160.403 49.478C159.976 48.917 159.606 48.3143 159.301 47.679C158.826 46.7358 158.515 45.7192 158.38 44.6723L155.654 45.7096C155.777 46.8956 156.143 48.0436 156.731 49.0811C157.188 49.9444 157.736 50.7567 158.364 51.5045L156.411 53.4448L158.315 55.3621L160.282 53.4077C160.987 54.0026 161.781 54.4841 162.635 54.8349C163.635 55.2701 164.74 55.4062 165.816 55.2268C166.785 55.0419 167.674 54.5661 168.365 53.8627C169.14 53.1722 169.627 52.2151 169.729 51.1818Z" fill="#F6E58D"/>
<path d="M34.8164 81.9885L0 152.135L40.0013 171.989L74.8176 101.843L34.8164 81.9885Z" fill="#EB2D7F"/>
<path d="M38.7974 86.5436L68.7842 101.427C68.7269 102.221 68.8282 103.019 69.0824 103.774C69.3365 104.529 69.7384 105.226 70.2645 105.824L40.418 165.958C39.6236 165.901 38.8259 166.003 38.0711 166.257C37.3163 166.511 36.6195 166.912 36.0212 167.438L6.03441 152.554C6.09098 151.759 5.98924 150.962 5.73513 150.207C5.48102 149.453 5.07957 148.756 4.55409 148.158L34.4006 88.0239C35.195 88.081 35.9928 87.9795 36.7476 87.7253C37.5025 87.4712 38.1992 87.0695 38.7974 86.5436Z" fill="#F6E58D"/>
<path d="M37.4084 144.075C46.8448 144.075 54.4945 136.425 54.4945 126.989C54.4945 117.552 46.8448 109.903 37.4084 109.903C27.9721 109.903 20.3224 117.552 20.3224 126.989C20.3224 136.425 27.9721 144.075 37.4084 144.075Z" fill="#EB2D7F"/>
<path d="M41.1437 122.003C40.2906 122.228 39.5041 122.655 38.8506 123.248C38.163 123.883 37.5179 124.563 36.9193 125.283C36.8061 125.413 36.6908 125.552 36.5746 125.69C36.0133 126.346 35.5443 126.875 35.1584 127.27C35.1043 127.324 35.0521 127.371 35.004 127.425C34.6404 127.803 34.204 128.104 33.7212 128.309C33.5067 128.398 33.2752 128.437 33.0434 128.425C32.8116 128.414 32.5854 128.35 32.3812 128.24C32.0716 128.089 31.8057 127.861 31.6092 127.578C31.4127 127.295 31.292 126.967 31.2587 126.624C31.2085 126.201 31.2394 125.772 31.3499 125.36C31.4944 124.81 31.6998 124.277 31.9623 123.772C32.0912 123.516 32.2352 123.263 32.3942 123.014C32.6832 122.568 33.0084 122.147 33.3664 121.755C33.9557 121.108 34.6265 120.541 35.3619 120.066L33.5578 118.015C32.7152 118.513 31.9612 119.148 31.3269 119.894C30.8135 120.484 30.3546 121.119 29.9558 121.792L27.6447 120.631L26.4931 122.925L28.8834 124.127C28.6313 124.838 28.4809 125.58 28.4364 126.332C28.3512 127.363 28.5671 128.397 29.0578 129.307C29.5218 130.123 30.2201 130.781 31.0623 131.195C31.9261 131.688 32.9421 131.843 33.9136 131.63C34.7646 131.412 35.549 130.988 36.1977 130.395C36.7915 129.842 37.3543 129.257 37.8835 128.642C38.0839 128.416 38.2924 128.176 38.5019 127.924C38.9278 127.423 39.3036 126.997 39.6334 126.649C39.7897 126.476 39.934 126.321 40.0703 126.188C40.4378 125.81 40.8788 125.511 41.3662 125.31C41.5829 125.223 41.8158 125.185 42.0488 125.198C42.2818 125.21 42.5092 125.274 42.7152 125.383C43.0155 125.534 43.2704 125.763 43.454 126.044C43.6376 126.326 43.7434 126.651 43.7605 126.987C43.802 127.537 43.7279 128.09 43.5431 128.609C43.399 129.045 43.2221 129.469 43.0139 129.877C42.8356 130.234 42.6347 130.579 42.4125 130.911C42.0372 131.465 41.6064 131.98 41.1267 132.447C40.4209 133.159 39.5998 133.746 38.6983 134.184L40.4562 136.324C41.4855 135.855 42.4067 135.178 43.1622 134.336C43.8009 133.663 44.3667 132.924 44.85 132.131L47.1882 133.308L48.3378 131.014L45.9855 129.834C46.3086 129.02 46.5027 128.16 46.5608 127.286C46.6504 126.254 46.4387 125.218 45.9514 124.304C45.4932 123.488 44.7971 122.831 43.956 122.421C43.1038 121.935 42.1004 121.786 41.1437 122.003Z" fill="#F6E58D"/>
<path d="M108.095 42.4213C108.095 35.2407 105.965 28.2214 101.976 22.251C97.9862 16.2806 92.3158 11.6274 85.6817 8.87967C79.0476 6.13194 71.7477 5.41316 64.7051 6.81423C57.6625 8.21529 51.1935 11.6733 46.1161 16.7509C41.0388 21.8285 37.5812 28.2977 36.1805 35.3404C34.7799 42.3831 35.499 49.6829 38.2471 56.3169C40.9952 62.9509 45.6488 68.6209 51.6194 72.6101C57.59 76.5993 64.6094 78.7284 71.79 78.7282C72.4361 78.7282 73.0785 78.7108 73.7173 78.6761L88.4351 94.0884V74.6882C94.3587 71.6333 99.3269 67.0064 102.795 61.3147C106.263 55.623 108.096 49.0863 108.095 42.4213Z" fill="#EB2D7F"/>
<path d="M97.862 30.4216L67.0814 61.2022L45.7168 39.8376L52.4959 33.0585L67.0814 47.644L91.0829 23.6425L97.862 30.4216Z" fill="white"/>
</svg>
