<svg width="65" height="11" viewBox="0 0 65 11" fill="none" xmlns="http://www.w3.org/2000/svg">
<path d="M30.9437 8.59455C30.9733 8.56534 30.9966 8.53042 31.0122 8.49192C31.0278 8.45341 31.0355 8.41212 31.0346 8.37057C31.0338 8.32902 31.0245 8.28807 31.0073 8.25023C30.9901 8.21239 30.9654 8.17844 30.9347 8.15046C30.3352 7.64342 29.5755 7.36521 28.7903 7.36521C28.0052 7.36521 27.2454 7.64342 26.6459 8.15046C26.615 8.17809 26.5902 8.21181 26.573 8.24951C26.5557 8.28721 26.5465 8.32807 26.5459 8.3695C26.5447 8.41117 26.5521 8.45264 26.5676 8.49135C26.5831 8.53005 26.6063 8.56518 26.6359 8.59455L28.5753 10.5509C28.6032 10.5795 28.6366 10.6022 28.6734 10.6177C28.7103 10.6332 28.7498 10.6412 28.7898 10.6412C28.8298 10.6412 28.8693 10.6332 28.9062 10.6177C28.943 10.6022 28.9764 10.5795 29.0043 10.5509L30.9437 8.59455ZM28.7903 5.89405C29.973 5.89388 31.1136 6.33301 31.9909 7.12628C32.0469 7.18095 32.1221 7.21156 32.2004 7.21156C32.2787 7.21156 32.3539 7.18095 32.41 7.12628L33.5312 5.99307C33.5605 5.96376 33.5837 5.92889 33.5994 5.89049C33.6151 5.85209 33.6229 5.81095 33.6224 5.76948C33.6219 5.72801 33.6132 5.68705 33.5967 5.64901C33.5801 5.61098 33.5562 5.57663 33.5262 5.54799C32.2406 4.35185 30.5498 3.6869 28.7938 3.6869C27.0378 3.6869 25.347 4.35185 24.0614 5.54799C24.0307 5.57618 24.006 5.6103 23.9888 5.64828C23.9716 5.68627 23.9623 5.72734 23.9614 5.76903C23.9609 5.81055 23.9687 5.85175 23.9843 5.89022C24 5.92869 24.0231 5.96366 24.0524 5.99307L25.1726 7.12628C25.2288 7.18156 25.3044 7.21254 25.3832 7.21254C25.462 7.21254 25.5376 7.18156 25.5937 7.12628C26.4692 6.33244 27.6085 5.89221 28.7903 5.89105V5.89405ZM28.7903 2.21138C30.9407 2.21116 33.0089 3.03723 34.5674 4.5188C34.6235 4.57408 34.6991 4.60506 34.7779 4.60506C34.8567 4.60506 34.9323 4.57408 34.9884 4.5188L36.1096 3.38659C36.1389 3.35759 36.1621 3.32298 36.1777 3.28483C36.1934 3.24668 36.2012 3.20578 36.2007 3.16455C36.2009 3.12339 36.1927 3.08261 36.1765 3.04475C36.1604 3.0069 36.1366 2.97278 36.1067 2.94451C34.1379 1.05756 31.5163 0.0040901 28.7893 0.0040901C26.0623 0.0040901 23.4407 1.05756 21.472 2.94451C21.4424 2.97306 21.4189 3.00724 21.4027 3.04503C21.3866 3.08282 21.3781 3.12346 21.3779 3.16455C21.3778 3.20573 21.3857 3.24654 21.4013 3.28464C21.4169 3.32274 21.4399 3.35739 21.469 3.38659L22.5922 4.5188C22.6483 4.57378 22.7237 4.60457 22.8022 4.60457C22.8808 4.60457 22.9562 4.57378 23.0122 4.5188C24.5704 3.03572 26.6392 2.2085 28.7903 2.20838V2.21138Z" fill="white"/>
<path d="M14.5577 0.324034H15.5278C15.6553 0.323903 15.7816 0.3489 15.8994 0.397597C16.0172 0.446294 16.1243 0.517736 16.2145 0.607839C16.3047 0.697941 16.3762 0.804938 16.4251 0.92271C16.4739 1.04048 16.499 1.16672 16.499 1.29421V9.70475C16.4992 9.83228 16.4741 9.95858 16.4253 10.0764C16.3766 10.1942 16.305 10.3013 16.2148 10.3914C16.1246 10.4815 16.0175 10.553 15.8996 10.6016C15.7817 10.6503 15.6554 10.6752 15.5278 10.6749H14.5577C14.3004 10.6749 14.0536 10.5727 13.8717 10.3908C13.6897 10.2088 13.5875 9.96206 13.5875 9.70475V1.29421C13.5875 1.0369 13.6897 0.790135 13.8717 0.608192C14.0536 0.426248 14.3004 0.324034 14.5577 0.324034ZM10.0298 2.58845H11C11.1275 2.58832 11.2538 2.61331 11.3716 2.66201C11.4894 2.71071 11.5965 2.78215 11.6867 2.87225C11.7769 2.96236 11.8484 3.06935 11.8972 3.18712C11.946 3.3049 11.9712 3.43114 11.9712 3.55863V9.70475C11.9712 9.83224 11.946 9.95848 11.8972 10.0763C11.8484 10.194 11.7769 10.301 11.6867 10.3911C11.5965 10.4812 11.4894 10.5527 11.3716 10.6014C11.2538 10.6501 11.1275 10.6751 11 10.6749H10.0298C9.90234 10.6752 9.77609 10.6503 9.65826 10.6016C9.54044 10.553 9.43338 10.4815 9.34323 10.3914C9.25309 10.3012 9.18162 10.1942 9.13296 10.0763C9.0843 9.95851 9.05938 9.83223 9.05964 9.70475V3.55863C9.05951 3.43118 9.08453 3.30497 9.13323 3.1872C9.18194 3.06943 9.25339 2.96243 9.34351 2.87231C9.43362 2.7822 9.54065 2.71074 9.65842 2.66203C9.77618 2.61332 9.90238 2.58832 10.0298 2.58845ZM5.50101 4.85286H6.47219C6.72942 4.85313 6.97601 4.95543 7.1579 5.13731C7.33978 5.3192 7.44211 5.56581 7.44237 5.82304V9.70475C7.44237 9.96206 7.34015 10.2088 7.1582 10.3908C6.97626 10.5727 6.7295 10.6749 6.47219 10.6749H5.50101C5.37357 10.6751 5.24734 10.6501 5.12957 10.6013C5.0118 10.5526 4.90481 10.4812 4.81469 10.3911C4.72458 10.3009 4.65313 10.1939 4.60442 10.0762C4.55571 9.95841 4.5307 9.8322 4.53083 9.70475V5.82304C4.53083 5.56573 4.63306 5.31896 4.815 5.13702C4.99694 4.95508 5.2437 4.85286 5.50101 4.85286ZM0.971187 6.79422H1.94137C2.19867 6.79422 2.44543 6.89643 2.62737 7.07838C2.80932 7.26032 2.91154 7.50709 2.91154 7.7644V9.70475C2.91168 9.8322 2.88666 9.95841 2.83795 10.0762C2.78924 10.1939 2.71779 10.3009 2.62768 10.3911C2.53756 10.4812 2.43054 10.5526 2.31277 10.6013C2.195 10.6501 2.06881 10.6751 1.94137 10.6749H0.971187C0.843697 10.6751 0.71742 10.6501 0.599598 10.6014C0.481775 10.5527 0.374702 10.4812 0.284507 10.3911C0.194312 10.301 0.122777 10.194 0.0739581 10.0763C0.0251396 9.95848 4.47681e-07 9.83224 5.1543e-07 9.70475V7.7664C-0.000130917 7.63878 0.024875 7.51238 0.0736224 7.39444C0.12237 7.27649 0.193915 7.16931 0.28411 7.07902C0.374305 6.98874 0.481398 6.91711 0.599292 6.86824C0.717186 6.81937 0.843566 6.79422 0.971187 6.79422Z" fill="white"/>
<path d="M59.85 0.971178C60.2787 0.971707 60.6897 1.1423 60.9927 1.44552C61.2957 1.74873 61.4661 2.15979 61.4663 2.58847V8.41154C61.4661 8.84022 61.2957 9.25128 60.9927 9.5545C60.6897 9.85771 60.2787 10.0283 59.85 10.0288H43.6731C43.2444 10.0283 42.8335 9.85771 42.5304 9.5545C42.2274 9.25128 42.0571 8.84022 42.0568 8.41154V2.58847C42.0571 2.15979 42.2274 1.74873 42.5304 1.44552C42.8335 1.1423 43.2444 0.971707 43.6731 0.971178H59.85ZM59.85 0H43.6731C43.3333 0.000131321 42.9969 0.0671887 42.683 0.197343C42.3691 0.327497 42.0839 0.518199 41.8438 0.758561C41.6036 0.998923 41.4131 1.28424 41.2832 1.59821C41.1533 1.91219 41.0865 2.24868 41.0866 2.58847V8.41154C41.0865 8.75133 41.1533 9.08782 41.2832 9.4018C41.4131 9.71578 41.6036 10.0011 41.8438 10.2415C42.0839 10.4818 42.3691 10.6725 42.683 10.8027C42.9969 10.9328 43.3333 10.9999 43.6731 11H59.85C60.1898 10.9999 60.5263 10.9328 60.8402 10.8027C61.154 10.6725 61.4392 10.4818 61.6794 10.2415C61.9196 10.0011 62.11 9.71578 62.2399 9.4018C62.3699 9.08782 62.4366 8.75133 62.4365 8.41154V2.58847C62.4366 2.24868 62.3699 1.91219 62.2399 1.59821C62.11 1.28424 61.9196 0.998923 61.6794 0.758561C61.4392 0.518199 61.154 0.327497 60.8402 0.197343C60.5263 0.0671887 60.1898 0.000131321 59.85 0Z" fill="white"/>
<path d="M63.4076 3.55864V7.44135C63.7897 7.2805 64.1158 7.0105 64.3451 6.66517C64.5744 6.31984 64.6967 5.91452 64.6967 5.49999C64.6967 5.08546 64.5744 4.68015 64.3451 4.33481C64.1158 3.98948 63.7897 3.71948 63.4076 3.55864Z" fill="white"/>
<path d="M44.3222 1.94133H59.2019C59.3718 1.94133 59.5401 1.97481 59.6972 2.03985C59.8542 2.10489 59.9969 2.20023 60.117 2.32041C60.2372 2.44059 60.3326 2.58326 60.3976 2.74029C60.4626 2.89731 60.4961 3.06561 60.4961 3.23557V7.7644C60.4961 7.93449 60.4626 8.10292 60.3975 8.26007C60.3324 8.41721 60.237 8.56 60.1168 8.68027C59.9965 8.80055 59.8537 8.89595 59.6965 8.96104C59.5394 9.02614 59.371 9.05964 59.2009 9.05964H44.3222C43.9786 9.05964 43.6492 8.92318 43.4063 8.68027C43.1634 8.43737 43.0269 8.10792 43.0269 7.7644V3.23657C43.0269 2.89305 43.1634 2.5636 43.4063 2.3207C43.6492 2.0778 43.9786 1.94133 44.3222 1.94133V1.94133Z" fill="white"/>
</svg>
