<svg width="19" height="22" viewBox="0 0 19 22" fill="none" xmlns="http://www.w3.org/2000/svg">
<path d="M17.7056 6.00332C17.7023 5.96014 17.6828 5.9198 17.6511 5.89033C17.6193 5.86086 17.5776 5.84442 17.5343 5.84429H14.4404V4.98493C14.4404 3.66284 13.9152 2.39491 12.9804 1.46005C12.0455 0.525196 10.7776 0 9.45549 0C8.1334 0 6.86547 0.525196 5.93061 1.46005C4.99576 2.39491 4.47056 3.66284 4.47056 4.98493V5.84429H1.37562C1.33231 5.84442 1.29064 5.86086 1.2589 5.89033C1.22717 5.9198 1.20769 5.96014 1.20436 6.00332L0.00043489 21.8154C-0.00124139 21.839 0.00193969 21.8626 0.00977956 21.8849C0.0176194 21.9071 0.0299522 21.9276 0.046011 21.9449C0.0620699 21.9622 0.081512 21.976 0.103133 21.9855C0.124754 21.9949 0.14809 21.9999 0.171695 21.9999H18.7372C18.7608 21.9999 18.7842 21.9949 18.8058 21.9855C18.8274 21.976 18.8469 21.9622 18.8629 21.9449C18.879 21.9276 18.8913 21.9071 18.8992 21.8849C18.907 21.8626 18.9102 21.839 18.9085 21.8154L17.7056 6.00332ZM5.84575 4.98391C5.84575 4.02655 6.22606 3.10839 6.90301 2.43144C7.57997 1.75448 8.49813 1.37417 9.45549 1.37417C10.4129 1.37417 11.331 1.75448 12.008 2.43144C12.6849 3.10839 13.0652 4.02655 13.0652 4.98391V5.84327H5.84575V4.98391ZM5.15866 10.6569C4.70299 10.6564 4.26614 10.4751 3.94394 10.1529C3.62173 9.83073 3.44047 9.39388 3.43993 8.93821C3.4268 8.60101 3.51911 8.26811 3.70401 7.98582C3.88892 7.70353 4.15722 7.4859 4.47158 7.36322V8.93821C4.47158 9.12057 4.54402 9.29546 4.67297 9.42441C4.80192 9.55336 4.97681 9.6258 5.15917 9.6258C5.34153 9.6258 5.51643 9.55336 5.64538 9.42441C5.77433 9.29546 5.84677 9.12057 5.84677 8.93821V7.36424C6.16026 7.48788 6.42775 7.70558 6.61249 7.98743C6.79722 8.26928 6.89012 8.60142 6.87841 8.93821C6.87814 9.39441 6.69673 9.83183 6.37405 10.1543C6.05137 10.4768 5.61384 10.658 5.15764 10.658L5.15866 10.6569ZM13.7533 10.6569C13.5273 10.6573 13.3033 10.6132 13.0944 10.527C12.8854 10.4409 12.6954 10.3144 12.5353 10.1547C12.3752 9.99513 12.2482 9.80554 12.1614 9.5968C12.0746 9.38806 12.0298 9.16427 12.0295 8.93821C12.0164 8.60101 12.1087 8.26811 12.2936 7.98582C12.4785 7.70353 12.7468 7.4859 13.0611 7.36322V8.93821C13.0611 9.12057 13.1336 9.29546 13.2625 9.42441C13.3915 9.55336 13.5664 9.6258 13.7487 9.6258C13.9311 9.6258 14.106 9.55336 14.2349 9.42441C14.3639 9.29546 14.4363 9.12057 14.4363 8.93821V7.36424C14.7498 7.48788 15.0173 7.70558 15.2021 7.98743C15.3868 8.26928 15.4797 8.60142 15.468 8.93821C15.4677 9.39353 15.287 9.83018 14.9654 10.1525C14.6438 10.4749 14.2076 10.6566 13.7523 10.658L13.7533 10.6569Z" fill="#4A4B4D"/>
</svg>
