<svg width="7" height="7" viewBox="0 0 7 7" fill="none" xmlns="http://www.w3.org/2000/svg">
<g clip-path="url(#clip0_7_123)">
<path d="M5.6875 1.5859C5.6577 1.55607 5.61957 1.54118 5.57322 1.54118H4.72312C4.66673 1.26618 4.56067 1.02747 4.40491 0.825303H5.56322C5.6097 0.825303 5.64773 0.810397 5.67762 0.780638C5.7073 0.750827 5.7222 0.712676 5.7222 0.666288V0.159084C5.7222 0.112662 5.70731 0.0745795 5.67762 0.0447338C5.64769 0.0149577 5.60966 0 5.56319 0H1.42692C1.3805 0 1.34242 0.0149577 1.31257 0.0447164C1.28281 0.0745621 1.26786 0.112644 1.26786 0.159067V0.82027C1.26786 0.86335 1.2836 0.900631 1.31508 0.932113C1.34656 0.963596 1.38384 0.979337 1.42692 0.979337H2.1478C2.84709 0.979337 3.29122 1.16654 3.48011 1.5411H1.42692C1.3805 1.5411 1.34237 1.55598 1.31257 1.58581C1.28281 1.61567 1.26786 1.65374 1.26786 1.70016V2.2073C1.26786 2.25368 1.28274 2.29182 1.31257 2.32158C1.34242 2.35144 1.38057 2.36629 1.42692 2.36629H3.54982C3.47689 2.63814 3.30701 2.84525 3.04018 2.98778C2.77332 3.13032 2.42125 3.20159 1.98374 3.20159H1.42692C1.38384 3.20159 1.34656 3.21735 1.31508 3.24881C1.28358 3.28031 1.26786 3.31761 1.26786 3.36066V3.9921C1.26786 4.03525 1.28274 4.0717 1.31257 4.10149C1.94889 4.7776 2.77419 5.72376 3.78838 6.94023C3.81824 6.98004 3.85965 6.99989 3.91269 6.99989H4.8821C4.95177 6.99989 4.99986 6.97015 5.02629 6.91037C5.05943 6.85071 5.05294 6.79436 5.00639 6.74132C4.03872 5.55475 3.27802 4.66652 2.72452 4.07659C3.28796 4.01032 3.74535 3.82799 4.09669 3.52975C4.44798 3.23149 4.66172 2.84363 4.73801 2.36638H5.57322C5.61957 2.36638 5.65772 2.35151 5.6875 2.32166C5.71736 2.29191 5.7323 2.25377 5.7323 2.20738V1.7003C5.7323 1.65383 5.71736 1.61574 5.6875 1.5859Z" fill="black"/>
</g>
<defs>
<clipPath id="clip0_7_123">
<rect width="6.37838" height="6.37838" fill="white" transform="scale(1.09745)"/>
</clipPath>
</defs>
</svg>
