<svg width="98" height="132" viewBox="0 0 98 132" fill="none" xmlns="http://www.w3.org/2000/svg">
<path d="M15.3882 0H14.3208V101.579H15.3882V0Z" fill="#EBEBEB"/>
<path d="M17.8786 96.8651H11.9191V100.868H17.8786V96.8651Z" fill="#DBDBDB"/>
<path d="M17.8787 98.1993H11.9191V100.868H17.8787V98.1993Z" fill="#C7C7C7"/>
<path d="M10.3181 127.464C10.3181 129.954 12.364 132 14.8545 132C17.3451 132 19.3909 129.954 19.3909 127.464C19.3909 124.973 17.3451 122.927 14.8545 122.927C12.364 122.927 10.3181 124.973 10.3181 127.464Z" fill="#EBEBEB"/>
<path d="M0 127.464H29.7978L24.3719 117.857L19.9245 100.156H9.78436L5.33692 117.857L0 127.464Z" fill="#DBDBDB"/>
<path d="M50.4338 0H49.3664V83.3449H50.4338V0Z" fill="#EBEBEB"/>
<path d="M52.8351 78.5413H46.8756V82.544H52.8351V78.5413Z" fill="#DBDBDB"/>
<path d="M52.8351 79.8755H46.8756V82.544H52.8351V79.8755Z" fill="#C7C7C7"/>
<path d="M45.2747 109.14C45.2747 111.631 47.3205 113.677 49.8111 113.677C52.3016 113.677 54.3475 111.631 54.3475 109.14C54.3475 106.65 52.3016 104.604 49.8111 104.604C47.3205 104.604 45.2747 106.65 45.2747 109.14Z" fill="#EBEBEB"/>
<path d="M34.9565 109.14H64.7544L59.3285 99.6226L54.97 81.8329H44.7409L40.3824 99.6226L34.9565 109.14Z" fill="#DBDBDB"/>
<path d="M83.1673 0H82.0999V64.5768H83.1673V0Z" fill="#EBEBEB"/>
<path d="M85.5686 59.8622H79.609V63.8649H85.5686V59.8622Z" fill="#DBDBDB"/>
<path d="M85.5686 61.1964H79.609V63.8649H85.5686V61.1964Z" fill="#C7C7C7"/>
<path d="M78.0082 90.4607C78.0082 92.9513 80.054 94.9971 82.5445 94.9971C85.0351 94.9971 87.0809 92.9513 87.0809 90.4607C87.0809 87.9701 85.0351 85.9243 82.5445 85.9243C80.054 85.8354 78.0082 87.8812 78.0082 90.4607Z" fill="#EBEBEB"/>
<path d="M67.69 90.4608H97.4878L92.1509 80.8543L87.7035 63.1535H77.4744L73.1159 80.8543L67.69 90.4608Z" fill="#DBDBDB"/>
</svg>
