<svg width="20" height="20" viewBox="0 0 20 20" fill="none" xmlns="http://www.w3.org/2000/svg">
<path d="M18.7603 9.99966L19.8656 8.08943C19.9985 7.8596 20.0346 7.58643 19.9661 7.32997C19.8975 7.07351 19.73 6.85477 19.5002 6.72183L17.588 5.61654V3.41396C17.588 3.14844 17.4825 2.89379 17.2947 2.70603C17.107 2.51827 16.8523 2.41279 16.5868 2.41279H14.3852L13.2809 0.501559C13.1476 0.272207 12.9292 0.1046 12.6732 0.0350134C12.5462 0.00058908 12.4137 -0.0082874 12.2832 0.00889848C12.1528 0.0260844 12.0271 0.0689909 11.9133 0.135131L10.0011 1.24042L8.08885 0.134129C7.8589 0.00137178 7.58563 -0.0346049 7.32916 0.0341133C7.07269 0.102832 6.85402 0.270616 6.72125 0.500558L5.61596 2.41279H3.41438C3.14886 2.41279 2.8942 2.51827 2.70645 2.70603C2.51869 2.89379 2.41321 3.14844 2.41321 3.41396V5.61554L0.500976 6.72083C0.386875 6.78646 0.286867 6.87399 0.206697 6.97839C0.126527 7.08279 0.067776 7.20201 0.0338191 7.32918C-0.000137751 7.45636 -0.00863111 7.58899 0.00882698 7.71946C0.0262851 7.84993 0.0693504 7.97566 0.135549 8.08943L1.24084 9.99966L0.135549 11.9099C0.00338321 12.1399 -0.0324755 12.4129 0.0357907 12.6693C0.104057 12.9257 0.270912 13.1446 0.499975 13.2785L2.41221 14.3838V16.5854C2.41221 16.8509 2.51769 17.1055 2.70545 17.2933C2.8932 17.4811 3.14785 17.5865 3.41338 17.5865H5.61596L6.72125 19.4988C6.80989 19.6503 6.93644 19.7761 7.08846 19.8639C7.24048 19.9517 7.41273 19.9984 7.58826 19.9994C7.76247 19.9994 7.93567 19.9533 8.08985 19.8642L10.0001 18.7589L11.9123 19.8642C12.1422 19.9968 12.4153 20.0327 12.6717 19.9642C12.9281 19.8957 13.1468 19.7283 13.2799 19.4988L14.3842 17.5865H16.5858C16.8513 17.5865 17.106 17.4811 17.2937 17.2933C17.4815 17.1055 17.587 16.8509 17.587 16.5854V14.3838L19.4992 13.2785C19.6131 13.2127 19.7129 13.125 19.7929 13.0206C19.8729 12.9162 19.9316 12.797 19.9655 12.6699C19.9995 12.5428 20.008 12.4103 19.9907 12.2799C19.9734 12.1495 19.9306 12.0237 19.8646 11.9099L18.7603 9.99966ZM7.49716 4.9838C7.89558 4.98393 8.27763 5.14233 8.55927 5.42415C8.8409 5.70598 8.99905 6.08813 8.99891 6.48656C8.99878 6.88498 8.84038 7.26703 8.55856 7.54867C8.27674 7.8303 7.89458 7.98845 7.49616 7.98831C7.09773 7.98818 6.71568 7.82978 6.43405 7.54796C6.15241 7.26614 5.99427 6.88398 5.9944 6.48556C5.99453 6.08713 6.15293 5.70508 6.43475 5.42345C6.71658 5.14181 7.09873 4.98367 7.49716 4.9838ZM7.79751 14.595L6.19564 13.3946L12.2027 5.38527L13.8045 6.58567L7.79751 14.595ZM12.503 14.9955C12.3057 14.9954 12.1104 14.9565 11.9282 14.881C11.7459 14.8054 11.5804 14.6947 11.4409 14.5552C11.3014 14.4156 11.1909 14.25 11.1154 14.0677C11.04 13.8854 11.0012 13.69 11.0013 13.4927C11.0013 13.2955 11.0402 13.1001 11.1158 12.9179C11.1914 12.7357 11.3021 12.5701 11.4416 12.4306C11.5812 12.2912 11.7468 12.1806 11.9291 12.1052C12.1114 12.0297 12.3067 11.9909 12.504 11.991C12.9024 11.9911 13.2845 12.1495 13.5661 12.4313C13.8478 12.7132 14.0059 13.0953 14.0058 13.4938C14.0056 13.8922 13.8472 14.2742 13.5654 14.5559C13.2836 14.8375 12.9014 14.9956 12.503 14.9955Z" fill="black"/>
</svg>
