<svg width="19" height="20" viewBox="0 0 19 20" fill="none" xmlns="http://www.w3.org/2000/svg">
<path d="M14.7836 19.5529C14.6302 19.5532 14.4793 19.5141 14.3454 19.4393L9.48875 16.6916L4.63108 19.4403C4.4759 19.5293 4.29757 19.5696 4.11921 19.556C3.93929 19.5412 3.76787 19.4731 3.62679 19.3605C3.48077 19.2435 3.36959 19.0888 3.30533 18.9131C3.23873 18.7333 3.22003 18.5392 3.25107 18.35L4.20316 12.5567L0.279146 8.44121C0.155234 8.30608 0.0687726 8.14092 0.0283276 7.96209C-0.013517 7.78064 -0.00893919 7.59156 0.0416368 7.41234C0.0949675 7.23242 0.196166 7.07036 0.334427 6.94347C0.46775 6.82146 0.634012 6.74136 0.812516 6.71313L6.23836 5.85932L8.6288 0.5809C8.70419 0.409738 8.82579 0.262972 8.97995 0.15707C9.12875 0.0547674 9.30509 0 9.48567 0C9.66626 0 9.84259 0.0547674 9.9914 0.15707C10.1456 0.262972 10.2672 0.409738 10.3426 0.5809L12.7617 5.84909L18.1875 6.70289C18.366 6.73112 18.5323 6.81122 18.6656 6.93323C18.8038 7.06015 18.905 7.2222 18.9584 7.40211C19.0089 7.58133 19.0135 7.7704 18.9717 7.95186C18.9312 8.13068 18.8448 8.29584 18.7209 8.43097L14.7969 12.5464L15.7489 18.3398C15.783 18.5324 15.7653 18.7306 15.6978 18.9141C15.6324 19.0934 15.5182 19.2508 15.3681 19.3687C15.2007 19.4964 14.9939 19.5616 14.7836 19.5529Z" fill="#EB2D7F"/>
</svg>
