<svg width="17" height="16" viewBox="0 0 17 16" fill="none" xmlns="http://www.w3.org/2000/svg">
<path d="M16.3555 15.4674L15.1725 4.89386C15.1593 4.7768 15.1035 4.66868 15.0157 4.59017C14.9279 4.51166 14.8142 4.46827 14.6964 4.46826H1.66305C1.54526 4.46827 1.4316 4.51166 1.34378 4.59017C1.25597 4.66868 1.20016 4.7768 1.18702 4.89386L0.00299148 15.4674C-0.00453094 15.5344 0.0021724 15.6022 0.0226632 15.6665C0.043154 15.7307 0.0769708 15.7899 0.121902 15.8401C0.166834 15.8904 0.221869 15.9306 0.283408 15.9581C0.344947 15.9857 0.411605 15.9999 0.479023 15.9999H15.8794C15.9469 15.9999 16.0135 15.9857 16.0751 15.9581C16.1366 15.9306 16.1916 15.8904 16.2366 15.8401C16.2815 15.7899 16.3153 15.7307 16.3358 15.6665C16.3563 15.6022 16.363 15.5344 16.3555 15.4674Z" fill="#B6B7B7"/>
<path d="M16.3564 15.4674L15.1743 4.89386C15.1612 4.7768 15.1054 4.66868 15.0176 4.59017C14.9298 4.51166 14.8161 4.46827 14.6983 4.46826H8.18011V15.9999H15.8783C15.9457 15.9999 16.0124 15.9857 16.0739 15.9581C16.1355 15.9306 16.1905 15.8904 16.2354 15.8401C16.2804 15.7899 16.3142 15.7307 16.3347 15.6665C16.3551 15.6022 16.3619 15.5344 16.3543 15.4674H16.3564Z" fill="#B6B7B7"/>
<path d="M5.09815 7.93349C5.62731 7.93349 6.05627 7.50453 6.05627 6.97538C6.05627 6.44623 5.62731 6.01727 5.09815 6.01727C4.569 6.01727 4.14004 6.44623 4.14004 6.97538C4.14004 7.50453 4.569 7.93349 5.09815 7.93349Z" fill="#B6B7B7"/>
<path d="M11.2632 7.93349C11.7923 7.93349 12.2213 7.50453 12.2213 6.97538C12.2213 6.44623 11.7923 6.01727 11.2632 6.01727C10.734 6.01727 10.305 6.44623 10.305 6.97538C10.305 7.50453 10.734 7.93349 11.2632 7.93349Z" fill="#B6B7B7"/>
<path d="M11.2635 7.29521C11.1364 7.29521 11.0146 7.24474 10.9247 7.1549C10.8349 7.06506 10.7844 6.94321 10.7844 6.81615V3.6221C10.7844 2.9316 10.5101 2.26938 10.0218 1.78112C9.53359 1.29286 8.87137 1.01855 8.18086 1.01855C7.49036 1.01855 6.82814 1.29286 6.33988 1.78112C5.85162 2.26938 5.57732 2.9316 5.57732 3.6221V6.81615C5.57732 6.87906 5.56492 6.94136 5.54085 6.99948C5.51677 7.0576 5.48149 7.11041 5.437 7.1549C5.39252 7.19938 5.33971 7.23467 5.28159 7.25874C5.22346 7.28282 5.16117 7.29521 5.09826 7.29521C5.03535 7.29521 4.97305 7.28282 4.91493 7.25874C4.8568 7.23467 4.804 7.19938 4.75951 7.1549C4.71503 7.11041 4.67974 7.0576 4.65567 6.99948C4.63159 6.94136 4.61921 6.87906 4.61921 6.81615V3.6221C4.61125 3.14934 4.69749 2.67971 4.87291 2.24062C5.04833 1.80153 5.3094 1.40176 5.64092 1.06462C5.97244 0.72747 6.36777 0.459699 6.80385 0.276917C7.23992 0.0941356 7.70803 0 8.18086 0C8.6537 0 9.12181 0.0941356 9.55788 0.276917C9.99396 0.459699 10.3893 0.72747 10.7208 1.06462C11.0523 1.40176 11.3134 1.80153 11.4888 2.24062C11.6642 2.67971 11.7505 3.14934 11.7425 3.6221V6.81615C11.7425 6.87906 11.7301 6.94136 11.7061 6.99948C11.682 7.0576 11.6467 7.11041 11.6022 7.1549C11.5577 7.19938 11.5049 7.23467 11.4468 7.25874C11.3887 7.28282 11.3264 7.29521 11.2635 7.29521Z" fill="#B6B7B7"/>
<path d="M8.18011 0.058848V1.01696C8.87024 1.01776 9.53186 1.29227 10.0199 1.78026C10.5078 2.26825 10.7824 2.92988 10.7832 3.62001V6.81607C10.7832 6.94313 10.8336 7.06498 10.9235 7.15482C11.0133 7.24466 11.1352 7.29513 11.2622 7.29513C11.3893 7.29513 11.5111 7.24466 11.601 7.15482C11.6908 7.06498 11.7413 6.94313 11.7413 6.81607V3.62202C11.7405 2.67761 11.3651 1.77207 10.6975 1.10407C10.0298 0.436081 9.12453 0.0601831 8.18011 0.058848Z" fill="#B6B7B7"/>
</svg>
