<svg width="121" height="96" viewBox="0 0 121 96" fill="none" xmlns="http://www.w3.org/2000/svg">
<path d="M3.63708 72.121H117.363L121 0H0L3.63708 72.121Z" fill="#EBEBEB"/>
<path d="M7.98374 8.42735H110.089L108.581 32.5564H9.31439L7.98374 8.42735Z" stroke="#DBDBDB" stroke-miterlimit="10"/>
<path d="M11.0886 39.6534L12.2418 61.3873H107.25L108.581 39.6534H11.0886Z" stroke="#DBDBDB" stroke-miterlimit="10"/>
<path d="M70.0805 22.7982H49.5886L48.9676 17.5644H70.7015L70.0805 22.7982Z" stroke="#DBDBDB" stroke-miterlimit="10"/>
<path d="M70.0805 53.0482H49.5886L48.9676 47.9031H70.7015L70.0805 53.0482Z" stroke="#DBDBDB" stroke-miterlimit="10"/>
<path d="M19.4274 72.1206L18.3629 79.9271L16.1451 95.7174H11.7984V72.1206H19.4274Z" fill="#EBEBEB"/>
<path d="M19.4274 72.1206L18.3629 79.9271H11.7984V72.1206H19.4274Z" fill="#DBDBDB"/>
<path d="M101.573 72.1206L102.637 79.9271L104.855 95.7174H109.202V72.1206H101.573Z" fill="#EBEBEB"/>
<path d="M101.573 72.1206L102.637 79.9271H109.202V72.1206H101.573Z" fill="#DBDBDB"/>
</svg>
