<svg width="333" height="12" viewBox="0 0 333 12" fill="none" xmlns="http://www.w3.org/2000/svg">
<path d="M3.09655 11.3654C2.38575 11.3858 1.68918 11.1636 1.12146 10.7354C0.585904 10.3266 0.22789 9.72764 0.121417 9.06234H1.62548C1.71365 9.37008 1.90504 9.63811 2.16751 9.82138C2.44403 10.0109 2.7734 10.1082 3.10855 10.0994C3.40086 10.1055 3.68942 10.0329 3.94401 9.88912C4.19861 9.74537 4.40985 9.5358 4.55561 9.28236C4.9392 8.58967 5.11978 7.80288 5.07664 7.01225H4.97663C4.78592 7.40414 4.48172 7.72959 4.10359 7.9463C3.7012 8.17206 3.24585 8.28633 2.78454 8.27731C2.41483 8.28845 2.04681 8.22314 1.70351 8.08547C1.36021 7.94781 1.04903 7.74076 0.789448 7.47728C0.528575 7.2122 0.324221 6.89692 0.188767 6.55055C0.0533117 6.20418 -0.0104259 5.83391 0.00141271 5.46219C-0.0112114 5.06398 0.060891 4.66763 0.212949 4.29938C0.365007 3.93113 0.593552 3.59938 0.883452 3.32609C1.41369 2.86714 2.07203 2.582 2.76953 2.50921C3.46702 2.43642 4.17005 2.57949 4.78362 2.91907C5.27401 3.21895 5.67012 3.65075 5.92667 4.16513C6.35327 4.98937 6.55994 5.90975 6.5267 6.83725C6.59641 8.01719 6.27707 9.18742 5.61766 10.1684C5.32694 10.5584 4.94522 10.8714 4.50578 11.08C4.06635 11.2887 3.58254 11.3867 3.09655 11.3654ZM1.9535 6.61524C2.1112 6.77061 2.29901 6.89209 2.50538 6.97223C2.71175 7.05237 2.93232 7.08947 3.15355 7.08126C3.37439 7.08836 3.59441 7.05103 3.80055 6.9715C4.0067 6.89196 4.19477 6.77183 4.35361 6.61824C4.50969 6.46651 4.63245 6.28393 4.71406 6.08214C4.79567 5.88034 4.83435 5.66376 4.82763 5.44618C4.8329 5.22409 4.79308 5.00324 4.71057 4.79698C4.62806 4.59071 4.50459 4.40332 4.3476 4.24613C4.03022 3.94408 3.60761 3.77761 3.16949 3.78207C2.73137 3.78652 2.31224 3.96155 2.00106 4.26999C1.68988 4.57844 1.51117 4.99601 1.50285 5.43408C1.49453 5.87214 1.65726 6.2962 1.9565 6.61624L1.9535 6.61524Z" fill="#4A4B4D"/>
<path d="M8.24082 4.94214C8.23595 4.81324 8.25737 4.68469 8.30379 4.56434C8.35022 4.44399 8.42066 4.33435 8.51083 4.24211C8.60557 4.15116 8.7178 4.08041 8.84072 4.03416C8.96364 3.98792 9.09467 3.96714 9.22587 3.9731C9.35581 3.96892 9.48526 3.99091 9.60654 4.03776C9.72781 4.0846 9.83844 4.15535 9.93183 4.24579C10.0252 4.33623 10.0995 4.44453 10.1502 4.56424C10.2009 4.68395 10.2271 4.81263 10.2271 4.94264C10.2271 5.07265 10.2009 5.20133 10.1502 5.32104C10.0995 5.44075 10.0252 5.54904 9.93183 5.63948C9.83844 5.72993 9.72781 5.80068 9.60654 5.84752C9.48526 5.89437 9.35581 5.91635 9.22587 5.91218C9.09467 5.91813 8.96364 5.89736 8.84072 5.85111C8.7178 5.80487 8.60557 5.73412 8.51083 5.64317C8.4202 5.55106 8.34946 5.44129 8.30301 5.3207C8.25656 5.20011 8.23539 5.07125 8.24082 4.94214ZM8.24082 9.36033C8.23553 9.23138 8.25677 9.10272 8.30321 8.98231C8.34965 8.8619 8.42032 8.7523 8.51083 8.6603C8.60543 8.56916 8.71764 8.49829 8.8406 8.45203C8.96355 8.40577 9.09465 8.3851 9.22587 8.39129C9.35581 8.38712 9.48526 8.40911 9.60654 8.45595C9.72781 8.5028 9.83844 8.57354 9.93183 8.66399C10.0252 8.75443 10.0995 8.86272 10.1502 8.98243C10.2009 9.10214 10.2271 9.23082 10.2271 9.36083C10.2271 9.49084 10.2009 9.61953 10.1502 9.73924C10.0995 9.85895 10.0252 9.96724 9.93183 10.0577C9.83844 10.1481 9.72781 10.2189 9.60654 10.2657C9.48526 10.3126 9.35581 10.3346 9.22587 10.3304C9.09458 10.3364 8.96346 10.3155 8.84051 10.2691C8.71757 10.2227 8.60538 10.1516 8.51083 10.0604C8.42061 9.96816 8.35013 9.85853 8.30371 9.73817C8.25729 9.61781 8.23589 9.48924 8.24082 9.36033Z" fill="#4A4B4D"/>
<path d="M16.0461 11.1655V9.58939H11.915V8.24133C12.603 6.9746 13.7517 5.13086 15.3611 2.71008H17.4932V8.31033H18.6363V9.58839H17.4932V11.1655H16.0461ZM13.316 8.25933V8.34733H16.0691V3.94014H15.9861C15.0728 5.2902 14.1827 6.72993 13.316 8.25933Z" fill="#4A4B4D"/>
<path d="M22.0994 11.1655V4.23315H21.9994L19.8993 5.71021V4.25715L22.1084 2.71008H23.6145V11.1655H22.0994Z" fill="#4A4B4D"/>
<path d="M34.826 11.1655L34.1119 9.00336H30.9998L30.2738 11.1655H28.7437L31.7438 2.71008H33.4439L36.4491 11.1655H34.826ZM32.5119 4.32115L31.3518 7.80831H33.7599L32.6119 4.32115H32.5119Z" fill="#4A4B4D"/>
<path d="M39.3091 11.1654H37.903V2.71003H39.6721L42.2152 8.8653H42.3202L44.8634 2.70703H46.6334V11.1654H45.2274V5.21814H45.1454L42.8073 10.8374H41.7292L39.3871 5.21814H39.3051L39.3091 11.1654Z" fill="#4A4B4D"/>
<path d="M299.252 8.59341C299.281 8.56422 299.305 8.5293 299.32 8.4908C299.336 8.4523 299.343 8.41102 299.343 8.36947C299.342 8.32792 299.333 8.28698 299.315 8.24915C299.298 8.21131 299.273 8.17737 299.243 8.14939C298.643 7.64243 297.884 7.36425 297.099 7.36425C296.314 7.36425 295.554 7.64243 294.955 8.14939C294.924 8.17701 294.899 8.21073 294.882 8.24843C294.864 8.28612 294.855 8.32697 294.855 8.3684C294.853 8.41007 294.861 8.45153 294.876 8.49023C294.892 8.52893 294.915 8.56405 294.945 8.59341L296.884 10.5495C296.912 10.5781 296.945 10.6008 296.982 10.6163C297.019 10.6318 297.058 10.6398 297.098 10.6398C297.138 10.6398 297.178 10.6318 297.214 10.6163C297.251 10.6008 297.285 10.5781 297.313 10.5495L299.252 8.59341ZM297.099 5.8933C298.281 5.89312 299.422 6.3322 300.299 7.12535C300.355 7.18002 300.43 7.21062 300.508 7.21062C300.587 7.21062 300.662 7.18002 300.718 7.12535L301.839 5.9923C301.868 5.963 301.891 5.92813 301.907 5.88973C301.923 5.85134 301.931 5.8102 301.93 5.76874C301.93 5.72727 301.921 5.68632 301.904 5.64829C301.888 5.61026 301.864 5.57591 301.834 5.54728C300.548 4.35131 298.858 3.68645 297.102 3.68645C295.346 3.68645 293.656 4.35131 292.37 5.54728C292.34 5.57547 292.315 5.60958 292.298 5.64756C292.281 5.68554 292.271 5.72661 292.27 5.76829C292.27 5.80981 292.278 5.851 292.293 5.88947C292.309 5.92793 292.332 5.96289 292.361 5.9923L293.481 7.12535C293.538 7.18062 293.613 7.2116 293.692 7.2116C293.771 7.2116 293.846 7.18062 293.902 7.12535C294.778 6.33162 295.917 5.89146 297.099 5.89029V5.8933ZM297.099 2.21113C299.249 2.21091 301.317 3.03687 302.875 4.51823C302.931 4.57351 303.007 4.60449 303.085 4.60449C303.164 4.60449 303.24 4.57351 303.296 4.51823L304.417 3.38618C304.446 3.35718 304.469 3.32258 304.485 3.28444C304.501 3.24629 304.508 3.20539 304.508 3.16417C304.508 3.12302 304.5 3.08224 304.484 3.04439C304.468 3.00654 304.444 2.97243 304.414 2.94416C302.445 1.05747 299.824 0.00415057 297.098 0.00415057C294.371 0.00415057 291.75 1.05747 289.781 2.94416C289.752 2.97271 289.728 3.00688 289.712 3.04467C289.696 3.08245 289.687 3.12309 289.687 3.16417C289.687 3.20535 289.695 3.24615 289.711 3.28425C289.726 3.32234 289.749 3.35698 289.778 3.38618L290.901 4.51823C290.957 4.5732 291.033 4.60399 291.111 4.60399C291.19 4.60399 291.265 4.5732 291.321 4.51823C292.879 3.03536 294.948 2.20826 297.099 2.20813V2.21113Z" fill="#4A4B4D"/>
<path d="M282.868 0.323989H283.838C283.965 0.323858 284.092 0.348852 284.21 0.397542C284.327 0.446232 284.434 0.517665 284.525 0.607755C284.615 0.697844 284.686 0.804826 284.735 0.922582C284.784 1.04034 284.809 1.16656 284.809 1.29403V9.70341C284.809 9.83091 284.784 9.9572 284.735 10.075C284.687 10.1928 284.615 10.2999 284.525 10.39C284.435 10.4801 284.328 10.5515 284.21 10.6002C284.092 10.6488 283.966 10.6737 283.838 10.6734H282.868C282.611 10.6734 282.364 10.5712 282.182 10.3893C282 10.2074 281.898 9.96068 281.898 9.70341V1.29403C281.898 1.03676 282 0.790026 282.182 0.608107C282.364 0.426189 282.611 0.323989 282.868 0.323989ZM278.341 2.58809H279.311C279.438 2.58796 279.565 2.61295 279.682 2.66164C279.8 2.71033 279.907 2.78176 279.997 2.87185C280.088 2.96194 280.159 3.06893 280.208 3.18668C280.257 3.30444 280.282 3.43066 280.282 3.55813V9.70341C280.282 9.83088 280.257 9.9571 280.208 10.0749C280.159 10.1926 280.088 10.2996 279.997 10.3897C279.907 10.4798 279.8 10.5512 279.682 10.5999C279.565 10.6486 279.438 10.6736 279.311 10.6734H278.341C278.213 10.6737 278.087 10.6488 277.969 10.6001C277.851 10.5515 277.744 10.48 277.654 10.3899C277.564 10.2998 277.493 10.1927 277.444 10.0749C277.395 9.95713 277.37 9.83087 277.371 9.70341V3.55813C277.371 3.43071 277.396 3.30451 277.444 3.18676C277.493 3.06901 277.564 2.96202 277.655 2.87192C277.745 2.78181 277.852 2.71036 277.969 2.66166C278.087 2.61296 278.213 2.58796 278.341 2.58809ZM273.813 4.85219H274.784C275.041 4.85245 275.287 4.95474 275.469 5.1366C275.651 5.31846 275.753 5.56504 275.754 5.82223V9.70341C275.754 9.96068 275.651 10.2074 275.47 10.3893C275.288 10.5712 275.041 10.6734 274.784 10.6734H273.813C273.685 10.6736 273.559 10.6486 273.441 10.5999C273.323 10.5512 273.216 10.4797 273.126 10.3896C273.036 10.2995 272.965 10.1925 272.916 10.0748C272.867 9.95703 272.842 9.83083 272.843 9.70341V5.82223C272.843 5.56496 272.945 5.31823 273.127 5.13631C273.309 4.95439 273.555 4.85219 273.813 4.85219ZM269.283 6.79328H270.253C270.511 6.79328 270.757 6.89548 270.939 7.07739C271.121 7.25931 271.223 7.50605 271.223 7.76332V9.70341C271.224 9.83083 271.199 9.95703 271.15 10.0748C271.101 10.1925 271.03 10.2995 270.94 10.3896C270.85 10.4797 270.743 10.5512 270.625 10.5999C270.507 10.6486 270.381 10.6736 270.253 10.6734H269.283C269.156 10.6736 269.03 10.6486 268.912 10.5999C268.794 10.5512 268.687 10.4798 268.597 10.3897C268.507 10.2996 268.435 10.1926 268.386 10.0749C268.337 9.9571 268.312 9.83088 268.312 9.70341V7.76532C268.312 7.63772 268.337 7.51134 268.386 7.39341C268.435 7.27548 268.506 7.16832 268.596 7.07804C268.687 6.98777 268.794 6.91615 268.912 6.86729C269.029 6.81843 269.156 6.79328 269.283 6.79328Z" fill="#4A4B4D"/>
<path d="M328.154 0.971043C328.583 0.971573 328.993 1.14214 329.296 1.44532C329.599 1.74849 329.77 2.1595 329.77 2.58812V8.41037C329.77 8.83899 329.599 9.25 329.296 9.55317C328.993 9.85634 328.583 10.0269 328.154 10.0274H311.979C311.551 10.0269 311.14 9.85634 310.837 9.55317C310.534 9.25 310.363 8.83899 310.363 8.41037V2.58812C310.363 2.1595 310.534 1.74849 310.837 1.44532C311.14 1.14214 311.551 0.971573 311.979 0.971043H328.154ZM328.154 0H311.979C311.639 0.000131302 311.303 0.0671794 310.989 0.197315C310.675 0.327451 310.39 0.518127 310.15 0.758456C309.91 0.998784 309.72 1.28406 309.59 1.59799C309.46 1.91193 309.393 2.24837 309.393 2.58812V8.41037C309.393 8.75012 309.46 9.08656 309.59 9.4005C309.72 9.71443 309.91 9.9997 310.15 10.24C310.39 10.4804 310.675 10.671 310.989 10.8012C311.303 10.9313 311.639 10.9984 311.979 10.9985H328.154C328.494 10.9984 328.83 10.9313 329.144 10.8012C329.458 10.671 329.743 10.4804 329.983 10.24C330.223 9.9997 330.414 9.71443 330.544 9.4005C330.673 9.08656 330.74 8.75012 330.74 8.41037V2.58812C330.74 2.24837 330.673 1.91193 330.544 1.59799C330.414 1.28406 330.223 0.998784 329.983 0.758456C329.743 0.518127 329.458 0.327451 329.144 0.197315C328.83 0.0671794 328.494 0.000131302 328.154 0Z" fill="#4A4B4D"/>
<path d="M331.711 3.55814V7.44031C332.093 7.27949 332.419 7.00953 332.648 6.66425C332.878 6.31896 333 5.9137 333 5.49923C333 5.08475 332.878 4.6795 332.648 4.33421C332.419 3.98893 332.093 3.71896 331.711 3.55814Z" fill="#4A4B4D"/>
<path d="M312.628 1.94113H327.506C327.676 1.94113 327.844 1.9746 328.001 2.03963C328.158 2.10466 328.301 2.19998 328.421 2.32015C328.541 2.44031 328.636 2.58297 328.701 2.73997C328.766 2.89697 328.8 3.06525 328.8 3.23518V7.76338C328.8 7.93345 328.766 8.10186 328.701 8.25898C328.636 8.4161 328.541 8.55887 328.421 8.67913C328.3 8.79939 328.158 8.89478 328 8.95986C327.843 9.02494 327.675 9.05844 327.505 9.05844H312.628C312.285 9.05844 311.955 8.922 311.712 8.67913C311.47 8.43626 311.333 8.10685 311.333 7.76338V3.23618C311.333 2.89271 311.47 2.56331 311.712 2.32044C311.955 2.07757 312.285 1.94113 312.628 1.94113V1.94113Z" fill="#4A4B4D"/>
</svg>
