<svg width="13" height="15" viewBox="0 0 13 15" fill="none" xmlns="http://www.w3.org/2000/svg">
<path d="M12.8476 12.0503L8.91441 7.5073L12.8476 2.94976C12.9234 2.86164 12.9659 2.7424 12.9659 2.61811C12.9659 2.49381 12.9234 2.37457 12.8476 2.28645L10.9895 0.136866C10.9134 0.0492075 10.8103 0 10.7029 0C10.5954 0 10.4924 0.0492075 10.4162 0.136866L6.48297 4.68859L2.54599 0.136866C2.46982 0.0492075 2.36675 0 2.25931 0C2.15187 0 2.0488 0.0492075 1.97263 0.136866L0.118306 2.2821C0.0425345 2.37022 0 2.48946 0 2.61375C0 2.73805 0.0425345 2.85729 0.118306 2.94541L4.05153 7.5073L0.118306 12.0503C0.0425345 12.1384 0 12.2577 0 12.382C0 12.5063 0.0425345 12.6255 0.118306 12.7136L1.97639 14.8632C2.05256 14.9509 2.15563 15.0001 2.26307 15.0001C2.37051 15.0001 2.47358 14.9509 2.54975 14.8632L6.48297 10.3129L10.4162 14.8632C10.4924 14.9509 10.5954 15.0001 10.7029 15.0001C10.8103 15.0001 10.9134 14.9509 10.9895 14.8632L12.8476 12.7136C12.9234 12.6255 12.9659 12.5063 12.9659 12.382C12.9659 12.2577 12.9234 12.1384 12.8476 12.0503Z" fill="white"/>
</svg>
