<svg width="24" height="24" viewBox="0 0 24 24" fill="none" xmlns="http://www.w3.org/2000/svg">
<path fill-rule="evenodd" clip-rule="evenodd" d="M21 19.9598V5.98789C21 4.8901 20.1 3.99191 19 3.99191H18V1.99593H16V3.99191H8.00004V1.99593H6.00004V3.99191H5.00004C3.89005 3.99191 3.01005 4.8901 3.01005 5.98789L3.00005 19.9598C3.00005 21.0576 3.89005 21.9558 5.00004 21.9558H19C20.1 21.9558 21 21.0576 21 19.9598ZM9.00004 10.9778H7.00004V12.9738H9.00004V10.9778ZM5.00005 7.98387H19V5.98789H5.00005V7.98387ZM19 9.97986V19.9598H5.00005V9.97986H19ZM15 12.9738H17V10.9778H15V12.9738ZM13 12.9738H11V10.9778H13V12.9738Z" fill="white"/>
</svg>
