<svg width="47" height="9" viewBox="0 0 47 9" fill="none" xmlns="http://www.w3.org/2000/svg">
<path d="M3.12089 8.9445C2.4045 8.96502 1.70246 8.74108 1.13028 8.30952C0.59051 7.89749 0.229681 7.29382 0.122371 6.62329H1.63826C1.72712 6.93345 1.92002 7.20358 2.18455 7.38829C2.46325 7.57935 2.79521 7.67742 3.13299 7.66849C3.42759 7.67464 3.71842 7.60144 3.97502 7.45657C4.23161 7.31169 4.44452 7.10047 4.59143 6.84503C4.97803 6.1469 5.16003 5.35393 5.11654 4.55709H5.01575C4.82354 4.95205 4.51695 5.28006 4.13585 5.49847C3.7303 5.72601 3.27136 5.84118 2.80642 5.83209C2.43381 5.84331 2.0629 5.77749 1.7169 5.63874C1.3709 5.5 1.05728 5.29132 0.795654 5.02576C0.53273 4.7586 0.32677 4.44085 0.19025 4.09175C0.0537308 3.74266 -0.0105079 3.36948 0.00142382 2.99483C-0.0112995 2.5935 0.0613696 2.19403 0.214623 1.82289C0.367876 1.45174 0.598218 1.11738 0.890397 0.841946C1.42481 0.379385 2.08832 0.0920106 2.7913 0.0186488C3.49427 -0.054713 4.20283 0.0894736 4.82123 0.431728C5.31547 0.733962 5.71469 1.16916 5.97326 1.68758C6.40321 2.5183 6.61151 3.44592 6.57801 4.3807C6.64827 5.56992 6.32641 6.74935 5.66182 7.73804C5.36881 8.13113 4.98409 8.44657 4.5412 8.65686C4.09831 8.86714 3.6107 8.9659 3.12089 8.9445ZM1.96886 4.15695C2.1278 4.31354 2.31708 4.43598 2.52507 4.51675C2.73306 4.59752 2.95537 4.63491 3.17834 4.62663C3.40092 4.63379 3.62266 4.59617 3.83043 4.51601C4.03819 4.43585 4.22774 4.31477 4.38783 4.15997C4.54514 4.00705 4.66886 3.82304 4.75112 3.61966C4.83337 3.41628 4.87235 3.19799 4.86558 2.97871C4.87089 2.75487 4.83075 2.53228 4.7476 2.32439C4.66445 2.11651 4.54 1.92764 4.38178 1.76922C4.0619 1.46479 3.63597 1.29702 3.19441 1.30151C2.75285 1.306 2.33041 1.4824 2.01679 1.79327C1.70317 2.10414 1.52305 2.525 1.51466 2.9665C1.50627 3.40801 1.67029 3.8354 1.97188 4.15796L1.96886 4.15695Z" fill="white"/>
<path d="M8.30548 2.4707C8.30057 2.34078 8.32216 2.21123 8.36895 2.08993C8.41573 1.96863 8.48673 1.85813 8.57761 1.76516C8.6731 1.6735 8.78621 1.60219 8.91009 1.55559C9.03398 1.50898 9.16604 1.48804 9.29827 1.49404C9.42923 1.48983 9.5597 1.51199 9.68193 1.55921C9.80416 1.60642 9.91565 1.67772 10.0098 1.76888C10.1039 1.86003 10.1788 1.96917 10.2299 2.08982C10.281 2.21048 10.3073 2.34017 10.3073 2.4712C10.3073 2.60223 10.281 2.73193 10.2299 2.85258C10.1788 2.97323 10.1039 3.08237 10.0098 3.17353C9.91565 3.26468 9.80416 3.33598 9.68193 3.3832C9.5597 3.43041 9.42923 3.45257 9.29827 3.44837C9.16604 3.45436 9.03398 3.43343 8.91009 3.38682C8.78621 3.34021 8.6731 3.26891 8.57761 3.17724C8.48626 3.0844 8.41497 2.97378 8.36815 2.85224C8.32134 2.73069 8.30001 2.60083 8.30548 2.4707ZM8.30548 6.92362C8.30015 6.79366 8.32155 6.66399 8.36836 6.54263C8.41517 6.42127 8.48639 6.31081 8.57761 6.21809C8.67296 6.12623 8.78605 6.0548 8.90997 6.00818C9.03388 5.96156 9.16602 5.94073 9.29827 5.94696C9.42923 5.94276 9.5597 5.96492 9.68193 6.01213C9.80416 6.05935 9.91565 6.13065 10.0098 6.2218C10.1039 6.31296 10.1788 6.4221 10.2299 6.54275C10.281 6.6634 10.3073 6.7931 10.3073 6.92413C10.3073 7.05516 10.281 7.18485 10.2299 7.30551C10.1788 7.42616 10.1039 7.5353 10.0098 7.62645C9.91565 7.71761 9.80416 7.78891 9.68193 7.83612C9.5597 7.88334 9.42923 7.9055 9.29827 7.90129C9.16595 7.90734 9.0338 7.88632 8.90988 7.83953C8.78597 7.79273 8.67291 7.72115 8.57761 7.62916C8.48668 7.53623 8.41565 7.42573 8.36886 7.30443C8.32207 7.18312 8.30051 7.05355 8.30548 6.92362Z" fill="white"/>
<path d="M16.1722 8.74294V7.15448H12.0085V5.79582C12.7019 4.51914 13.8597 2.6609 15.4817 0.221095H17.6306V5.86537H18.7826V7.15347H17.6306V8.74294H16.1722ZM13.4206 5.81396V5.90266H16.1953V1.46082H16.1117C15.1911 2.82149 14.2941 4.27254 13.4206 5.81396Z" fill="white"/>
<path d="M22.2731 8.74294V1.75614H22.1724L20.0557 3.24481V1.78032L22.2822 0.221095H23.8001V8.74294H22.2731Z" fill="white"/>
<path d="M35.0997 8.74294L34.3801 6.56384H31.2435L30.5118 8.74294H28.9697L31.9934 0.221095H33.7068L36.7356 8.74294H35.0997ZM32.7675 1.84483L31.5983 5.3594H34.0253L32.8682 1.84483H32.7675Z" fill="white"/>
<path d="M39.6181 8.74295H38.201V0.221104H39.984L42.5471 6.42476H42.6529L45.216 0.21808H47V8.74295H45.5829V2.74893H45.5003L43.1438 8.41235H42.0572L39.6967 2.74893H39.6141L39.6181 8.74295Z" fill="white"/>
</svg>
