<svg width="333" height="12" viewBox="0 0 333 12" fill="none" xmlns="http://www.w3.org/2000/svg">
<path d="M3.09655 11.3654C2.38574 11.3858 1.68918 11.1636 1.12146 10.7354C0.585904 10.3266 0.22789 9.72763 0.121417 9.06233H1.62548C1.71365 9.37007 1.90504 9.63809 2.1675 9.82137C2.44403 10.0109 2.7734 10.1082 3.10855 10.0994C3.40085 10.1055 3.68942 10.0329 3.94401 9.88911C4.1986 9.74536 4.40985 9.53579 4.55561 9.28235C4.9392 8.58966 5.11978 7.80288 5.07663 7.01225H4.97663C4.78591 7.40413 4.48172 7.72958 4.10359 7.94629C3.7012 8.17206 3.24584 8.28633 2.78453 8.2773C2.41483 8.28844 2.04681 8.22313 1.70351 8.08546C1.36021 7.9478 1.04903 7.74075 0.789447 7.47727C0.528574 7.21219 0.324221 6.89691 0.188766 6.55054C0.0533116 6.20417 -0.0104259 5.83391 0.00141271 5.46218C-0.0112114 5.06397 0.0608909 4.66762 0.212949 4.29938C0.365007 3.93113 0.593551 3.59938 0.883451 3.32609C1.41369 2.86713 2.07203 2.582 2.76952 2.50921C3.46702 2.43642 4.17004 2.57948 4.78362 2.91907C5.274 3.21895 5.67011 3.65075 5.92667 4.16512C6.35326 4.98936 6.55993 5.90974 6.52669 6.83724C6.59641 8.01718 6.27706 9.18741 5.61766 10.1684C5.32693 10.5584 4.94521 10.8714 4.50578 11.08C4.06634 11.2887 3.58254 11.3867 3.09655 11.3654ZM1.9535 6.61523C2.1112 6.7706 2.29901 6.89208 2.50538 6.97222C2.71174 7.05236 2.93232 7.08946 3.15355 7.08125C3.37439 7.08835 3.59441 7.05103 3.80055 6.97149C4.00669 6.89195 4.19476 6.77182 4.3536 6.61823C4.50968 6.4665 4.63244 6.28392 4.71405 6.08213C4.79567 5.88033 4.83434 5.66375 4.82762 5.44618C4.83289 5.22409 4.79307 5.00324 4.71056 4.79697C4.62806 4.59071 4.50458 4.40332 4.3476 4.24613C4.03021 3.94408 3.60761 3.77761 3.16949 3.78207C2.73137 3.78652 2.31223 3.96155 2.00106 4.26999C1.68988 4.57843 1.51117 4.99601 1.50285 5.43407C1.49452 5.87213 1.65726 6.29619 1.9565 6.61623L1.9535 6.61523Z" fill="#4A4B4D"/>
<path d="M8.24069 4.94213C8.23582 4.81323 8.25724 4.68469 8.30366 4.56433C8.35008 4.44398 8.42053 4.33434 8.5107 4.2421C8.60544 4.15115 8.71767 4.0804 8.84059 4.03416C8.96351 3.98792 9.09454 3.96714 9.22573 3.97309C9.35568 3.96892 9.48513 3.99091 9.6064 4.03775C9.72768 4.0846 9.8383 4.15534 9.9317 4.24579C10.0251 4.33623 10.0994 4.44452 10.1501 4.56423C10.2008 4.68394 10.2269 4.81262 10.2269 4.94263C10.2269 5.07264 10.2008 5.20132 10.1501 5.32103C10.0994 5.44074 10.0251 5.54904 9.9317 5.63948C9.8383 5.72992 9.72768 5.80067 9.6064 5.84751C9.48513 5.89436 9.35568 5.91635 9.22573 5.91217C9.09454 5.91813 8.96351 5.89735 8.84059 5.85111C8.71767 5.80486 8.60544 5.73412 8.5107 5.64316C8.42007 5.55105 8.34933 5.44129 8.30288 5.3207C8.25643 5.2001 8.23526 5.07125 8.24069 4.94213ZM8.24069 9.36032C8.2354 9.23137 8.25663 9.10271 8.30308 8.9823C8.34952 8.86189 8.42019 8.75229 8.5107 8.66029C8.6053 8.56915 8.71751 8.49828 8.84046 8.45202C8.96341 8.40576 9.09452 8.38509 9.22573 8.39128C9.35568 8.38711 9.48513 8.4091 9.6064 8.45594C9.72768 8.50279 9.8383 8.57353 9.9317 8.66398C10.0251 8.75442 10.0994 8.86271 10.1501 8.98242C10.2008 9.10213 10.2269 9.23081 10.2269 9.36082C10.2269 9.49083 10.2008 9.61952 10.1501 9.73923C10.0994 9.85893 10.0251 9.96723 9.9317 10.0577C9.8383 10.1481 9.72768 10.2189 9.6064 10.2657C9.48513 10.3126 9.35568 10.3345 9.22573 10.3304C9.09445 10.3364 8.96333 10.3155 8.84038 10.2691C8.71743 10.2227 8.60525 10.1516 8.5107 10.0604C8.42048 9.96815 8.35 9.85852 8.30358 9.73816C8.25715 9.61779 8.23576 9.48923 8.24069 9.36032Z" fill="#4A4B4D"/>
<path d="M16.046 11.1654V9.58938H11.9148V8.24132C12.6029 6.9746 13.7516 5.13085 15.361 2.71008H17.4931V8.31032H18.6361V9.58838H17.4931V11.1654H16.046ZM13.3159 8.25932V8.34732H16.069V3.94013H15.986C15.0726 5.29019 14.1826 6.72992 13.3159 8.25932Z" fill="#4A4B4D"/>
<path d="M22.0994 11.1654V4.23314H21.9994L19.8993 5.71021V4.25714L22.1084 2.71008H23.6145V11.1654H22.0994Z" fill="#4A4B4D"/>
<path d="M34.8259 11.1654L34.1119 9.00335H30.9998L30.2737 11.1654H28.7437L31.7438 2.71008H33.4439L36.449 11.1654H34.8259ZM32.5118 4.32115L31.3518 7.8083H33.7599L32.6118 4.32115H32.5118Z" fill="#4A4B4D"/>
<path d="M39.3091 11.1654H37.903V2.71003H39.6721L42.2152 8.86529H42.3202L44.8633 2.70703H46.6334V11.1654H45.2273V5.21813H45.1453L42.8072 10.8374H41.7292L39.3871 5.21813H39.3051L39.3091 11.1654Z" fill="#4A4B4D"/>
<path d="M299.252 8.5934C299.281 8.56421 299.304 8.52929 299.32 8.49079C299.336 8.45229 299.343 8.41101 299.342 8.36946C299.342 8.32791 299.332 8.28697 299.315 8.24914C299.298 8.2113 299.273 8.17736 299.243 8.14939C298.643 7.64242 297.883 7.36424 297.098 7.36424C296.313 7.36424 295.554 7.64242 294.954 8.14939C294.923 8.177 294.899 8.21073 294.881 8.24842C294.864 8.28611 294.855 8.32696 294.854 8.36839C294.853 8.41006 294.861 8.45152 294.876 8.49022C294.891 8.52892 294.915 8.56404 294.944 8.5934L296.883 10.5495C296.911 10.5781 296.945 10.6008 296.982 10.6163C297.018 10.6318 297.058 10.6398 297.098 10.6398C297.138 10.6398 297.177 10.6318 297.214 10.6163C297.251 10.6008 297.284 10.5781 297.312 10.5495L299.252 8.5934ZM297.098 5.89329C298.281 5.89311 299.421 6.33219 300.299 7.12534C300.355 7.18001 300.43 7.21061 300.508 7.21061C300.586 7.21061 300.662 7.18001 300.718 7.12534L301.839 5.99229C301.868 5.96299 301.891 5.92812 301.907 5.88973C301.922 5.85133 301.93 5.81019 301.93 5.76873C301.929 5.72727 301.921 5.68631 301.904 5.64828C301.888 5.61025 301.864 5.57591 301.834 5.54727C300.548 4.3513 298.858 3.68645 297.102 3.68645C295.346 3.68645 293.656 4.3513 292.37 5.54727C292.34 5.57546 292.315 5.60957 292.298 5.64755C292.28 5.68554 292.271 5.7266 292.27 5.76828C292.27 5.8098 292.278 5.851 292.293 5.88946C292.309 5.92793 292.332 5.96289 292.361 5.99229L293.481 7.12534C293.537 7.18061 293.613 7.21159 293.692 7.21159C293.771 7.21159 293.846 7.18061 293.902 7.12534C294.778 6.33161 295.917 5.89145 297.098 5.89029V5.89329ZM297.098 2.21113C299.248 2.21091 301.316 3.03686 302.875 4.51823C302.931 4.5735 303.006 4.60448 303.085 4.60448C303.164 4.60448 303.24 4.5735 303.296 4.51823L304.417 3.38618C304.446 3.35718 304.469 3.32258 304.485 3.28443C304.5 3.24629 304.508 3.20539 304.508 3.16417C304.508 3.12301 304.5 3.08224 304.484 3.04439C304.467 3.00654 304.444 2.97242 304.414 2.94416C302.445 1.05747 299.824 0.00415057 297.097 0.00415057C294.371 0.00415057 291.75 1.05747 289.781 2.94416C289.752 2.97271 289.728 3.00688 289.712 3.04466C289.696 3.08245 289.687 3.12308 289.687 3.16417C289.687 3.20534 289.695 3.24615 289.71 3.28424C289.726 3.32234 289.749 3.35698 289.778 3.38618L290.901 4.51823C290.957 4.5732 291.033 4.60399 291.111 4.60399C291.19 4.60399 291.265 4.5732 291.321 4.51823C292.879 3.03535 294.948 2.20826 297.098 2.20813V2.21113Z" fill="#4A4B4D"/>
<path d="M282.868 0.323989H283.838C283.965 0.323858 284.092 0.348851 284.209 0.397542C284.327 0.446232 284.434 0.517664 284.524 0.607754C284.615 0.697844 284.686 0.804825 284.735 0.922581C284.784 1.04034 284.809 1.16656 284.809 1.29403V9.7034C284.809 9.8309 284.784 9.95719 284.735 10.075C284.686 10.1928 284.615 10.2998 284.525 10.39C284.434 10.4801 284.327 10.5515 284.209 10.6002C284.092 10.6488 283.965 10.6737 283.838 10.6734H282.868C282.61 10.6734 282.364 10.5712 282.182 10.3893C282 10.2074 281.898 9.96067 281.898 9.7034V1.29403C281.898 1.03676 282 0.790025 282.182 0.608107C282.364 0.426189 282.61 0.323989 282.868 0.323989ZM278.341 2.58809H279.311C279.438 2.58796 279.564 2.61295 279.682 2.66164C279.8 2.71033 279.907 2.78176 279.997 2.87185C280.087 2.96194 280.159 3.06892 280.208 3.18668C280.257 3.30444 280.282 3.43066 280.282 3.55813V9.7034C280.282 9.83087 280.257 9.95709 280.208 10.0748C280.159 10.1926 280.087 10.2996 279.997 10.3897C279.907 10.4798 279.8 10.5512 279.682 10.5999C279.564 10.6486 279.438 10.6736 279.311 10.6734H278.341C278.213 10.6737 278.087 10.6488 277.969 10.6001C277.851 10.5515 277.744 10.48 277.654 10.3899C277.564 10.2998 277.492 10.1927 277.444 10.0749C277.395 9.95712 277.37 9.83086 277.371 9.7034V3.55813C277.37 3.4307 277.395 3.3045 277.444 3.18675C277.493 3.069 277.564 2.96202 277.654 2.87191C277.744 2.78181 277.851 2.71036 277.969 2.66166C278.087 2.61296 278.213 2.58796 278.341 2.58809ZM273.812 4.85218H274.783C275.041 4.85245 275.287 4.95474 275.469 5.1366C275.651 5.31846 275.753 5.56504 275.753 5.82223V9.7034C275.753 9.96067 275.651 10.2074 275.469 10.3893C275.287 10.5712 275.041 10.6734 274.783 10.6734H273.812C273.685 10.6736 273.559 10.6486 273.441 10.5999C273.323 10.5512 273.216 10.4797 273.126 10.3896C273.036 10.2995 272.965 10.1925 272.916 10.0748C272.867 9.95702 272.842 9.83082 272.842 9.7034V5.82223C272.842 5.56496 272.945 5.31822 273.126 5.1363C273.308 4.95438 273.555 4.85218 273.812 4.85218ZM269.283 6.79327H270.253C270.511 6.79327 270.757 6.89547 270.939 7.07739C271.121 7.2593 271.223 7.50604 271.223 7.76331V9.7034C271.223 9.83082 271.198 9.95702 271.15 10.0748C271.101 10.1925 271.03 10.2995 270.939 10.3896C270.849 10.4797 270.742 10.5512 270.625 10.5999C270.507 10.6486 270.381 10.6736 270.253 10.6734H269.283C269.156 10.6736 269.029 10.6486 268.912 10.5999C268.794 10.5512 268.687 10.4798 268.597 10.3897C268.506 10.2996 268.435 10.1926 268.386 10.0748C268.337 9.95709 268.312 9.83087 268.312 9.7034V7.76531C268.312 7.63771 268.337 7.51133 268.386 7.3934C268.434 7.27547 268.506 7.16831 268.596 7.07803C268.686 6.98776 268.793 6.91614 268.911 6.86728C269.029 6.81842 269.156 6.79327 269.283 6.79327Z" fill="#4A4B4D"/>
<path d="M328.154 0.971042C328.582 0.971571 328.993 1.14214 329.296 1.44532C329.599 1.74849 329.77 2.15949 329.77 2.58811V8.41036C329.77 8.83898 329.599 9.24999 329.296 9.55316C328.993 9.85633 328.582 10.0269 328.154 10.0274H311.979C311.551 10.0269 311.14 9.85633 310.837 9.55316C310.534 9.24999 310.363 8.83898 310.363 8.41036V2.58811C310.363 2.15949 310.534 1.74849 310.837 1.44532C311.14 1.14214 311.551 0.971571 311.979 0.971042H328.154ZM328.154 0H311.979C311.639 0.000131302 311.303 0.0671793 310.989 0.197315C310.675 0.327451 310.39 0.518126 310.15 0.758455C309.91 0.998783 309.719 1.28406 309.59 1.59799C309.46 1.91192 309.393 2.24837 309.393 2.58811V8.41036C309.393 8.75011 309.46 9.08655 309.59 9.40049C309.719 9.71442 309.91 9.99969 310.15 10.24C310.39 10.4803 310.675 10.671 310.989 10.8012C311.303 10.9313 311.639 10.9983 311.979 10.9985H328.154C328.494 10.9983 328.83 10.9313 329.144 10.8012C329.458 10.671 329.743 10.4803 329.983 10.24C330.223 9.99969 330.413 9.71442 330.543 9.40049C330.673 9.08655 330.74 8.75011 330.74 8.41036V2.58811C330.74 2.24837 330.673 1.91192 330.543 1.59799C330.413 1.28406 330.223 0.998783 329.983 0.758455C329.743 0.518126 329.458 0.327451 329.144 0.197315C328.83 0.0671793 328.494 0.000131302 328.154 0Z" fill="#4A4B4D"/>
<path d="M331.711 3.55814V7.44031C332.093 7.27948 332.419 7.00952 332.648 6.66424C332.877 6.31895 333 5.91369 333 5.49922C333 5.08475 332.877 4.67949 332.648 4.33421C332.419 3.98892 332.093 3.71896 331.711 3.55814Z" fill="#4A4B4D"/>
<path d="M312.628 1.94112H327.506C327.676 1.94112 327.844 1.9746 328.001 2.03963C328.158 2.10466 328.301 2.19998 328.421 2.32014C328.541 2.44031 328.636 2.58296 328.701 2.73997C328.766 2.89697 328.8 3.06524 328.8 3.23518V7.76338C328.8 7.93344 328.766 8.10185 328.701 8.25897C328.636 8.4161 328.541 8.55886 328.42 8.67912C328.3 8.79938 328.157 8.89477 328 8.95985C327.843 9.02493 327.675 9.05843 327.505 9.05843H312.628C312.285 9.05843 311.955 8.92199 311.712 8.67912C311.469 8.43625 311.333 8.10685 311.333 7.76338V3.23618C311.333 2.89271 311.469 2.56331 311.712 2.32044C311.955 2.07757 312.285 1.94112 312.628 1.94112V1.94112Z" fill="#4A4B4D"/>
</svg>
