<svg width="16" height="16" viewBox="0 0 16 16" fill="none" xmlns="http://www.w3.org/2000/svg">
<path d="M15.1161 0H0.781519C0.574248 0 0.375455 0.0823383 0.228892 0.228901C0.0823291 0.375464 0 0.574245 0 0.781516V1.50229C0 1.70956 0.0823291 1.90835 0.228892 2.05491C0.375455 2.20147 0.574248 2.28381 0.781519 2.28381H15.1161C15.3234 2.28381 15.5223 2.2015 15.669 2.05497C15.8158 1.90844 15.8983 1.70966 15.8986 1.50229V0.782529C15.8983 0.575165 15.8158 0.376385 15.669 0.229851C15.5223 0.0833178 15.3234 0.00101232 15.1161 0.00101249V0Z" fill="#B6B7B7"/>
<path d="M15.1161 13.7151H0.78152C0.678852 13.715 0.577161 13.7351 0.482283 13.7743C0.387405 13.8135 0.301211 13.8711 0.228614 13.9437C0.156017 14.0163 0.0984517 14.1025 0.059224 14.1974C0.0199963 14.2923 -0.000132591 14.3939 6.57242e-07 14.4966V15.2184C6.57242e-07 15.4257 0.0823298 15.6245 0.228893 15.771C0.375455 15.9176 0.574249 15.9999 0.78152 15.9999H15.1161C15.3234 15.9999 15.5223 15.9176 15.669 15.7711C15.8158 15.6245 15.8983 15.4258 15.8986 15.2184V14.4986C15.8983 14.2913 15.8158 14.0925 15.669 13.946C15.5223 13.7994 15.3234 13.7171 15.1161 13.7171V13.7151Z" fill="#B6B7B7"/>
<path d="M15.9029 9.92483C15.9027 9.71747 15.8201 9.51869 15.6734 9.37215C15.5266 9.22562 15.3278 9.14332 15.1204 9.14332H6.21193C6.00457 9.14332 5.80569 9.22562 5.65896 9.37215C5.51224 9.51869 5.42966 9.71747 5.42939 9.92483V10.6456C5.42939 10.7483 5.44965 10.85 5.48899 10.9449C5.52832 11.0398 5.58598 11.126 5.65865 11.1986C5.73133 11.2712 5.8176 11.3287 5.91254 11.3679C6.00747 11.4071 6.10922 11.4273 6.21193 11.4271H15.1204C15.3278 11.4271 15.5266 11.3448 15.6734 11.1983C15.8201 11.0518 15.9027 10.853 15.9029 10.6456V9.92483Z" fill="#B6B7B7"/>
<path d="M15.9029 5.37851C15.9027 5.17114 15.8201 4.97236 15.6734 4.82583C15.5267 4.6793 15.3278 4.59699 15.1204 4.59699H6.21194C6.00458 4.59699 5.8057 4.6793 5.65898 4.82583C5.51225 4.97236 5.42967 5.17114 5.42941 5.37851V6.09928C5.42879 6.20349 5.44909 6.30677 5.48912 6.40298C5.54826 6.54599 5.64853 6.66822 5.77721 6.75419C5.90589 6.84015 6.05719 6.88598 6.21194 6.88586H15.1204C15.3278 6.88586 15.5267 6.80356 15.6734 6.65702C15.8201 6.51049 15.9027 6.31171 15.9029 6.10434V5.37851Z" fill="#B6B7B7"/>
<path d="M0.131601 9.80547C0.14897 9.80542 0.166151 9.80198 0.182205 9.79535C0.198178 9.78847 0.212652 9.77849 0.224745 9.76599L3.07646 8.11995V8.11488C3.09647 8.10391 3.11324 8.08785 3.12505 8.06832C3.1362 8.04848 3.14246 8.02627 3.14328 8.00353C3.14244 7.97832 3.13473 7.95382 3.121 7.93266C3.10745 7.91174 3.08811 7.89521 3.06533 7.88509L0.225734 6.24512C0.207526 6.22761 0.184694 6.21567 0.15993 6.2107C0.135139 6.20568 0.109418 6.20815 0.0860325 6.21778C0.0624827 6.22703 0.0423644 6.24328 0.0283539 6.26435C0.0135086 6.28509 0.00504491 6.30973 0.00404047 6.33521V9.67589C0.00338318 9.6929 0.00649716 9.70983 0.0131541 9.72549C0.0231909 9.74937 0.0400884 9.76972 0.0617191 9.78396C0.0833498 9.7982 0.108732 9.80569 0.134628 9.80547H0.131601Z" fill="#B6B7B7"/>
</svg>
