<svg width="25" height="14" viewBox="0 0 25 14" fill="none" xmlns="http://www.w3.org/2000/svg">
<path d="M7.48037 9.53898H24.3305C24.4184 9.53898 24.5055 9.51927 24.5867 9.48093C24.6679 9.4426 24.7417 9.3864 24.8039 9.31556C24.8661 9.24473 24.9154 9.16065 24.949 9.06811C24.9827 8.97556 25 8.87636 25 8.77619V5.21506C25 5.01275 24.9294 4.81874 24.8039 4.67568C24.6783 4.53263 24.508 4.45227 24.3305 4.45227H7.48037V1.52334C7.4795 1.22195 7.40044 0.927597 7.25313 0.677266C7.10582 0.426934 6.89684 0.231814 6.65246 0.116434C6.40809 0.0010535 6.13922 -0.0294313 5.87968 0.0288094C5.62013 0.0870502 5.3815 0.231415 5.19377 0.443757L0.391304 5.91673C0.140711 6.20321 0 6.59118 0 6.99564C0 7.40009 0.140711 7.78804 0.391304 8.07452L5.19377 13.5461C5.3815 13.7585 5.62013 13.9028 5.87968 13.9611C6.13922 14.0193 6.40809 13.9888 6.65246 13.8734C6.89684 13.7581 7.10582 13.5629 7.25313 13.3126C7.40044 13.0623 7.4795 12.7679 7.48037 12.4665V9.5376V9.53898Z" fill="#E71989"/>
</svg>
