<svg width="48" height="80" viewBox="0 0 48 80" fill="none" xmlns="http://www.w3.org/2000/svg">
<path opacity="0.5" d="M44.9884 32.3023V18.7958C44.9884 9.53957 37.5818 1.88904 28.6207 1.88904H24.323H20.0254C10.9729 1.88904 3.65768 9.53957 3.65768 18.7958V32.3023C2.37752 33.2468 1.55457 34.758 1.55457 36.4581V74.8052C1.55457 77.6387 3.84056 80 6.58375 80H24.323H42.0623C44.8055 80 47.0915 77.6387 47.0915 74.8052V36.4581C47.0001 34.758 46.1771 33.2468 44.9884 32.3023ZM24.323 31.3578H7.31527V18.7958C7.31527 11.523 12.9845 5.66708 20.0254 5.66708H24.323H28.6207C35.6616 5.66708 41.3308 11.523 41.3308 18.7958V31.3578H24.323Z" fill="#808080"/>
<path d="M5.76062 29.4687V16.9067C5.76062 9.634 11.4299 3.77804 18.4707 3.77804H22.7684V0H18.4707C9.41821 0 2.10303 7.65053 2.10303 16.9067V30.4132C2.92598 29.8465 3.93182 29.4687 5.0291 29.4687H5.76062Z" fill="#3C3C3C"/>
<path d="M27.0662 3.77804C34.1071 3.77804 39.7763 9.634 39.7763 16.9067V29.4687H40.5079C41.6051 29.4687 42.611 29.8465 43.4339 30.4132V16.9067C43.4339 7.65053 36.0273 0 27.0662 0H22.7686V3.77804H27.0662Z" fill="#1E1E1E"/>
<path d="M22.7685 41.5584V29.3743H5.02918C3.93191 29.3743 2.92607 29.7521 2.10311 30.3188C0.822957 31.2633 0 32.7745 0 34.4746V72.8217C0 75.6553 2.28599 78.0165 5.02918 78.0165H22.7685V62.0543H18.3794L18.6537 61.0154L19.4767 57.2373L20.6654 51.6647C19.1109 49.8701 18.0136 48.5478 18.0136 46.5644C18.0136 43.8253 20.1167 41.5584 22.7685 41.5584Z" fill="#E71989"/>
<path d="M43.4339 30.4133C42.611 29.8466 41.6051 29.4688 40.5079 29.4688H22.7686V41.5585C25.4203 41.5585 27.5234 43.7309 27.5234 46.4699C27.5234 48.359 26.3347 49.4924 24.7802 51.3814L26.0604 57.2373L26.8833 61.0154L27.1577 62.0543H22.7686V78.2055H40.5079C43.251 78.2055 45.537 75.8442 45.537 73.0107V34.5691C45.4456 32.869 44.6226 31.3578 43.4339 30.4133Z" fill="#F14C6E"/>
<path d="M26.0603 57.2373L24.6887 51.3814C26.3346 49.4924 27.4319 48.4534 27.4319 46.4699C27.4319 43.7308 25.3288 41.5585 22.677 41.5585V61.9599H27.0661L26.7918 60.9209L26.0603 57.2373Z" fill="white"/>
<path d="M22.7685 41.5585C20.1168 41.5585 18.0137 43.7308 18.0137 46.4699C18.0137 48.4534 19.0195 49.6813 20.6654 51.5703L19.4767 57.1429L18.6537 60.9209L18.3794 61.9599H22.7685V41.5585Z" fill="#D1D1D1"/>
</svg>
