<svg width="375" height="812" viewBox="0 0 375 812" fill="none" xmlns="http://www.w3.org/2000/svg">
<path d="M375 0H0V812H375V0Z" fill="white"/>
<path d="M24.094 22.1999C23.3832 22.2203 22.6867 21.9981 22.119 21.5699C21.5835 21.1611 21.2255 20.5622 21.119 19.8969H22.623C22.7112 20.2046 22.9025 20.4726 23.165 20.6559C23.4415 20.8455 23.7709 20.9428 24.106 20.9339C24.3983 20.94 24.6868 20.8674 24.9414 20.7236C25.196 20.5799 25.4072 20.3703 25.553 20.1169C25.9366 19.4242 26.1171 18.6375 26.074 17.8469H25.974C25.7833 18.2388 25.4791 18.5642 25.101 18.7809C24.6986 19.0067 24.2433 19.1209 23.782 19.1119C23.4123 19.123 23.0443 19.0577 22.701 18.9201C22.3577 18.7824 22.0466 18.5754 21.787 18.3119C21.5261 18.0468 21.3218 17.7316 21.1863 17.3852C21.0509 17.0389 20.9872 16.6686 20.999 16.2969C20.9864 15.8987 21.0585 15.5024 21.2105 15.1342C21.3626 14.7659 21.5911 14.4342 21.881 14.1609C22.4112 13.702 23.0695 13.4169 23.767 13.3441C24.4645 13.2713 25.1675 13.4143 25.781 13.7539C26.2714 14.0538 26.6675 14.4856 26.924 14.9999C27.3506 15.8241 27.5572 16.7444 27.524 17.6719C27.5937 18.8518 27.2744 20.022 26.615 21.0029C26.3243 21.3929 25.9426 21.7059 25.5032 21.9145C25.0638 22.1232 24.58 22.2211 24.094 22.1999ZM22.951 17.4499C23.1087 17.6053 23.2965 17.7267 23.5029 17.8069C23.7092 17.887 23.9298 17.9241 24.151 17.9159C24.3718 17.923 24.5918 17.8857 24.798 17.8061C25.0041 17.7266 25.1922 17.6065 25.351 17.4529C25.5071 17.3012 25.6298 17.1186 25.7114 16.9168C25.793 16.715 25.8317 16.4985 25.825 16.2809C25.8303 16.0588 25.7905 15.838 25.708 15.6317C25.6254 15.4255 25.502 15.2381 25.345 15.0809C25.0276 14.7789 24.605 14.6124 24.1669 14.6169C23.7288 14.6213 23.3097 14.7963 22.9986 15.1048C22.6874 15.4132 22.5087 15.8308 22.5004 16.2688C22.492 16.7068 22.6548 17.1309 22.954 17.4509L22.951 17.4499Z" fill="#4A4B4D"/>
<path d="M29.238 15.7769C29.2331 15.648 29.2546 15.5194 29.301 15.3991C29.3474 15.2788 29.4178 15.1691 29.508 15.0769C29.6027 14.9859 29.715 14.9152 29.8379 14.8689C29.9608 14.8227 30.0918 14.8019 30.223 14.8079C30.3529 14.8037 30.4824 14.8257 30.6037 14.8725C30.7249 14.9194 30.8355 14.9901 30.9289 15.0806C31.0223 15.171 31.0966 15.2793 31.1473 15.399C31.198 15.5187 31.2241 15.6474 31.2241 15.7774C31.2241 15.9074 31.198 16.0361 31.1473 16.1558C31.0966 16.2755 31.0223 16.3838 30.9289 16.4742C30.8355 16.5646 30.7249 16.6354 30.6037 16.6822C30.4824 16.7291 30.3529 16.7511 30.223 16.7469C30.0918 16.7528 29.9608 16.7321 29.8379 16.6858C29.715 16.6396 29.6027 16.5688 29.508 16.4779C29.4174 16.3858 29.3466 16.276 29.3002 16.1554C29.2537 16.0348 29.2326 15.906 29.238 15.7769ZM29.238 20.1949C29.2327 20.0659 29.2539 19.9373 29.3004 19.8169C29.3468 19.6965 29.4175 19.5869 29.508 19.4949C29.6026 19.4037 29.7148 19.3329 29.8378 19.2866C29.9607 19.2404 30.0918 19.2197 30.223 19.2259C30.3529 19.2217 30.4824 19.2437 30.6037 19.2905C30.7249 19.3374 30.8355 19.4081 30.9289 19.4986C31.0223 19.589 31.0966 19.6973 31.1473 19.817C31.198 19.9367 31.2241 20.0654 31.2241 20.1954C31.2241 20.3254 31.198 20.4541 31.1473 20.5738C31.0966 20.6935 31.0223 20.8018 30.9289 20.8922C30.8355 20.9826 30.7249 21.0534 30.6037 21.1002C30.4824 21.1471 30.3529 21.1691 30.223 21.1649C30.0917 21.1709 29.9606 21.15 29.8377 21.1036C29.7147 21.0572 29.6026 20.9862 29.508 20.8949C29.4178 20.8027 29.3473 20.693 29.3009 20.5727C29.2545 20.4523 29.2331 20.3238 29.238 20.1949Z" fill="#4A4B4D"/>
<path d="M37.043 21.9999V20.4239H32.912V19.0759C33.6 17.8093 34.7487 15.9656 36.358 13.5449H38.49V19.1449H39.633V20.4229H38.49V21.9999H37.043ZM34.313 19.0939V19.1819H37.066V14.7749H36.983C36.0697 16.1249 35.1797 17.5646 34.313 19.0939Z" fill="#4A4B4D"/>
<path d="M43.096 21.9999V15.0679H42.996L40.896 16.5449V15.0919L43.105 13.5449H44.611V21.9999H43.096Z" fill="#4A4B4D"/>
<path d="M55.822 21.9999L55.108 19.8379H51.996L51.27 21.9999H49.74L52.74 13.5449H54.44L57.445 21.9999H55.822ZM53.508 15.1559L52.348 18.6429H54.756L53.608 15.1559H53.508Z" fill="#4A4B4D"/>
<path d="M60.305 21.9999H58.899V13.5449H60.668L63.211 19.6999H63.316L65.859 13.5419H67.629V21.9999H66.223V16.0529H66.141L63.803 21.6719H62.725L60.383 16.0529H60.301L60.305 21.9999Z" fill="#4A4B4D"/>
<path d="M320.236 19.428C320.266 19.3988 320.289 19.3639 320.305 19.3254C320.32 19.2869 320.328 19.2456 320.327 19.2041C320.326 19.1625 320.317 19.1216 320.3 19.0837C320.282 19.0459 320.258 19.012 320.227 18.984C319.628 18.477 318.868 18.1989 318.083 18.1989C317.298 18.1989 316.538 18.477 315.939 18.984C315.908 19.0116 315.883 19.0453 315.866 19.083C315.849 19.1207 315.84 19.1616 315.839 19.203C315.838 19.2447 315.845 19.2861 315.861 19.3248C315.876 19.3635 315.899 19.3986 315.929 19.428L317.868 21.384C317.896 21.4126 317.929 21.4353 317.966 21.4508C318.003 21.4663 318.043 21.4743 318.082 21.4743C318.122 21.4743 318.162 21.4663 318.199 21.4508C318.236 21.4353 318.269 21.4126 318.297 21.384L320.236 19.428ZM318.083 16.728C319.266 16.7278 320.406 17.1669 321.283 17.96C321.339 18.0147 321.414 18.0453 321.492 18.0453C321.571 18.0453 321.646 18.0147 321.702 17.96L322.823 16.827C322.852 16.7977 322.876 16.7628 322.891 16.7244C322.907 16.686 322.915 16.6449 322.914 16.6034C322.914 16.562 322.905 16.521 322.888 16.483C322.872 16.445 322.848 16.4106 322.818 16.382C321.533 15.1861 319.842 14.5212 318.086 14.5212C316.331 14.5212 314.64 15.1861 313.355 16.382C313.324 16.4102 313.3 16.4443 313.282 16.4823C313.265 16.5203 313.256 16.5613 313.255 16.603C313.255 16.6445 313.262 16.6857 313.278 16.7242C313.294 16.7626 313.317 16.7976 313.346 16.827L314.466 17.96C314.522 18.0153 314.598 18.0462 314.677 18.0462C314.755 18.0462 314.831 18.0153 314.887 17.96C315.762 17.1663 316.901 16.7262 318.083 16.725V16.728ZM318.083 13.046C320.233 13.0458 322.301 13.8717 323.859 15.353C323.915 15.4083 323.991 15.4392 324.069 15.4392C324.148 15.4392 324.224 15.4083 324.28 15.353L325.401 14.221C325.43 14.192 325.453 14.1574 325.469 14.1193C325.485 14.0811 325.493 14.0402 325.492 13.999C325.492 13.9578 325.484 13.9171 325.468 13.8792C325.452 13.8414 325.428 13.8073 325.398 13.779C323.43 11.8924 320.809 10.8391 318.082 10.8391C315.355 10.8391 312.734 11.8924 310.766 13.779C310.736 13.8075 310.713 13.8417 310.697 13.8795C310.681 13.9173 310.672 13.9579 310.672 13.999C310.672 14.0402 310.68 14.081 310.695 14.1191C310.711 14.1572 310.734 14.1918 310.763 14.221L311.886 15.353C311.942 15.408 312.017 15.4388 312.096 15.4388C312.175 15.4388 312.25 15.408 312.306 15.353C313.864 13.8702 315.932 13.0431 318.083 13.043V13.046Z" fill="#4A4B4D"/>
<path d="M303.853 11.1589H304.823C304.95 11.1588 305.077 11.1838 305.195 11.2325C305.312 11.2812 305.419 11.3526 305.51 11.4427C305.6 11.5328 305.671 11.6398 305.72 11.7575C305.769 11.8753 305.794 12.0015 305.794 12.1289V20.5379C305.794 20.6654 305.769 20.7917 305.72 20.9095C305.672 21.0273 305.6 21.1344 305.51 21.2245C305.42 21.3146 305.313 21.386 305.195 21.4347C305.077 21.4833 304.951 21.5082 304.823 21.5079H303.853C303.596 21.5079 303.349 21.4057 303.167 21.2238C302.985 21.0419 302.883 20.7952 302.883 20.5379V12.1289C302.883 11.8717 302.985 11.625 303.167 11.443C303.349 11.2611 303.596 11.1589 303.853 11.1589ZM299.326 13.4229H300.296C300.423 13.4228 300.55 13.4478 300.668 13.4965C300.785 13.5452 300.892 13.6166 300.983 13.7067C301.073 13.7968 301.144 13.9038 301.193 14.0215C301.242 14.1393 301.267 14.2655 301.267 14.3929V20.5379C301.267 20.6654 301.242 20.7916 301.193 20.9094C301.144 21.0271 301.073 21.1341 300.983 21.2242C300.892 21.3143 300.785 21.3857 300.668 21.4344C300.55 21.4831 300.423 21.5081 300.296 21.5079H299.326C299.199 21.5082 299.072 21.4833 298.954 21.4346C298.837 21.386 298.73 21.3145 298.64 21.2244C298.549 21.1343 298.478 21.0273 298.429 20.9095C298.381 20.7916 298.356 20.6654 298.356 20.5379V14.3929C298.356 14.2655 298.381 14.1393 298.43 14.0216C298.478 13.9038 298.55 13.7968 298.64 13.7067C298.73 13.6167 298.837 13.5452 298.955 13.4965C299.072 13.4478 299.199 13.4228 299.326 13.4229ZM294.798 15.6869H295.769C296.026 15.6872 296.273 15.7895 296.455 15.9713C296.636 16.1532 296.739 16.3998 296.739 16.6569V20.5379C296.739 20.7952 296.637 21.0419 296.455 21.2238C296.273 21.4057 296.026 21.5079 295.769 21.5079H294.798C294.671 21.5081 294.544 21.4831 294.427 21.4344C294.309 21.3857 294.202 21.3142 294.112 21.2241C294.022 21.134 293.95 21.027 293.902 20.9093C293.853 20.7915 293.828 20.6654 293.828 20.5379V16.6569C293.828 16.3997 293.93 16.153 294.112 15.971C294.294 15.7891 294.541 15.6869 294.798 15.6869ZM290.269 17.6279H291.239C291.496 17.6279 291.743 17.7301 291.925 17.912C292.107 18.094 292.209 18.3407 292.209 18.5979V20.5379C292.209 20.6654 292.184 20.7915 292.135 20.9093C292.087 21.027 292.015 21.134 291.925 21.2241C291.835 21.3142 291.728 21.3857 291.61 21.4344C291.493 21.4831 291.366 21.5081 291.239 21.5079H290.269C290.142 21.5081 290.015 21.4831 289.897 21.4344C289.78 21.3857 289.673 21.3143 289.582 21.2242C289.492 21.1341 289.421 21.0271 289.372 20.9094C289.323 20.7916 289.298 20.6654 289.298 20.5379V18.5999C289.298 18.4723 289.323 18.346 289.372 18.228C289.42 18.1101 289.492 18.003 289.582 17.9127C289.672 17.8224 289.779 17.7508 289.897 17.7019C290.015 17.6531 290.141 17.6279 290.269 17.6279Z" fill="#4A4B4D"/>
<path d="M349.137 11.806C349.566 11.8065 349.976 11.9771 350.279 12.2802C350.582 12.5834 350.753 12.9944 350.753 13.423V19.245C350.753 19.6736 350.582 20.0845 350.279 20.3877C349.976 20.6909 349.566 20.8614 349.137 20.862H332.963C332.534 20.8614 332.124 20.6909 331.821 20.3877C331.518 20.0845 331.347 19.6736 331.347 19.245V13.423C331.347 12.9944 331.518 12.5834 331.821 12.2802C332.124 11.9771 332.534 11.8065 332.963 11.806H349.137ZM349.137 10.835H332.963C332.623 10.8351 332.287 10.9021 331.973 11.0323C331.659 11.1624 331.374 11.3531 331.134 11.5934C330.894 11.8337 330.703 12.119 330.574 12.4329C330.444 12.7468 330.377 13.0832 330.377 13.423V19.245C330.377 19.5847 330.444 19.9211 330.574 20.235C330.703 20.549 330.894 20.8342 331.134 21.0745C331.374 21.3149 331.659 21.5055 331.973 21.6357C332.287 21.7658 332.623 21.8328 332.963 21.833H349.137C349.477 21.8328 349.813 21.7658 350.127 21.6357C350.441 21.5055 350.726 21.3149 350.966 21.0745C351.206 20.8342 351.397 20.549 351.526 20.235C351.656 19.9211 351.723 19.5847 351.723 19.245V13.423C351.723 13.0832 351.656 12.7468 351.526 12.4329C351.397 12.119 351.206 11.8337 350.966 11.5934C350.726 11.3531 350.441 11.1624 350.127 11.0323C349.813 10.9021 349.477 10.8351 349.137 10.835Z" fill="#4A4B4D"/>
<path d="M352.694 14.3929V18.2749C353.076 18.1141 353.402 17.8442 353.631 17.4989C353.861 17.1536 353.983 16.7484 353.983 16.3339C353.983 15.9195 353.861 15.5142 353.631 15.169C353.402 14.8237 353.076 14.5538 352.694 14.3929Z" fill="#4A4B4D"/>
<path d="M333.612 12.776H348.489C348.659 12.776 348.827 12.8095 348.984 12.8745C349.141 12.9395 349.284 13.0348 349.404 13.155C349.524 13.2752 349.619 13.4178 349.685 13.5748C349.75 13.7318 349.783 13.9001 349.783 14.07V18.598C349.783 18.7681 349.75 18.9365 349.684 19.0936C349.619 19.2507 349.524 19.3935 349.404 19.5137C349.283 19.634 349.141 19.7293 348.984 19.7944C348.826 19.8595 348.658 19.893 348.488 19.893H333.612C333.269 19.893 332.939 19.7566 332.696 19.5137C332.453 19.2708 332.317 18.9415 332.317 18.598V14.071C332.317 13.7275 332.453 13.3982 332.696 13.1553C332.939 12.9124 333.269 12.776 333.612 12.776V12.776Z" fill="#4A4B4D"/>
<path d="M244.5 799H130.5C129.119 799 128 800.119 128 801.5C128 802.881 129.119 804 130.5 804H244.5C245.881 804 247 802.881 247 801.5C247 800.119 245.881 799 244.5 799Z" fill="#4A4B4D"/>
</svg>
