<svg width="333" height="12" viewBox="0 0 333 12" fill="none" xmlns="http://www.w3.org/2000/svg">
<path d="M3.09655 11.3654C2.38575 11.3858 1.68918 11.1636 1.12146 10.7354C0.585904 10.3266 0.22789 9.72764 0.121417 9.06234H1.62548C1.71365 9.37008 1.90504 9.6381 2.16751 9.82138C2.44403 10.0109 2.7734 10.1082 3.10855 10.0994C3.40085 10.1055 3.68942 10.0329 3.94401 9.88912C4.1986 9.74537 4.40985 9.5358 4.55561 9.28235C4.9392 8.58966 5.11978 7.80288 5.07664 7.01225H4.97663C4.78591 7.40413 4.48172 7.72958 4.10359 7.94629C3.7012 8.17206 3.24584 8.28633 2.78453 8.27731C2.41483 8.28844 2.04681 8.22313 1.70351 8.08547C1.36021 7.94781 1.04903 7.74075 0.789447 7.47727C0.528574 7.21219 0.324221 6.89692 0.188766 6.55055C0.0533117 6.20417 -0.0104259 5.83391 0.00141271 5.46218C-0.0112114 5.06398 0.060891 4.66763 0.212949 4.29938C0.365007 3.93113 0.593552 3.59938 0.883451 3.32609C1.41369 2.86714 2.07203 2.582 2.76953 2.50921C3.46702 2.43642 4.17005 2.57949 4.78362 2.91907C5.27401 3.21895 5.67012 3.65075 5.92667 4.16513C6.35326 4.98937 6.55994 5.90975 6.5267 6.83724C6.59641 8.01719 6.27707 9.18742 5.61766 10.1684C5.32694 10.5584 4.94521 10.8714 4.50578 11.08C4.06634 11.2887 3.58254 11.3867 3.09655 11.3654ZM1.9535 6.61523C2.1112 6.7706 2.29901 6.89209 2.50538 6.97223C2.71175 7.05237 2.93232 7.08947 3.15355 7.08126C3.37439 7.08836 3.59441 7.05103 3.80055 6.97149C4.00669 6.89196 4.19476 6.77183 4.3536 6.61823C4.50968 6.46651 4.63244 6.28393 4.71406 6.08213C4.79567 5.88034 4.83435 5.66375 4.82762 5.44618C4.83289 5.22409 4.79307 5.00324 4.71057 4.79697C4.62806 4.59071 4.50459 4.40332 4.3476 4.24613C4.03022 3.94408 3.60761 3.77761 3.16949 3.78207C2.73137 3.78652 2.31224 3.96155 2.00106 4.26999C1.68988 4.57844 1.51117 4.99601 1.50285 5.43407C1.49453 5.87214 1.65726 6.2962 1.9565 6.61623L1.9535 6.61523Z" fill="#4A4B4D"/>
<path d="M8.24094 4.94214C8.23607 4.81323 8.25749 4.68469 8.30391 4.56434C8.35033 4.44399 8.42078 4.33435 8.51095 4.24211C8.60569 4.15115 8.71792 4.08041 8.84084 4.03416C8.96376 3.98792 9.09479 3.96714 9.22598 3.97309C9.35593 3.96892 9.48538 3.99091 9.60665 4.03775C9.72793 4.0846 9.83855 4.15535 9.93195 4.24579C10.0253 4.33623 10.0996 4.44452 10.1503 4.56423C10.201 4.68394 10.2272 4.81263 10.2272 4.94264C10.2272 5.07265 10.201 5.20133 10.1503 5.32104C10.0996 5.44075 10.0253 5.54904 9.93195 5.63948C9.83855 5.72993 9.72793 5.80067 9.60665 5.84752C9.48538 5.89436 9.35593 5.91635 9.22598 5.91218C9.09479 5.91813 8.96376 5.89735 8.84084 5.85111C8.71792 5.80487 8.60569 5.73412 8.51095 5.64317C8.42032 5.55105 8.34958 5.44129 8.30313 5.3207C8.25668 5.20011 8.23551 5.07125 8.24094 4.94214ZM8.24094 9.36033C8.23565 9.23138 8.25688 9.10272 8.30333 8.98231C8.34977 8.86189 8.42044 8.7523 8.51095 8.6603C8.60555 8.56916 8.71776 8.49828 8.84071 8.45203C8.96366 8.40577 9.09477 8.3851 9.22598 8.39129C9.35593 8.38711 9.48538 8.4091 9.60665 8.45595C9.72793 8.5028 9.83855 8.57354 9.93195 8.66398C10.0253 8.75443 10.0996 8.86272 10.1503 8.98243C10.201 9.10214 10.2272 9.23082 10.2272 9.36083C10.2272 9.49084 10.201 9.61952 10.1503 9.73923C10.0996 9.85894 10.0253 9.96724 9.93195 10.0577C9.83855 10.1481 9.72793 10.2189 9.60665 10.2657C9.48538 10.3126 9.35593 10.3345 9.22598 10.3304C9.0947 10.3364 8.96358 10.3155 8.84063 10.2691C8.71768 10.2227 8.6055 10.1516 8.51095 10.0604C8.42073 9.96816 8.35025 9.85852 8.30383 9.73816C8.2574 9.6178 8.23601 9.48924 8.24094 9.36033Z" fill="#4A4B4D"/>
<path d="M16.0463 11.1655V9.58938H11.9151V8.24132C12.6031 6.9746 13.7518 5.13085 15.3612 2.71008H17.4933V8.31033H18.6364V9.58838H17.4933V11.1655H16.0463ZM13.3161 8.25932V8.34733H16.0693V3.94013H15.9863C15.0729 5.29019 14.1828 6.72992 13.3161 8.25932Z" fill="#4A4B4D"/>
<path d="M22.0994 11.1655V4.23315H21.9994L19.8993 5.71021V4.25715L22.1084 2.71008H23.6145V11.1655H22.0994Z" fill="#4A4B4D"/>
<path d="M34.8257 11.1655L34.1117 9.00336H30.9996L30.2735 11.1655H28.7435L31.7436 2.71008H33.4437L36.4488 11.1655H34.8257ZM32.5116 4.32115L31.3516 7.8083H33.7597L32.6116 4.32115H32.5116Z" fill="#4A4B4D"/>
<path d="M39.3091 11.1654H37.903V2.71003H39.6721L42.2152 8.8653H42.3202L44.8633 2.70703H46.6334V11.1654H45.2274V5.21814H45.1453L42.8072 10.8374H41.7292L39.3871 5.21814H39.3051L39.3091 11.1654Z" fill="#4A4B4D"/>
<path d="M299.251 8.59341C299.281 8.56421 299.304 8.5293 299.32 8.4908C299.336 8.4523 299.343 8.41101 299.342 8.36947C299.342 8.32792 299.332 8.28698 299.315 8.24914C299.298 8.21131 299.273 8.17737 299.242 8.14939C298.643 7.64242 297.883 7.36425 297.098 7.36425C296.313 7.36425 295.554 7.64242 294.954 8.14939C294.923 8.17701 294.899 8.21073 294.881 8.24842C294.864 8.28612 294.855 8.32697 294.854 8.3684C294.853 8.41007 294.861 8.45153 294.876 8.49023C294.891 8.52893 294.915 8.56404 294.944 8.59341L296.883 10.5495C296.911 10.5781 296.945 10.6008 296.982 10.6163C297.018 10.6318 297.058 10.6398 297.098 10.6398C297.138 10.6398 297.177 10.6318 297.214 10.6163C297.251 10.6008 297.284 10.5781 297.312 10.5495L299.251 8.59341ZM297.098 5.89329C298.281 5.89312 299.421 6.33219 300.299 7.12535C300.355 7.18002 300.43 7.21062 300.508 7.21062C300.586 7.21062 300.662 7.18002 300.718 7.12535L301.839 5.9923C301.868 5.963 301.891 5.92812 301.907 5.88973C301.922 5.85134 301.93 5.8102 301.93 5.76873C301.929 5.72727 301.921 5.68632 301.904 5.64829C301.888 5.61026 301.864 5.57591 301.834 5.54728C300.548 4.35131 298.858 3.68645 297.102 3.68645C295.346 3.68645 293.656 4.35131 292.37 5.54728C292.339 5.57547 292.315 5.60958 292.298 5.64756C292.28 5.68554 292.271 5.72661 292.27 5.76829C292.27 5.8098 292.277 5.851 292.293 5.88947C292.309 5.92793 292.332 5.96289 292.361 5.9923L293.481 7.12535C293.537 7.18062 293.613 7.2116 293.692 7.2116C293.771 7.2116 293.846 7.18062 293.902 7.12535C294.778 6.33162 295.917 5.89145 297.098 5.89029V5.89329ZM297.098 2.21113C299.248 2.21091 301.316 3.03687 302.875 4.51823C302.931 4.5735 303.006 4.60448 303.085 4.60448C303.164 4.60448 303.24 4.5735 303.296 4.51823L304.417 3.38618C304.446 3.35718 304.469 3.32258 304.485 3.28443C304.5 3.24629 304.508 3.20539 304.508 3.16417C304.508 3.12301 304.5 3.08224 304.484 3.04439C304.467 3.00654 304.444 2.97242 304.414 2.94416C302.445 1.05747 299.824 0.00415057 297.097 0.00415057C294.371 0.00415057 291.75 1.05747 289.781 2.94416C289.752 2.97271 289.728 3.00688 289.712 3.04467C289.696 3.08245 289.687 3.12308 289.687 3.16417C289.687 3.20535 289.695 3.24615 289.71 3.28424C289.726 3.32234 289.749 3.35698 289.778 3.38618L290.901 4.51823C290.957 4.5732 291.033 4.60399 291.111 4.60399C291.19 4.60399 291.265 4.5732 291.321 4.51823C292.879 3.03536 294.948 2.20826 297.098 2.20813V2.21113Z" fill="#4A4B4D"/>
<path d="M282.868 0.323989H283.838C283.965 0.323858 284.092 0.348852 284.209 0.397542C284.327 0.446232 284.434 0.517664 284.524 0.607754C284.615 0.697844 284.686 0.804826 284.735 0.922582C284.784 1.04034 284.809 1.16656 284.809 1.29403V9.7034C284.809 9.83091 284.784 9.95719 284.735 10.075C284.686 10.1928 284.615 10.2999 284.525 10.39C284.434 10.4801 284.327 10.5515 284.209 10.6002C284.092 10.6488 283.965 10.6737 283.838 10.6734H282.868C282.61 10.6734 282.364 10.5712 282.182 10.3893C282 10.2074 281.898 9.96067 281.898 9.7034V1.29403C281.898 1.03676 282 0.790025 282.182 0.608107C282.364 0.426189 282.61 0.323989 282.868 0.323989ZM278.341 2.58809H279.311C279.438 2.58796 279.564 2.61295 279.682 2.66164C279.8 2.71033 279.907 2.78176 279.997 2.87185C280.087 2.96194 280.159 3.06892 280.208 3.18668C280.256 3.30444 280.282 3.43066 280.282 3.55813V9.7034C280.282 9.83087 280.256 9.9571 280.208 10.0749C280.159 10.1926 280.087 10.2996 279.997 10.3897C279.907 10.4798 279.8 10.5512 279.682 10.5999C279.564 10.6486 279.438 10.6736 279.311 10.6734H278.341C278.213 10.6737 278.087 10.6488 277.969 10.6001C277.851 10.5515 277.744 10.48 277.654 10.3899C277.564 10.2998 277.492 10.1927 277.444 10.0749C277.395 9.95712 277.37 9.83086 277.37 9.7034V3.55813C277.37 3.43071 277.395 3.30451 277.444 3.18676C277.493 3.06901 277.564 2.96202 277.654 2.87191C277.744 2.78181 277.851 2.71036 277.969 2.66166C278.087 2.61296 278.213 2.58796 278.341 2.58809ZM273.812 4.85219H274.783C275.041 4.85245 275.287 4.95474 275.469 5.1366C275.651 5.31846 275.753 5.56504 275.753 5.82223V9.7034C275.753 9.96067 275.651 10.2074 275.469 10.3893C275.287 10.5712 275.041 10.6734 274.783 10.6734H273.812C273.685 10.6736 273.559 10.6486 273.441 10.5999C273.323 10.5512 273.216 10.4797 273.126 10.3896C273.036 10.2995 272.965 10.1925 272.916 10.0748C272.867 9.95703 272.842 9.83083 272.842 9.7034V5.82223C272.842 5.56496 272.945 5.31822 273.126 5.13631C273.308 4.95439 273.555 4.85219 273.812 4.85219ZM269.283 6.79327H270.253C270.51 6.79327 270.757 6.89547 270.939 7.07739C271.121 7.25931 271.223 7.50604 271.223 7.76332V9.7034C271.223 9.83083 271.198 9.95703 271.15 10.0748C271.101 10.1925 271.03 10.2995 270.939 10.3896C270.849 10.4797 270.742 10.5512 270.625 10.5999C270.507 10.6486 270.381 10.6736 270.253 10.6734H269.283C269.156 10.6736 269.029 10.6486 268.912 10.5999C268.794 10.5512 268.687 10.4798 268.597 10.3897C268.506 10.2996 268.435 10.1926 268.386 10.0749C268.337 9.9571 268.312 9.83087 268.312 9.7034V7.76532C268.312 7.63771 268.337 7.51134 268.386 7.39341C268.434 7.27548 268.506 7.16831 268.596 7.07804C268.686 6.98776 268.793 6.91615 268.911 6.86729C269.029 6.81842 269.156 6.79327 269.283 6.79327Z" fill="#4A4B4D"/>
<path d="M328.154 0.971042C328.582 0.971572 328.993 1.14214 329.296 1.44532C329.599 1.74849 329.77 2.15949 329.77 2.58811V8.41037C329.77 8.83899 329.599 9.24999 329.296 9.55317C328.993 9.85634 328.582 10.0269 328.154 10.0274H311.979C311.55 10.0269 311.14 9.85634 310.837 9.55317C310.534 9.24999 310.363 8.83899 310.363 8.41037V2.58811C310.363 2.15949 310.534 1.74849 310.837 1.44532C311.14 1.14214 311.55 0.971572 311.979 0.971042H328.154ZM328.154 0H311.979C311.639 0.000131302 311.303 0.0671794 310.989 0.197315C310.675 0.327451 310.39 0.518127 310.15 0.758455C309.91 0.998784 309.719 1.28406 309.59 1.59799C309.46 1.91193 309.393 2.24837 309.393 2.58811V8.41037C309.393 8.75012 309.46 9.08656 309.59 9.40049C309.719 9.71443 309.91 9.9997 310.15 10.24C310.39 10.4804 310.675 10.671 310.989 10.8012C311.303 10.9313 311.639 10.9984 311.979 10.9985H328.154C328.494 10.9984 328.83 10.9313 329.144 10.8012C329.458 10.671 329.743 10.4804 329.983 10.24C330.223 9.9997 330.413 9.71443 330.543 9.40049C330.673 9.08656 330.74 8.75012 330.74 8.41037V2.58811C330.74 2.24837 330.673 1.91193 330.543 1.59799C330.413 1.28406 330.223 0.998784 329.983 0.758455C329.743 0.518127 329.458 0.327451 329.144 0.197315C328.83 0.0671794 328.494 0.000131302 328.154 0Z" fill="#4A4B4D"/>
<path d="M331.711 3.55814V7.44031C332.093 7.27949 332.419 7.00953 332.648 6.66424C332.877 6.31896 333 5.9137 333 5.49923C333 5.08475 332.877 4.67949 332.648 4.33421C332.419 3.98892 332.093 3.71896 331.711 3.55814Z" fill="#4A4B4D"/>
<path d="M312.628 1.94113H327.506C327.676 1.94113 327.844 1.9746 328.001 2.03963C328.158 2.10466 328.301 2.19998 328.421 2.32015C328.541 2.44031 328.636 2.58297 328.701 2.73997C328.766 2.89697 328.8 3.06524 328.8 3.23518V7.76338C328.8 7.93345 328.766 8.10185 328.701 8.25898C328.636 8.4161 328.541 8.55887 328.42 8.67913C328.3 8.79938 328.157 8.89478 328 8.95986C327.843 9.02494 327.675 9.05844 327.505 9.05844H312.628C312.285 9.05844 311.955 8.922 311.712 8.67913C311.469 8.43625 311.333 8.10685 311.333 7.76338V3.23618C311.333 2.89271 311.469 2.56331 311.712 2.32044C311.955 2.07757 312.285 1.94113 312.628 1.94113V1.94113Z" fill="#4A4B4D"/>
</svg>
