<svg width="190" height="236" viewBox="0 0 190 236" fill="none" xmlns="http://www.w3.org/2000/svg">
<path d="M87.7669 137.54L89.9011 150.256L104.218 227.441H106.53L96.1256 150.256L94.6139 137.54H87.7669Z" fill="#DBDBDB"/>
<path d="M94.6139 137.54H87.7669L89.901 150.256H96.1256L94.6139 137.54Z" fill="#A6A6A6"/>
<path d="M42.9491 227.441H45.261L59.4886 150.256L61.6227 137.54H54.8646L53.353 150.256L42.9491 227.441Z" fill="#DBDBDB"/>
<path d="M54.8653 137.54L53.3536 150.256H59.4892L61.6233 137.54H54.8653Z" fill="#A6A6A6"/>
<path d="M0 227.441H2.31198L16.6285 150.256L18.7626 137.54H12.0045L10.4039 150.256L0 227.441Z" fill="#DBDBDB"/>
<path d="M10.4044 150.256H16.629L18.7631 137.54H12.005L10.4044 150.256Z" fill="#A6A6A6"/>
<path d="M3.64639 143.498H108.486V132.471H69.271L56.0216 75.0277H7.64789L3.64639 143.498Z" fill="#DBDBDB"/>
<path d="M3.64639 143.498H9.42634L13.1611 75.0277H7.64789L3.64639 143.498Z" fill="#A6A6A6"/>
<path d="M118.711 235.533C116.755 236.244 58.6883 236.244 56.4653 234.821C56.1985 234.643 56.1985 227.619 56.0207 222.194C55.7539 214.013 66.7802 177.377 66.7802 177.377L102.794 179.156L92.8345 216.059C92.8345 216.059 101.104 219.704 107.951 222.995C112.131 224.951 115.865 226.818 116.666 227.441C118.978 229.13 120.756 234.821 118.711 235.533Z" fill="#D3766A"/>
<path d="M118.711 235.532C116.755 236.244 58.6883 236.244 56.4653 234.821C56.1985 234.643 56.1096 229.397 56.0207 222.194C70.4261 225.129 108.752 229.753 109.819 226.729C110.263 225.484 109.285 224.15 107.951 222.906C112.131 224.862 115.865 226.729 116.666 227.352C118.978 229.13 120.756 234.821 118.711 235.532Z" fill="#263238"/>
<path d="M32.7235 120.201C39.8373 127.314 70.3376 141.898 72.6496 146.966C74.6948 151.501 60.5562 200.053 60.5562 200.053L95.4137 206.722C95.4137 206.722 116.31 149.901 111.064 132.383C106.084 116.11 50.419 84.276 50.419 84.276H28.0106C28.0106 84.276 18.6738 106.24 32.7235 120.201Z" fill="#D3766A"/>
<path opacity="0.1" d="M103.505 121.801C90.7005 126.425 73.094 133.895 60.467 137.896C50.4188 131.76 37.0805 124.558 32.6343 120.201C18.5846 106.24 27.9215 84.276 27.9215 84.276H50.3299C50.3299 84.276 87.0547 105.173 103.505 121.801Z" fill="black"/>
<path d="M188.604 225.395C186.559 225.84 129.026 218.015 127.07 216.414C126.803 216.236 127.426 210.99 128.315 203.876L118.089 160.393L155.97 165.017L167.885 202.365C167.885 202.365 173.221 207.433 179.534 211.524C183.447 214.013 186.826 216.325 187.626 217.126C189.671 219.082 190.649 224.951 188.604 225.395Z" fill="#D3766A"/>
<path d="M188.604 225.395C186.559 225.84 129.026 218.015 127.07 216.414C126.803 216.236 127.425 210.99 128.315 203.876C142.187 208.767 179.534 218.459 181.046 215.614C181.668 214.458 180.868 213.035 179.712 211.612C183.624 214.102 187.003 216.414 187.804 217.214C189.671 219.082 190.649 224.951 188.604 225.395Z" fill="#263238"/>
<path d="M163.973 189.827L126.536 196.407L111.064 149.1C111.509 133.005 109.197 127.136 100.038 124.291C84.5651 119.489 46.8621 137.185 29.7001 125.358C15.8283 115.754 26.8546 84.276 26.8546 84.276H66.9585C66.9585 84.276 71.7603 90.1449 72.7385 93.6128C72.7385 93.6128 122.446 89.7892 133.561 103.928C148.678 122.779 163.973 189.827 163.973 189.827Z" fill="#D3766A"/>
<path d="M82.0754 124.558C85.9879 123.757 89.9894 123.313 94.0799 123.313C96.1251 123.313 98.1703 123.491 100.127 123.935C101.105 124.113 102.083 124.469 103.061 124.913C104.039 125.358 104.928 125.803 105.729 126.425C106.618 127.047 107.329 127.759 108.041 128.559C108.663 129.359 109.197 130.249 109.641 131.227C110.442 133.094 110.886 135.139 111.153 137.185C111.598 141.186 111.509 145.277 111.242 149.278C111.242 147.233 111.153 145.277 111.064 143.231C110.975 141.275 110.797 139.23 110.53 137.274C110.175 135.317 109.819 133.361 109.019 131.583C108.218 129.804 106.974 128.292 105.373 127.225C104.573 126.692 103.683 126.158 102.794 125.803C101.905 125.358 101.016 125.091 100.038 124.913C98.0814 124.469 96.1251 124.291 94.1688 124.202C92.2125 124.113 90.1673 124.113 88.211 124.291C85.9879 124.113 84.0317 124.38 82.0754 124.558Z" fill="#263238"/>
<path d="M27.0323 84.1871C27.0323 84.1871 16.0949 112.731 27.0323 123.224C37.9697 133.717 50.7745 131.938 81.3638 125.358C81.3638 125.358 97.0141 105.528 106.262 101.527C115.51 97.5254 124.046 97.1697 124.046 97.1697C124.046 97.1697 106.262 91.3898 73.094 92.6347C73.094 92.6347 70.6042 87.3883 67.1362 84.1871H27.0323Z" fill="#263238"/>
<path d="M65.8031 63.2013C63.4911 64.9797 61.268 66.3135 59.1339 67.3806C62.7797 61.245 62.2462 47.4621 61.8016 49.4183C59.6674 58.8441 53.7986 69.1591 51.4866 69.6926C45.4399 70.4929 39.9267 68.8034 35.3027 66.3136C40.0156 59.3776 39.7489 45.3279 39.4821 46.2171C36.0141 55.3761 28.9893 60.7114 27.7444 60.7114C23.2093 56.3543 20.8084 51.9971 21.4309 51.5525C26.1438 48.3513 30.1453 40.0815 33.7911 31.3671C37.348 22.7417 39.2153 14.5608 44.195 6.8246C48.8189 -0.200256 57.9779 -1.53408 63.2243 2.0228C76.9183 11.4486 68.7375 60.8893 65.8031 63.2013Z" fill="#263238"/>
<path d="M51.5756 2.37846C47.752 3.26768 44.6397 6.73565 42.6834 9.93685C40.0157 14.2051 38.3262 19.0069 36.1032 23.542C31.8349 32.4342 26.4106 40.7039 19.5636 47.8177C19.3858 47.9956 19.6525 48.1734 19.8304 48.0845C27.2109 42.5713 32.2795 34.5683 36.3699 26.3875C38.5041 22.2081 40.1047 17.8509 42.1499 13.5827C43.2169 11.2707 44.5508 9.04763 46.1514 7.09134C47.752 5.22398 49.6193 4.06798 51.8424 3.00091C52.1091 2.82307 51.9313 2.28954 51.5756 2.37846Z" fill="#263238"/>
<path d="M102.705 17.228L93.0124 40.9702C92.6567 41.6816 92.9234 42.3041 93.6348 42.393L106.351 44.1714C107.062 44.2603 107.951 43.8157 108.307 43.1044L118 19.3621C118.355 18.6508 118.088 18.0283 117.377 17.9394L104.661 16.1609C103.95 16.072 103.061 16.5166 102.705 17.228Z" fill="#37474F"/>
<path d="M104.217 17.4061L94.5242 41.1483C94.1685 41.8597 94.4353 42.4821 95.1467 42.5711L107.863 44.3495C108.574 44.4384 109.463 43.9938 109.819 43.2824L119.511 19.5402C119.867 18.8288 119.6 18.2064 118.889 18.1175L106.173 16.339C105.462 16.2501 104.572 16.6947 104.217 17.4061Z" fill="#455A64"/>
<path d="M107.507 19.0062C107.418 19.6287 106.884 19.9844 106.262 19.8954C105.639 19.8065 105.283 19.273 105.372 18.6505C105.461 18.0281 105.995 17.6724 106.617 17.7613C107.24 17.8502 107.595 18.4727 107.507 19.0062Z" fill="#263238"/>
<path d="M56.5545 48.7067C61.4453 65.0683 74.6057 87.2989 81.2749 88.366C84.4761 88.8995 89.9893 90.5001 94.7022 87.4767C104.928 80.8965 114.799 66.8468 117.644 58.3103C118.622 55.2869 104.573 46.3058 101.994 48.5288C95.9471 53.6863 88.1219 64.357 87.2327 64.0902C83.8537 63.2899 72.2049 50.2183 64.024 40.9704C54.1536 29.9441 54.5983 42.2153 56.5545 48.7067Z" fill="#D3766A"/>
<path d="M120.401 42.3935C119.778 35.9021 118.533 34.3016 120.934 28.5216C122.446 24.698 120.756 22.1192 117.466 24.8758C112.131 29.4108 111.153 37.9474 111.686 41.0596L120.401 42.3935Z" fill="#D3766A"/>
<path d="M116.488 60.9782C116.488 60.9782 120.578 52.6196 120.578 45.5947C120.578 40.704 119.422 30.2111 106.884 22.8306C103.95 21.0522 98.4366 20.6965 102.26 25.3204C104.928 28.6106 107.685 29.8555 108.929 32.0785C108.929 32.0785 101.905 32.4342 100.304 35.4576C99.5926 36.7914 97.6363 40.5261 96.5693 43.7273C96.5693 43.7273 97.1917 44.1719 98.0809 44.5276C98.0809 44.5276 96.6582 47.4621 98.2588 52.086L116.488 60.9782Z" fill="#D3766A"/>
<path d="M119.867 40.9705C118.178 39.0142 114.532 35.1016 110.441 32.7896C105.906 30.2998 96.4805 26.7429 94.6132 30.122C93.2793 32.6118 96.7473 34.3013 96.7473 34.3013C96.7473 34.3013 92.5679 33.6789 91.8566 36.1687C91.2341 38.4807 93.9907 39.5477 93.9907 39.5477C93.9907 39.5477 91.323 39.5477 91.1452 41.9486C90.8784 44.7052 96.4805 44.1717 98.6146 47.1951C99.2371 47.8175 119.867 40.9705 119.867 40.9705Z" fill="#D3766A"/>
<path d="M108.663 38.0361C106.796 36.5244 101.638 34.1235 96.9255 34.2124C96.8365 34.2124 96.7476 34.3013 96.8365 34.3013C102.083 35.2795 106.707 37.1469 108.663 38.0361C108.663 38.125 108.663 38.0361 108.663 38.0361Z" fill="#263238"/>
<path d="M105.995 42.5713C104.217 41.4153 98.7925 39.1923 94.0796 39.4591C93.9907 39.4591 93.9018 39.548 93.9907 39.548C99.5039 40.3483 103.95 41.86 105.995 42.5713C105.995 42.6603 105.995 42.5713 105.995 42.5713Z" fill="#263238"/>
<path d="M116.844 64.8017C116.844 64.8017 100.838 87.299 93.2794 89.0774C85.721 90.8559 81.4527 89.522 78.874 88.7217C78.0737 88.455 77.1845 87.8325 76.2952 86.9433C69.8039 80.7187 59.6668 60.5334 55.9321 49.4181C53.1755 41.1484 54.5982 34.2124 60.2892 37.3247C61.712 38.125 63.3126 39.5478 65.2689 41.6819C74.8725 52.5304 86.3434 63.2011 86.9659 63.0232C87.5884 62.8454 95.4135 53.7753 95.4135 53.7753L116.844 64.8017Z" fill="#E71989"/>
<path d="M113.109 68.7141C112.398 68.1805 105.106 64.0012 103.505 63.112C101.905 62.2228 95.4136 58.577 93.6351 57.8656C93.5462 57.8656 93.4573 57.9545 93.5462 57.9545C95.0579 59.0216 101.638 62.6674 103.239 63.6455C104.839 64.5347 112.131 68.5362 113.02 68.8919C113.109 68.8919 113.109 68.803 113.109 68.7141Z" fill="#263238"/>
<path opacity="0.1" d="M98.6146 85.7874C96.5694 87.4769 94.791 88.6329 93.1904 88.9886C85.632 90.767 81.3637 89.4332 78.785 88.6329C77.9847 88.3661 77.0954 87.7437 76.2062 86.8544C69.7149 80.6299 59.5778 60.4445 55.843 49.3293C53.3532 41.7709 54.3314 35.4574 58.6886 36.6134C68.7368 48.9736 87.855 72.538 98.6146 85.7874Z" fill="black"/>
<path d="M70.2486 72.538L71.9382 89.2554L21.9639 90.2335C21.9639 90.2335 33.5238 48.0844 42.5938 38.7476C48.7295 32.4341 55.6654 33.1455 60.0226 37.7694C61.0897 38.9254 72.5606 52.8862 73.8055 59.7332C74.7837 65.78 70.2486 72.538 70.2486 72.538Z" fill="#E71989"/>
<path d="M64.3796 70.5818C62.1565 70.7597 59.9335 70.9375 57.7993 71.4711C56.7323 71.7378 55.6652 72.0046 54.5981 72.2714C54.0646 72.4492 53.5311 72.5381 52.9975 72.716C52.464 72.8938 51.8416 72.9827 51.308 72.9827C51.2191 72.9827 51.2191 73.0717 51.308 73.0717C51.8416 73.0717 52.3751 73.1606 52.9086 73.0717C53.4422 73.0717 53.9757 72.8938 54.4203 72.8049C55.4874 72.5381 56.5544 72.2714 57.7104 72.0046C59.9335 71.4711 62.0676 71.0265 64.2907 70.6708C64.4685 70.7597 64.4685 70.5818 64.3796 70.5818Z" fill="#263238"/>
<path d="M68.2032 72.4494C66.7804 72.1827 65.3577 72.0937 63.846 72.0937C63.1346 72.0937 62.4232 72.0938 61.7118 72.1827C61.3562 72.1827 61.0005 72.2716 60.6448 72.2716C60.2891 72.3605 59.9334 72.4494 59.4888 72.4494V72.5384C59.8445 72.5384 60.2002 72.5384 60.5559 72.5384C60.9116 72.5384 61.2672 72.5384 61.6229 72.5384C62.3343 72.5384 63.0457 72.5384 63.7571 72.5384C65.1798 72.5384 66.6026 72.5384 68.1143 72.5384C68.2921 72.6273 68.2921 72.4494 68.2032 72.4494Z" fill="#263238"/>
<path d="M44.0164 36.5247C26.3208 45.5059 6.13549 65.6912 7.29148 72.4493C8.62532 79.9188 33.9681 67.2918 33.7014 66.1358C33.5235 65.1577 38.7699 57.1547 46.4173 45.5948C54.1535 33.8571 48.3735 34.3017 44.0164 36.5247Z" fill="#E71989"/>
<path d="M7.29122 72.4487C8.8029 77.6951 16.6281 81.1631 35.4796 91.8337C38.0583 93.3454 53.4419 77.6951 50.7742 76.0056C47.3951 73.8715 33.7011 66.1352 32.6341 65.6906C23.564 62.1337 6.22416 68.8918 7.29122 72.4487Z" fill="#D3766A"/>
<path d="M47.0396 73.7825C47.0396 73.7825 55.1316 77.9619 58.6885 81.4298C63.4903 86.1427 65.7133 92.1005 66.5136 94.6792C68.1142 100.015 68.381 114.153 64.2906 114.953C60.6447 115.665 61.1783 101.171 61.1783 101.171C61.1783 101.171 63.0456 116.021 58.5106 116.021C53.9756 116.021 55.4873 99.3032 55.4873 99.3032C55.4873 99.3032 57.0879 114.598 52.375 113.886C48.8181 113.353 49.3516 98.1472 49.3516 98.1472C49.3516 98.1472 50.6855 111.308 46.9507 110.863C42.8603 110.418 42.5046 96.2798 42.5046 96.2798C33.2567 93.7011 29.9666 88.6325 28.0103 84.8089C27.4768 83.9196 47.0396 73.7825 47.0396 73.7825Z" fill="#D3766A"/>
<path d="M60.7335 96.0129C61.0003 97.7024 61.356 99.4808 61.4449 101.259C61.5338 103.038 61.6228 104.727 61.6228 106.506C61.5338 110.774 60.8225 113.531 60.8225 113.353C61.4449 109.351 61.0892 103.038 60.9114 101.259C60.9114 99.5698 60.8225 97.7913 60.7335 96.0129Z" fill="#263238"/>
<path d="M54.42 96.3686C54.6867 98.5916 55.0424 100.815 55.2203 103.038C55.3981 105.261 55.3981 107.395 55.3981 109.618C55.3981 109.796 55.3092 109.707 55.3092 109.529C55.2203 107.306 54.9535 105.261 54.7757 103.038C54.5978 100.815 54.5978 98.5916 54.42 96.3686Z" fill="#263238"/>
<path d="M48.907 95.7462C49.5295 99.1253 49.4406 102.593 49.3517 106.061C49.3517 106.239 49.2627 106.15 49.2627 105.972C49.1738 102.504 49.1738 99.8366 48.8181 95.8351C48.8181 95.6573 48.907 95.6573 48.907 95.7462Z" fill="#263238"/>
<path d="M51.0407 74.2274C51.0407 74.2274 29.3437 90.767 29.1659 90.678C28.8991 90.5891 7.64668 78.0511 7.29099 72.449C6.9353 66.8469 24.5419 62.6675 32.5449 65.6909C40.5479 68.8032 51.0407 74.2274 51.0407 74.2274Z" fill="#E71989"/>
<path d="M43.6601 71.8265C42.7709 72.36 36.0128 77.8732 34.5011 79.1181C33.0784 80.363 27.0316 85.3427 25.6089 86.6765C25.52 86.7654 25.6089 86.8544 25.6978 86.7654C27.2984 85.6984 33.434 80.6298 34.9457 79.4738C36.4574 78.2289 43.1266 72.6268 43.749 71.9154C43.8379 71.8265 43.749 71.8265 43.6601 71.8265Z" fill="#263238"/>
<path d="M22.9415 64.8902C24.8088 64.6235 29.8774 64.1789 34.0568 66.2241C34.1457 66.2241 34.0568 66.313 34.0568 66.313C30.4999 65.0681 24.8088 64.8013 22.9415 64.8902C22.9415 64.9792 22.8526 64.8902 22.9415 64.8902Z" fill="#263238"/>
<path d="M49.7072 75.205L51.041 74.1379V74.2269L46.7728 72.0927C45.35 71.3814 43.9273 70.67 42.4156 70.0475C39.5701 68.7137 36.6356 67.3798 33.6123 66.2239L33.2566 66.046L33.4344 65.6903C35.124 62.667 36.8135 59.7325 38.5919 56.7981C40.4593 53.8637 42.3267 51.1071 44.4608 48.3505C42.5934 51.196 40.7261 54.1305 39.0365 57.0649C37.347 59.9993 35.5686 62.9337 33.968 65.9571L33.7901 65.5125C36.7246 66.7574 39.659 68.0912 42.5045 69.514C43.9273 70.2254 45.35 71.0257 46.7728 71.737C48.1955 72.4484 49.5294 73.2487 50.9521 74.1379L51.041 74.2269L50.9521 74.3158L49.7072 75.205Z" fill="#263238"/>
<path d="M40.1923 54.8418C40.7258 54.1304 41.2594 53.508 41.8818 52.8855C42.5043 52.263 43.1267 51.7295 43.8381 51.2849C43.3935 51.9963 42.7711 52.6187 42.2375 53.2412C41.9708 53.508 41.6151 53.8636 41.2594 54.1304C40.9037 54.3972 40.548 54.664 40.1923 54.8418Z" fill="#263238"/>
<path d="M22.8525 86.7653C23.7417 87.121 24.6309 87.6545 25.4312 88.1881C26.2315 88.7216 27.0318 89.2551 27.8321 89.9665C26.9429 89.6108 26.0537 89.0773 25.2534 88.6327C24.4531 88.0102 23.5639 87.3878 22.8525 86.7653Z" fill="#263238"/>
<path d="M50.0634 36.3472C50.3301 37.681 53.4424 43.6388 57.4439 43.461C59.4891 43.372 59.578 36.1693 59.578 36.1693L59.667 35.6358L61.0897 28.1663L50.9526 22.2086C50.9526 22.2086 50.0634 35.9915 50.0634 36.3472Z" fill="#D3766A"/>
<path d="M50.597 27.3661C52.9979 32.7903 57.5329 34.9244 59.667 35.6358L61.0898 28.1663L50.9527 22.2086C50.9527 22.2086 50.7748 24.6095 50.597 27.3661Z" fill="#263238"/>
<path d="M71.4937 16.7842C72.6497 30.0337 64.8245 32.2567 61.979 32.4346C59.4003 32.7013 50.5081 33.057 48.0182 20.0744C45.5284 7.00281 51.3084 2.28993 57.1772 1.48963C63.135 0.689327 70.3377 3.53484 71.4937 16.7842Z" fill="#D3766A"/>
<path d="M69.271 13.8499C68.9153 13.8499 68.6485 13.7609 68.3818 13.672C68.0261 13.5831 67.7593 13.5831 67.4926 13.3163C67.3147 13.1385 67.3147 12.8717 67.4926 12.7828C67.7593 12.4271 68.2039 12.4271 68.6485 12.516C69.0932 12.605 69.4488 12.7828 69.7156 13.0496C69.9824 13.3163 69.7156 13.8499 69.271 13.8499Z" fill="#263238"/>
<path d="M60.7341 14.1166C61.0008 14.0277 61.3565 13.9388 61.6233 13.9388C61.979 13.8499 62.2457 13.8499 62.5125 13.5831C62.6014 13.4053 62.6014 13.1385 62.5125 13.0496C62.2457 12.6939 61.8011 12.6939 61.3565 12.7828C60.9119 12.8717 60.5562 13.0496 60.2894 13.4053C60.0227 13.672 60.3784 14.2056 60.7341 14.1166Z" fill="#263238"/>
<path d="M62.6018 17.4061C62.6018 17.4061 62.6018 17.495 62.6018 17.4061C62.6018 18.3842 62.5129 19.4513 61.7126 19.807V19.8959C62.7797 19.6291 62.8686 18.2953 62.6018 17.4061Z" fill="#263238"/>
<path d="M61.8015 16.5169C60.3788 16.5169 60.3788 19.3624 61.7126 19.4513C63.0464 19.4513 62.9575 16.5169 61.8015 16.5169Z" fill="#263238"/>
<path d="M61.179 16.6948C60.9123 16.8727 60.6455 17.1394 60.3787 17.2284C60.0231 17.2284 59.7563 16.9616 59.4895 16.6948H59.4006C59.4006 17.2284 59.5785 17.8508 60.2009 17.9397C60.7344 18.0287 61.179 17.4951 61.268 16.9616C61.3569 16.7838 61.268 16.6059 61.179 16.6948Z" fill="#263238"/>
<path d="M67.5812 17.2286C67.5812 17.1396 67.6701 17.2286 67.5812 17.2286C67.6701 18.2067 67.759 19.2738 68.5593 19.5405V19.6295C67.5812 19.4516 67.4033 18.0289 67.5812 17.2286Z" fill="#263238"/>
<path d="M68.3812 16.2507C69.804 16.1617 69.9818 19.0073 68.648 19.1851C67.3142 19.274 67.2252 16.3396 68.3812 16.2507Z" fill="#263238"/>
<path d="M69.0041 16.4287C69.2708 16.6065 69.4487 16.8733 69.7154 16.8733C70.0711 16.8733 70.249 16.5176 70.4268 16.2508C70.4268 16.2508 70.4268 16.2508 70.5157 16.2508C70.5157 16.7844 70.4268 17.4068 69.8933 17.4957C69.4487 17.5847 69.0041 17.14 68.8262 16.6065C68.8262 16.5176 68.9151 16.3397 69.0041 16.4287Z" fill="#263238"/>
<path d="M62.335 24.5203C62.5128 24.787 62.6906 25.1427 62.9574 25.2316C63.2242 25.3206 63.6688 25.2316 63.9356 25.2316C63.9356 25.2316 64.0245 25.2316 63.9356 25.3206C63.6688 25.5873 63.1353 25.6763 62.6906 25.5873C62.335 25.4095 62.1571 25.0538 62.1571 24.6981C62.246 24.5203 62.335 24.5203 62.335 24.5203Z" fill="#263238"/>
<path d="M66.4251 21.2303C66.4251 21.2303 66.603 22.5642 66.6919 23.1866C66.6919 23.2756 64.7356 23.7202 63.3129 22.2085C63.2239 22.1196 63.3129 22.1196 63.4018 22.1196C64.291 22.742 65.1802 22.8309 66.1584 22.8309C66.1584 22.6531 65.7138 20.519 65.8027 20.519C66.1584 20.519 66.8698 20.6968 67.2254 20.7857C66.8698 17.9402 65.9805 15.2726 65.7138 12.4271C65.7138 12.3381 65.8916 12.2492 65.8916 12.3381C66.9587 15.1836 67.4922 18.3848 67.9368 21.3193C68.0257 21.7639 66.6919 21.3193 66.4251 21.2303Z" fill="#263238"/>
<path d="M65.8028 23.1865C65.8028 23.1865 65.2693 23.8978 64.469 24.2535C64.2022 24.3424 63.8465 24.4314 63.5798 24.3424C62.9573 24.1646 62.8684 23.5421 63.0462 23.0975C63.1351 22.6529 63.313 22.2972 63.313 22.2972C63.313 22.2972 64.2022 23.0975 65.8028 23.1865Z" fill="#263238"/>
<path d="M64.469 24.2535C64.2022 24.3424 63.8465 24.4314 63.5798 24.3424C62.9573 24.1646 62.8684 23.5421 63.0462 23.0975C63.6687 23.0975 64.3801 23.5421 64.469 24.2535Z" fill="#FF9BBC"/>
<path d="M48.8181 19.7189C51.308 20.0746 52.0193 14.3836 52.0193 14.3836C52.0193 14.3836 62.6011 12.783 63.6681 4.15752C63.6681 4.15752 65.3577 9.67071 70.8708 12.2494C70.8708 12.2494 70.693 2.82369 63.2235 0.867403C63.2235 0.867403 53.9756 -2.68949 48.6403 4.60213C43.305 11.8938 47.1286 19.4521 48.8181 19.7189Z" fill="#263238"/>
<path d="M63.6681 3.53506C63.757 4.86889 63.5792 6.20272 63.1346 7.44763C62.6899 8.69254 61.9786 9.93746 61.0893 10.9156C60.9115 11.1824 60.6447 11.3602 60.378 11.627L60.0223 11.9827C59.9334 12.0716 59.7555 12.1605 59.5777 12.2494C59.3109 12.4273 59.0441 12.6051 58.7774 12.783C58.5106 12.9608 58.1549 13.1386 57.8881 13.2276C57.7103 13.3165 57.6214 13.4054 57.4435 13.4054L56.9989 13.5833L56.0208 13.939C55.3983 14.1168 54.6869 14.2057 54.0645 14.3836C54.6869 14.1168 55.3094 13.9389 55.9319 13.6722L56.8211 13.2276L57.2657 13.0497C57.4435 12.9608 57.5325 12.8719 57.7103 12.783C57.9771 12.6051 58.2438 12.4273 58.5106 12.2494C58.7774 12.0716 59.0441 11.8937 59.3109 11.7159L59.6666 11.4491L60.0223 11.0934C60.2891 10.8267 60.4669 10.6488 60.7337 10.3821C61.6229 9.49284 62.2453 8.33686 62.7789 7.18087C63.0456 6.55842 63.2235 5.93596 63.4013 5.3135C63.5792 4.86889 63.6681 4.24643 63.6681 3.53506Z" fill="#263238"/>
<path d="M50.4188 19.2744C50.4188 19.2744 47.4844 15.095 45.617 16.1621C43.7497 17.2292 45.8838 23.187 48.1069 24.0762C50.3299 24.8765 51.1302 22.8313 51.1302 22.8313L50.4188 19.2744Z" fill="#D3766A"/>
<path d="M46.2395 17.8517C46.2395 17.8517 46.2395 17.9406 46.2395 17.8517C47.7511 18.563 48.5514 19.9858 49.1739 21.4975C48.7293 20.9639 48.1068 20.6082 47.3065 21.1418V21.2307C47.929 21.0528 48.3736 21.2307 48.8182 21.6753C49.085 22.031 49.3517 22.4756 49.5296 22.9202C49.6185 23.0981 49.8853 23.0091 49.7964 22.8313C49.9742 20.7861 48.3736 18.0295 46.2395 17.8517Z" fill="#263238"/>
<path d="M48.3738 23.5429C48.4627 23.8097 48.7295 23.9875 49.0852 23.9875C49.352 23.8986 49.5298 23.6318 49.5298 23.2761C49.4409 23.0093 49.1741 22.8315 48.8184 22.8315C48.4627 22.9204 48.2849 23.1872 48.3738 23.5429Z" fill="#455A64"/>
<path d="M48.6408 23.4541C48.6408 23.6319 48.8186 23.7208 48.9965 23.6319C49.1743 23.6319 49.2632 23.4541 49.1743 23.2762C49.1743 23.0984 48.9965 23.0094 48.8186 23.0984C48.7297 23.1873 48.6408 23.2762 48.6408 23.4541Z" fill="#263238"/>
<path d="M47.3955 22.8309C47.4845 23.0087 47.6623 23.1866 47.9291 23.0977C48.1069 23.0087 48.2848 22.8309 48.1958 22.5641C48.1069 22.3863 47.9291 22.2085 47.6623 22.2974C47.4845 22.3863 47.3066 22.6531 47.3955 22.8309Z" fill="#455A64"/>
<path d="M43.3054 36.8804C43.3054 36.8804 49.7967 47.0175 57.1772 46.9286C63.0461 46.8397 63.4907 39.9037 63.4907 39.9037C63.4907 39.9037 60.0227 34.6573 52.7311 34.2127C47.3958 33.9459 43.3054 36.8804 43.3054 36.8804Z" fill="#D3766A"/>
</svg>
