<svg width="31" height="29" viewBox="0 0 31 29" fill="none" xmlns="http://www.w3.org/2000/svg">
<path d="M29.9932 12.8825L16.3106 0.410722C16.0232 0.146585 15.6471 0 15.2568 0C14.8665 0 14.4904 0.146585 14.2031 0.410722L0.511396 12.8825C0.277893 13.095 0.11416 13.3732 0.0417243 13.6805C-0.0307113 13.9878 -0.00845793 14.3098 0.105558 14.6042C0.219575 14.8986 0.420016 15.1516 0.680529 15.33C0.941041 15.5083 1.24943 15.6037 1.56514 15.6035H3.75069V28.0993C3.75069 28.3382 3.84557 28.5672 4.01448 28.7361C4.18338 28.9051 4.41246 28.9999 4.65132 28.9999H12.1566C12.3955 28.9999 12.6246 28.9051 12.7935 28.7361C12.9624 28.5672 13.0573 28.3382 13.0573 28.0993V20.5119H17.4664V28.0993C17.4664 28.3382 17.5613 28.5672 17.7302 28.7361C17.8991 28.9051 18.1282 28.9999 18.367 28.9999H25.8723C26.1112 28.9999 26.3403 28.9051 26.5092 28.7361C26.6781 28.5672 26.773 28.3382 26.773 28.0993V15.6035H28.9595C29.2752 15.6037 29.5836 15.5083 29.8441 15.33C30.1046 15.1516 30.3051 14.8986 30.4191 14.6042C30.5331 14.3098 30.5554 13.9878 30.4829 13.6805C30.4105 13.3732 30.2468 13.095 30.0133 12.8825H29.9932Z" fill="white"/>
<path d="M26.5197 1.7896H20.4945L27.4164 8.08405V2.68623C27.4153 2.44875 27.3205 2.2213 27.1526 2.05338C26.9847 1.88545 26.7572 1.79065 26.5197 1.7896Z" fill="white"/>
</svg>
