<svg width="24" height="23" viewBox="0 0 24 23" fill="none" xmlns="http://www.w3.org/2000/svg">
<path d="M21.3072 0H2.20691C1.59075 0.0355893 1.01349 0.314419 0.600701 0.775834C0.187915 1.23725 -0.0269967 1.84392 0.00271756 2.46386V20.5361C-0.0269967 21.1561 0.187915 21.7628 0.600701 22.2242C1.01349 22.6856 1.59075 22.9644 2.20691 23H21.3072C21.9234 22.9644 22.5006 22.6856 22.9134 22.2242C23.3262 21.7628 23.5411 21.1561 23.5114 20.5361V2.46386C23.5411 1.84392 23.3262 1.23725 22.9134 0.775834C22.5006 0.314419 21.9234 0.0355893 21.3072 0ZM21.0321 20.5361H2.482C2.40498 20.5316 2.33286 20.4966 2.28134 20.4389C2.22983 20.3811 2.20308 20.3052 2.20691 20.2277V2.77229C2.20308 2.69479 2.22983 2.61891 2.28134 2.56115C2.33286 2.50339 2.40498 2.46842 2.482 2.46386H21.0298C21.1068 2.46842 21.1789 2.50339 21.2304 2.56115C21.2819 2.61891 21.3087 2.69479 21.3049 2.77229V20.2277C21.3087 20.3052 21.2819 20.3811 21.2304 20.4389C21.1789 20.4966 21.1068 20.5316 21.0298 20.5361H21.0321ZM19.1042 15.8132V17.0458C19.1115 17.2007 19.0577 17.3524 18.9545 17.4677C18.8512 17.583 18.7069 17.6526 18.5528 17.6614H9.36732C9.21328 17.6526 9.06894 17.583 8.96569 17.4677C8.86244 17.3524 8.80864 17.2007 8.81598 17.0458V15.8132C8.80832 15.6581 8.86198 15.5061 8.96526 15.3906C9.06854 15.275 9.21307 15.2052 9.36732 15.1964H18.5493C18.7038 15.2049 18.8486 15.2746 18.9521 15.3902C19.0557 15.5058 19.1095 15.6579 19.1018 15.8132H19.1042ZM19.1042 10.8843V12.1168C19.1115 12.2718 19.0577 12.4235 18.9545 12.5388C18.8512 12.6541 18.7069 12.7237 18.5528 12.7325H9.36732C9.21328 12.7237 9.06894 12.6541 8.96569 12.5388C8.86244 12.4235 8.80864 12.2718 8.81598 12.1168V10.8843C8.80864 10.7293 8.86244 10.5777 8.96569 10.4624C9.06894 10.3471 9.21328 10.2775 9.36732 10.2687H18.5493C18.7036 10.2772 18.8482 10.3467 18.9517 10.462C19.0552 10.5773 19.1092 10.7291 19.1018 10.8843H19.1042ZM19.1042 5.95542V7.18794C19.1115 7.34293 19.0577 7.49456 18.9545 7.60986C18.8512 7.72516 18.7069 7.79479 18.5528 7.80362H9.36732C9.21328 7.79479 9.06894 7.72516 8.96569 7.60986C8.86244 7.49456 8.80864 7.34293 8.81598 7.18794V5.95542C8.80864 5.80043 8.86244 5.6488 8.96569 5.5335C9.06894 5.41821 9.21328 5.34857 9.36732 5.33975H18.5493C18.7036 5.34827 18.8482 5.41778 18.9517 5.53311C19.0552 5.64844 19.1092 5.80024 19.1018 5.95542H19.1042ZM7.5342 6.57109C7.55657 7.03606 7.39546 7.49109 7.08593 7.83721C6.77639 8.18332 6.34347 8.39252 5.88135 8.41929C5.42786 8.37039 5.00836 8.15459 4.70353 7.81341C4.3987 7.47224 4.23007 7.02976 4.23007 6.57109C4.23007 6.11243 4.3987 5.66995 4.70353 5.32877C5.00836 4.98759 5.42786 4.7718 5.88135 4.7229C6.34306 4.75026 6.77538 4.95972 7.08442 5.30577C7.39346 5.65182 7.55425 6.10652 7.53186 6.57109H7.5342ZM7.5342 11.5C7.55657 11.965 7.39546 12.42 7.08593 12.7661C6.77639 13.1122 6.34347 13.3214 5.88135 13.3482C5.42786 13.2993 5.00836 13.0835 4.70353 12.7423C4.3987 12.4011 4.23007 11.9587 4.23007 11.5C4.23007 11.0413 4.3987 10.5989 4.70353 10.2577C5.00836 9.9165 5.42786 9.70071 5.88135 9.65181C6.34306 9.67917 6.77538 9.88862 7.08442 10.2347C7.39346 10.5807 7.55425 11.0354 7.53186 11.5H7.5342ZM7.5342 16.4289C7.55657 16.8939 7.39546 17.3489 7.08593 17.695C6.77639 18.0411 6.34347 18.2503 5.88135 18.2771C5.42786 18.2282 5.00836 18.0124 4.70353 17.6712C4.3987 17.3301 4.23007 16.8876 4.23007 16.4289C4.23007 15.9702 4.3987 15.5278 4.70353 15.1866C5.00836 14.8454 5.42786 14.6296 5.88135 14.5807C6.34306 14.6081 6.77538 14.8175 7.08442 15.1636C7.39346 15.5096 7.55425 15.9643 7.53186 16.4289H7.5342Z" fill="#E71989"/>
</svg>
