<svg width="19" height="22" viewBox="0 0 19 22" fill="none" xmlns="http://www.w3.org/2000/svg">
<path d="M1.97917 0.00157141C0.886667 0.00157141 0 0.878428 0 1.96271V15.3214C0 16.4057 0.886667 17.2857 1.97917 17.2857H4.75V14.828C4.75002 14.2876 4.86238 13.753 5.08006 13.2576C5.29774 12.7623 5.61605 12.3168 6.01508 11.9491L7.04742 10.9969C6.89573 10.982 6.7516 10.924 6.63233 10.8298C6.51305 10.7356 6.42371 10.6092 6.37504 10.4659C6.32636 10.3225 6.32041 10.1683 6.35791 10.0216C6.39541 9.87502 6.47476 9.74225 6.58643 9.63929C6.6981 9.53633 6.83735 9.46756 6.98745 9.44123C7.13754 9.4149 7.2921 9.43213 7.43257 9.49086C7.57304 9.54958 7.69344 9.6473 7.77931 9.77229C7.86519 9.89727 7.91288 10.0442 7.91667 10.1954L10.5133 7.80371C11.0093 7.34667 11.6397 7.05934 12.3121 6.98383C12.9846 6.90832 13.6637 7.04862 14.25 7.38414C14.2291 6.8772 14.0115 6.39792 13.6425 6.04671C13.2736 5.69549 12.782 5.49958 12.2708 5.5H11.4839C11.3789 5.5 11.2783 5.45861 11.204 5.38493C11.1298 5.31126 11.0881 5.21133 11.0881 5.10714L11.0913 1.96743C11.0913 0.881571 10.2046 0 9.11208 0H1.97917V0.00157141ZM3.95833 4.71586C3.74837 4.71586 3.54701 4.63308 3.39854 4.48573C3.25007 4.33838 3.16667 4.13853 3.16667 3.93014C3.16667 3.72176 3.25007 3.52191 3.39854 3.37456C3.54701 3.22721 3.74837 3.14443 3.95833 3.14443C4.1683 3.14443 4.36966 3.22721 4.51813 3.37456C4.66659 3.52191 4.75 3.72176 4.75 3.93014C4.75 4.13853 4.66659 4.33838 4.51813 4.48573C4.36966 4.63308 4.1683 4.71586 3.95833 4.71586ZM4.75 7.073C4.75 7.28138 4.66659 7.48123 4.51813 7.62858C4.36966 7.77593 4.1683 7.85871 3.95833 7.85871C3.74837 7.85871 3.54701 7.77593 3.39854 7.62858C3.25007 7.48123 3.16667 7.28138 3.16667 7.073C3.16667 6.86462 3.25007 6.66477 3.39854 6.51742C3.54701 6.37007 3.74837 6.28729 3.95833 6.28729C4.1683 6.28729 4.36966 6.37007 4.51813 6.51742C4.66659 6.66477 4.75 6.86462 4.75 7.073ZM3.95833 11.0016C3.74837 11.0016 3.54701 10.9188 3.39854 10.7714C3.25007 10.6241 3.16667 10.4242 3.16667 10.2159C3.16667 10.0075 3.25007 9.80762 3.39854 9.66027C3.54701 9.51292 3.74837 9.43014 3.95833 9.43014C4.1683 9.43014 4.36966 9.51292 4.51813 9.66027C4.66659 9.80762 4.75 10.0075 4.75 10.2159C4.75 10.4242 4.66659 10.6241 4.51813 10.7714C4.36966 10.9188 4.1683 11.0016 3.95833 11.0016ZM7.91667 3.93014C7.91667 4.13853 7.83326 4.33838 7.68479 4.48573C7.53633 4.63308 7.33496 4.71586 7.125 4.71586C6.91504 4.71586 6.71367 4.63308 6.56521 4.48573C6.41674 4.33838 6.33333 4.13853 6.33333 3.93014C6.33333 3.72176 6.41674 3.52191 6.56521 3.37456C6.71367 3.22721 6.91504 3.14443 7.125 3.14443C7.33496 3.14443 7.53633 3.22721 7.68479 3.37456C7.83326 3.52191 7.91667 3.72176 7.91667 3.93014ZM7.125 7.85871C6.91504 7.85871 6.71367 7.77593 6.56521 7.62858C6.41674 7.48123 6.33333 7.28138 6.33333 7.073C6.33333 6.86462 6.41674 6.66477 6.56521 6.51742C6.71367 6.37007 6.91504 6.28729 7.125 6.28729C7.33496 6.28729 7.53633 6.37007 7.68479 6.51742C7.83326 6.66477 7.91667 6.86462 7.91667 7.073C7.91667 7.28138 7.83326 7.48123 7.68479 7.62858C7.53633 7.77593 7.33496 7.85871 7.125 7.85871ZM13.7433 8.95714C13.4506 8.68765 13.066 8.5379 12.6667 8.5379C12.2674 8.5379 11.8828 8.68765 11.59 8.95714L7.09333 13.101C6.85358 13.3217 6.66233 13.5891 6.53155 13.8866C6.40078 14.184 6.33329 14.505 6.33333 14.8296V20.4286C6.33333 20.8453 6.50015 21.245 6.79708 21.5397C7.09401 21.8344 7.49674 22 7.91667 22H10.2917C10.7116 22 11.1143 21.8344 11.4113 21.5397C11.7082 21.245 11.875 20.8453 11.875 20.4286V18.8571H13.4583V20.4286C13.4583 20.8453 13.6251 21.245 13.9221 21.5397C14.219 21.8344 14.6217 22 15.0417 22H17.4167C17.8366 22 18.2393 21.8344 18.5363 21.5397C18.8332 21.245 19 20.8453 19 20.4286V14.828C18.9998 14.5037 18.9322 14.183 18.8015 13.8858C18.6707 13.5887 18.4796 13.3215 18.24 13.101L13.7433 8.95871V8.95714ZM8.17 14.2529L12.6667 10.109L17.1633 14.2529C17.2431 14.3263 17.3068 14.4153 17.3504 14.5142C17.394 14.6132 17.4165 14.72 17.4167 14.828V20.4301H15.0417V18.8587C15.0417 18.4419 14.8749 18.0422 14.5779 17.7475C14.281 17.4528 13.8783 17.2873 13.4583 17.2873H11.875C11.4551 17.2873 11.0523 17.4528 10.7554 17.7475C10.4585 18.0422 10.2917 18.4419 10.2917 18.8587V20.4301H7.91667V14.8296C7.9168 14.7216 7.93936 14.6148 7.98295 14.5158C8.02654 14.4168 8.09021 14.3279 8.17 14.2544V14.2529Z" fill="black"/>
</svg>
