<svg width="181" height="340" viewBox="0 0 181 340" fill="none" xmlns="http://www.w3.org/2000/svg">
<path d="M165.381 0H15.1881C6.83908 0 0 6.9279 0 15.4545V324.545C0 333.072 6.83908 340 15.1881 340H165.381C173.73 340 180.569 333.072 180.569 324.545V15.4545C180.569 6.9279 173.73 0 165.381 0ZM171.066 315.042C171.066 323.213 164.937 329.786 157.476 329.786H23.093C15.5434 329.786 9.50365 323.213 9.50365 315.042V27.1787C9.50365 10.5695 15.6322 9.77011 23.093 9.77011H50.0052C51.604 9.77011 52.8474 11.5465 52.8474 13.767V14.744C52.8474 19.8955 55.6897 19.8955 59.1536 19.8955H121.416C124.88 19.8955 127.722 19.8955 127.722 14.744V13.767C127.722 11.5465 128.965 9.77011 130.564 9.77011H157.476C165.026 9.77011 171.066 11.9906 171.066 27.1787V315.042Z" fill="#455A64"/>
<path d="M171.066 27.1786V315.042C171.066 323.213 164.938 329.786 157.477 329.786H23.0933C15.5436 329.786 9.50391 323.213 9.50391 315.042V27.1786C9.50391 10.5694 15.6324 9.77003 23.0933 9.77003H50.0055C51.6042 9.77003 52.8477 11.5464 52.8477 13.7669V14.7439C52.8477 19.8954 55.6899 19.8954 59.1539 19.8954H121.416C124.88 19.8954 127.722 19.8954 127.722 14.7439V13.7669C127.722 11.5464 128.966 9.77003 130.565 9.77003H157.477C164.938 9.77003 171.066 11.9905 171.066 27.1786Z" fill="white"/>
<path d="M171.066 27.1786V59.5976H9.50382V27.1786C9.50382 10.5694 15.6323 9.77003 23.0932 9.77003H50.0054C51.6041 9.77003 52.8476 11.5464 52.8476 13.7669V14.7439C52.8476 19.8954 55.6898 19.8954 59.1538 19.8954H121.416C124.88 19.8954 127.722 19.8954 127.722 14.7439V13.7669C127.722 11.5464 128.966 9.77003 130.564 9.77003H157.477C164.937 9.77003 171.066 11.9905 171.066 27.1786Z" fill="#E71989"/>
<path d="M45.3868 16.2535C45.298 16.3424 45.2092 16.4312 45.1204 16.52C45.0316 16.6088 45.0316 16.6088 44.9427 16.6976C44.2322 15.9871 43.4328 15.6318 42.4558 15.6318C41.4788 15.6318 40.6794 15.9871 39.9689 16.6976C39.88 16.6088 39.88 16.6088 39.7912 16.52C39.7024 16.4312 39.6136 16.3424 39.5248 16.2535C39.6136 16.1647 39.7024 16.0759 39.88 15.9871C40.1465 15.8094 40.413 15.6318 40.6794 15.543C41.0347 15.3654 41.3011 15.2765 41.6564 15.1877C41.8341 15.1877 42.0117 15.0989 42.1893 15.0989C42.2782 15.0989 42.6334 15.0989 42.6334 15.0989C42.7223 15.0989 42.8999 15.0989 42.9887 15.0989C43.344 15.0989 43.6104 15.1877 43.8769 15.2765C44.0545 15.3654 44.321 15.4542 44.4986 15.543C44.6763 15.6318 44.9427 15.8094 45.1204 15.9871C45.2092 16.0759 45.298 16.1647 45.3868 16.2535Z" fill="white"/>
<path d="M40.7681 17.497C40.5905 17.3194 40.5017 17.2306 40.324 17.0529C40.7681 16.6088 41.3011 16.3424 42.0116 16.2535C42.9886 16.1647 43.788 16.4312 44.4986 17.0529C44.3209 17.2306 44.2321 17.3194 44.0545 17.497C43.6104 17.0529 42.9886 16.7865 42.3669 16.7865C41.834 16.7865 41.3011 17.0529 40.7681 17.497Z" fill="white"/>
<path d="M43.7879 17.8525C43.6103 18.0302 43.5215 18.119 43.3438 18.2966C43.0774 18.0302 42.8109 17.9414 42.4556 17.9414C42.1004 17.9414 41.8339 18.0302 41.5674 18.2966C41.3898 18.119 41.301 18.0302 41.1233 17.8525C41.8339 17.2308 42.9885 17.142 43.7879 17.8525Z" fill="white"/>
<path d="M42.8108 18.6519C42.8108 18.8295 42.6332 19.0072 42.4556 19.0072C42.2779 19.0072 42.1003 18.8295 42.1003 18.6519C42.1003 18.4742 42.2779 18.2966 42.4556 18.2966C42.722 18.2966 42.8108 18.4742 42.8108 18.6519Z" fill="white"/>
<path d="M20.073 17.0529C20.073 16.4312 20.5171 15.9871 21.1388 15.9871C21.7605 15.9871 22.2046 16.4312 22.2046 17.0529C22.2046 17.6746 21.7605 18.1187 21.1388 18.1187C20.5171 18.1187 20.073 17.6746 20.073 17.0529Z" fill="white"/>
<path d="M23.4479 17.0529C23.4479 16.4312 23.892 15.9871 24.5138 15.9871C25.1355 15.9871 25.5796 16.4312 25.5796 17.0529C25.5796 17.6746 25.1355 18.1187 24.5138 18.1187C23.892 18.1187 23.4479 17.6746 23.4479 17.0529Z" fill="white"/>
<path d="M26.8233 17.0529C26.8233 16.4312 27.2674 15.9871 27.8892 15.9871C28.5109 15.9871 28.955 16.4312 28.955 17.0529C28.955 17.6746 28.5109 18.1187 27.8892 18.1187C27.2674 18.1187 26.8233 17.6746 26.8233 17.0529Z" fill="white"/>
<path d="M30.1983 17.0529C30.1983 16.4312 30.6424 15.9871 31.2641 15.9871C31.8858 15.9871 32.3299 16.4312 32.3299 17.0529C32.3299 17.6746 31.8858 18.1187 31.2641 18.1187C30.6424 18.1187 30.1983 17.6746 30.1983 17.0529Z" fill="white"/>
<path d="M33.5737 17.0529C33.5737 16.4312 34.0177 15.9871 34.6395 15.9871C35.2612 15.9871 35.7053 16.4312 35.7053 17.0529C35.7053 17.6746 35.2612 18.1187 34.6395 18.1187C34.0177 18.1187 33.5737 17.6746 33.5737 17.0529Z" fill="white"/>
<path d="M158.986 19.3622H150.282V15.3653H158.986V19.3622ZM150.637 18.9181H158.454V15.8094H150.637V18.9181Z" fill="white"/>
<path d="M156.588 16.0757H150.993V18.7402H156.588V16.0757Z" fill="white"/>
<path d="M159.786 16.2535H158.987V18.3852H159.786V16.2535Z" fill="white"/>
<path d="M24.2478 50.449L19.4515 46.008L24.2478 41.567L24.9583 42.3664L21.0503 46.008L24.9583 49.7384L24.2478 50.449Z" fill="white"/>
<path d="M156.322 41.567L161.118 46.008L156.322 50.449L155.612 49.7384L159.52 46.008L155.612 42.3664L156.322 41.567Z" fill="white"/>
<path d="M81.181 44.1428C81.7139 44.6757 82.0692 45.4751 82.0692 46.3633C82.0692 47.2515 81.7139 47.962 81.181 48.5837C80.6481 49.1167 79.9375 49.4719 79.1382 49.4719C78.3388 49.4719 77.5394 49.1167 77.0065 48.5837C76.4736 48.0508 76.1183 47.2515 76.1183 46.3633C76.1183 45.4751 76.4736 44.7645 77.0065 44.1428C77.5394 43.6099 78.3388 43.2546 79.1382 43.2546C79.9375 43.2546 80.7369 43.6099 81.181 44.1428ZM81.0922 46.3633C81.0922 45.7415 80.8257 45.2086 80.4705 44.8533C80.1152 44.4981 79.5823 44.2316 79.1382 44.2316C78.6053 44.2316 78.0723 44.4981 77.7171 44.8533C77.3618 45.2086 77.0953 45.7415 77.0953 46.3633C77.0953 46.985 77.3618 47.5179 77.7171 47.8732C78.0723 48.2285 78.6053 48.4949 79.1382 48.4949C79.6711 48.4949 80.1152 48.2285 80.4705 47.8732C80.9146 47.5179 81.0922 46.985 81.0922 46.3633Z" fill="white"/>
<path d="M87.8426 48.7616C87.9314 49.0281 87.7538 49.2945 87.5762 49.3834C87.5762 49.3834 87.4873 49.3834 87.3985 49.3834C87.3097 49.3834 87.2209 49.3834 87.0433 49.2945C86.9544 49.2057 86.8656 49.1169 86.7768 49.0281C86.688 48.7616 86.5992 48.4952 86.5992 47.9622C86.5992 47.7846 86.5992 47.6958 86.5103 47.607C86.4215 47.5182 86.3327 47.4293 86.2439 47.3405C86.0662 47.2517 85.7998 47.1629 85.7998 47.1629H84.7339V49.0281C84.7339 49.2945 84.5563 49.4722 84.2899 49.4722C84.0234 49.4722 83.8458 49.2945 83.8458 49.0281V43.8766C83.8458 43.6101 84.0234 43.4325 84.2899 43.4325H85.7998C86.8656 43.4325 87.665 44.2318 87.665 45.2977C87.665 45.8306 87.3985 46.3635 86.9544 46.7188C87.0432 46.8076 87.1321 46.8964 87.2209 47.0741C87.3985 47.3405 87.4874 47.607 87.4874 48.0511C87.4874 48.3175 87.4874 48.4952 87.4874 48.584C87.665 48.4952 87.7538 48.6728 87.8426 48.7616ZM86.5992 45.2977C86.5992 44.7648 86.2439 44.4095 85.711 44.4095H84.6451V46.1859H85.711C86.2439 46.1859 86.5992 45.7418 86.5992 45.2977Z" fill="white"/>
<path d="M89.2634 49.0281V43.8766C89.2634 43.6101 89.441 43.4325 89.7075 43.4325H90.7733C92.4609 43.4325 93.7932 44.7648 93.7932 46.4523C93.7932 48.1399 92.4609 49.4722 90.7733 49.4722H89.7075C89.441 49.4722 89.2634 49.2945 89.2634 49.0281ZM90.2404 48.584H90.7733C91.928 48.584 92.8161 47.6958 92.8161 46.5411C92.8161 45.3865 91.928 44.4983 90.7733 44.4983H90.2404V48.584Z" fill="white"/>
<path d="M95.0366 49.0281V43.8766C95.0366 43.6101 95.2143 43.4325 95.4807 43.4325H98.3229C98.5894 43.4325 98.767 43.6101 98.767 43.8766C98.767 44.143 98.5006 44.3207 98.3229 44.3207H95.9248V45.9194H97.9677C98.2341 45.9194 98.4118 46.1859 98.4118 46.3635C98.4118 46.63 98.2341 46.8076 97.9677 46.8076H95.9248V48.4063H98.3229C98.5894 48.4063 98.767 48.584 98.767 48.8504C98.767 49.1169 98.5006 49.2945 98.3229 49.2945H95.4807C95.3031 49.4722 95.0366 49.2945 95.0366 49.0281Z" fill="white"/>
<path d="M104.363 48.7616C104.451 49.0281 104.274 49.2945 104.096 49.3834C104.096 49.3834 104.007 49.3834 103.919 49.3834C103.83 49.3834 103.741 49.3834 103.563 49.2945C103.474 49.2057 103.386 49.1169 103.297 49.0281C103.208 48.7616 103.119 48.4952 103.119 47.9622C103.119 47.7846 103.119 47.6958 103.03 47.607C102.942 47.5182 102.853 47.4293 102.764 47.3405C102.586 47.2517 102.32 47.1629 102.32 47.1629H101.254V49.0281C101.254 49.2945 101.076 49.4722 100.81 49.4722C100.543 49.4722 100.366 49.2945 100.366 49.0281V43.8766C100.366 43.6101 100.543 43.4325 100.81 43.4325H102.32C103.386 43.4325 104.185 44.2318 104.185 45.2977C104.185 45.8306 103.919 46.3635 103.474 46.7188C103.563 46.8076 103.652 46.8964 103.741 47.0741C103.919 47.3405 104.007 47.607 104.007 48.0511C104.007 48.3175 104.007 48.4952 104.007 48.584C104.274 48.4952 104.363 48.6728 104.363 48.7616ZM103.208 45.2977C103.208 44.7648 102.764 44.4095 102.32 44.4095H101.254V46.1859H102.32C102.764 46.1859 103.208 45.7418 103.208 45.2977Z" fill="white"/>
<path d="M98.7674 13.5002H81.8029C81.1812 13.5002 80.7371 13.0561 80.7371 12.4343C80.7371 11.8126 81.1812 11.3685 81.8029 11.3685H98.7674C99.3891 11.3685 99.8332 11.8126 99.8332 12.4343C99.8332 12.9673 99.3891 13.5002 98.7674 13.5002Z" fill="#263238"/>
<path d="M35.9715 177.283L33.8399 180.214V183.056C33.8399 183.411 33.5734 183.589 33.3069 183.589C33.0405 183.589 32.774 183.322 32.774 183.056V180.214L30.6424 177.283C30.4647 177.016 30.4647 176.661 30.7312 176.483C30.9976 176.306 31.3529 176.306 31.5306 176.572L33.3069 178.97L35.0833 176.572C35.261 176.306 35.6162 176.217 35.8827 176.483C36.1491 176.75 36.1492 177.105 35.9715 177.283Z" fill="#263238"/>
<path d="M36.4156 182.878C35.9715 182.434 35.705 181.813 35.705 181.013C35.705 180.303 35.9715 179.681 36.4156 179.237C36.8597 178.704 37.4814 178.438 38.192 178.438C38.9025 178.438 39.5242 178.704 39.9683 179.237C40.4124 179.77 40.6789 180.392 40.6789 181.013C40.6789 181.724 40.4124 182.346 39.9683 182.878C39.5242 183.411 38.9025 183.678 38.192 183.678C37.4814 183.678 36.8597 183.323 36.4156 182.878ZM36.8597 181.013C36.8597 181.457 37.0373 181.813 37.2149 182.079C37.4814 182.346 37.8367 182.434 38.192 182.434C38.5472 182.434 38.9025 182.257 39.169 182.079C39.4354 181.813 39.6131 181.457 39.6131 181.013C39.6131 180.569 39.4354 180.214 39.169 179.947C38.9025 179.681 38.5472 179.592 38.192 179.592C37.8367 179.592 37.4814 179.77 37.2149 179.947C36.9485 180.214 36.8597 180.569 36.8597 181.013Z" fill="#263238"/>
<path d="M44.3203 183.589C43.1657 183.589 42.1886 182.612 42.1886 181.457V178.97C42.1886 178.704 42.4551 178.438 42.7216 178.438C43.0768 178.438 43.2545 178.704 43.2545 178.97V181.457C43.2545 182.079 43.6986 182.523 44.3203 182.523C44.942 182.523 45.3861 182.079 45.3861 181.457V178.97C45.3861 178.704 45.6526 178.438 45.9191 178.438C46.1855 178.438 46.452 178.704 46.452 178.97V181.457C46.5408 182.612 45.5638 183.589 44.3203 183.589Z" fill="#263238"/>
<path d="M51.8703 178.97C51.8703 179.237 51.6039 179.503 51.3374 179.503C51.0709 179.503 50.8933 179.592 50.7157 179.681C50.538 179.77 50.3604 179.947 50.2716 180.214C50.0051 180.569 49.9163 180.924 49.8275 181.102V183.056C49.8275 183.323 49.561 183.589 49.2946 183.589C49.0281 183.589 48.7616 183.323 48.7616 183.056V178.97C48.7616 178.704 49.0281 178.438 49.2946 178.438C49.6498 178.438 49.8275 178.704 49.8275 178.97V179.059C49.9163 178.97 50.0051 178.882 50.0051 178.882C50.3604 178.615 50.8045 178.438 51.3374 178.438C51.6039 178.438 51.8703 178.704 51.8703 178.97Z" fill="#263238"/>
<path d="M56.844 182.878C56.3999 182.434 56.1335 181.813 56.1335 181.013C56.1335 180.303 56.3999 179.681 56.844 179.237C57.2881 178.704 57.9098 178.438 58.6204 178.438C59.3309 178.438 59.9527 178.704 60.3968 179.237C60.8409 179.77 61.1073 180.392 61.1073 181.013C61.1073 181.724 60.8409 182.346 60.3968 182.878C59.9527 183.411 59.3309 183.678 58.6204 183.678C57.9098 183.678 57.2881 183.323 56.844 182.878ZM57.2881 181.013C57.2881 181.457 57.4657 181.813 57.6434 182.079C57.9098 182.346 58.2651 182.434 58.6204 182.434C58.9757 182.434 59.3309 182.257 59.5974 182.079C59.8639 181.813 60.0415 181.457 60.0415 181.013C60.0415 180.569 59.8639 180.214 59.5974 179.947C59.3309 179.681 58.9757 179.592 58.6204 179.592C58.2651 179.592 57.9098 179.77 57.6434 179.947C57.3769 180.214 57.2881 180.569 57.2881 181.013Z" fill="#263238"/>
<path d="M65.9036 178.97C65.9036 179.237 65.6371 179.503 65.3707 179.503C65.1042 179.503 64.9266 179.592 64.7489 179.681C64.5713 179.77 64.3936 179.947 64.3048 180.214C64.0384 180.569 63.9495 180.924 63.8607 181.102V183.056C63.8607 183.323 63.5943 183.589 63.3278 183.589C63.0614 183.589 62.7949 183.323 62.7949 183.056V178.97C62.7949 178.704 63.0614 178.438 63.3278 178.438C63.6831 178.438 63.8607 178.704 63.8607 178.97V179.059C63.9495 178.97 64.0384 178.882 64.0384 178.882C64.3936 178.615 64.8377 178.438 65.3707 178.438C65.6371 178.438 65.9036 178.704 65.9036 178.97Z" fill="#263238"/>
<path d="M71.6767 183.056C71.6767 183.322 71.4103 183.589 71.1438 183.589C70.8773 183.589 70.6109 183.411 70.6109 183.145C70.2556 183.411 69.7227 183.589 69.1898 183.589C67.7687 183.589 66.7028 182.434 66.7028 181.013C66.7028 179.592 67.8575 178.437 69.1898 178.437C69.7227 178.437 70.1668 178.615 70.6109 178.881V176.927C70.6109 176.661 70.8773 176.394 71.1438 176.394C71.4991 176.394 71.6767 176.661 71.6767 176.927V181.013V183.056ZM69.1898 179.592C68.8345 179.592 68.4792 179.77 68.2128 180.036C67.9463 180.302 67.7687 180.658 67.7687 181.102C67.7687 181.457 67.9463 181.901 68.2128 182.168C68.4792 182.434 68.8345 182.612 69.1898 182.612C69.5451 182.612 69.9003 182.434 70.1668 182.168C70.4332 181.901 70.6109 181.546 70.6109 181.102C70.6109 180.658 70.4332 180.302 70.1668 180.036C69.9003 179.681 69.5451 179.592 69.1898 179.592Z" fill="#263238"/>
<path d="M73.2754 181.013C73.2754 179.592 74.43 178.438 75.8511 178.438C77.1834 178.438 78.2493 179.415 78.3381 180.836C78.3381 180.836 78.3381 180.836 78.3381 180.924V181.013C78.3381 181.28 78.0716 181.457 77.8052 181.457H74.5188C74.6077 181.724 74.6965 181.99 74.8741 182.168C75.0518 182.434 75.4959 182.612 75.8511 182.612C76.2064 182.612 76.6505 182.523 76.917 182.346C77.0946 182.079 77.5387 182.168 77.7163 182.346C77.894 182.523 77.9828 182.79 77.7163 183.056C77.1834 183.5 76.5617 183.767 75.8511 183.767C74.43 183.589 73.3642 182.434 73.2754 181.013ZM74.43 180.48H77.3611C77.2723 180.036 76.7393 179.415 75.8511 179.415C74.9629 179.415 74.5189 180.125 74.43 180.48Z" fill="#263238"/>
<path d="M83.0455 178.97C83.0455 179.237 82.779 179.503 82.5126 179.503C82.2461 179.503 82.0685 179.592 81.8908 179.681C81.7132 179.77 81.5356 179.947 81.4468 180.214C81.1803 180.569 81.0915 180.924 81.0027 181.102V183.056C81.0027 183.323 80.7362 183.589 80.4697 183.589C80.2033 183.589 79.9368 183.323 79.9368 183.056V178.97C79.9368 178.704 80.2033 178.438 80.4697 178.438C80.825 178.438 81.0027 178.704 81.0027 178.97V179.059C81.0915 178.97 81.1803 178.882 81.1803 178.882C81.5356 178.615 81.9797 178.438 82.5126 178.438C82.779 178.438 83.0455 178.704 83.0455 178.97Z" fill="#263238"/>
<path d="M88.6412 177.105C88.6412 177.46 88.3747 177.638 88.1083 177.638C87.753 177.638 87.5754 177.371 87.5754 177.105V176.927C87.5754 176.572 87.8418 176.394 88.1083 176.394C88.4636 176.394 88.6412 176.661 88.6412 176.927V177.105ZM88.6412 178.97V183.056C88.6412 183.411 88.3747 183.589 88.1083 183.589C87.753 183.589 87.5754 183.322 87.5754 183.056V178.97C87.5754 178.615 87.8418 178.437 88.1083 178.437C88.3747 178.437 88.6412 178.704 88.6412 178.97Z" fill="#263238"/>
<path d="M90.1512 182.168C90.3289 181.901 90.6841 181.901 90.9506 182.079C91.217 182.345 91.6611 182.523 92.1052 182.523C92.3717 182.523 92.6382 182.434 92.8158 182.345C92.9934 182.256 92.9934 182.079 92.9934 181.99C92.9934 181.901 92.9934 181.901 92.9934 181.901C92.9934 181.901 92.9046 181.812 92.8158 181.812C92.6382 181.724 92.3717 181.635 92.0164 181.546C91.6612 181.457 91.3947 181.368 91.1282 181.279C90.8618 181.102 90.5953 180.924 90.4177 180.658C90.3289 180.48 90.24 180.214 90.24 180.036C90.24 179.592 90.5065 179.148 90.8618 178.881C91.2171 178.615 91.6611 178.526 92.1052 178.526C92.8158 178.526 93.3487 178.881 93.704 179.059C93.9704 179.237 94.0593 179.592 93.8816 179.858C93.704 180.125 93.3487 180.214 93.0823 180.036C92.727 179.858 92.4605 179.681 92.1052 179.681C91.8388 179.681 91.5723 179.77 91.4835 179.858C91.3059 179.947 91.3059 180.036 91.3059 180.125V180.214C91.3059 180.214 91.3059 180.302 91.3947 180.302C91.5723 180.391 91.8388 180.48 92.1941 180.569C92.5493 180.658 92.8158 180.747 93.1711 180.835C93.4375 180.924 93.704 181.191 93.8816 181.457C93.9704 181.635 94.0593 181.901 94.0593 182.168C94.0593 182.701 93.7928 183.145 93.4375 183.411C93.0823 183.678 92.6382 183.855 92.1052 183.855C91.3059 183.855 90.6841 183.5 90.24 183.145C89.9736 182.701 89.9736 182.345 90.1512 182.168Z" fill="#263238"/>
<path d="M98.3226 181.013C98.3226 179.592 99.5661 178.438 100.987 178.438C101.609 178.438 102.231 178.704 102.675 178.97C102.941 179.148 102.941 179.503 102.764 179.77C102.586 180.036 102.231 180.036 101.964 179.859C101.698 179.681 101.342 179.503 100.987 179.503C100.188 179.503 99.4772 180.214 99.4772 181.013C99.4772 181.813 100.188 182.523 100.987 182.523C101.342 182.523 101.698 182.346 101.964 182.168C102.231 181.99 102.497 181.99 102.764 182.257C102.941 182.523 102.852 182.79 102.675 183.056C102.231 183.411 101.609 183.589 100.987 183.589C99.4772 183.589 98.3226 182.434 98.3226 181.013Z" fill="#263238"/>
<path d="M104.895 182.878C104.451 182.434 104.185 181.813 104.185 181.013C104.185 180.303 104.451 179.681 104.895 179.237C105.339 178.704 105.961 178.438 106.672 178.438C107.382 178.438 108.004 178.704 108.448 179.237C108.892 179.77 109.159 180.392 109.159 181.013C109.159 181.724 108.892 182.346 108.448 182.878C108.004 183.411 107.382 183.678 106.672 183.678C105.961 183.678 105.428 183.323 104.895 182.878ZM105.339 181.013C105.339 181.457 105.517 181.813 105.695 182.079C105.961 182.346 106.316 182.434 106.672 182.434C107.027 182.434 107.382 182.257 107.649 182.079C107.915 181.813 108.093 181.457 108.093 181.013C108.093 180.569 107.915 180.214 107.649 179.947C107.382 179.681 107.027 179.592 106.672 179.592C106.316 179.592 105.961 179.77 105.695 179.947C105.517 180.214 105.339 180.569 105.339 181.013Z" fill="#263238"/>
<path d="M115.287 180.569V183.056C115.287 183.323 115.02 183.589 114.754 183.589C114.488 183.589 114.221 183.323 114.221 183.056V180.569C114.221 179.947 113.688 179.503 113.155 179.503C112.533 179.503 112.089 179.947 112.089 180.569V183.056V183.145C112.001 183.411 111.823 183.589 111.556 183.589C111.201 183.589 111.024 183.323 111.024 183.056V180.569V178.97C111.024 178.704 111.29 178.438 111.556 178.438C111.734 178.438 112.001 178.526 112.089 178.793C112.445 178.615 112.8 178.438 113.155 178.438C114.31 178.438 115.287 179.415 115.287 180.569Z" fill="#263238"/>
<path d="M119.018 178.082V178.26H119.373C119.728 178.26 119.906 178.526 119.906 178.793C119.906 179.148 119.639 179.325 119.373 179.325H119.018V182.967C119.018 183.322 118.751 183.5 118.485 183.5C118.129 183.5 117.952 183.234 117.952 182.967V179.325H117.685C117.33 179.325 117.064 179.059 117.064 178.793C117.064 178.437 117.33 178.26 117.685 178.26H117.952V178.082C117.952 177.727 117.952 177.371 118.129 177.105C118.307 176.75 118.573 176.572 118.84 176.483C119.018 176.394 119.284 176.394 119.462 176.394C119.817 176.394 119.995 176.661 119.995 176.927C119.995 177.283 119.728 177.549 119.462 177.549C119.284 177.549 119.195 177.549 119.195 177.549H119.106C119.106 177.549 119.018 177.727 119.018 178.082Z" fill="#263238"/>
<path d="M122.215 177.105C122.215 177.46 121.948 177.638 121.682 177.638C121.327 177.638 121.149 177.371 121.149 177.105V176.927C121.149 176.572 121.416 176.394 121.682 176.394C122.037 176.394 122.215 176.661 122.215 176.927V177.105ZM122.215 178.97V183.056C122.215 183.411 121.948 183.589 121.682 183.589C121.327 183.589 121.149 183.322 121.149 183.056V178.97C121.149 178.615 121.416 178.437 121.682 178.437C122.037 178.437 122.215 178.704 122.215 178.97Z" fill="#263238"/>
<path d="M127.189 178.97C127.189 179.237 126.922 179.503 126.656 179.503C126.389 179.503 126.212 179.592 126.034 179.681C125.857 179.77 125.679 179.947 125.59 180.214C125.324 180.569 125.235 180.924 125.146 181.102V183.056C125.146 183.323 124.88 183.589 124.613 183.589C124.347 183.589 124.08 183.323 124.08 183.056V178.97C124.08 178.704 124.347 178.438 124.613 178.438C124.968 178.438 125.146 178.704 125.146 178.97V179.059C125.235 178.97 125.324 178.882 125.324 178.882C125.679 178.615 126.123 178.438 126.656 178.438C127.011 178.438 127.189 178.704 127.189 178.97Z" fill="#263238"/>
<path d="M132.962 180.569V183.056C132.962 183.323 132.696 183.589 132.429 183.589C132.163 183.589 131.896 183.323 131.896 183.056V180.569C131.896 180.036 131.363 179.503 130.83 179.503C130.297 179.503 129.765 179.947 129.765 180.569V183.056V183.145C129.765 183.145 129.765 183.145 129.765 183.234C129.765 183.234 129.765 183.234 129.765 183.323C129.676 183.5 129.498 183.678 129.232 183.678H129.143C128.876 183.589 128.699 183.411 128.699 183.145V180.569V178.97C128.699 178.615 128.965 178.438 129.232 178.438C129.409 178.438 129.676 178.526 129.765 178.793C130.12 178.615 130.475 178.438 130.919 178.438C131.541 178.438 132.163 178.704 132.518 179.148C132.873 178.704 133.495 178.438 134.117 178.438C135.271 178.438 136.248 179.415 136.248 180.658V183.145C136.248 183.411 135.982 183.678 135.715 183.678C135.449 183.678 135.183 183.411 135.183 183.145V180.569C135.183 179.947 134.738 179.503 134.117 179.503C133.406 179.503 132.962 180.036 132.962 180.569Z" fill="#263238"/>
<path d="M138.114 181.013C138.114 179.592 139.268 178.438 140.689 178.438C142.022 178.438 143.088 179.415 143.176 180.836C143.176 180.836 143.176 180.836 143.176 180.924V181.013C143.176 181.28 142.91 181.457 142.643 181.457H139.357C139.446 181.724 139.535 181.99 139.712 182.168C139.89 182.434 140.334 182.612 140.689 182.612C141.045 182.612 141.489 182.523 141.755 182.346C141.933 182.079 142.377 182.168 142.555 182.346C142.732 182.523 142.821 182.79 142.555 183.056C142.022 183.5 141.4 183.767 140.689 183.767C139.268 183.589 138.114 182.434 138.114 181.013ZM139.268 180.48H142.199C142.11 180.036 141.578 179.415 140.689 179.415C139.801 179.415 139.357 180.125 139.268 180.48Z" fill="#263238"/>
<path d="M149.571 183.056C149.571 183.322 149.305 183.589 149.038 183.589C148.772 183.589 148.506 183.411 148.506 183.145C148.15 183.411 147.617 183.589 147.084 183.589C145.663 183.589 144.597 182.434 144.597 181.013C144.597 179.592 145.752 178.437 147.084 178.437C147.617 178.437 148.061 178.615 148.506 178.881V176.927C148.506 176.661 148.772 176.394 149.038 176.394C149.394 176.394 149.571 176.661 149.571 176.927V181.013V183.056ZM146.996 179.592C146.64 179.592 146.285 179.77 146.019 180.036C145.752 180.302 145.574 180.658 145.574 181.102C145.574 181.457 145.752 181.901 146.019 182.168C146.285 182.434 146.64 182.612 146.996 182.612C147.351 182.612 147.706 182.434 147.973 182.168C148.239 181.901 148.417 181.546 148.417 181.102C148.417 180.658 148.239 180.302 147.973 180.036C147.706 179.681 147.44 179.592 146.996 179.592Z" fill="#263238"/>
<path d="M65.1933 163.605H62.9728C62.7952 163.605 62.7064 163.516 62.7064 163.338C62.7064 163.161 62.7952 163.072 62.9728 163.072H67.8579C68.0355 163.072 68.1243 163.161 68.1243 163.338C68.1243 163.516 68.0355 163.605 67.8579 163.605H65.6374V170.089C65.6374 170.266 65.5486 170.355 65.371 170.355C65.1933 170.355 65.1045 170.266 65.1045 170.089V163.605H65.1933Z" fill="#263238"/>
<path d="M73.4536 167.246C73.4536 166.358 72.743 165.736 71.8549 165.736C70.9667 165.736 70.2561 166.358 70.2561 167.246V170.089C70.2561 170.177 70.1673 170.177 70.0785 170.177C69.9896 170.177 69.9008 170.177 69.9008 170.089V170V169.911V167.246V167.158V163.338C69.9008 163.161 69.9897 163.072 70.1673 163.072C70.3449 163.072 70.4338 163.161 70.4338 163.338V166.003C70.789 165.559 71.4108 165.292 72.0325 165.292C73.1872 165.292 74.1642 166.092 74.1642 167.335V170.177C74.1642 170.355 74.0753 170.444 73.8977 170.444C73.7201 170.444 73.6312 170.355 73.6312 170.177V167.246H73.4536Z" fill="#263238"/>
<path d="M80.8254 165.559V170.177C80.8254 170.355 80.7366 170.444 80.559 170.444C80.3813 170.444 80.2925 170.355 80.2925 170.177V169.378C79.8484 170 79.1379 170.355 78.3385 170.355C77.0062 170.355 75.9404 169.2 75.9404 167.779C75.9404 166.358 77.0062 165.204 78.3385 165.204C79.1379 165.204 79.8484 165.559 80.2925 166.181V165.47C80.2925 165.292 80.3813 165.204 80.559 165.204C80.7366 165.204 80.8254 165.381 80.8254 165.559ZM80.2925 167.779C80.2925 166.625 79.4043 165.736 78.3385 165.736C77.2726 165.736 76.3845 166.625 76.3845 167.779C76.3845 168.934 77.2726 169.822 78.3385 169.822C79.4043 169.822 80.2925 168.934 80.2925 167.779Z" fill="#263238"/>
<path d="M86.5101 167.335C86.5101 166.447 85.7995 165.736 84.9114 165.736C84.0232 165.736 83.3126 166.447 83.3126 167.335V170.089C83.3126 170.089 83.3126 170.177 83.2238 170.177C83.2238 170.266 83.135 170.266 83.0461 170.266C82.9573 170.266 82.8685 170.177 82.8685 170.089V170V167.246V165.47C82.8685 165.292 82.9573 165.204 83.135 165.204C83.3126 165.204 83.4014 165.292 83.4014 165.47V166.003C83.7567 165.559 84.3784 165.292 85.0002 165.292C86.1548 165.292 87.043 166.269 87.043 167.335V170.089C87.043 170.266 86.9542 170.355 86.7765 170.355C86.5989 170.355 86.5101 170.266 86.5101 170.089V167.335Z" fill="#263238"/>
<path d="M89.2632 163.338C89.2632 163.161 89.352 163.072 89.5297 163.072C89.7073 163.072 89.7961 163.161 89.7961 163.338V168.223L92.816 165.204C92.9048 165.115 93.0824 165.115 93.1713 165.204C93.2601 165.292 93.2601 165.47 93.1713 165.559L91.2172 167.513L93.1713 169.911C93.2601 170 93.2601 170.177 93.1713 170.266C93.0824 170.266 93.0824 170.355 92.9936 170.355C92.9048 170.355 92.816 170.355 92.816 170.266L90.862 167.868L89.7961 168.934V170.089C89.7961 170.266 89.7073 170.355 89.5297 170.355C89.352 170.355 89.2632 170.266 89.2632 170.089V163.338Z" fill="#263238"/>
<path d="M97.7899 165.47C97.7899 165.292 97.8787 165.204 98.0563 165.204C98.234 165.204 98.3228 165.292 98.3228 165.47V168.223C98.3228 169.112 99.0334 169.822 99.9216 169.822C100.81 169.822 101.52 169.112 101.52 168.223V165.47V165.381L101.609 165.292C101.609 165.292 101.698 165.292 101.698 165.381L101.787 165.47V165.559V168.312V168.401V170C101.787 171.332 100.721 172.398 99.3886 172.398C99.0334 172.398 98.6781 172.309 98.3228 172.131C98.234 172.043 98.1452 171.954 98.234 171.776C98.3228 171.687 98.4116 171.599 98.5893 171.687C98.8557 171.776 99.1222 171.865 99.3886 171.865C100.454 171.865 101.343 171.066 101.343 170V169.645C100.987 170.089 100.366 170.355 99.7439 170.355C98.5893 170.355 97.7011 169.378 97.7011 168.312V165.47H97.7899Z" fill="#263238"/>
<path d="M106.139 165.292C107.471 165.292 108.537 166.447 108.537 167.868C108.537 169.289 107.471 170.444 106.139 170.444C104.807 170.444 103.741 169.289 103.741 167.868C103.741 166.447 104.807 165.292 106.139 165.292ZM106.139 169.822C107.205 169.822 108.093 168.934 108.093 167.779C108.093 166.625 107.205 165.736 106.139 165.736C105.073 165.736 104.185 166.625 104.185 167.779C104.274 168.934 105.162 169.822 106.139 169.822Z" fill="#263238"/>
<path d="M110.225 165.47C110.225 165.292 110.313 165.204 110.491 165.204C110.669 165.204 110.758 165.292 110.758 165.47V168.223C110.758 169.112 111.468 169.822 112.356 169.822C113.245 169.822 113.955 169.112 113.955 168.223V165.47C113.955 165.292 114.044 165.204 114.222 165.204C114.399 165.204 114.488 165.292 114.488 165.47V168.223C114.488 169.378 113.6 170.266 112.356 170.266C111.202 170.266 110.313 169.289 110.313 168.223V165.47H110.225Z" fill="#263238"/>
<path d="M116.708 163.338C116.708 163.161 116.797 163.072 116.975 163.072C117.152 163.072 117.241 163.161 117.241 163.338V168.579C117.241 168.756 117.152 168.845 116.975 168.845C116.797 168.845 116.708 168.756 116.708 168.579V163.338ZM116.708 169.822C116.708 169.645 116.797 169.556 116.975 169.556C117.152 169.556 117.241 169.645 117.241 169.822V170.089C117.241 170.266 117.152 170.355 116.975 170.355C116.797 170.355 116.708 170.266 116.708 170.089V169.822Z" fill="#263238"/>
<path d="M88.2866 138.735L80.8257 131.097L83.3127 128.61L87.6648 133.051L96.8132 118.84L99.8331 120.705L88.2866 138.735Z" fill="#E71989"/>
<path d="M90.3291 148.417C79.4931 148.417 70.7 139.624 70.7 128.788C70.7 117.952 79.4931 109.159 90.3291 109.159C101.165 109.159 109.958 117.952 109.958 128.788C109.869 139.624 101.076 148.417 90.3291 148.417ZM90.3291 111.823C81.003 111.823 73.3646 119.462 73.3646 128.788C73.3646 138.114 81.003 145.752 90.3291 145.752C99.6551 145.752 107.294 138.114 107.294 128.788C107.205 119.373 99.6551 111.823 90.3291 111.823Z" fill="#E71989"/>
<path d="M65.6377 128.344H59.7756V129.232H65.6377V128.344Z" fill="#E71989"/>
<path d="M63.6446 115.969L63.0166 116.597L67.1616 120.742L67.7897 120.114L63.6446 115.969Z" fill="#E71989"/>
<path d="M67.1261 136.602L62.981 140.747L63.609 141.375L67.7541 137.23L67.1261 136.602Z" fill="#E71989"/>
<path d="M120.794 128.344H114.932V129.232H120.794V128.344Z" fill="#E71989"/>
<path d="M116.937 115.947L112.792 120.092L113.42 120.72L117.565 116.575L116.937 115.947Z" fill="#E71989"/>
<path d="M113.447 136.615L112.819 137.243L116.964 141.388L117.592 140.76L113.447 136.615Z" fill="#E71989"/>
<path d="M116.797 218.761H63.7721V236.525H116.797V218.761Z" fill="#E71989"/>
<path d="M76.3848 230.84V224.712C76.3848 224.357 76.6512 224.179 76.9177 224.179H78.1611C80.204 224.179 81.8027 225.778 81.8027 227.821C81.8027 229.863 80.204 231.462 78.1611 231.462H76.9177C76.6512 231.462 76.3848 231.196 76.3848 230.84ZM77.5394 230.308H78.1611C79.4934 230.308 80.6481 229.153 80.6481 227.821C80.6481 226.488 79.5823 225.334 78.1611 225.334H77.5394V230.308Z" fill="white"/>
<path d="M89.441 225.067C90.0627 225.778 90.5068 226.666 90.5068 227.732C90.5068 228.798 90.0627 229.686 89.441 230.397C88.8193 231.107 87.9311 231.551 86.9541 231.551C85.977 231.551 85 231.107 84.3783 230.397C83.7566 229.686 83.3125 228.798 83.3125 227.732C83.3125 226.666 83.6678 225.778 84.3783 225.067C85 224.357 85.8882 223.913 86.9541 223.913C87.9311 223.913 88.8193 224.357 89.441 225.067ZM89.3522 227.643C89.3522 226.933 89.0857 226.311 88.6416 225.867C88.1975 225.423 87.6646 225.156 86.9541 225.156C86.3323 225.156 85.7106 225.423 85.2665 225.867C84.8224 226.311 84.5559 227.021 84.5559 227.643C84.5559 228.354 84.8224 228.976 85.2665 229.42C85.7106 229.864 86.2435 230.13 86.9541 230.13C87.5758 230.13 88.1975 229.864 88.6416 229.42C89.0857 229.064 89.3522 228.354 89.3522 227.643Z" fill="white"/>
<path d="M93.438 230.841C93.438 231.196 93.1716 231.374 92.9051 231.374C92.5499 231.374 92.3722 231.107 92.3722 230.841V224.801C92.3722 224.624 92.461 224.446 92.6387 224.357C92.9051 224.179 93.2604 224.268 93.438 224.446L96.8132 229.065V224.801C96.8132 224.535 97.0796 224.268 97.3461 224.268C97.7014 224.268 97.879 224.535 97.879 224.801V230.841C97.879 231.196 97.6125 231.374 97.3461 231.374C97.1685 231.374 96.9908 231.285 96.902 231.196C96.902 231.196 96.902 231.196 96.8132 231.107L93.5269 226.489V230.841H93.438Z" fill="white"/>
<path d="M99.6556 230.84V224.712C99.6556 224.357 99.922 224.179 100.188 224.179H103.564C103.83 224.179 104.097 224.445 104.097 224.712C104.097 225.067 103.83 225.334 103.564 225.334H100.81V227.199H103.208C103.564 227.199 103.741 227.465 103.741 227.732C103.741 228.087 103.475 228.354 103.208 228.354H100.81V230.308H103.652C103.919 230.308 104.185 230.574 104.185 230.929C104.185 231.285 103.919 231.462 103.652 231.462H100.277C99.922 231.462 99.6556 231.196 99.6556 230.84Z" fill="white"/>
<path d="M41.3007 194.336L39.9684 192.471C39.9684 192.382 39.9684 192.293 39.9684 192.293C40.0572 192.204 40.146 192.293 40.146 192.293L41.3895 194.07L42.6329 192.293C42.6329 192.204 42.7218 192.204 42.8106 192.293C42.8994 192.293 42.8994 192.382 42.8106 192.471L41.4783 194.336V196.112C41.4783 196.201 41.3895 196.29 41.3007 196.29C41.2118 196.29 41.123 196.201 41.123 196.112V194.336H41.3007Z" fill="#C7C7C7"/>
<path d="M44.143 193.448C44.8536 193.448 45.4753 194.07 45.4753 194.869C45.4753 195.669 44.8536 196.29 44.143 196.29C43.4325 196.29 42.8107 195.669 42.8107 194.869C42.8107 194.07 43.4325 193.448 44.143 193.448ZM44.143 196.024C44.6759 196.024 45.2089 195.491 45.2089 194.869C45.2089 194.247 44.7648 193.715 44.143 193.715C43.6101 193.715 43.0772 194.247 43.0772 194.869C43.0772 195.491 43.6101 196.024 44.143 196.024Z" fill="#C7C7C7"/>
<path d="M46.452 193.626C46.452 193.537 46.5408 193.448 46.6296 193.448C46.7184 193.448 46.8073 193.537 46.8073 193.626V195.136C46.8073 195.58 47.1625 196.024 47.6955 196.024C48.1396 196.024 48.5836 195.669 48.5836 195.136V193.626C48.5836 193.537 48.6725 193.448 48.7613 193.448C48.8501 193.448 48.9389 193.537 48.9389 193.626V195.136C48.9389 195.757 48.406 196.29 47.7843 196.29C47.1625 196.29 46.6296 195.757 46.6296 195.136V193.626H46.452Z" fill="#C7C7C7"/>
<path d="M52.6695 196.29C52.6695 196.201 52.6695 196.201 52.6695 196.29L51.5149 193.715C51.5149 193.626 51.5149 193.537 51.6037 193.537C51.6925 193.537 51.7813 193.537 51.7813 193.626L52.7583 195.846L53.3801 194.336C53.3801 194.247 53.4689 194.247 53.4689 194.247C53.5577 194.247 53.5577 194.247 53.6465 194.336L54.2683 195.846L55.2453 193.626C55.2453 193.537 55.3341 193.537 55.4229 193.537C55.5117 193.537 55.5117 193.626 55.5117 193.715L54.4459 196.201C54.4459 196.201 54.4459 196.29 54.3571 196.29H54.2683C54.1794 196.29 54.1794 196.29 54.1794 196.201L53.5577 194.603L52.936 196.201C52.8472 196.201 52.8472 196.29 52.6695 196.29C52.7583 196.29 52.7583 196.29 52.6695 196.29Z" fill="#C7C7C7"/>
<path d="M56.311 192.648C56.311 192.56 56.3999 192.471 56.4887 192.471C56.5775 192.471 56.6663 192.56 56.6663 192.648V192.737C56.6663 192.826 56.5775 192.915 56.4887 192.915C56.3999 192.915 56.311 192.826 56.311 192.737V192.648ZM56.311 193.625C56.311 193.537 56.3999 193.448 56.4887 193.448C56.5775 193.448 56.6663 193.537 56.6663 193.625V196.201C56.6663 196.29 56.5775 196.379 56.4887 196.379C56.3999 196.379 56.311 196.29 56.311 196.201V193.625Z" fill="#C7C7C7"/>
<path d="M57.91 192.382C57.91 192.293 57.9988 192.205 58.0877 192.205C58.1765 192.205 58.2653 192.293 58.2653 192.382V196.113C58.2653 196.201 58.1765 196.29 58.0877 196.29C57.9988 196.29 57.91 196.201 57.91 196.113V192.382Z" fill="#C7C7C7"/>
<path d="M59.3308 192.382C59.3308 192.293 59.4196 192.205 59.5084 192.205C59.5972 192.205 59.6861 192.293 59.6861 192.382V196.113C59.6861 196.201 59.5972 196.29 59.5084 196.29C59.4196 196.29 59.3308 196.201 59.3308 196.113V192.382Z" fill="#C7C7C7"/>
<path d="M62.4394 194.958V194.78V192.382C62.4394 192.293 62.5283 192.205 62.6171 192.205C62.7059 192.205 62.7947 192.293 62.7947 192.382V193.981C63.0612 193.626 63.4164 193.448 63.8605 193.448C64.6599 193.448 65.1928 194.07 65.1928 194.869C65.1928 195.669 64.5711 196.29 63.8605 196.29C63.4164 196.29 63.0612 196.113 62.7947 195.757V196.201C62.7947 196.29 62.7059 196.379 62.6171 196.379C62.5283 196.379 62.4394 196.29 62.4394 196.201V194.958ZM62.7059 194.869C62.7059 195.491 63.2388 196.024 63.7717 196.024C64.3935 196.024 64.8376 195.491 64.8376 194.869C64.8376 194.247 64.3935 193.715 63.7717 193.715C63.2388 193.715 62.7059 194.247 62.7059 194.869Z" fill="#C7C7C7"/>
<path d="M65.9922 194.869C65.9922 194.07 66.614 193.448 67.3245 193.448C68.0351 193.448 68.6568 193.981 68.6568 194.78C68.6568 194.869 68.568 194.869 68.4792 194.869H66.1699C66.1699 195.491 66.7028 195.935 67.2357 195.935C67.591 195.935 67.9463 195.757 68.1239 195.402C68.1239 195.313 68.2127 195.313 68.3015 195.313C68.3903 195.402 68.3904 195.402 68.3904 195.491C68.1239 195.846 67.7686 196.113 67.2357 196.113C66.614 196.29 65.9922 195.669 65.9922 194.869ZM66.3475 194.603H68.4792C68.3904 194.07 67.9463 193.715 67.4133 193.715C66.8804 193.715 66.4363 194.07 66.3475 194.603Z" fill="#C7C7C7"/>
<path d="M71.4992 193.626C71.4992 193.537 71.588 193.448 71.6768 193.448C71.7657 193.448 71.7657 193.537 71.7657 193.626V194.247V194.159C71.9433 193.803 72.3874 193.448 72.9203 193.448C73.0091 193.448 73.0979 193.537 73.0979 193.626C73.0979 193.715 73.0091 193.803 72.9203 193.803C72.565 193.803 72.2986 193.981 72.1209 194.247C71.9433 194.514 71.8545 194.78 71.7657 194.869C71.7657 194.869 71.7657 194.869 71.7657 194.958V196.201C71.7657 196.29 71.6768 196.379 71.6768 196.379C71.588 196.379 71.4992 196.29 71.4992 196.201V193.626Z" fill="#C7C7C7"/>
<path d="M73.5419 194.869C73.5419 194.07 74.1636 193.448 74.8742 193.448C75.5847 193.448 76.2064 193.981 76.2064 194.78C76.2064 194.869 76.1176 194.869 76.0288 194.869H73.7195C73.7195 195.491 74.2524 195.935 74.7853 195.935C75.1406 195.935 75.4959 195.757 75.6735 195.402C75.6735 195.313 75.7623 195.313 75.8512 195.313C75.94 195.402 75.94 195.402 75.94 195.491C75.6735 195.846 75.3182 196.113 74.7853 196.113C74.1636 196.29 73.5419 195.669 73.5419 194.869ZM73.8083 194.603H75.94C75.8512 194.07 75.4071 193.715 74.8742 193.715C74.3412 193.715 73.8971 194.07 73.8083 194.603Z" fill="#C7C7C7"/>
<path d="M77.0062 194.869C77.0062 194.07 77.6279 193.448 78.4273 193.448C78.7825 193.448 79.049 193.537 79.3155 193.803C79.4043 193.803 79.4043 193.892 79.3155 193.981C79.2266 194.07 79.2266 194.07 79.1378 193.981C78.9602 193.803 78.6937 193.715 78.4273 193.715C77.8055 193.715 77.2726 194.247 77.2726 194.869C77.2726 195.491 77.8055 196.024 78.4273 196.024C78.6937 196.024 78.9602 195.935 79.1378 195.757C79.2266 195.669 79.3155 195.757 79.3155 195.757C79.4043 195.846 79.3155 195.935 79.3155 195.935C79.049 196.113 78.7825 196.201 78.4273 196.201C77.6279 196.29 77.0062 195.669 77.0062 194.869Z" fill="#C7C7C7"/>
<path d="M80.2033 194.869C80.2033 194.07 80.825 193.448 81.5356 193.448C82.2462 193.448 82.8679 193.981 82.8679 194.78C82.8679 194.869 82.7791 194.869 82.6903 194.869H80.3809C80.3809 195.491 80.9139 195.935 81.4468 195.935C81.8021 195.935 82.1573 195.757 82.335 195.402C82.335 195.313 82.4238 195.313 82.5126 195.313C82.6014 195.402 82.6014 195.402 82.6014 195.491C82.335 195.846 81.9797 196.113 81.4468 196.113C80.825 196.29 80.2033 195.669 80.2033 194.869ZM80.5586 194.603H82.6903C82.6014 194.07 82.1573 193.715 81.6244 193.715C81.0915 193.715 80.6474 194.07 80.5586 194.603Z" fill="#C7C7C7"/>
<path d="M83.9339 192.648C83.9339 192.56 84.0227 192.471 84.1115 192.471C84.2003 192.471 84.2891 192.56 84.2891 192.648V192.737C84.2891 192.826 84.2003 192.915 84.1115 192.915C84.0227 192.915 83.9339 192.826 83.9339 192.737V192.648ZM83.9339 193.625C83.9339 193.537 84.0227 193.448 84.1115 193.448C84.2003 193.448 84.2891 193.537 84.2891 193.625V196.201C84.2891 196.29 84.2003 196.379 84.1115 196.379C84.0227 196.379 83.9339 196.29 83.9339 196.201V193.625Z" fill="#C7C7C7"/>
<path d="M86.4209 196.29C86.4209 196.201 86.4209 196.201 86.4209 196.29L85.3551 193.715C85.3551 193.626 85.3551 193.537 85.4439 193.537C85.5327 193.537 85.6215 193.537 85.6215 193.626L86.5985 195.846L87.5755 193.626C87.5755 193.537 87.6644 193.537 87.7532 193.537C87.842 193.537 87.842 193.626 87.842 193.715L86.7762 196.201V196.29C86.5985 196.29 86.5985 196.29 86.4209 196.29C86.5097 196.29 86.5097 196.29 86.4209 196.29C86.5097 196.29 86.5097 196.29 86.4209 196.29C86.5097 196.29 86.4209 196.29 86.4209 196.29Z" fill="#C7C7C7"/>
<path d="M88.9078 192.648C88.9078 192.56 88.9966 192.471 89.0855 192.471C89.1743 192.471 89.2631 192.56 89.2631 192.648V192.737C89.2631 192.826 89.1743 192.915 89.0855 192.915C88.9966 192.915 88.9078 192.826 88.9078 192.737V192.648ZM88.9078 193.625C88.9078 193.537 88.9966 193.448 89.0855 193.448C89.1743 193.448 89.2631 193.537 89.2631 193.625V196.201C89.2631 196.29 89.1743 196.379 89.0855 196.379C88.9966 196.379 88.9078 196.29 88.9078 196.201V193.625Z" fill="#C7C7C7"/>
<path d="M92.5493 194.603C92.5493 194.159 92.1941 193.715 91.6611 193.715C91.2171 193.715 90.773 194.07 90.773 194.603V196.113V196.201L90.6841 196.29C90.6841 196.29 90.5953 196.29 90.5953 196.201V194.692V194.603V193.626C90.5953 193.537 90.6841 193.448 90.773 193.448C90.8618 193.448 90.8618 193.537 90.8618 193.626V193.892C91.0394 193.626 91.3947 193.448 91.75 193.448C92.3717 193.448 92.9046 193.981 92.9046 194.603V196.113C92.9046 196.201 92.8158 196.29 92.727 196.29C92.6382 196.29 92.5493 196.201 92.5493 196.113V194.603Z" fill="#C7C7C7"/>
<path d="M96.5463 196.024C96.5463 196.735 95.9246 197.356 95.214 197.356C95.0364 197.356 94.7699 197.268 94.5923 197.268C94.5035 197.268 94.5034 197.179 94.5034 197.09C94.5034 197.001 94.5923 197.001 94.6811 197.001C94.8587 197.09 94.9476 197.09 95.1252 197.09C95.7469 197.09 96.191 196.646 96.191 196.024V195.669C95.9246 196.024 95.5693 196.202 95.1252 196.202C94.4146 196.202 93.7929 195.58 93.7929 194.781C93.7929 193.981 94.4146 193.36 95.1252 193.36C95.5693 193.36 95.9246 193.537 96.191 193.892V193.448C96.191 193.36 96.2798 193.271 96.3687 193.271C96.4575 193.271 96.4575 193.36 96.4575 193.448V196.024H96.5463ZM96.2798 194.869C96.2798 194.248 95.8357 193.715 95.214 193.715C94.6811 193.715 94.1482 194.248 94.1482 194.869C94.1482 195.491 94.5923 196.024 95.214 196.024C95.7469 196.024 96.2798 195.491 96.2798 194.869Z" fill="#C7C7C7"/>
<path d="M101.964 193.625V196.201C101.964 196.29 101.876 196.379 101.787 196.379C101.698 196.379 101.609 196.29 101.609 196.201V195.757C101.343 196.112 100.987 196.29 100.543 196.29C99.8327 196.29 99.211 195.668 99.211 194.869C99.211 194.07 99.8327 193.448 100.543 193.448C100.987 193.448 101.343 193.625 101.609 193.981V193.537C101.609 193.448 101.698 193.359 101.787 193.359C101.876 193.448 101.964 193.537 101.964 193.625ZM101.698 194.869C101.698 194.247 101.254 193.714 100.632 193.714C100.099 193.714 99.5662 194.247 99.5662 194.869C99.5662 195.491 100.01 196.024 100.632 196.024C101.165 196.024 101.698 195.491 101.698 194.869Z" fill="#C7C7C7"/>
<path d="M104.629 194.869C104.629 194.07 105.25 193.448 106.05 193.448C106.405 193.448 106.671 193.537 106.938 193.803C107.027 193.803 107.027 193.892 106.938 193.981C106.849 194.07 106.849 194.07 106.76 193.981C106.583 193.803 106.316 193.715 106.05 193.715C105.428 193.715 104.895 194.247 104.895 194.869C104.895 195.491 105.428 196.024 106.05 196.024C106.316 196.024 106.583 195.935 106.76 195.757C106.849 195.669 106.938 195.757 106.938 195.757C107.027 195.846 106.938 195.935 106.938 195.935C106.671 196.113 106.405 196.201 106.05 196.201C105.339 196.29 104.629 195.669 104.629 194.869Z" fill="#C7C7C7"/>
<path d="M109.247 193.448C109.958 193.448 110.58 194.07 110.58 194.869C110.58 195.669 109.958 196.29 109.247 196.29C108.537 196.29 107.915 195.669 107.915 194.869C107.915 194.07 108.537 193.448 109.247 193.448ZM109.247 196.024C109.78 196.024 110.313 195.491 110.313 194.869C110.313 194.247 109.869 193.715 109.247 193.715C108.714 193.715 108.182 194.247 108.182 194.869C108.182 195.491 108.714 196.024 109.247 196.024Z" fill="#C7C7C7"/>
<path d="M113.688 194.603C113.688 194.159 113.333 193.715 112.8 193.715C112.356 193.715 111.912 194.07 111.912 194.603V196.113V196.201L111.823 196.29C111.823 196.29 111.734 196.29 111.734 196.201V194.692V194.603V193.626C111.734 193.537 111.823 193.448 111.912 193.448C112.001 193.448 112.001 193.537 112.001 193.626V193.892C112.178 193.626 112.533 193.448 112.889 193.448C113.51 193.448 114.043 193.981 114.043 194.603V196.113C114.043 196.201 113.955 196.29 113.866 196.29C113.777 196.29 113.688 196.201 113.688 196.113V194.603Z" fill="#C7C7C7"/>
<path d="M116.442 192.382C116.442 192.471 116.353 192.56 116.264 192.56C116.086 192.56 115.998 192.56 115.909 192.649C115.82 192.738 115.82 192.826 115.82 193.093V193.359H116.175C116.264 193.359 116.353 193.448 116.353 193.537C116.353 193.626 116.264 193.715 116.175 193.715H115.82V196.202C115.82 196.29 115.731 196.379 115.642 196.379C115.553 196.379 115.465 196.29 115.465 196.202V193.715H115.109C115.021 193.715 114.932 193.626 114.932 193.537C114.932 193.448 115.021 193.359 115.109 193.359H115.465V193.093C115.465 192.826 115.553 192.56 115.642 192.471C115.82 192.294 115.998 192.294 116.175 192.294C116.353 192.205 116.442 192.294 116.442 192.382Z" fill="#C7C7C7"/>
<path d="M117.33 192.648C117.33 192.56 117.419 192.471 117.508 192.471C117.596 192.471 117.685 192.56 117.685 192.648V192.737C117.685 192.826 117.596 192.915 117.508 192.915C117.419 192.915 117.33 192.826 117.33 192.737V192.648ZM117.33 193.625C117.33 193.537 117.419 193.448 117.508 193.448C117.596 193.448 117.685 193.537 117.685 193.625V196.201C117.685 196.29 117.596 196.379 117.508 196.379C117.419 196.379 117.33 196.29 117.33 196.201V193.625Z" fill="#C7C7C7"/>
<path d="M118.929 193.626C118.929 193.537 119.017 193.448 119.106 193.448C119.195 193.448 119.195 193.537 119.195 193.626V194.247V194.159C119.373 193.803 119.817 193.448 120.35 193.448C120.438 193.448 120.527 193.537 120.527 193.626C120.527 193.715 120.438 193.803 120.35 193.803C119.994 193.803 119.728 193.981 119.55 194.247C119.373 194.514 119.284 194.78 119.195 194.869C119.195 194.869 119.195 194.869 119.195 194.958V196.201C119.195 196.29 119.106 196.379 119.106 196.379C119.017 196.379 118.929 196.29 118.929 196.201V193.626Z" fill="#C7C7C7"/>
<path d="M125.501 194.603C125.501 194.159 125.146 193.715 124.613 193.715C124.169 193.715 123.725 194.07 123.725 194.603V196.113C123.725 196.113 123.725 196.201 123.636 196.201H123.547V194.692C123.547 194.247 123.192 193.803 122.659 193.803C122.215 193.803 121.771 194.159 121.771 194.692V196.201C121.771 196.29 121.771 196.29 121.682 196.29C121.593 196.29 121.593 196.201 121.593 196.201V194.692V194.603V193.626C121.593 193.537 121.682 193.537 121.682 193.537C121.771 193.537 121.86 193.626 121.86 193.626V193.892C122.037 193.626 122.393 193.448 122.748 193.448C123.192 193.448 123.547 193.715 123.725 194.07C123.902 193.715 124.347 193.448 124.702 193.448C125.324 193.448 125.856 193.981 125.856 194.603V196.113C125.856 196.201 125.768 196.201 125.679 196.201C125.59 196.201 125.59 196.113 125.59 196.113V194.603H125.501Z" fill="#C7C7C7"/>
<path d="M129.321 193.625V196.201C129.321 196.29 129.232 196.379 129.143 196.379C129.054 196.379 128.965 196.29 128.965 196.201V195.757C128.699 196.112 128.343 196.29 127.899 196.29C127.189 196.29 126.567 195.668 126.567 194.869C126.567 194.07 127.189 193.448 127.899 193.448C128.343 193.448 128.699 193.625 128.965 193.981V193.537C128.965 193.448 129.054 193.359 129.143 193.359C129.232 193.448 129.321 193.537 129.321 193.625ZM128.965 194.869C128.965 194.247 128.521 193.714 127.899 193.714C127.366 193.714 126.834 194.247 126.834 194.869C126.834 195.491 127.278 196.024 127.899 196.024C128.521 196.024 128.965 195.491 128.965 194.869Z" fill="#C7C7C7"/>
<path d="M131.452 193.626C131.452 193.715 131.363 193.803 131.274 193.803H130.919V195.846C130.919 196.024 131.097 196.024 131.097 196.024C131.186 196.024 131.274 196.113 131.274 196.201C131.274 196.29 131.186 196.379 131.097 196.379C130.83 196.379 130.564 196.201 130.564 195.846V193.803H130.209C130.031 193.803 130.031 193.715 130.031 193.626C130.031 193.537 130.031 193.448 130.209 193.448H130.564V192.382C130.564 192.293 130.653 192.205 130.742 192.205C130.83 192.205 130.919 192.293 130.919 192.382V193.448H131.274C131.363 193.448 131.452 193.537 131.452 193.626Z" fill="#C7C7C7"/>
<path d="M132.784 192.648C132.784 192.56 132.873 192.471 132.962 192.471C133.051 192.471 133.14 192.56 133.14 192.648V192.737C133.14 192.826 133.051 192.915 132.962 192.915C132.873 192.915 132.784 192.826 132.784 192.737V192.648ZM132.784 193.625C132.784 193.537 132.873 193.448 132.962 193.448C133.051 193.448 133.14 193.537 133.14 193.625V196.201C133.14 196.29 133.051 196.379 132.962 196.379C132.873 196.379 132.784 196.29 132.784 196.201V193.625Z" fill="#C7C7C7"/>
<path d="M135.627 193.448C136.337 193.448 136.959 194.07 136.959 194.869C136.959 195.669 136.337 196.29 135.627 196.29C134.916 196.29 134.294 195.669 134.294 194.869C134.294 194.07 134.827 193.448 135.627 193.448ZM135.627 196.024C136.16 196.024 136.692 195.491 136.692 194.869C136.692 194.247 136.248 193.715 135.627 193.715C135.094 193.715 134.561 194.247 134.561 194.869C134.561 195.491 135.005 196.024 135.627 196.024Z" fill="#C7C7C7"/>
<path d="M139.979 194.603C139.979 194.159 139.623 193.715 139.091 193.715C138.646 193.715 138.202 194.07 138.202 194.603V196.113V196.201L138.114 196.29C138.114 196.29 138.025 196.29 138.025 196.201V194.692V194.603V193.626C138.025 193.537 138.114 193.448 138.202 193.448C138.291 193.448 138.291 193.537 138.291 193.626V193.892C138.469 193.626 138.824 193.448 139.179 193.448C139.801 193.448 140.334 193.981 140.334 194.603V196.113C140.334 196.201 140.245 196.29 140.156 196.29C140.068 196.29 139.979 196.201 139.979 196.113V194.603Z" fill="#C7C7C7"/>
<path d="M56.6662 201.797C56.6662 200.998 57.2879 200.376 57.9985 200.376C58.709 200.376 59.3308 200.909 59.3308 201.708C59.3308 201.797 59.242 201.797 59.1531 201.797H56.8438C56.8438 202.419 57.3768 202.863 57.9097 202.863C58.2649 202.863 58.6202 202.685 58.7979 202.33C58.7979 202.241 58.8867 202.241 58.9755 202.241C59.0643 202.33 59.0643 202.33 59.0643 202.419C58.7979 202.774 58.4426 203.041 57.9097 203.041C57.2879 203.218 56.6662 202.508 56.6662 201.797ZM57.0215 201.531H59.1531C59.0643 200.998 58.6202 200.643 58.0873 200.643C57.5544 200.643 57.1103 200.998 57.0215 201.531Z" fill="#C7C7C7"/>
<path d="M64.3937 201.531C64.3937 201.087 64.0384 200.643 63.5055 200.643C63.0614 200.643 62.6173 200.998 62.6173 201.531V203.041C62.6173 203.041 62.6173 203.13 62.5285 203.13H62.4397V201.62C62.4397 201.176 62.0844 200.731 61.5515 200.731C61.1074 200.731 60.6633 201.087 60.6633 201.62V203.13C60.6633 203.218 60.6633 203.218 60.5745 203.218C60.4857 203.218 60.4857 203.13 60.4857 203.13V201.62V201.531V200.554C60.4857 200.465 60.5745 200.465 60.5745 200.465C60.6633 200.465 60.7521 200.554 60.7521 200.554V200.82C60.9298 200.554 61.285 200.376 61.6403 200.376C62.0844 200.376 62.4397 200.643 62.6173 200.998C62.795 200.643 63.2391 200.376 63.5943 200.376C64.2161 200.376 64.749 200.909 64.749 201.531V203.041C64.749 203.13 64.6602 203.13 64.5714 203.13C64.4825 203.13 64.4825 203.041 64.4825 203.041V201.531H64.3937Z" fill="#C7C7C7"/>
<path d="M68.2131 200.465V203.04C68.2131 203.129 68.1242 203.218 68.0354 203.218C67.9466 203.218 67.8578 203.129 67.8578 203.04V202.596C67.5913 202.952 67.236 203.129 66.792 203.129C66.0814 203.129 65.4597 202.508 65.4597 201.708C65.4597 200.909 66.0814 200.287 66.792 200.287C67.236 200.287 67.5913 200.465 67.8578 200.82V200.376C67.8578 200.287 67.9466 200.198 68.0354 200.198C68.2131 200.376 68.2131 200.376 68.2131 200.465ZM67.9466 201.797C67.9466 201.175 67.5025 200.642 66.8808 200.642C66.3479 200.642 65.8149 201.175 65.8149 201.797C65.8149 202.419 66.259 202.952 66.8808 202.952C67.5025 202.863 67.9466 202.419 67.9466 201.797Z" fill="#C7C7C7"/>
<path d="M69.4565 199.577C69.4565 199.488 69.5453 199.399 69.6342 199.399C69.723 199.399 69.8118 199.488 69.8118 199.577V199.666C69.8118 199.754 69.723 199.843 69.6342 199.843C69.5453 199.843 69.4565 199.754 69.4565 199.666V199.577ZM69.4565 200.465C69.4565 200.376 69.5453 200.287 69.6342 200.287C69.723 200.287 69.8118 200.376 69.8118 200.465V203.041C69.8118 203.13 69.723 203.218 69.6342 203.218C69.5453 203.218 69.4565 203.13 69.4565 203.041V200.465Z" fill="#C7C7C7"/>
<path d="M70.9662 199.31C70.9662 199.221 71.055 199.132 71.1438 199.132C71.2327 199.132 71.3215 199.221 71.3215 199.31V203.04C71.3215 203.129 71.2327 203.218 71.1438 203.218C71.055 203.218 70.9662 203.129 70.9662 203.04V199.31Z" fill="#C7C7C7"/>
<path d="M75.0521 203.13C75.0521 203.13 74.9633 203.13 75.0521 203.13L73.8975 200.554C73.8975 200.465 73.8975 200.376 73.9863 200.376C74.0751 200.376 74.1639 200.376 74.1639 200.465L75.141 202.685L75.7627 201.176C75.7627 201.087 75.8515 201.087 75.8515 201.087C75.9403 201.087 75.9403 201.087 76.0291 201.176L76.6509 202.685L77.6279 200.465C77.6279 200.376 77.7167 200.376 77.8055 200.376C77.8944 200.376 77.8943 200.465 77.8943 200.554L76.8285 203.041C76.8285 203.041 76.8285 203.13 76.7397 203.13H76.6509C76.5621 203.13 76.5621 203.13 76.5621 203.041L75.9403 201.442L75.3186 203.041C75.2298 203.13 75.141 203.218 75.0521 203.13C75.141 203.218 75.0521 203.218 75.0521 203.13Z" fill="#C7C7C7"/>
<path d="M78.6936 199.577C78.6936 199.488 78.7825 199.399 78.8713 199.399C78.9601 199.399 79.0489 199.488 79.0489 199.577V199.666C79.0489 199.754 78.9601 199.843 78.8713 199.843C78.7825 199.843 78.6936 199.754 78.6936 199.666V199.577ZM78.6936 200.465C78.6936 200.376 78.7825 200.287 78.8713 200.287C78.9601 200.287 79.0489 200.376 79.0489 200.465V203.041C79.0489 203.13 78.9601 203.218 78.8713 203.218C78.7825 203.218 78.6936 203.13 78.6936 203.041V200.465Z" fill="#C7C7C7"/>
<path d="M81.2692 200.465C81.2692 200.554 81.1804 200.643 81.0916 200.643H80.7363V202.685C80.7363 202.863 80.9139 202.863 80.9139 202.863C81.0028 202.863 81.0916 202.952 81.0916 203.041C81.0916 203.13 81.0028 203.218 80.9139 203.218C80.6475 203.218 80.381 203.041 80.381 202.685V200.643H80.0258C79.8481 200.643 79.8481 200.554 79.8481 200.465C79.8481 200.376 79.8481 200.287 80.0258 200.287H80.381V199.222C80.381 199.133 80.4698 199.044 80.5587 199.044C80.6475 199.044 80.7363 199.133 80.7363 199.222V200.287H81.0916C81.2692 200.376 81.2692 200.465 81.2692 200.465Z" fill="#C7C7C7"/>
<path d="M84.5556 201.442C84.5556 200.909 84.1115 200.642 83.6674 200.642C83.1345 200.642 82.7792 200.998 82.7792 201.442V203.04L82.6904 203.129C82.6904 203.129 82.6016 203.129 82.6016 203.04C82.6016 203.04 82.6016 203.041 82.6016 202.952C82.6016 202.952 82.6016 202.952 82.6016 202.863V201.264V201.175V199.044C82.6016 198.955 82.6904 198.866 82.7792 198.866C82.8681 198.866 82.9569 198.955 82.9569 199.044V200.554C83.1345 200.287 83.4898 200.109 83.8451 200.109C84.4668 200.109 84.9997 200.554 84.9997 201.264V202.863C84.9997 202.952 84.9109 203.04 84.8221 203.04C84.7333 203.04 84.6444 202.952 84.6444 202.863V201.442H84.5556Z" fill="#C7C7C7"/>
<path d="M88.9968 200.376C89.7073 200.376 90.329 200.998 90.329 201.797C90.329 202.597 89.7073 203.218 88.9968 203.218C88.2862 203.218 87.6645 202.597 87.6645 201.797C87.6645 200.998 88.1974 200.376 88.9968 200.376ZM88.9968 202.863C89.5297 202.863 90.0626 202.33 90.0626 201.708C90.0626 201.087 89.6185 200.554 88.9968 200.554C88.375 200.554 87.9309 201.087 87.9309 201.708C87.9309 202.419 88.375 202.863 88.9968 202.863Z" fill="#C7C7C7"/>
<path d="M91.2172 200.465C91.2172 200.376 91.306 200.287 91.3949 200.287C91.4837 200.287 91.4837 200.376 91.4837 200.465V201.087V200.998C91.6613 200.643 92.1054 200.287 92.6383 200.287C92.7272 200.287 92.816 200.376 92.816 200.465C92.816 200.554 92.7272 200.643 92.6383 200.643C92.2831 200.643 92.0166 200.82 91.839 201.087C91.6613 201.353 91.5725 201.62 91.4837 201.708C91.4837 201.708 91.4837 201.708 91.4837 201.797V203.041C91.4837 203.13 91.3949 203.218 91.3949 203.218C91.306 203.218 91.2172 203.13 91.2172 203.041V200.465Z" fill="#C7C7C7"/>
<path d="M95.9243 202.597C95.6578 202.952 95.3026 203.13 94.8585 203.13C94.0591 203.13 93.5262 202.508 93.5262 201.708C93.5262 200.909 94.1479 200.287 94.8585 200.287C95.3026 200.287 95.6578 200.465 95.9243 200.82V199.222C95.9243 199.133 96.0131 199.044 96.1019 199.044C96.1907 199.044 96.2796 199.133 96.2796 199.222V201.62V201.708V202.952C96.2796 203.041 96.1907 203.13 96.1019 203.13C96.0131 203.13 95.9243 203.041 95.9243 202.952V202.597ZM95.9243 201.797V201.708C95.9243 201.087 95.3914 200.643 94.8585 200.643C94.2367 200.643 93.7926 201.176 93.7926 201.797C93.7926 202.419 94.3255 202.952 94.8585 202.952C95.3914 202.863 95.8355 202.419 95.9243 201.797Z" fill="#C7C7C7"/>
<path d="M97.1679 201.797C97.1679 200.998 97.7896 200.376 98.5001 200.376C99.2107 200.376 99.8324 200.909 99.8324 201.708C99.8324 201.797 99.7436 201.797 99.6548 201.797H97.3455C97.3455 202.419 97.8784 202.863 98.4113 202.863C98.7666 202.863 99.1219 202.685 99.2995 202.33C99.2995 202.241 99.3883 202.241 99.4772 202.241C99.566 202.33 99.566 202.33 99.566 202.419C99.2995 202.774 98.9442 203.041 98.4113 203.041C97.7896 203.218 97.1679 202.508 97.1679 201.797ZM97.4343 201.531H99.566C99.4772 200.998 99.0331 200.643 98.5001 200.643C97.9672 200.643 97.5231 200.998 97.4343 201.531Z" fill="#C7C7C7"/>
<path d="M100.721 200.465C100.721 200.376 100.809 200.287 100.898 200.287C100.987 200.287 100.987 200.376 100.987 200.465V201.087V200.998C101.165 200.643 101.609 200.287 102.142 200.287C102.231 200.287 102.319 200.376 102.319 200.465C102.319 200.554 102.231 200.643 102.142 200.643C101.786 200.643 101.52 200.82 101.342 201.087C101.165 201.353 101.076 201.62 100.987 201.708C100.987 201.708 100.987 201.708 100.987 201.797V203.041C100.987 203.13 100.898 203.218 100.898 203.218C100.809 203.218 100.721 203.13 100.721 203.041V200.465Z" fill="#C7C7C7"/>
<path d="M107.293 202.597C107.027 202.952 106.672 203.13 106.228 203.13C105.428 203.13 104.895 202.508 104.895 201.708C104.895 200.909 105.517 200.287 106.228 200.287C106.672 200.287 107.027 200.465 107.293 200.82V199.222C107.293 199.133 107.382 199.044 107.471 199.044C107.56 199.044 107.649 199.133 107.649 199.222V201.62V201.708V202.952C107.649 203.041 107.56 203.13 107.471 203.13C107.382 203.13 107.293 203.041 107.293 202.952V202.597ZM107.293 201.797V201.708C107.293 201.087 106.761 200.643 106.228 200.643C105.606 200.643 105.162 201.176 105.162 201.797C105.162 202.419 105.695 202.952 106.228 202.952C106.761 202.863 107.205 202.419 107.293 201.797Z" fill="#C7C7C7"/>
<path d="M108.537 201.797C108.537 200.998 109.159 200.376 109.869 200.376C110.58 200.376 111.202 200.909 111.202 201.708C111.202 201.797 111.113 201.797 111.024 201.797H108.803C108.803 202.419 109.336 202.863 109.869 202.863C110.225 202.863 110.58 202.685 110.757 202.33C110.757 202.241 110.846 202.241 110.935 202.241C111.024 202.33 111.024 202.33 111.024 202.419C110.757 202.774 110.402 203.041 109.869 203.041C109.159 203.218 108.537 202.508 108.537 201.797ZM108.803 201.531H110.935C110.846 200.998 110.402 200.643 109.869 200.643C109.336 200.643 108.892 200.998 108.803 201.531Z" fill="#C7C7C7"/>
<path d="M112.978 200.465C112.978 200.554 112.889 200.643 112.8 200.643H112.445V202.685C112.445 202.863 112.623 202.863 112.623 202.863C112.711 202.863 112.8 202.952 112.8 203.041C112.8 203.13 112.711 203.218 112.623 203.218C112.356 203.218 112.09 203.041 112.09 202.685V200.643H111.734C111.557 200.643 111.557 200.554 111.557 200.465C111.557 200.376 111.557 200.287 111.734 200.287H112.09V199.222C112.09 199.133 112.178 199.044 112.267 199.044C112.356 199.044 112.445 199.133 112.445 199.222V200.287H112.8C112.889 200.376 112.978 200.465 112.978 200.465Z" fill="#C7C7C7"/>
<path d="M116.442 200.465V203.04C116.442 203.129 116.353 203.218 116.264 203.218C116.175 203.218 116.086 203.129 116.086 203.04V202.596C115.82 202.952 115.465 203.129 115.021 203.129C114.31 203.129 113.688 202.508 113.688 201.708C113.688 200.909 114.31 200.287 115.021 200.287C115.465 200.287 115.82 200.465 116.086 200.82V200.376C116.086 200.287 116.175 200.198 116.264 200.198C116.442 200.376 116.442 200.376 116.442 200.465ZM116.175 201.797C116.175 201.175 115.731 200.642 115.109 200.642C114.576 200.642 114.044 201.175 114.044 201.797C114.044 202.419 114.488 202.952 115.109 202.952C115.731 202.863 116.175 202.419 116.175 201.797Z" fill="#C7C7C7"/>
<path d="M117.685 199.577C117.685 199.488 117.774 199.399 117.863 199.399C117.952 199.399 118.04 199.488 118.04 199.577V199.666C118.04 199.754 117.952 199.843 117.863 199.843C117.774 199.843 117.685 199.754 117.685 199.666V199.577ZM117.685 200.465C117.685 200.376 117.774 200.287 117.863 200.287C117.952 200.287 118.04 200.376 118.04 200.465V203.041C118.04 203.13 117.952 203.218 117.863 203.218C117.774 203.218 117.685 203.13 117.685 203.041V200.465Z" fill="#C7C7C7"/>
<path d="M119.195 199.31C119.195 199.221 119.284 199.132 119.373 199.132C119.462 199.132 119.551 199.221 119.551 199.31V203.04C119.551 203.129 119.462 203.218 119.373 203.218C119.284 203.218 119.195 203.129 119.195 203.04V199.31Z" fill="#C7C7C7"/>
<path d="M120.439 202.596C120.527 202.508 120.527 202.508 120.616 202.596C120.794 202.774 121.149 202.952 121.504 202.952C121.682 202.952 121.948 202.863 122.037 202.774C122.215 202.685 122.215 202.596 122.215 202.419C122.215 202.33 122.126 202.152 122.037 202.063C121.948 201.975 121.682 201.886 121.416 201.886C121.149 201.797 120.971 201.797 120.794 201.708C120.616 201.619 120.527 201.442 120.527 201.175C120.527 200.909 120.616 200.731 120.794 200.642C120.971 200.554 121.238 200.465 121.504 200.465C121.86 200.465 122.126 200.642 122.304 200.731C122.393 200.82 122.393 200.82 122.304 200.909C122.304 200.998 122.215 200.998 122.126 200.909C121.948 200.731 121.682 200.642 121.416 200.642C121.149 200.642 120.971 200.731 120.883 200.82C120.794 200.909 120.705 200.998 120.705 201.175C120.705 201.264 120.794 201.353 120.883 201.442C120.971 201.531 121.238 201.619 121.416 201.619C121.682 201.619 121.948 201.708 122.126 201.886C122.304 201.975 122.481 202.241 122.481 202.419C122.481 202.685 122.393 202.863 122.126 202.952C121.948 203.129 121.682 203.218 121.416 203.218C120.971 203.218 120.616 203.04 120.35 202.774C120.35 202.685 120.35 202.685 120.439 202.596Z" fill="#C7C7C7"/>
<path d="M123.636 202.597C123.814 202.597 123.902 202.685 123.902 202.863C123.902 203.041 123.814 203.13 123.636 203.13C123.458 203.13 123.37 203.041 123.37 202.863C123.37 202.774 123.547 202.597 123.636 202.597Z" fill="#C7C7C7"/>
</svg>
