<svg width="23" height="20" viewBox="0 0 23 20" fill="none" xmlns="http://www.w3.org/2000/svg">
<path d="M7.35366 13.3357H19.4001C19.5451 13.3359 19.6863 13.2888 19.802 13.2014C19.9177 13.114 20.0017 12.9911 20.0412 12.8516L22.7088 3.51671C22.7373 3.41745 22.7423 3.31293 22.7235 3.21138C22.7047 3.10983 22.6626 3.01405 22.6004 2.93159C22.5382 2.84913 22.4577 2.78227 22.3653 2.73627C22.2728 2.69027 22.1709 2.66639 22.0676 2.66654H5.81435L5.33725 0.522105C5.30427 0.374006 5.22179 0.241575 5.10341 0.146658C4.98504 0.0517418 4.83785 1.10067e-05 4.68612 0L0.641308 0C0.468974 0.00667656 0.305921 0.0798321 0.186355 0.20412C0.0667885 0.328408 0 0.494171 0 0.666634C0 0.839098 0.0667885 1.00486 0.186355 1.12915C0.305921 1.25344 0.468974 1.32659 0.641308 1.33327H4.15101L6.5585 12.1695C6.1377 12.3531 5.79289 12.6759 5.58194 13.0838C5.371 13.4916 5.30675 13.9595 5.4 14.4091C5.49324 14.8586 5.7383 15.2625 6.09403 15.5527C6.44977 15.843 6.89453 16.0021 7.35366 16.0032H19.4001C19.5724 15.9965 19.7355 15.9234 19.855 15.7991C19.9746 15.6748 20.0414 15.5091 20.0414 15.3366C20.0414 15.1641 19.9746 14.9984 19.855 14.8741C19.7355 14.7498 19.5724 14.6766 19.4001 14.67H7.35366C7.26394 14.6734 7.17445 14.6588 7.09054 14.6268C7.00662 14.5949 6.93002 14.5463 6.86532 14.4841C6.80062 14.4219 6.74914 14.3472 6.71398 14.2646C6.67882 14.182 6.6607 14.0931 6.6607 14.0033C6.6607 13.9135 6.67882 13.8247 6.71398 13.7421C6.74914 13.6595 6.80062 13.5848 6.86532 13.5225C6.93002 13.4603 7.00662 13.4118 7.09054 13.3798C7.17445 13.3479 7.26394 13.3332 7.35366 13.3367V13.3357Z" fill="#4A4B4D"/>
<path d="M6.68653 17.9996C6.68653 18.3952 6.80385 18.782 7.02366 19.111C7.24347 19.4399 7.55588 19.6963 7.92141 19.8477C8.28694 19.9991 8.68915 20.0388 9.07719 19.9616C9.46523 19.8844 9.82167 19.6939 10.1014 19.4141C10.3812 19.1343 10.5717 18.7779 10.6489 18.3898C10.7261 18.0018 10.6865 17.5996 10.5351 17.2341C10.3837 16.8685 10.1273 16.5561 9.7983 16.3363C9.46933 16.1165 9.08257 15.9992 8.68693 15.9992C8.15639 15.9992 7.64758 16.2099 7.27243 16.5851C6.89728 16.9602 6.68653 17.4691 6.68653 17.9996Z" fill="#4A4B4D"/>
<path d="M16.0624 17.9996C16.0624 18.3952 16.1798 18.782 16.3996 19.111C16.6194 19.4399 16.9318 19.6963 17.2973 19.8477C17.6628 19.9991 18.065 20.0388 18.4531 19.9616C18.8411 19.8844 19.1976 19.6939 19.4773 19.4141C19.7571 19.1343 19.9476 18.7779 20.0248 18.3898C20.102 18.0018 20.0624 17.5996 19.911 17.2341C19.7596 16.8685 19.5032 16.5561 19.1742 16.3363C18.8452 16.1165 18.4585 15.9992 18.0628 15.9992C17.5323 15.9992 17.0235 16.2099 16.6483 16.5851C16.2732 16.9602 16.0624 17.4691 16.0624 17.9996Z" fill="#4A4B4D"/>
</svg>
