<svg width="124" height="99" viewBox="0 0 124 99" fill="none" xmlns="http://www.w3.org/2000/svg">
<path opacity="0.5" d="M117.993 34.6443L29.2999 4.02069C24.7761 2.45874 19.7969 4.88206 18.235 9.40584L1.85818 56.837C0.296238 61.3608 2.71956 66.34 7.24334 67.902L95.9369 98.5256C100.461 100.088 105.44 97.6642 107.002 93.1404L123.379 45.7093C124.803 41.1381 122.517 36.2062 117.993 34.6443Z" fill="#808080"/>
<path d="M116.61 31.098L27.9162 0.474405C23.3924 -1.08754 18.4131 1.33578 16.8512 5.85956L0.474425 53.2907C-1.08752 57.8145 1.3358 62.7938 5.85958 64.3557L94.5531 94.9793C99.0769 96.5413 104.056 94.1179 105.618 89.5942L121.995 42.163C123.42 37.5919 121.133 32.66 116.61 31.098Z" fill="#278704"/>
<path d="M40.123 12.6672L29.4304 8.97537C26.5516 7.98141 25.0763 8.69943 24.0824 11.5782L20.3905 22.2708C19.3965 25.1495 20.1145 26.6249 22.9933 27.6188L33.6859 31.3107C36.5647 32.3047 38.04 31.5867 39.0339 28.7079L42.7258 18.0153C43.7198 15.1365 43.0018 13.6612 40.123 12.6672Z" fill="#FFFBC0"/>
<path d="M96.9546 72.0273L83.3832 67.3414C79.6819 66.0635 78.0744 66.2756 77.4118 68.1948L74.9505 75.3232C74.2879 77.2423 75.4221 78.4011 79.1234 79.679L92.6947 84.3649C96.396 85.6428 98.0035 85.4307 98.6661 83.5115L101.127 76.3832C101.653 74.4166 100.519 73.2579 96.9546 72.0273Z" fill="#F6F6F6"/>
<path d="M96.0614 35.5102C95.9243 35.4629 95.7872 35.4155 95.6501 35.3682C95.3759 35.2735 95.2389 35.2262 95.1491 35.0418C95.012 34.9945 94.9223 34.81 94.8325 34.6256C94.6057 34.3939 94.653 34.2568 94.6106 33.9353C94.6579 33.7982 94.7526 33.524 94.8472 33.2499C95.0366 32.7015 95.3157 32.3376 95.5474 32.1108C95.9162 31.9313 96.2377 31.8889 96.649 32.0308C96.7861 32.0782 96.7861 32.0782 96.9232 32.1255C97.0602 32.1728 97.0602 32.1728 97.1973 32.2202L97.3344 32.2675L97.4715 32.3148C97.5188 32.1778 97.6559 32.2251 97.7032 32.088C97.7506 31.9509 97.7506 31.9509 97.7979 31.8138C97.6608 31.7665 97.5711 31.5821 97.434 31.5348C97.2969 31.4874 97.0227 31.3928 96.8856 31.3454C96.6115 31.2508 96.3373 31.1561 96.0158 31.1985C95.647 31.378 95.4626 31.4678 95.2308 31.6946C95.0464 31.7844 94.8146 32.0112 94.5829 32.238C94.3512 32.4649 94.2565 32.739 94.1145 33.1503C94.0198 33.4245 93.8778 33.8357 93.9676 34.0201C94.01 34.3416 94.0998 34.5261 94.1422 34.8476C94.2319 35.032 94.4588 35.2637 94.5485 35.4481C94.7754 35.6799 95.0495 35.7745 95.3237 35.8692C95.5979 35.9639 95.735 36.0112 95.872 36.0585C96.0091 36.1059 96.1935 36.0161 96.4677 36.1108C96.515 35.9737 96.4253 35.7893 96.4726 35.6522C96.3829 35.4678 96.2458 35.4204 96.0614 35.5102Z" fill="white"/>
<path d="M99.5505 35.1807C99.6876 35.228 99.7349 35.0909 99.872 35.1382C100.056 35.0485 100.056 35.0485 100.241 34.9587C100.288 34.8217 100.336 34.6846 100.473 34.7319C100.52 34.5948 100.567 34.4577 100.615 34.3206C100.709 34.0465 100.757 33.9094 100.714 33.5879C100.624 33.4035 100.535 33.2191 100.445 33.0346C100.355 32.8502 100.218 32.8029 99.9439 32.7082C99.8068 32.6609 99.5326 32.5662 99.3956 32.5189C99.2585 32.4716 99.2585 32.4716 99.1214 32.4242C99.1214 32.4242 98.9843 32.3769 98.8472 32.3296L98.7101 32.2822C98.5731 32.2349 98.5731 32.2349 98.436 32.1876L97.016 36.3001L97.1531 36.3474L97.2902 36.3948L97.4273 36.4421L97.5644 36.4894L98.8423 32.7882C98.9794 32.8355 98.9794 32.8355 98.9794 32.8355L99.1165 32.8828C99.3907 32.9775 99.6648 33.0722 99.7546 33.2566C99.8443 33.441 99.9341 33.6254 99.8394 33.8996C99.7921 34.0367 99.7448 34.1737 99.5603 34.2635C99.513 34.4006 99.3759 34.3532 99.1915 34.443C99.0071 34.5328 98.87 34.4854 98.87 34.4854C98.7329 34.4381 98.5485 34.5278 98.5485 34.5278L99.2567 36.9203C99.3938 36.9677 99.5309 37.015 99.5309 37.015C99.668 37.0623 99.805 37.1097 99.9421 37.157L99.5505 35.1807Z" fill="white"/>
<path d="M101.318 37.1717L101.791 35.8008L103.162 36.2741L103.209 36.1371L103.257 36L103.304 35.8629L103.351 35.7258L101.98 35.2525L102.359 34.1558L104.004 34.7238L104.051 34.5867L104.099 34.4496C104.146 34.3125 104.146 34.3125 104.193 34.1755L101.863 33.3708L100.443 37.4834L102.774 38.288L102.821 38.1509L102.868 38.0138C102.916 37.8767 102.916 37.8767 102.963 37.7397L101.318 37.1717Z" fill="white"/>
<path d="M106.16 34.7011C106.023 34.6537 105.749 34.5591 105.612 34.5117C105.475 34.4644 105.338 34.4171 105.2 34.3697L103.781 38.4823C103.918 38.5296 104.055 38.5769 104.192 38.6243C104.329 38.6716 104.603 38.7663 104.74 38.8136C105.426 39.0502 106.021 39.1025 106.574 38.8332C107.128 38.564 107.407 38.2001 107.691 37.3775C107.927 36.6921 107.98 36.0965 107.71 35.5432C107.436 35.4485 106.983 34.985 106.16 34.7011ZM106.627 38.2376C106.395 38.4644 106.348 38.6015 106.163 38.6912C105.979 38.781 105.842 38.7337 105.52 38.7761C105.383 38.7287 105.062 38.7712 104.787 38.6765C104.65 38.6292 104.65 38.6292 104.513 38.5818C104.376 38.5345 104.376 38.5345 104.376 38.5345L105.559 35.1074C105.559 35.1074 105.697 35.1547 105.834 35.2021C105.971 35.2494 105.971 35.2494 106.108 35.2967C106.382 35.3914 106.519 35.4387 106.609 35.6231C106.746 35.6705 106.836 35.8549 107.063 36.0866C107.152 36.271 107.242 36.4555 107.147 36.7296C107.1 36.8667 107.142 37.1882 107.048 37.4624C106.953 37.7366 106.721 37.9634 106.627 38.2376Z" fill="white"/>
<path d="M109.403 35.9741L109.266 35.9268L109.129 35.8794L107.709 39.992L107.846 40.0393L107.983 40.0866L108.12 40.134L108.257 40.1813L109.677 36.0688L109.54 36.0214C109.54 36.0214 109.54 36.0214 109.403 35.9741Z" fill="white"/>
<path d="M110.362 36.3055C110.315 36.4426 110.268 36.5797 110.268 36.5797L110.22 36.7168L110.173 36.8538L111.27 37.2325L109.992 40.9338C110.129 40.9811 110.129 40.9811 110.266 41.0284C110.403 41.0758 110.54 41.1231 110.54 41.1231L111.818 37.4218L112.915 37.8005L112.962 37.6634L113.009 37.5263L113.057 37.3892L113.104 37.2521L110.362 36.3055Z" fill="white"/>
<path d="M93.6948 42.3645C93.5577 42.3171 93.4206 42.2698 93.2835 42.2225C93.0093 42.1278 92.8723 42.0805 92.7825 41.8961C92.6927 41.7116 92.5557 41.6643 92.4659 41.4799C92.3762 41.2955 92.2864 41.1111 92.3811 40.8369C92.4284 40.6998 92.386 40.3783 92.4806 40.1041C92.67 39.5558 92.9491 39.1919 93.1808 38.9651C93.5496 38.7855 93.8711 38.7431 94.2824 38.8851C94.4195 38.9325 94.4195 38.9325 94.5566 38.9798C94.6936 39.0271 94.6936 39.0271 94.8307 39.0744L94.9678 39.1218L95.1049 39.1691C95.1522 39.032 95.2893 39.0794 95.3366 38.9423C95.384 38.8052 95.384 38.8052 95.4313 38.6681C95.2942 38.6208 95.2045 38.4364 95.0674 38.389C94.9303 38.3417 94.6561 38.247 94.519 38.1997C94.2449 38.105 93.9707 38.0104 93.6492 38.0528C93.3277 38.0952 93.1433 38.185 92.9589 38.2747C92.7745 38.3645 92.5427 38.5913 92.311 38.8181C92.0792 39.045 91.9846 39.3192 91.8899 39.5933C91.7952 39.8675 91.6532 40.2787 91.743 40.4632C91.7854 40.7847 91.8278 41.1062 91.9176 41.2906C92.0073 41.475 92.2342 41.7067 92.3239 41.8912C92.5508 42.1229 92.8249 42.2176 93.0991 42.3122C93.3733 42.4069 93.5103 42.4542 93.6474 42.5016C93.7845 42.5489 93.9689 42.4591 94.2431 42.5538C94.2904 42.4167 94.2007 42.2323 94.248 42.0952C93.9689 42.4591 93.8318 42.4118 93.6948 42.3645Z" fill="white"/>
<path d="M97.7145 39.6098L97.5774 39.5625L97.4403 39.5152L97.3032 39.4678L94.5124 43.1071L94.6495 43.1544L94.7866 43.2017L94.9237 43.249L95.0608 43.2964L95.6663 42.4315L97.1742 42.9521L97.117 44.0064L97.2541 44.0537L97.3912 44.101L97.5283 44.1484L97.6654 44.1957L97.7145 39.6098C97.7145 39.6098 97.8516 39.6572 97.7145 39.6098ZM95.9453 42.0675L97.2037 40.2006L97.1791 42.4935L95.9453 42.0675Z" fill="white"/>
<path d="M100.564 43.3552C100.701 43.4025 100.748 43.2654 100.885 43.3128C101.07 43.223 101.07 43.223 101.254 43.1333C101.439 43.0435 101.439 43.0435 101.623 42.9538C101.67 42.8167 101.718 42.6796 101.765 42.5425C101.86 42.2683 101.907 42.1313 101.817 41.9468C101.727 41.7624 101.638 41.578 101.548 41.3936C101.458 41.2092 101.321 41.1618 101.047 41.0672C100.91 41.0199 100.636 40.9252 100.499 40.8779C100.361 40.8305 100.361 40.8305 100.224 40.7832C100.087 40.7359 100.087 40.7359 99.9502 40.6885C99.8131 40.6412 99.8131 40.6412 99.6761 40.5939C99.539 40.5465 99.539 40.5465 99.4019 40.4992L97.9819 44.6117L98.119 44.6591L98.2561 44.7064L98.3932 44.7537L98.5303 44.8011L99.8082 41.0998C99.9453 41.1471 99.9453 41.1471 100.082 41.1944L100.219 41.2418C100.494 41.3364 100.768 41.4311 100.858 41.6155C100.947 41.7999 101.037 41.9844 100.942 42.2585C100.895 42.3956 100.848 42.5327 100.663 42.6224C100.616 42.7595 100.479 42.7122 100.295 42.8019C100.11 42.8917 99.973 42.8444 99.973 42.8444C99.8359 42.797 99.6515 42.8868 99.6515 42.8868L100.36 45.2793C100.497 45.3266 100.634 45.3739 100.634 45.3739C100.771 45.4213 100.908 45.4686 100.908 45.4686L100.564 43.3552Z" fill="white"/>
<path d="M104.294 41.8817C104.157 41.8343 103.883 41.7397 103.746 41.6924C103.609 41.645 103.472 41.5977 103.335 41.5504L101.915 45.6629C102.052 45.7102 102.189 45.7575 102.326 45.8049C102.463 45.8522 102.737 45.9469 102.875 45.9942C103.56 46.2309 104.156 46.2831 104.709 46.0139C105.262 45.7446 105.589 45.2436 105.825 44.5582C106.062 43.8727 106.114 43.2771 105.845 42.7238C105.481 42.4448 104.98 42.1183 104.294 41.8817ZM104.671 45.2338C104.44 45.4606 104.392 45.5977 104.208 45.6874C104.023 45.7772 103.839 45.8669 103.565 45.7723C103.428 45.725 103.106 45.7674 102.969 45.72C102.832 45.6727 102.832 45.6727 102.695 45.6254C102.558 45.578 102.558 45.578 102.558 45.578L103.647 42.4251C103.647 42.4251 103.784 42.4724 103.921 42.5198C104.058 42.5671 104.058 42.5671 104.195 42.6144C104.469 42.7091 104.606 42.7564 104.696 42.9408C104.833 42.9882 104.923 43.1726 105.15 43.4043C105.239 43.5888 105.329 43.7732 105.234 44.0473C105.14 44.3215 105.229 44.5059 105.135 44.7801C104.95 44.8698 104.856 45.144 104.671 45.2338Z" fill="white"/>
<path d="M19.0223 38.6754C19.0697 38.5383 19.117 38.4013 19.259 37.99L21.1049 32.6437L20.9678 32.5964L19.1759 32.8982L19.2657 33.0827C19.5872 33.0402 19.7243 33.0876 19.7243 33.0876C19.8613 33.1349 19.8613 33.1349 19.9511 33.3193C19.9511 33.3193 20.0409 33.5037 19.9935 33.6408C19.9462 33.7779 19.8515 34.0521 19.7095 34.4633L18.5262 37.8904C18.3842 38.3017 18.3369 38.4388 18.2896 38.5759C18.2422 38.7129 18.1052 38.6656 18.1052 38.6656C17.9681 38.6183 17.831 38.5709 17.5095 38.6134L17.4622 38.7504L19.7926 39.5551L19.8399 39.418C19.5658 39.3233 19.2916 39.2287 19.3389 39.0916C19.0648 38.9969 18.975 38.8125 19.0223 38.6754Z" fill="white"/>
<path d="M25.059 40.2994C24.8746 40.3891 24.7375 40.3418 24.6004 40.2945C24.4633 40.2471 24.1892 40.1525 23.915 40.0578L22.27 39.4898C22.4544 39.4001 23.1921 39.0411 24.1615 38.4552C24.8991 38.0962 25.4997 37.6899 25.8261 37.1889C26.0579 36.962 26.3369 36.5981 26.4316 36.3239C26.5736 35.9127 26.5785 35.4541 26.3093 34.9008C26.1298 34.532 25.6761 34.0685 25.2648 33.9265C24.7165 33.7372 24.395 33.7796 23.8891 33.9118C23.5202 34.0913 23.1041 34.4079 22.8674 35.0933L23.0045 35.1406C23.2836 34.7767 23.5153 34.5499 23.8368 34.5075C24.1583 34.465 24.4798 34.4226 24.754 34.5173C25.1652 34.6593 25.3921 34.891 25.4345 35.2125C25.614 35.5814 25.6564 35.9029 25.5144 36.3141C25.3251 36.8624 24.8616 37.3161 24.2137 37.8595C23.5658 38.403 22.4593 38.9415 21.0313 39.5224L20.984 39.6595L24.6852 40.9375L25.5225 39.8457L25.3854 39.7984C25.3805 40.257 25.1961 40.3467 25.059 40.2994Z" fill="white"/>
<path d="M29.7542 38.6986C30.4918 38.3396 30.908 38.023 31.05 37.6118C31.1446 37.3376 31.1022 37.0161 31.0598 36.6946C30.8803 36.3258 30.5637 35.9096 30.0154 35.7203C29.6041 35.5783 29.2826 35.6207 28.9138 35.8002C28.545 35.9797 28.1761 36.1592 27.897 36.5231L27.9868 36.7076C28.4503 36.2539 28.9562 36.1217 29.5045 36.311C29.7787 36.4057 30.0055 36.6374 30.2324 36.8692C30.4592 37.1009 30.3646 37.3751 30.2226 37.7864C30.1279 38.0605 30.0806 38.1976 29.8488 38.4245C29.6171 38.6513 29.4327 38.741 29.1112 38.7835C28.7897 38.8259 28.4682 38.8683 28.3311 38.821L28.2837 38.9581L28.4208 39.0054C28.695 39.1001 28.9692 39.1947 29.0589 39.3791C29.2858 39.6109 29.3755 39.7953 29.5126 39.8426C29.6023 40.027 29.6921 40.2115 29.6448 40.3485C29.6872 40.67 29.6399 40.8071 29.5452 41.0813C29.4032 41.4926 29.1714 41.7194 28.8499 41.7618C28.4811 41.9413 28.1596 41.9837 27.8854 41.8891C27.7484 41.8417 27.6113 41.7944 27.4742 41.7471C27.4742 41.7471 27.3844 41.5627 27.1103 41.468C27.0205 41.2836 26.8834 41.2363 26.8834 41.2363C26.7464 41.1889 26.7464 41.1889 26.6093 41.1416C26.4722 41.0943 26.4722 41.0943 26.2878 41.184C26.1507 41.1367 26.1507 41.1367 26.1033 41.2738C26.056 41.4108 26.1458 41.5953 26.2829 41.6426C26.3726 41.827 26.6468 41.9217 27.058 42.0637C27.8805 42.3477 28.6606 42.3102 29.3983 41.9511C29.9515 41.6819 30.2306 41.318 30.4199 40.7696C30.5619 40.3584 30.5195 40.0369 30.4771 39.7154C30.2976 39.3465 30.1181 38.9777 29.7542 38.6986Z" fill="white"/>
<path d="M36.3213 37.8975L35.773 37.7082L31.2898 40.9165L31.1005 41.4649L33.8422 42.4115L33.2742 44.0565L34.0967 44.3405L34.6647 42.6955L35.4872 42.9795L35.7239 42.2941L34.9014 42.0101L36.3213 37.8975ZM34.0315 41.8632L31.8382 41.1059L35.1202 38.7102L34.0315 41.8632Z" fill="white"/>
<path d="M42.8539 40.3064C42.5797 40.2118 42.2582 40.2542 41.9367 40.2966C41.4308 40.4288 41.0146 40.7454 40.6882 41.2464C40.2247 41.7 40.0354 42.2484 39.7514 43.0709C39.4674 43.8934 39.3678 44.6262 39.5424 45.4536C39.717 46.281 40.1234 46.8816 40.6717 47.0709C40.9459 47.1656 41.4045 47.1705 41.7733 46.991C42.1421 46.8115 42.511 46.6319 42.9745 46.1783C43.438 45.7246 43.6273 45.1763 43.9113 44.3538C44.2899 43.2571 44.2997 42.3399 44.0778 41.6496C43.5817 40.8646 43.2651 40.4484 42.8539 40.3064ZM41.8305 45.9367C41.5514 46.3006 41.367 46.3904 41.1352 46.6172C40.9508 46.707 40.6293 46.7494 40.4922 46.7021C40.081 46.5601 40.0385 46.2386 39.9064 45.7326C39.8215 45.0896 40.0582 44.4042 40.3895 43.4446C40.5788 42.8963 40.7682 42.348 41.0946 41.847C41.421 41.3459 41.7001 40.982 41.9318 40.7552C42.1162 40.6654 42.3006 40.5757 42.5748 40.6703C42.7119 40.7177 42.849 40.765 42.9387 40.9494C43.0285 41.1338 43.0709 41.4553 43.066 41.9139C43.0137 42.5096 42.9615 43.1053 42.7248 43.7907C42.5306 44.7976 42.1569 45.4357 41.8305 45.9367Z" fill="white"/>
<path d="M47.6518 41.9631C47.3777 41.8684 47.0562 41.9108 46.7347 41.9532C46.2288 42.0854 45.8126 42.402 45.4862 42.903C45.0227 43.3567 44.8334 43.905 44.5494 44.7275C44.2654 45.55 44.1658 46.2828 44.3404 47.1102C44.515 47.9376 44.9213 48.5382 45.4697 48.7275C45.7438 48.8222 46.2024 48.8271 46.5713 48.6476C46.9401 48.4681 47.3089 48.2886 47.7724 47.8349C48.2359 47.3812 48.4252 46.8329 48.7092 46.0104C49.0879 44.9137 49.0977 43.9965 48.8758 43.3062C48.5168 42.5685 48.0631 42.1051 47.6518 41.9631ZM46.6284 47.5933C46.3493 47.9573 46.1649 48.047 45.9332 48.2738C45.7487 48.3636 45.4272 48.406 45.2902 48.3587C45.016 48.264 44.8365 47.8952 44.7043 47.3893C44.6195 46.7463 44.8561 46.0609 45.1875 45.1013C45.3768 44.5529 45.5661 44.0046 45.8925 43.5036C46.0818 42.9552 46.498 42.6387 46.7298 42.4118C46.9142 42.3221 47.2357 42.2796 47.3728 42.327C47.5098 42.3743 47.6469 42.4216 47.7367 42.6061C47.8264 42.7905 47.8689 43.112 47.8639 43.5706C47.8117 44.1662 47.7595 44.7619 47.5228 45.4473C47.3286 46.4542 46.9548 47.0923 46.6284 47.5933Z" fill="white"/>
<path d="M52.4498 43.6197C52.1756 43.525 51.8541 43.5674 51.5326 43.6099C51.0267 43.742 50.6105 44.0586 50.2841 44.5596C49.8206 45.0133 49.6313 45.5617 49.3473 46.3842C49.0633 47.2067 48.9638 47.9394 49.1384 48.7668C49.3129 49.5942 49.5822 50.1475 50.2676 50.3842C50.5418 50.4788 50.8633 50.4364 51.3692 50.3042C51.738 50.1247 52.1069 49.9452 52.5704 49.4915C53.0339 49.0379 53.2232 48.4895 53.5072 47.667C53.8858 46.5703 53.8957 45.6532 53.6737 44.9628C53.3147 44.2252 52.861 43.7617 52.4498 43.6197ZM51.4264 49.25C51.1473 49.6139 50.9629 49.7036 50.7311 49.9305C50.5467 50.0202 50.2252 50.0627 50.0881 50.0153C49.814 49.9207 49.6344 49.5518 49.5023 49.0459C49.4174 48.4029 49.6541 47.7175 49.9854 46.7579C50.1747 46.2096 50.3641 45.6612 50.6905 45.1602C50.8798 44.6119 51.296 44.2953 51.5277 44.0685C51.7121 43.9787 52.0336 43.9363 52.1707 43.9836C52.3078 44.0309 52.4449 44.0783 52.5346 44.2627C52.6244 44.4471 52.6668 44.7686 52.6619 45.2272C52.6097 45.8229 52.5574 46.4185 52.3208 47.104C52.1265 48.1109 51.8899 48.7963 51.4264 49.25Z" fill="white"/>
<path d="M57.2478 45.2762C56.9736 45.1815 56.6521 45.224 56.3306 45.2664C55.8247 45.3986 55.4085 45.7151 55.0821 46.2162C54.6186 46.6698 54.4293 47.2182 54.1453 48.0407C53.8613 48.8632 53.7617 49.5959 53.9363 50.4233C54.1109 51.2508 54.3802 51.804 55.0656 52.0407C55.3397 52.1353 55.6613 52.0929 56.1672 51.9607C56.536 51.7812 56.9048 51.6017 57.3683 51.148C57.8318 50.6944 58.0211 50.146 58.3051 49.3235C58.6838 48.2269 58.6936 47.3097 58.4717 46.6194C58.1127 45.8817 57.659 45.4182 57.2478 45.2762ZM56.3614 50.9538C56.0823 51.3177 55.8979 51.4075 55.6662 51.6343C55.4817 51.7241 55.2973 51.8138 55.0232 51.7192C54.6119 51.5772 54.4324 51.2083 54.4373 50.7498C54.3525 50.1068 54.5891 49.4213 54.9205 48.4617C55.1098 47.9134 55.2991 47.3651 55.6255 46.8641C55.9519 46.3631 56.231 45.9991 56.4628 45.7723C56.6472 45.6825 56.9687 45.6401 57.1058 45.6875C57.2428 45.7348 57.3799 45.7821 57.4697 45.9665C57.5594 46.151 57.6018 46.4725 57.5969 46.931C57.5447 47.5267 57.4925 48.1224 57.2558 48.8078C56.9245 49.7674 56.6878 50.4528 56.3614 50.9538Z" fill="white"/>
<path d="M16.6557 45.5296C16.3815 45.4349 16.1971 45.5247 16.0127 45.6144C15.6912 45.6569 15.4594 45.8837 15.0433 46.2003C14.7642 46.5642 14.4851 46.9281 14.2958 47.4765C14.1064 48.0248 14.0542 48.6205 14.0493 49.0791C14.1341 49.7221 14.4507 50.1382 14.862 50.2802C15.1361 50.3749 15.3206 50.2851 15.6421 50.2427C15.9636 50.2003 16.1953 49.9735 16.4744 49.6095C16.7535 49.2456 17.0325 48.8817 17.2219 48.3334C17.4585 47.6479 17.5581 46.9152 17.2888 46.3619C17.1093 45.9931 16.9298 45.6243 16.6557 45.5296ZM15.8787 49.5573C15.7841 49.8315 15.5996 49.9212 15.4152 50.011C15.2308 50.1007 15.0937 50.0534 14.9566 50.0061C14.6825 49.9114 14.5927 49.727 14.5976 49.2684C14.6025 48.8098 14.6075 48.3512 14.8441 47.6658C14.9861 47.2545 15.1281 46.8433 15.3598 46.6165C15.5018 46.2052 15.7336 45.9784 15.918 45.8886C16.1024 45.7989 16.2395 45.8462 16.3766 45.8935C16.5137 45.9409 16.6508 45.9882 16.6034 46.1253C16.6932 46.3097 16.7829 46.4941 16.6883 46.7683C16.7307 47.0898 16.5414 47.6381 16.3994 48.0494C16.3471 48.645 16.1578 49.1934 15.8787 49.5573Z" fill="white"/>
<path d="M19.9457 46.6655C19.6715 46.5708 19.4871 46.6606 19.3027 46.7503C18.9812 46.7928 18.7494 47.0196 18.4703 47.3835C18.1913 47.7475 17.9122 48.1114 17.7228 48.6597C17.5335 49.2081 17.4813 49.8037 17.6135 50.3096C17.6983 50.9526 18.0149 51.3688 18.4261 51.5108C18.7003 51.6055 18.8847 51.5157 19.2062 51.4733C19.5277 51.4309 19.7595 51.204 20.0385 50.8401C20.3176 50.4762 20.5967 50.1123 20.786 49.5639C21.0227 48.8785 21.1223 48.1457 20.853 47.5925C20.5364 47.1763 20.3569 46.8075 19.9457 46.6655ZM19.3058 50.7405C19.2111 51.0147 19.0267 51.1045 18.8423 51.1942C18.6579 51.284 18.5208 51.2366 18.3837 51.1893C18.1095 51.0946 18.0198 50.9102 18.0247 50.4516C18.0296 49.993 18.0345 49.5345 18.2712 48.849C18.4132 48.4378 18.5552 48.0265 18.7869 47.7997C18.9289 47.3884 19.1607 47.1616 19.3451 47.0719C19.5295 46.9821 19.6666 47.0294 19.8037 47.0768C19.9407 47.1241 20.0778 47.1714 20.0305 47.3085C20.1203 47.4929 20.21 47.6773 20.1153 47.9515C20.1578 48.273 19.9684 48.8213 19.8264 49.2326C19.7742 49.8283 19.5849 50.3766 19.3058 50.7405Z" fill="white"/>
<path d="M23.3729 47.8489C23.0987 47.7542 22.9143 47.844 22.7299 47.9337C22.4084 47.9761 22.1766 48.203 21.8975 48.5669C21.6185 48.9308 21.3394 49.2947 21.15 49.8431C20.9607 50.3914 20.9085 50.9871 21.0407 51.493C21.1255 52.136 21.4421 52.5522 21.8533 52.6942C22.1275 52.7888 22.3119 52.6991 22.6334 52.6566C22.9549 52.6142 23.1867 52.3874 23.4657 52.0235C23.7448 51.6595 24.0239 51.2956 24.2132 50.7473C24.4499 50.0619 24.5495 49.3291 24.2802 48.7759C23.9636 48.3597 23.647 47.9435 23.3729 47.8489ZM22.5959 51.8766C22.5012 52.1507 22.3168 52.2405 22.1324 52.3302C21.948 52.42 21.8109 52.3727 21.6738 52.3253C21.3997 52.2307 21.3099 52.0462 21.3148 51.5877C21.3197 51.1291 21.3246 50.6705 21.5613 49.9851C21.7033 49.5738 21.8453 49.1626 22.077 48.9357C22.219 48.5245 22.4508 48.2976 22.6352 48.2079C22.8196 48.1181 22.9567 48.1655 23.0938 48.2128C23.2309 48.2601 23.3679 48.3075 23.3206 48.4445C23.4104 48.629 23.5001 48.8134 23.4055 49.0875C23.4479 49.409 23.2586 49.9574 23.1166 50.3686C23.2014 51.0116 22.875 51.5126 22.5959 51.8766Z" fill="white"/>
<path d="M26.6629 48.9848C26.3888 48.8901 26.2043 48.9799 26.0199 49.0696C25.6984 49.112 25.4667 49.3389 25.0505 49.6555C24.7714 50.0194 24.4923 50.3833 24.303 50.9316C24.1137 51.48 24.0615 52.0756 24.0565 52.5342C24.1414 53.1772 24.458 53.5934 24.8692 53.7354C25.1434 53.83 25.3278 53.7403 25.6493 53.6979C25.9708 53.6555 26.2026 53.4286 26.4816 53.0647C26.7607 52.7008 27.0398 52.3368 27.2291 51.7885C27.4658 51.1031 27.5654 50.3703 27.2961 49.8171C27.2537 49.4956 27.0742 49.1268 26.6629 48.9848ZM26.0231 53.0598C25.9284 53.334 25.744 53.4237 25.5596 53.5135C25.3751 53.6032 25.2381 53.5559 25.2381 53.5559C24.9639 53.4612 24.8741 53.2768 24.879 52.8182C24.884 52.3596 24.8889 51.901 25.1255 51.2156C25.2675 50.8044 25.4095 50.3931 25.6413 50.1663C25.7833 49.755 26.015 49.5282 26.1994 49.4384C26.3838 49.3487 26.5209 49.396 26.658 49.4433C26.7951 49.4907 26.9322 49.538 26.8848 49.6751C26.9746 49.8595 27.0643 50.0439 26.9697 50.3181C27.0121 50.6396 26.8228 51.1879 26.6808 51.5992C26.4915 52.1475 26.3021 52.6959 26.0231 53.0598Z" fill="white"/>
<path d="M53.1201 58.1198C52.8459 58.0251 52.6615 58.1149 52.4771 58.2046C52.1556 58.2471 51.9239 58.4739 51.5077 58.7905C51.2286 59.1544 50.9495 59.5183 50.7602 60.0667C50.5709 60.615 50.5186 61.2107 50.5137 61.6693C50.5986 62.3123 50.9152 62.7284 51.3264 62.8704C51.6006 62.9651 51.785 62.8753 52.1065 62.8329C52.428 62.7905 52.6597 62.5636 52.9388 62.1997C53.2179 61.8358 53.497 61.4719 53.6863 60.9235C53.923 60.2381 54.0225 59.5054 53.7533 58.9521C53.5738 58.5833 53.3943 58.2145 53.1201 58.1198ZM52.3432 62.1475C52.2485 62.4216 52.0641 62.5114 51.8797 62.6012C51.6952 62.6909 51.5582 62.6436 51.5582 62.6436C51.284 62.5489 51.1942 62.3645 51.1992 61.9059C51.2041 61.4473 51.209 60.9887 51.4456 60.3033C51.5876 59.8921 51.7296 59.4808 51.9614 59.254C52.1034 58.8427 52.3351 58.6159 52.5195 58.5261C52.7039 58.4364 52.841 58.4837 52.9781 58.531C53.1152 58.5784 53.2523 58.6257 53.2049 58.7628C53.2947 58.9472 53.3845 59.1316 53.2898 59.4058C53.3322 59.7273 53.1429 60.2756 53.0009 60.6869C52.8116 61.2352 52.6222 61.7836 52.3432 62.1475Z" fill="white"/>
<path d="M56.4101 59.2558C56.1359 59.1611 55.9515 59.2509 55.63 59.2933C55.3085 59.3357 55.0767 59.5626 54.7977 59.9265C54.5186 60.2904 54.2395 60.6543 54.0502 61.2027C53.8608 61.751 53.8086 62.3467 53.9408 62.8526C54.0256 63.4956 54.3422 63.9118 54.7535 64.0538C55.0276 64.1484 55.212 64.0587 55.5335 64.0163C55.855 63.9738 56.0868 63.747 56.3659 63.3831C56.645 63.0191 56.924 62.6552 57.1134 62.1069C57.35 61.4215 57.4496 60.6887 57.1803 60.1355C57.0008 59.7666 56.8213 59.3978 56.4101 59.2558ZM55.7702 63.3308C55.5385 63.5577 55.4911 63.6947 55.3067 63.7845C55.1223 63.8743 54.9852 63.8269 54.8481 63.7796C54.574 63.6849 54.4842 63.5005 54.4891 63.0419C54.494 62.5833 54.4989 62.1248 54.7356 61.4393C54.8776 61.0281 55.0196 60.6168 55.2513 60.39C55.3933 59.9787 55.6251 59.7519 55.8095 59.6622C55.9939 59.5724 56.131 59.6197 56.2681 59.6671C56.4052 59.7144 56.5422 59.7617 56.4949 59.8988C56.5847 60.0832 56.6744 60.2676 56.5798 60.5418C56.6222 60.8633 56.4328 61.4116 56.2909 61.8229C56.2386 62.4186 56.0493 62.9669 55.7702 63.3308Z" fill="white"/>
<path d="M56.583 64.5319L56.8571 64.6266L59.9743 60.4864L59.7002 60.3917L56.583 64.5319Z" fill="white"/>
<path d="M61.7565 61.1017C61.4823 61.007 61.2979 61.0968 60.9764 61.1392C60.6549 61.1816 60.4231 61.4084 60.1441 61.7724C59.865 62.1363 59.5859 62.5002 59.3966 63.0486C59.2073 63.5969 59.155 64.1926 59.2872 64.6985C59.372 65.3415 59.6886 65.7576 60.0999 65.8996C60.374 65.9943 60.5585 65.9045 60.88 65.8621C61.2015 65.8197 61.4332 65.5929 61.7123 65.2289C61.9914 64.865 62.2704 64.5011 62.4598 63.9528C62.6964 63.2673 62.796 62.5346 62.5267 61.9813C62.2102 61.5652 62.0306 61.1963 61.7565 61.1017ZM60.9795 65.1294C60.7478 65.3562 60.7005 65.4933 60.516 65.583C60.3316 65.6728 60.1945 65.6255 60.0574 65.5781C59.7833 65.4835 59.6935 65.2991 59.6984 64.8405C59.7034 64.3819 59.7083 63.9233 59.9449 63.2379C60.0869 62.8266 60.2289 62.4154 60.4607 62.1885C60.6027 61.7773 60.8344 61.5504 61.0188 61.4607C61.2032 61.3709 61.3403 61.4183 61.4774 61.4656C61.6145 61.5129 61.7516 61.5603 61.7042 61.6973C61.794 61.8818 61.8837 62.0662 61.7891 62.3404C61.8315 62.6619 61.6422 63.2102 61.5002 63.6214C61.4479 64.2171 61.2586 64.7654 60.9795 65.1294Z" fill="white"/>
<path d="M65.0465 62.2377C64.7723 62.143 64.5879 62.2328 64.4035 62.3226C64.082 62.365 63.8502 62.5918 63.5711 62.9557C63.2921 63.3197 63.013 63.6836 62.8237 64.2319C62.6343 64.7803 62.5821 65.3759 62.7143 65.8818C62.7991 66.5248 63.1157 66.941 63.5269 67.083C63.8011 67.1777 63.9855 67.0879 64.307 67.0455C64.6285 67.0031 64.8603 66.7762 65.1394 66.4123C65.4184 66.0484 65.6975 65.6845 65.8868 65.1361C66.1235 64.4507 66.2231 63.7179 65.9538 63.1647C65.6372 62.7485 65.4577 62.3797 65.0465 62.2377ZM64.4066 66.3127C64.3119 66.5869 64.1275 66.6767 63.9431 66.7664C63.7587 66.8562 63.6216 66.8088 63.4845 66.7615C63.2104 66.6668 63.1206 66.4824 63.1255 66.0238C63.1304 65.5652 63.1353 65.1067 63.372 64.4212C63.514 64.01 63.656 63.5987 63.8877 63.3719C64.1668 63.008 64.2615 62.7338 64.4459 62.6441C64.6303 62.5543 64.7674 62.6016 64.9045 62.649C65.0416 62.6963 65.1786 62.7436 65.1313 62.8807C65.2211 63.0651 65.3108 63.2495 65.2162 63.5237C65.2586 63.8452 65.0692 64.3935 64.9273 64.8048C64.875 65.4005 64.6857 65.9488 64.4066 66.3127Z" fill="white"/>
<path d="M65.3358 48.0689C65.0616 47.9742 64.7401 48.0166 64.4186 48.059C63.9127 48.1912 63.4965 48.5078 63.1701 49.0088C62.7066 49.4625 62.5173 50.0108 62.2333 50.8333C61.9493 51.6558 61.8498 52.3886 62.0243 53.216C62.1989 54.0434 62.4682 54.5967 63.1536 54.8333C63.4278 54.928 63.7493 54.8856 64.2552 54.7534C64.624 54.5739 64.9929 54.3944 65.4564 53.9407C65.9199 53.487 66.1092 52.9387 66.3932 52.1162C66.7718 51.0195 66.7817 50.1023 66.5597 49.412C66.2007 48.6743 65.8841 48.2582 65.3358 48.0689ZM64.4494 53.7465C64.1704 54.1104 63.9859 54.2001 63.7542 54.427C63.5698 54.5167 63.3854 54.6065 63.1112 54.5118C62.6999 54.3698 62.5204 54.001 62.5254 53.5424C62.4405 52.8994 62.6772 52.214 63.0085 51.2544C63.1978 50.7061 63.3871 50.1577 63.7136 49.6567C64.04 49.1557 64.319 48.7918 64.5508 48.565C64.7352 48.4752 65.0567 48.4328 65.1938 48.4801C65.3309 48.5274 65.468 48.5748 65.5577 48.7592C65.6475 48.9436 65.6899 49.2651 65.685 49.7237C65.6327 50.3194 65.5805 50.915 65.3438 51.6005C65.0125 52.56 64.7759 53.2455 64.4494 53.7465Z" fill="white"/>
<path d="M70.1337 49.7255C69.8596 49.6308 69.5381 49.6732 69.2166 49.7157C68.7107 49.8478 68.2945 50.1644 67.9681 50.6654C67.5046 51.1191 67.3153 51.6674 67.0313 52.49C66.7473 53.3125 66.6477 54.0452 66.8223 54.8726C66.9969 55.7 67.4032 56.3006 67.9516 56.49C68.2257 56.5846 68.6843 56.5895 69.0532 56.41C69.422 56.2305 69.7908 56.051 70.2543 55.5973C70.7178 55.1437 70.9071 54.5953 71.1911 53.7728C71.5698 52.6761 71.5796 51.759 71.3577 51.0686C70.9987 50.331 70.6821 49.9148 70.1337 49.7255ZM69.2474 55.4031C68.9683 55.767 68.7839 55.8568 68.5522 56.0836C68.3677 56.1734 68.1833 56.2631 67.9092 56.1685C67.4979 56.0265 67.4555 55.705 67.3233 55.199C67.2385 54.556 67.4751 53.8706 67.8064 52.911C67.9958 52.3627 68.1851 51.8144 68.5115 51.3133C68.8379 50.8123 69.117 50.4484 69.3488 50.2216C69.5332 50.1318 69.7176 50.0421 69.9917 50.1367C70.1288 50.1841 70.2659 50.2314 70.3557 50.4158C70.4454 50.6002 70.4878 50.9217 70.4829 51.3803C70.4307 51.976 70.3784 52.5717 70.1418 53.2571C69.9476 54.264 69.5738 54.9021 69.2474 55.4031Z" fill="white"/>
<path d="M74.9317 51.3821C74.6575 51.2875 74.336 51.3299 74.0145 51.3723C73.5086 51.5045 73.0925 51.8211 72.766 52.3221C72.3025 52.7757 72.1132 53.3241 71.8292 54.1466C71.5452 54.9691 71.4457 55.7018 71.6203 56.5293C71.7949 57.3567 72.2012 57.9573 72.7495 58.1466C73.0237 58.2413 73.4823 58.2462 73.8511 58.0667C74.22 57.8872 74.5888 57.7076 75.0523 57.254C75.5158 56.8003 75.7051 56.252 75.9891 55.4295C76.3677 54.3328 76.3776 53.4156 76.1556 52.7253C75.7966 51.9876 75.48 51.5714 74.9317 51.3821ZM74.0454 57.0597C73.7663 57.4237 73.5819 57.5134 73.3501 57.7402C73.1657 57.83 72.8442 57.8724 72.7071 57.8251C72.2959 57.6831 72.2534 57.3616 72.1213 56.8557C72.0364 56.2127 72.2731 55.5273 72.6044 54.5677C72.7937 54.0193 72.9831 53.471 73.3095 52.97C73.6359 52.469 73.915 52.1051 74.1467 51.8782C74.3311 51.7885 74.6526 51.746 74.7897 51.7934C74.9268 51.8407 75.0639 51.888 75.1536 52.0725C75.2434 52.2569 75.2858 52.5784 75.2809 53.037C75.2287 53.6326 75.1764 54.2283 74.9398 54.9137C74.7455 55.9206 74.3718 56.5587 74.0454 57.0597Z" fill="white"/>
<path d="M79.8667 53.086C79.5925 52.9913 79.271 53.0337 78.9495 53.0762C78.5806 53.2557 78.0274 53.5249 77.701 54.0259C77.2375 54.4796 77.0482 55.0279 76.7642 55.8504C76.4802 56.6729 76.3806 57.4057 76.5552 58.2331C76.7298 59.0605 77.1361 59.6611 77.6845 59.8504C77.9587 59.9451 78.2802 59.9027 78.7861 59.7705C79.1549 59.591 79.5237 59.4115 79.9872 58.9578C80.4507 58.5042 80.6401 57.9558 80.924 57.1333C81.3027 56.0366 81.3125 55.1195 81.0906 54.4291C80.5945 53.6441 80.2779 53.228 79.8667 53.086ZM78.8432 58.7163C78.5641 59.0802 78.3797 59.1699 78.148 59.3968C77.9636 59.4865 77.6421 59.5289 77.505 59.4816C77.2308 59.3869 77.0513 59.0181 76.9191 58.5122C76.8343 57.8692 77.0709 57.1838 77.4023 56.2242C77.5916 55.6758 77.7809 55.1275 78.1073 54.6265C78.4337 54.1255 78.7128 53.7616 78.9446 53.5347C79.129 53.445 79.4505 53.4026 79.5876 53.4499C79.7247 53.4972 79.8617 53.5446 79.9515 53.729C80.0413 53.9134 80.0837 54.2349 80.0788 54.6935C80.0265 55.2891 79.9743 55.8848 79.7376 56.5702C79.5434 57.5772 79.1696 58.2152 78.8432 58.7163Z" fill="white"/>
<path d="M87.9547 55.8786C87.6805 55.784 87.359 55.8264 87.0375 55.8688C86.6687 56.0483 86.1154 56.3176 85.789 56.8186C85.3255 57.2722 85.1362 57.8206 84.8522 58.6431C84.5682 59.4656 84.4687 60.1984 84.6432 61.0258C84.8178 61.8532 85.2242 62.4538 85.7725 62.6431C86.0467 62.7378 86.3682 62.6953 86.8741 62.5632C87.2429 62.3837 87.6118 62.2041 88.0753 61.7505C88.5388 61.2968 88.7281 60.7485 89.0121 59.926C89.3907 58.8293 89.4006 57.9121 89.1786 57.2218C88.8196 56.4841 88.3659 56.0206 87.9547 55.8786ZM86.9313 61.5089C86.6522 61.8728 86.4678 61.9626 86.236 62.1894C86.0516 62.2792 85.7301 62.3216 85.593 62.2743C85.3189 62.1796 85.1393 61.8108 85.0072 61.3048C84.9223 60.6618 85.159 59.9764 85.4903 59.0168C85.6796 58.4685 85.869 57.9202 86.1954 57.4192C86.5218 56.9181 86.8009 56.5542 87.0326 56.3274C87.217 56.2376 87.5385 56.1952 87.6756 56.2425C87.8127 56.2899 87.9498 56.3372 88.0395 56.5216C88.1293 56.706 88.1717 57.0275 88.1668 57.4861C88.1146 58.0818 88.0623 58.6775 87.8257 59.3629C87.6314 60.3698 87.3948 61.0552 86.9313 61.5089Z" fill="white"/>
<path d="M92.7526 57.5353C92.4785 57.4406 92.157 57.483 91.8355 57.5254C91.3296 57.6576 90.9134 57.9742 90.587 58.4752C90.1235 58.9289 89.9342 59.4772 89.6502 60.2997C89.3662 61.1222 89.2666 61.855 89.4412 62.6824C89.6158 63.5098 89.8851 64.0631 90.5705 64.2997C90.8446 64.3944 91.1661 64.352 91.6721 64.2198C92.0409 64.0403 92.4097 63.8608 92.8732 63.4071C93.3367 62.9534 93.526 62.4051 93.81 61.5826C94.1887 60.4859 94.1985 59.5687 93.9766 58.8784C93.6176 58.1408 93.1639 57.6773 92.7526 57.5353ZM91.7292 63.1655C91.4501 63.5295 91.2657 63.6192 91.034 63.846C90.8496 63.9358 90.6651 64.0256 90.391 63.9309C89.9797 63.7889 89.8002 63.4201 89.8051 62.9615C89.7203 62.3185 89.9569 61.6331 90.2883 60.6735C90.4776 60.1251 90.6669 59.5768 90.9933 59.0758C91.3197 58.5748 91.5988 58.2109 91.8306 57.984C92.015 57.8943 92.3365 57.8518 92.4736 57.8992C92.6107 57.9465 92.7477 57.9938 92.8375 58.1783C92.9272 58.3627 92.9697 58.6842 92.9647 59.1428C92.9125 59.7384 92.8603 60.3341 92.6236 61.0195C92.4294 62.0264 92.1927 62.7119 91.7292 63.1655Z" fill="white"/>
<path d="M97.5506 59.1919C97.2764 59.0972 96.9549 59.1396 96.6334 59.1821C96.1275 59.3142 95.7114 59.6308 95.3849 60.1318C94.9214 60.5855 94.7321 61.1339 94.4481 61.9564C94.1641 62.7789 94.0646 63.5116 94.2392 64.339C94.4138 65.1664 94.8201 65.767 95.3684 65.9564C95.6426 66.051 96.1012 66.0559 96.47 65.8764C96.8389 65.6969 97.2077 65.5174 97.6712 65.0637C98.1347 64.6101 98.324 64.0617 98.608 63.2392C98.9866 62.1425 98.9965 61.2254 98.7745 60.535C98.4155 59.7974 98.0989 59.3812 97.5506 59.1919ZM96.6643 64.8695C96.3852 65.2334 96.2008 65.3232 95.969 65.55C95.7846 65.6398 95.6002 65.7295 95.326 65.6349C94.9148 65.4929 94.7353 65.124 94.7402 64.6654C94.6553 64.0224 94.892 63.337 95.2233 62.3774C95.4126 61.8291 95.602 61.2808 95.9284 60.7798C96.2548 60.2787 96.5339 59.9148 96.7656 59.688C96.95 59.5982 97.1344 59.5085 97.4086 59.6031C97.5457 59.6505 97.6828 59.6978 97.7725 59.8822C97.8623 60.0666 97.9047 60.3881 97.8998 60.8467C97.8475 61.4424 97.7953 62.0381 97.5587 62.7235C97.2273 63.6831 96.9907 64.3685 96.6643 64.8695Z" fill="white"/>
<path d="M102.349 60.8484C102.074 60.7537 101.753 60.7962 101.431 60.8386C100.925 60.9708 100.509 61.2873 100.183 61.7884C99.7194 62.242 99.5301 62.7904 99.2461 63.6129C98.9621 64.4354 98.8625 65.1681 99.0371 65.9955C99.2117 66.823 99.6181 67.4235 100.166 67.6129C100.441 67.7075 100.899 67.7124 101.268 67.5329C101.637 67.3534 102.006 67.1739 102.469 66.7203C102.933 66.2666 103.122 65.7182 103.406 64.8957C103.785 63.7991 103.794 62.8819 103.572 62.1916C103.213 61.4539 102.897 61.0377 102.349 60.8484ZM101.462 66.526C101.183 66.8899 100.999 66.9797 100.767 67.2065C100.583 67.2963 100.261 67.3387 100.124 67.2914C99.8498 67.1967 99.6703 66.8279 99.5381 66.322C99.4533 65.679 99.6899 64.9935 100.021 64.0339C100.211 63.4856 100.4 62.9373 100.726 62.4363C101.053 61.9353 101.332 61.5713 101.564 61.3445C101.748 61.2547 101.932 61.165 102.207 61.2597C102.344 61.307 102.481 61.3543 102.57 61.5387C102.66 61.7232 102.703 62.0447 102.698 62.5032C102.646 63.0989 102.593 63.6946 102.357 64.38C102.025 65.3396 101.789 66.025 101.462 66.526Z" fill="white"/>
<path d="M43.9306 55.4072L44.0677 55.4545C44.0677 55.4545 44.0204 55.5916 43.8833 55.5443L43.1407 56.3619L43.0608 55.2603C43.1081 55.1232 43.1081 55.1232 43.1081 55.1232C43.1081 55.1232 43.1081 55.1232 43.1554 54.9861C43.1554 54.9861 43.1554 54.9861 43.2925 55.0335L42.8813 54.8915L43.0183 54.9388C43.0183 54.9388 43.0183 54.9388 43.1554 54.9861C43.1554 54.9861 43.1554 54.9861 43.1081 55.1232L43.1831 56.6834L44.2048 55.5019C44.2521 55.3648 44.2521 55.3648 44.3892 55.4121L44.5263 55.4595L43.9306 55.4072Z" fill="white"/>
<path d="M45.1497 57.2089L45.0746 55.6487L44.053 56.8303C44.0057 56.9673 43.8686 56.92 43.8212 57.0571C43.8212 57.0571 43.8212 57.0571 43.6842 57.0098L44.2325 57.1991C44.0954 57.1518 44.0954 57.1518 44.0954 57.1518L44.1427 57.0147L44.3745 56.7878L44.9228 56.9772L44.9652 57.2987L44.9179 57.4357C44.9179 57.4357 44.9179 57.4357 44.7808 57.3884L45.4663 57.6251L45.3292 57.5777C45.1921 57.5304 45.2394 57.3933 45.1497 57.2089ZM44.4218 56.6508L44.9326 56.06L44.9702 56.8401L44.4218 56.6508Z" fill="white"/>
<path d="M46.7474 57.914L46.5629 58.0038C46.5629 58.0038 46.4258 57.9565 46.2888 57.9091L46.1517 57.8618C46.0146 57.8145 46.0146 57.8145 46.0146 57.8145C46.0146 57.8145 46.0146 57.8145 46.0619 57.6774L46.3932 56.7178C46.4406 56.5807 46.4406 56.5807 46.4406 56.5807C46.4406 56.5807 46.4406 56.5807 46.5777 56.628L46.7147 56.6754L46.0293 56.4387C46.1664 56.486 46.1664 56.486 46.1664 56.486L46.1191 56.6231L45.7404 57.7198C45.6931 57.8569 45.6931 57.8569 45.6931 57.8569L45.556 57.8096L46.7898 58.2355L47.0689 57.8716C46.7947 57.777 46.7474 57.914 46.7474 57.914Z" fill="white"/>
<path d="M47.4948 56.6379C47.6318 56.6852 47.6318 56.6852 47.6318 56.6852L47.5845 56.8223L47.2059 57.919C47.1585 58.0561 47.1585 58.0561 47.1585 58.0561C47.1585 58.0561 47.1585 58.0561 47.0214 58.0087L47.7069 58.2454C47.7069 58.2454 47.7069 58.2454 47.5698 58.1981L47.6171 58.061L47.9958 56.9643C48.0431 56.8272 48.0431 56.8272 48.0431 56.8272L48.1802 56.8745L47.4948 56.6379Z" fill="white"/>
<path d="M49.3666 57.4375C49.2295 57.3902 49.1398 57.2058 48.8656 57.1111L48.1802 56.8745L48.3173 56.9218L48.4544 56.9691L48.407 57.1062L48.0284 58.2029C47.9811 58.34 47.9811 58.34 47.9811 58.34L47.844 58.2926L47.7069 58.2453L48.3923 58.482C48.6665 58.5766 48.988 58.5342 49.1724 58.4444C49.3568 58.3547 49.4041 58.2176 49.4988 57.9434C49.5461 57.8064 49.5935 57.6693 49.5037 57.4849C49.5935 57.6693 49.5037 57.4849 49.3666 57.4375ZM48.9406 58.6713C48.7562 58.761 48.6191 58.7137 48.4821 58.6664C48.4821 58.6664 48.345 58.619 48.2079 58.5717L48.6812 57.2009C48.8183 57.2482 48.8183 57.2482 48.9554 57.2955C49.0925 57.3429 49.2295 57.3902 49.3193 57.5746C49.409 57.759 49.3617 57.8961 49.2671 58.1703C49.2197 58.3074 49.1251 58.5815 48.9406 58.6713Z" fill="white"/>
<path d="M41.6979 58.3186C41.7452 58.1815 41.7452 58.1815 41.8823 58.2288C41.8823 58.2288 41.9297 58.0918 42.0667 58.1391L42.2038 58.1864L42.3409 58.2338L41.9149 59.4675C41.8676 59.6046 41.8676 59.6046 41.8676 59.6046L41.7305 59.5573L42.4159 59.7939L42.2789 59.7466L42.3262 59.6095L42.7522 58.3757L43.0263 58.4704C43.1634 58.5177 43.1634 58.5177 43.1634 58.5177C43.1634 58.5177 43.3005 58.5651 43.2532 58.7022L43.2058 58.8392L43.3478 58.428L41.977 57.9547L41.6979 58.3186Z" fill="white"/>
<path d="M44.3075 58.7593C44.4446 58.8066 44.4446 58.8066 44.4446 58.8066L44.3972 58.9437L44.2552 59.3549L43.4327 59.0709L43.5747 58.6597C43.622 58.5226 43.622 58.5226 43.622 58.5226C43.622 58.5226 43.622 58.5226 43.7591 58.5699L43.8962 58.6173L43.2108 58.3806L43.3479 58.4279L43.3005 58.565L42.9219 59.6617C42.8746 59.7988 42.8746 59.7988 42.8746 59.7988C42.8746 59.7988 42.8746 59.7988 42.7375 59.7515L43.4229 59.9881L43.2858 59.9408C43.2858 59.9408 43.2858 59.9408 43.1487 59.8934L43.1961 59.7564L43.3854 59.208L44.2079 59.492L44.0186 60.0404C43.9712 60.1774 43.9712 60.1774 43.9712 60.1774L43.8341 60.1301L44.5196 60.3668C44.5196 60.3668 44.5196 60.3668 44.3825 60.3194L44.4298 60.1824L44.8085 59.0857C44.8558 58.9486 44.8558 58.9486 44.8558 58.9486C44.8558 58.9486 44.8558 58.9486 44.9929 58.9959L44.3075 58.7593Z" fill="white"/>
<path d="M45.8007 60.6558L45.6685 60.1499C45.8056 60.1972 45.99 60.1074 45.99 60.1074C46.0373 59.9703 46.1744 60.0177 46.2217 59.8806C46.2691 59.7435 46.2691 59.7435 46.1793 59.5591C46.1793 59.5591 46.0896 59.3747 45.9525 59.3273C45.8154 59.28 45.6783 59.2327 45.5412 59.1853L44.9929 58.996L45.13 59.0434L45.0826 59.1804L44.704 60.2771C44.6567 60.4142 44.6567 60.4142 44.6567 60.4142C44.6567 60.4142 44.6567 60.4142 44.5196 60.3669L45.205 60.6035L45.0679 60.5562L44.9308 60.5089L44.9782 60.3718L45.1201 59.9605C45.1201 59.9605 45.1202 59.9605 45.2572 60.0079L45.5689 60.8826L45.9802 61.0246C45.8431 60.9773 45.8431 60.9773 45.706 60.9299C45.8431 60.9773 45.7533 60.7929 45.8007 60.6558ZM45.2572 60.0079L45.4939 59.3224L45.631 59.3698C45.7681 59.4171 45.7681 59.4171 45.8578 59.6015C45.8578 59.6015 45.9476 59.7859 45.9002 59.923C45.8529 60.0601 45.8529 60.0601 45.6685 60.1499C45.5314 60.1025 45.3943 60.0552 45.2572 60.0079Z" fill="white"/>
<path d="M47.7345 59.9426C47.8716 59.99 47.8716 59.99 47.8716 59.99L47.8243 60.127L47.5403 60.9495C47.493 61.0866 47.4456 61.2237 47.3983 61.3608C47.351 61.4979 47.2139 61.4506 47.2139 61.4506C47.0768 61.4032 47.0768 61.4032 46.9397 61.3559C46.8026 61.3086 46.8026 61.3086 46.8026 61.3086C46.6656 61.2612 46.6656 61.2612 46.7129 61.1241L46.7602 60.9871C46.8076 60.85 46.8076 60.85 46.8549 60.7129L47.0915 60.0275C47.1389 59.8904 47.1389 59.8904 47.1389 59.8904C47.1389 59.8904 47.1389 59.8904 47.276 59.9377L46.5905 59.7011C46.7276 59.7484 46.7276 59.7484 46.7276 59.7484L46.6803 59.8855L46.4436 60.5709C46.3963 60.708 46.349 60.8451 46.3016 60.9821C46.2543 61.1192 46.3914 61.1666 46.4811 61.351C46.6182 61.3983 46.708 61.5827 46.8451 61.6301C46.9821 61.6774 47.1192 61.7247 47.3036 61.635C47.4407 61.6823 47.4881 61.5452 47.5354 61.4081C47.5827 61.271 47.6301 61.134 47.6774 60.9969L47.914 60.3115C47.9614 60.1744 47.9614 60.1744 47.9614 60.1744L48.1458 60.0846L47.7345 59.9426Z" fill="white"/>
<path d="M11.7806 59.6493C11.6435 59.602 11.5064 59.5546 11.3694 59.5073C11.2323 59.46 11.0952 59.4126 11.0054 59.2282C10.8683 59.1809 10.7786 58.9965 10.6888 58.8121C10.5991 58.6276 10.6464 58.4906 10.5567 58.3061C10.604 58.1691 10.5616 57.8476 10.6089 57.7105C10.7509 57.2992 11.03 56.9353 11.2144 56.8455C11.4462 56.6187 11.7677 56.5763 12.1789 56.7183C12.316 56.7656 12.316 56.7656 12.4531 56.8129C12.5902 56.8603 12.5902 56.8603 12.5902 56.8603L12.7272 56.9076L12.8643 56.9549C12.9117 56.8179 12.9117 56.8179 13.0961 56.7281L13.1434 56.591C13.0961 56.7281 12.959 56.6808 12.8219 56.6334C12.6848 56.5861 12.5477 56.5388 12.2736 56.4441C11.9994 56.3494 11.8623 56.3021 11.5408 56.3445C11.3564 56.4343 11.0822 56.3396 10.8505 56.5665C10.6661 56.6562 10.4343 56.8831 10.387 57.0201C10.1552 57.247 10.1079 57.3841 10.0132 57.6582C9.91858 57.9324 9.82392 58.2066 9.91367 58.391C9.95609 58.7125 9.90876 58.8496 9.99851 59.034C10.0883 59.2184 10.178 59.4028 10.4049 59.6346C10.4946 59.819 10.7688 59.9136 11.0429 60.0083C11.18 60.0556 11.3171 60.103 11.4542 60.1503C11.5913 60.1976 11.7284 60.245 11.9128 60.1552C11.9601 60.0181 12.0074 59.881 11.9177 59.6966L11.7806 59.6493Z" fill="white"/>
<path d="M15.0152 57.3907L14.8781 57.3434L14.7411 57.296L14.604 57.2487L12.324 60.2972L12.4611 60.3445L12.5982 60.3918L12.7353 60.4391L12.8723 60.4865L13.4305 59.7586L14.8013 60.232L14.7915 61.1491L14.9286 61.1965L15.0657 61.2438L15.2028 61.2911L15.3399 61.3384L15.1523 57.438C15.1523 57.438 15.1523 57.438 15.0152 57.3907ZM13.5725 59.3474L14.7361 57.7546L14.6692 59.726L13.5725 59.3474Z" fill="white"/>
<path d="M17.5055 60.3986C17.6425 60.4459 17.6899 60.3088 17.827 60.3561C17.964 60.4035 18.0114 60.2664 18.1958 60.1766C18.2431 60.0395 18.3802 60.0869 18.4275 59.9498C18.4749 59.8127 18.5222 59.6756 18.5222 59.6756C18.6169 59.4015 18.6642 59.2644 18.5744 59.08C18.4847 58.8955 18.532 58.7585 18.3949 58.7111C18.3052 58.5267 18.1681 58.4794 18.031 58.432C17.8939 58.3847 17.7569 58.3374 17.4827 58.2427C17.3456 58.1954 17.3456 58.1954 17.2085 58.1481L17.0714 58.1007L16.9343 58.0534L16.7973 58.0061L15.614 61.4332L15.7511 61.4805L15.8881 61.5278L16.0252 61.5752L16.1623 61.6225L17.2509 58.4696L17.388 58.5169L17.5251 58.5642C17.7993 58.6589 17.9364 58.7062 18.0261 58.8906C18.1159 59.075 18.0685 59.2121 17.9739 59.4863C17.9265 59.6234 17.8792 59.7605 17.7421 59.7131C17.6948 59.8502 17.5577 59.8029 17.5104 59.94C17.3733 59.8926 17.326 60.0297 17.1889 59.9824C17.0518 59.9351 17.0518 59.9351 16.8674 60.0248L17.3961 62.0485C17.5331 62.0958 17.5331 62.0958 17.6702 62.1431C17.8073 62.1905 17.9444 62.2378 17.9444 62.2378L17.5055 60.3986Z" fill="white"/>
<path d="M20.546 59.1469C20.4089 59.0996 20.2718 59.0523 20.1347 59.005C19.9976 58.9576 19.8606 58.9103 19.7235 58.863L18.5402 62.2901C18.6773 62.3374 18.8143 62.3847 18.9514 62.4321C19.0885 62.4794 19.2256 62.5267 19.3627 62.5741C19.911 62.7634 20.5067 62.8156 20.8755 62.6361C21.2444 62.4566 21.5234 62.0927 21.7601 61.4073C21.9494 60.8589 21.9543 60.4003 21.8222 59.8944C21.5953 59.6627 21.2314 59.3836 20.546 59.1469ZM20.9278 62.0404C20.7433 62.1302 20.696 62.2673 20.5116 62.357C20.3272 62.4468 20.1901 62.3995 20.0057 62.4892C19.8686 62.4419 19.6842 62.5316 19.41 62.437C19.2729 62.3896 19.2729 62.3896 19.1358 62.3423C18.9988 62.295 18.9988 62.295 18.9988 62.295L19.8981 59.6904L20.0352 59.7377C20.1722 59.785 20.1722 59.785 20.3093 59.8324C20.4464 59.8797 20.7206 59.9744 20.8577 60.0217C20.9947 60.069 21.0845 60.2534 21.1742 60.4379C21.264 60.6223 21.2167 60.7594 21.3064 60.9438C21.2591 61.0809 21.3015 61.4024 21.2542 61.5394C21.2068 61.6765 20.9751 61.9034 20.9278 62.0404Z" fill="white"/>
<path d="M25.2965 60.9406C25.1594 60.8933 25.1594 60.8933 25.2965 60.9406C25.1594 60.8933 25.0224 60.8459 25.0224 60.8459L24.549 62.2168L23.0411 61.6961L23.5144 60.3253C23.5144 60.3253 23.5144 60.3253 23.3773 60.278L23.2403 60.2306L23.1032 60.1833L22.9661 60.136L21.7828 63.5631C21.7828 63.5631 21.7828 63.5631 21.9199 63.6104L22.057 63.6577L22.1941 63.7051C22.1941 63.7051 22.1941 63.7051 22.3311 63.7524L22.8991 62.1074L24.407 62.628L23.8391 64.2731L23.9762 64.3204L24.1132 64.3677L24.2503 64.415L24.3874 64.4624L25.5707 61.0353C25.4336 60.9879 25.4336 60.9879 25.2965 60.9406Z" fill="white"/>
<path d="M28.5817 62.5352C28.4919 62.3508 28.4022 62.1663 28.3124 61.9819C28.2227 61.7975 27.9485 61.7029 27.6743 61.6082C27.4002 61.5135 27.2631 61.4662 26.9416 61.5086C26.7572 61.5984 26.5728 61.6881 26.3883 61.7779C26.2039 61.8676 25.9722 62.0945 25.9248 62.2315C25.6931 62.4584 25.6458 62.5955 25.5511 62.8696C25.4564 63.1438 25.3618 63.418 25.4515 63.6024C25.3569 63.8766 25.4466 64.061 25.5364 64.2454C25.6261 64.4298 25.7159 64.6142 25.8056 64.7986C25.8954 64.9831 26.1695 65.0777 26.4437 65.1724C26.7179 65.267 26.855 65.3144 27.1765 65.272C27.3609 65.1822 27.5453 65.0924 27.7297 65.0027C27.9141 64.9129 28.0985 64.8232 28.1932 64.549C28.2879 64.2749 28.4723 64.1851 28.567 63.9109C28.6616 63.6368 28.7563 63.3626 28.6665 63.1782C28.7139 63.0411 28.6714 62.7196 28.5817 62.5352ZM27.782 64.407C27.7346 64.5441 27.5502 64.6339 27.5029 64.7709C27.3185 64.8607 27.3185 64.8607 27.134 64.9505C26.997 64.9031 26.8125 64.9929 26.6755 64.9455C26.5384 64.8982 26.4013 64.8509 26.3115 64.6665C26.1745 64.6191 26.0847 64.4347 26.132 64.2976C26.1794 64.1605 26.0896 63.9761 26.1369 63.839C26.1843 63.702 26.2789 63.4278 26.3263 63.2907C26.4209 63.0165 26.4683 62.8795 26.5156 62.7424C26.5629 62.6053 26.7473 62.5155 26.7947 62.3784C26.842 62.2414 26.9791 62.2887 27.1635 62.1989C27.3006 62.2463 27.485 62.1565 27.6221 62.2039C27.7592 62.2512 27.8963 62.2985 27.986 62.4829C28.1231 62.5303 28.2129 62.7147 28.1655 62.8518C28.2553 63.0362 28.2079 63.1733 28.1606 63.3104C28.1133 63.4474 28.0186 63.7216 27.9713 63.8587C27.924 63.9958 27.8766 64.1329 27.782 64.407Z" fill="white"/>
<path d="M29.3274 65.7078L30.3687 62.6919L30.2316 62.6446L30.0945 62.5972L29.9575 62.5499C29.9575 62.5499 29.9575 62.5499 29.8204 62.5026L28.6371 65.9297L30.4192 66.545C30.4665 66.4079 30.4665 66.4079 30.5138 66.2708L30.5612 66.1337L30.6085 65.9967L29.3747 65.5707L29.3274 65.7078Z" fill="white"/>
<path d="M33.1576 63.5014C33.0205 63.4541 32.8835 63.4068 32.7464 63.3594C32.6093 63.3121 32.4722 63.2648 32.3351 63.2174L31.1518 66.6445C31.2889 66.6919 31.426 66.7392 31.5631 66.7865C31.7002 66.8339 31.8373 66.8812 31.9743 66.9285C32.5227 67.1179 33.1183 67.1701 33.4872 66.9906C33.856 66.8111 34.1351 66.4472 34.3717 65.7618C34.5611 65.2134 34.566 64.7548 34.4338 64.2489C34.0699 63.9698 33.706 63.6908 33.1576 63.5014ZM33.5394 66.3949C33.4921 66.532 33.3077 66.6218 33.1233 66.7115C32.9388 66.8013 32.8018 66.7539 32.6173 66.8437C32.4803 66.7964 32.2958 66.8861 32.0217 66.7915C32.0217 66.7915 31.8846 66.7441 31.7475 66.6968L31.6104 66.6495L32.5097 64.0449L32.6468 64.0922C32.7839 64.1395 32.7839 64.1395 32.921 64.1869C33.0581 64.2342 33.1951 64.2815 33.4693 64.3762C33.6064 64.4235 33.6961 64.6079 33.7859 64.7923C33.8757 64.9768 33.9654 65.1612 33.9181 65.2983C33.8707 65.4353 33.9132 65.7568 33.8658 65.8939C33.6814 65.9837 33.5868 66.2578 33.5394 66.3949Z" fill="white"/>
<path d="M35.0849 67.6957L35.5109 66.4619L36.6076 66.8406C36.6076 66.8406 36.6076 66.8406 36.6549 66.7035L36.7023 66.5664C36.7023 66.5664 36.7023 66.5664 36.7496 66.4293L36.7969 66.2923L35.7002 65.9136L36.0316 64.954L37.4024 65.4273C37.4024 65.4273 37.4024 65.4273 37.4497 65.2902L37.4971 65.1532C37.5444 65.0161 37.5444 65.0161 37.5917 64.879L35.6725 64.2164L34.4893 67.6435L36.4084 68.3061L36.4558 68.169L36.5031 68.0319C36.5504 67.8949 36.5504 67.8949 36.5978 67.7578L35.2269 67.2845L35.0849 67.6957Z" fill="white"/>
<path d="M38.8907 67.7823C39.0278 67.8296 39.0752 67.6925 39.2122 67.7399C39.2122 67.7399 39.3967 67.6501 39.5811 67.5604C39.6284 67.4233 39.7655 67.4706 39.8128 67.3335C39.8602 67.1964 39.9075 67.0594 39.9075 67.0594C40.0022 66.7852 40.0495 66.6481 39.9597 66.4637C39.87 66.2793 39.9173 66.1422 39.7802 66.0949C39.6905 65.9104 39.5534 65.8631 39.4163 65.8158C39.2792 65.7684 39.1421 65.7211 38.868 65.6264L38.7309 65.5791L38.5938 65.5318L38.4567 65.4845L38.3196 65.4371L37.1363 68.8642C37.1363 68.8642 37.1363 68.8642 37.2734 68.9116L37.4105 68.9589C37.4105 68.9589 37.4105 68.9589 37.5476 69.0062L37.6847 69.0536L38.7733 65.9006C38.9104 65.9479 38.9104 65.9479 38.9104 65.9479L39.0475 65.9953C39.3216 66.0899 39.4587 66.1373 39.5485 66.3217C39.6382 66.5061 39.728 66.6905 39.6333 66.9647C39.586 67.1018 39.5387 67.2389 39.4016 67.1915C39.3542 67.3286 39.2172 67.2813 39.1698 67.4184C39.0327 67.371 38.9854 67.5081 38.8483 67.4608C38.7112 67.4135 38.7112 67.4135 38.5268 67.5032L39.0555 69.5269C39.1926 69.5742 39.1926 69.5742 39.3297 69.6215C39.4668 69.6689 39.6039 69.7162 39.6039 69.7162L38.8907 67.7823Z" fill="white"/>
<path d="M44.3514 67.5197C44.2143 67.4723 44.0772 67.425 44.0772 67.425L43.1779 70.0296L42.5693 66.9044L42.4322 66.857L42.2951 66.8097L42.158 66.7624L42.0209 66.715L40.8376 70.1422L40.9747 70.1895L41.1118 70.2368L41.2489 70.2841C41.2489 70.2841 41.2489 70.2841 41.386 70.3315L42.2853 67.7269L42.8939 70.8521L43.031 70.8995C43.031 70.8995 43.031 70.8995 43.1681 70.9468C43.1681 70.9468 43.1681 70.9468 43.3052 70.9941L43.4422 71.0415L44.6255 67.6143C44.6255 67.6143 44.4884 67.567 44.3514 67.5197C44.4884 67.567 44.3514 67.5197 44.3514 67.5197Z" fill="white"/>
<path d="M46.6817 68.3244C46.6817 68.3244 46.5446 68.277 46.6817 68.3244C46.5446 68.277 46.4075 68.2297 46.4075 68.2297L46.2705 68.1824L43.9905 71.2308C43.9905 71.2308 43.9905 71.2308 44.1276 71.2782L44.2647 71.3255C44.2647 71.3255 44.2647 71.3255 44.4017 71.3728C44.4017 71.3728 44.4017 71.3728 44.5388 71.4202L45.097 70.6923L46.4678 71.1656L46.458 72.0828C46.458 72.0828 46.458 72.0828 46.5951 72.1301L46.7322 72.1775L46.8693 72.2248L47.0063 72.2721L46.8188 68.3717L46.6817 68.3244ZM45.239 70.2811L46.4026 68.6883L46.3357 70.6597L45.239 70.2811Z" fill="white"/>
<path d="M51.2055 69.8862C51.0684 69.8389 50.9314 69.7916 50.9314 69.7916L50.7943 69.7443L49.0774 71.6063L49.0122 69.1289C49.0122 69.1289 49.0122 69.1289 48.8751 69.0816L48.738 69.0343L48.6009 68.9869L48.4638 68.9396L47.1435 72.3194C47.1435 72.3194 47.1435 72.3194 47.2805 72.3667L47.4176 72.4141L47.5547 72.4614C47.5547 72.4614 47.5547 72.4614 47.6918 72.5087L48.7755 69.8144L48.888 72.1546C49.0251 72.2019 49.0251 72.2019 49.0251 72.2019L49.1622 72.2493L50.6474 70.6141L49.8378 73.4031C49.8378 73.4031 49.8378 73.4031 49.9749 73.4504L50.112 73.4978C50.112 73.4978 50.112 73.4978 50.2491 73.5451L50.3862 73.5924L51.2055 69.8862C51.3426 69.9336 51.3426 69.9336 51.2055 69.8862Z" fill="white"/>
<path d="M52.2352 72.2364L53.3319 72.615C53.3319 72.615 53.3319 72.615 53.3792 72.4779L53.4265 72.3409C53.4265 72.3409 53.4265 72.3409 53.4739 72.2038L53.5212 72.0667L52.4245 71.688L52.7558 70.7284L54.1267 71.2018C54.1267 71.2018 54.1267 71.2018 54.174 71.0647L54.2214 70.9276C54.2687 70.7905 54.2687 70.7905 54.316 70.6534L52.3968 69.9908L51.2135 73.4179L53.1327 74.0805L53.1801 73.9434L53.2274 73.8064C53.2747 73.6693 53.2747 73.6693 53.3221 73.5322L51.9512 73.0589L52.2352 72.2364Z" fill="white"/>
</svg>
